<?xml version="1.0" encoding="UTF-8" standalone="no"?>
<svg width="918px" height="212px" viewBox="0 0 918 212" version="1.1" xmlns="http://www.w3.org/2000/svg" xmlns:xlink="http://www.w3.org/1999/xlink" xmlns:sketch="http://www.bohemiancoding.com/sketch/ns">
    <!-- Generator: Sketch 3.3.3 (12072) - http://www.bohemiancoding.com/sketch -->
    <title>as-logo-v100</title>
    <desc>Created with Sketch.</desc>
    <defs></defs>
    <g id="playground" stroke="none" stroke-width="1" fill="none" fill-rule="evenodd" sketch:type="MSPage">
        <g id="as-logo-v100" sketch:type="MSArtboardGroup" transform="translate(-52.000000, -57.000000)">
            <g sketch:type="MSLayerGroup" transform="translate(52.000000, 57.000000)">
                <g id="as-logo" transform="translate(361.000000, 0.000000)" sketch:type="MSShapeGroup">
                    <path d="M65.56,74.427 L95.952,59.197 L95.952,211.697 L68,194.65 L65.56,74.427 L65.56,74.427 Z" id="Path" fill="#40BBEA"></path>
                    <path d="M61.857,43.428 L0.47,80.35 L0.47,103.71 L62.49,72.64 L61.857,43.428 L61.857,43.428 Z" id="Shape" fill="#34E287"></path>
                    <path d="M64,0.282 L93.258,21.106 L64.775,38.182 L64,0.282 L64,0.282 Z" id="Path" fill="#40BBEA"></path>
                    <path d="M64.834,41.432 L92.794,57.438 L65.464,71.163 L64.834,41.433 L64.834,41.432 Z" id="Path" fill="#72E782"></path>
                    <path d="M95.952,22.966 L67.962,39.774 L95.952,55.874 L95.952,22.966 L95.952,22.966 Z" id="Path" fill="#EF8683"></path>
                    <path d="M98.937,25.16 L162.997,70.555 L162.997,94.46 L98.937,57.59 L98.937,25.16 L98.937,25.16 Z" id="Path" fill="#ED5A50"></path>
                </g>
                <path d="M65.331,174.937 L74.613,196 L84.966,196 L47.719,112.7 L37.842,112.7 L0.476,196 L10.591,196 L19.873,174.937 L65.331,174.937 Z M61.285,165.774 L23.919,165.774 L42.483,123.529 L61.285,165.774 Z M107.576,186.956 L107.576,112.7 L98.056,112.7 L98.056,196 L144.109,196 L144.109,186.956 L107.576,186.956 Z M159.579,112.7 L159.579,196 L169.099,196 L169.099,169.701 L190.876,169.701 C211.463,169.701 223.363,159.11 223.363,140.665 C223.363,122.934 211.463,112.7 190.876,112.7 L159.579,112.7 Z M169.099,121.863 L190.519,121.863 C205.513,121.863 214.2,128.289 214.2,140.903 C214.2,153.874 205.513,160.538 190.519,160.538 L169.099,160.538 L169.099,121.863 Z M308.448,196 L308.448,112.7 L298.928,112.7 L298.928,150.304 L248.71,150.304 L248.71,112.7 L239.19,112.7 L239.19,196 L248.71,196 L248.71,159.348 L298.928,159.348 L298.928,196 L308.448,196 Z M386.393,174.937 L395.675,196 L406.028,196 L368.781,112.7 L358.904,112.7 L321.538,196 L331.653,196 L340.935,174.937 L386.393,174.937 Z M382.347,165.774 L344.981,165.774 L363.545,123.529 L382.347,165.774 Z M509.082,112.343 C491.827,112.343 480.284,120.792 480.284,133.882 C480.284,163.751 527.17,152.089 527.051,173.985 C527.051,181.958 519.554,186.837 507.535,186.837 C498.134,186.837 487.543,182.553 479.808,175.056 L475.524,183.624 C483.378,191.121 495.278,196.357 507.416,196.357 C525.266,196.357 537.523,187.432 537.523,173.509 C537.642,143.283 490.756,154.469 490.756,133.049 C490.756,126.028 497.777,121.982 508.487,121.982 C515.151,121.982 523.957,124.005 531.454,129.003 L535.5,120.078 C528.598,115.437 518.721,112.343 509.082,112.343 L509.082,112.343 Z M609.637,121.863 L609.637,112.7 L545.734,112.7 L545.734,121.863 L572.866,121.863 L572.866,196 L582.386,196 L582.386,121.863 L609.637,121.863 Z M677.943,196 L688.772,196 L669.256,167.678 C681.275,163.751 687.939,154.469 687.939,140.665 C687.939,122.934 675.92,112.7 655.095,112.7 L623.441,112.7 L623.441,196 L632.961,196 L632.961,169.701 L655.095,169.701 C656.999,169.701 658.903,169.582 660.688,169.463 L677.943,196 Z M632.961,160.538 L632.961,121.863 L655.095,121.863 C670.208,121.863 678.776,128.289 678.776,140.903 C678.776,153.874 670.208,160.538 655.095,160.538 L632.961,160.538 Z M766.003,121.863 L766.003,112.7 L709.478,112.7 L709.478,196 L767.55,196 L767.55,186.956 L718.998,186.956 L718.998,158.396 L761.005,158.396 L761.005,149.233 L718.998,149.233 L718.998,121.863 L766.003,121.863 Z M843.472,121.863 L843.472,112.7 L786.947,112.7 L786.947,196 L845.019,196 L845.019,186.956 L796.467,186.956 L796.467,158.396 L838.474,158.396 L838.474,149.233 L796.467,149.233 L796.467,121.863 L843.472,121.863 Z M917.014,121.863 L917.014,112.7 L853.111,112.7 L853.111,121.863 L880.243,121.863 L880.243,196 L889.763,196 L889.763,121.863 L917.014,121.863 Z" id="as-typo" fill="#636363" sketch:type="MSShapeGroup"></path>
            </g>
        </g>
    </g>
</svg>
