<svg width="177" height="57" viewBox="0 0 177 57" xmlns="http://www.w3.org/2000/svg">
  <g fill="none" fill-rule="evenodd">
    <path d="M79.047.055l.298 12.852-15.853 9.457v8.947l16.08-7.973.583 27.678 9.722 5.83V18.97l16.502 9.4v-9.04L79.046.055z" fill="#FFF"/>
    <path d="M88.226 19.05v34.88l-6.462-3.9-.564-27.498 7.026-3.483z" fill="#40BBEA"/>
    <path d="M65.153 23.287v5.343l14.338-7.106-.146-6.682-14.19 8.445z" fill="#34E287"/>
    <path d="M81.728 12.72l6.29 3.58V8.984l-6.29 3.737z" fill="#EF8683"/>
    <path d="M81.027 14.01l6.47 3.636-6.32 3.087-.15-6.724z" fill="#72E782"/>
    <path d="M86.688 7.483l-5.75 3.192-.147-7.353 5.898 4.16z" fill="#40BBEA"/>
    <path d="M104.702 20.187V25.5l-14.394-8.195v-7.27l14.394 10.152z" fill="#ED5A50"/>
    <path d="M12.58 42.007l1.775 3.974h1.982L9.21 30.265H7.32L.17 45.98h1.935l1.776-3.973h8.7zm-.775-1.73h-7.15l3.552-7.97 3.598 7.97zm8.858 3.998v-14.01H18.84V45.98h8.814v-1.705h-6.99zm9.95-14.01V45.98h1.823v-4.96h4.167c3.94 0 6.216-2 6.216-5.48 0-3.345-2.278-5.276-6.217-5.276h-5.99zm1.823 1.728h4.098c2.87 0 4.532 1.212 4.532 3.592 0 2.448-1.662 3.705-4.532 3.705h-4.098v-7.297zM59.1 45.98V30.265h-1.82v7.095h-9.61v-7.096h-1.822V45.98h1.822v-6.914h9.61v6.915h1.82zm14.916-3.973l1.776 3.974h1.98l-7.127-15.716h-1.89l-7.15 15.717h1.936l1.777-3.973h8.7zm-.775-1.73h-7.15l3.554-7.97 3.597 7.97zm25.253-10.08c-3.302 0-5.51 1.594-5.51 4.064 0 5.636 8.97 3.436 8.948 7.567 0 1.505-1.434 2.425-3.733 2.425-1.8 0-3.826-.808-5.306-2.223l-.82 1.616c1.504 1.415 3.78 2.402 6.104 2.402 3.415 0 5.76-1.683 5.76-4.31.024-5.703-8.948-3.593-8.948-7.634 0-1.325 1.343-2.09 3.393-2.09 1.274 0 2.96.383 4.394 1.326l.774-1.684c-1.32-.875-3.21-1.46-5.055-1.46zm19.24 1.796v-1.73h-12.227v1.73h5.192V45.98h1.822V31.994h5.214zm13.072 13.988h2.072l-3.735-5.343c2.3-.74 3.575-2.492 3.575-5.096 0-3.345-2.3-5.276-6.284-5.276h-6.057V45.98h1.82v-4.96h4.237c.364 0 .728-.023 1.07-.046l3.302 5.007zm-8.608-6.69v-7.297h4.236c2.892 0 4.53 1.212 4.53 3.592 0 2.448-1.638 3.705-4.53 3.705h-4.236zm25.458-7.297v-1.73H136.84v15.718h11.11v-1.705h-9.29v-5.39h8.04v-1.728h-8.04v-5.164h8.995zm14.824 0v-1.73h-10.817v15.718h11.112v-1.705h-9.29v-5.39h8.038v-1.728h-8.038v-5.164h8.994zm14.072 0v-1.73h-12.228v1.73h5.19V45.98h1.823V31.994h5.215z" fill="#FFF"/>
  </g>
</svg>
