<?xml version="1.0" encoding="UTF-8" standalone="no"?>
<svg width="251px" height="61px" viewBox="0 0 251 61" version="1.1" xmlns="http://www.w3.org/2000/svg" xmlns:xlink="http://www.w3.org/1999/xlink">
    <!-- Generator: Sketch 39.1 (31720) - http://www.bohemiancoding.com/sketch -->
    <title>Group</title>
    <desc>Created with Sketch.</desc>
    <defs></defs>
    <g id="Page-1" stroke="none" stroke-width="1" fill="none" fill-rule="evenodd">
        <g id="Group">
            <path d="M84.866,29.742 C76.388,29.742 73.411,29.791 65.776,23.819 C57.218,17.125 38.385,1.647 38.385,1.647 L27.298,1.647 L41.739,36.006" id="Fill-8" fill="#13B5EB"></path>
            <path d="M41.74,37.006 C41.349,37.006 40.978,36.776 40.817,36.394 L26.376,2.034 C26.246,1.726 26.28,1.372 26.465,1.093 C26.65,0.815 26.963,0.647 27.298,0.647 L38.385,0.647 C38.616,0.647 38.841,0.727 39.019,0.874 C39.208,1.028 57.941,16.421 66.393,23.031 C73.694,28.743 76.455,28.791 84.662,28.742 L84.866,28.742 C85.418,28.742 85.866,29.19 85.866,29.742 C85.866,30.295 85.418,30.742 84.866,30.742 L84.662,30.742 L84.458,30.742 C76.127,30.742 72.942,30.693 65.16,24.608 C57.255,18.424 40.395,4.591 38.027,2.647 L28.803,2.647 L42.661,35.618 C42.875,36.128 42.636,36.714 42.127,36.928 C42,36.981 41.869,37.006 41.74,37.006" id="Fill-9" fill="#000000"></path>
            <path d="M72.38,29.451 C64.186,29.338 53.577,28.393 38.172,24.297 L44.24,38.734" id="Fill-10" fill="#0D95B5"></path>
            <path d="M249.248,44.619 C249.248,40.758 246.117,38.782 241.283,36.686 C237.066,34.854 232.029,26.615 208.015,26.615 L208.015,26.651 C176.621,26.654 94.221,28.145 66.272,30.945 C45.986,32.978 33.089,35.119 27.526,36.142 L27.526,39.427 C45.067,46.307 119.294,57.254 208.127,57.442 L208.131,57.434 C210.512,57.421 249.248,57.039 249.248,44.619" id="Fill-11" fill="#F1EEF8"></path>
            <path d="M208.127,58.442 L208.125,58.442 C120.821,58.257 45.707,47.632 27.161,40.358 C26.778,40.208 26.526,39.838 26.526,39.427 L26.526,36.142 C26.526,35.659 26.871,35.245 27.346,35.158 C33.232,34.076 46.103,31.961 66.173,29.95 C94.334,27.128 177.914,25.662 207.756,25.651 C207.839,25.628 207.925,25.615 208.015,25.615 C227.326,25.615 234.601,30.875 238.947,34.017 C240.037,34.806 240.898,35.428 241.682,35.769 C246.016,37.649 250.248,39.881 250.248,44.619 C250.248,57.484 215.553,58.387 208.255,58.433 C208.213,58.439 208.17,58.442 208.127,58.442 L208.127,58.442 Z M28.526,38.738 C47.948,45.943 121.968,56.25 208.008,56.442 C208.046,56.437 208.086,56.434 208.125,56.434 C222.003,56.359 248.248,53.795 248.248,44.619 C248.248,41.405 245.66,39.674 240.885,37.603 C239.903,37.176 238.916,36.463 237.775,35.638 C233.644,32.651 226.744,27.661 208.271,27.615 C208.189,27.639 208.103,27.651 208.015,27.651 C178.427,27.654 94.549,29.116 66.372,31.941 C47.26,33.856 34.712,35.862 28.526,36.977 L28.526,38.738 L28.526,38.738 Z" id="Fill-12" fill="#000000"></path>
            <path d="M247.584,42.274 L41.89,42.274 C41.481,42.274 35.308,40.965 33.177,40.125 L245.527,40.125 C245.527,40.125 246.846,40.932 247.584,42.274" id="Fill-13" fill="#EDED45"></path>
            <path d="M52.325,44.342 C84.649,50.365 140.481,56.631 207.499,56.772 L207.503,56.765 C209.857,56.752 248.425,55.927 248.231,44.342 L52.325,44.342" id="Fill-14" fill="#13B5EB"></path>
            <path d="M104.501,51.553 C133.502,54.53 168.712,56.69 207.727,56.772 L207.731,56.765 C209.45,56.756 230.481,56.308 241.624,51.553 L104.501,51.553" id="Fill-15" fill="#0D95B5"></path>
            <path d="M85.761,42.366 C85.761,43.651 84.72,44.693 83.434,44.693 C82.149,44.693 81.108,43.651 81.108,42.366 L81.108,38.789 C81.108,37.503 82.149,36.463 83.434,36.463 C84.72,36.463 85.761,37.503 85.761,38.789 L85.761,42.366" id="Fill-16" fill="#F1EEF8"></path>
            <path d="M83.434,45.693 C81.6,45.693 80.108,44.201 80.108,42.366 L80.108,38.789 C80.108,36.955 81.6,35.463 83.434,35.463 C85.268,35.463 86.761,36.955 86.761,38.789 L86.761,42.366 C86.761,44.201 85.268,45.693 83.434,45.693 L83.434,45.693 Z M83.434,37.463 C82.703,37.463 82.108,38.058 82.108,38.789 L82.108,42.366 C82.108,43.098 82.703,43.693 83.434,43.693 C84.165,43.693 84.761,43.098 84.761,42.366 L84.761,38.789 C84.761,38.058 84.165,37.463 83.434,37.463 L83.434,37.463 Z" id="Fill-17" fill="#000000"></path>
            <path d="M149.379,42.366 C149.379,43.651 148.337,44.693 147.051,44.693 C145.768,44.693 144.726,43.651 144.726,42.366 L144.726,38.789 C144.726,37.503 145.768,36.463 147.051,36.463 C148.337,36.463 149.379,37.503 149.379,38.789 L149.379,42.366" id="Fill-18" fill="#F1EEF8"></path>
            <path d="M147.051,45.693 C145.217,45.693 143.726,44.201 143.726,42.366 L143.726,38.789 C143.726,36.955 145.217,35.463 147.051,35.463 C148.886,35.463 150.379,36.955 150.379,38.789 L150.379,42.366 C150.379,44.201 148.886,45.693 147.051,45.693 L147.051,45.693 Z M147.051,37.463 C146.32,37.463 145.726,38.058 145.726,38.789 L145.726,42.366 C145.726,43.098 146.32,43.693 147.051,43.693 C147.783,43.693 148.379,43.098 148.379,42.366 L148.379,38.789 C148.379,38.058 147.783,37.463 147.051,37.463 L147.051,37.463 Z" id="Fill-19" fill="#000000"></path>
            <path d="M212.996,42.366 C212.996,43.651 211.955,44.693 210.67,44.693 C209.386,44.693 208.344,43.651 208.344,42.366 L208.344,38.789 C208.344,37.503 209.386,36.463 210.67,36.463 C211.955,36.463 212.996,37.503 212.996,38.789 L212.996,42.366" id="Fill-20" fill="#F1EEF8"></path>
            <path d="M210.67,45.693 C208.836,45.693 207.344,44.201 207.344,42.366 L207.344,38.789 C207.344,36.955 208.836,35.463 210.67,35.463 C212.504,35.463 213.996,36.955 213.996,38.789 L213.996,42.366 C213.996,44.201 212.504,45.693 210.67,45.693 L210.67,45.693 Z M210.67,37.463 C209.938,37.463 209.344,38.058 209.344,38.789 L209.344,42.366 C209.344,43.098 209.938,43.693 210.67,43.693 C211.401,43.693 211.996,43.098 211.996,42.366 L211.996,38.789 C211.996,38.058 211.401,37.463 210.67,37.463 L210.67,37.463 Z" id="Fill-21" fill="#000000"></path>
            <path d="M91.277,42.69 C90.725,42.69 90.277,42.242 90.277,41.69 L90.277,39.466 C90.277,38.913 90.725,38.466 91.277,38.466 C91.83,38.466 92.277,38.913 92.277,39.466 L92.277,41.69 C92.277,42.242 91.83,42.69 91.277,42.69" id="Fill-22" fill="#000000"></path>
            <path d="M95.71,42.69 C95.158,42.69 94.71,42.242 94.71,41.69 L94.71,39.466 C94.71,38.913 95.158,38.466 95.71,38.466 C96.263,38.466 96.71,38.913 96.71,39.466 L96.71,41.69 C96.71,42.242 96.263,42.69 95.71,42.69" id="Fill-23" fill="#000000"></path>
            <path d="M100.144,42.69 C99.592,42.69 99.144,42.242 99.144,41.69 L99.144,39.466 C99.144,38.913 99.592,38.466 100.144,38.466 C100.696,38.466 101.144,38.913 101.144,39.466 L101.144,41.69 C101.144,42.242 100.696,42.69 100.144,42.69" id="Fill-24" fill="#000000"></path>
            <path d="M104.577,42.69 C104.025,42.69 103.577,42.242 103.577,41.69 L103.577,39.466 C103.577,38.913 104.025,38.466 104.577,38.466 C105.129,38.466 105.577,38.913 105.577,39.466 L105.577,41.69 C105.577,42.242 105.129,42.69 104.577,42.69" id="Fill-25" fill="#000000"></path>
            <path d="M109.01,42.69 C108.458,42.69 108.01,42.242 108.01,41.69 L108.01,39.466 C108.01,38.913 108.458,38.466 109.01,38.466 C109.562,38.466 110.01,38.913 110.01,39.466 L110.01,41.69 C110.01,42.242 109.562,42.69 109.01,42.69" id="Fill-26" fill="#000000"></path>
            <path d="M113.443,42.69 C112.891,42.69 112.443,42.242 112.443,41.69 L112.443,39.466 C112.443,38.913 112.891,38.466 113.443,38.466 C113.996,38.466 114.443,38.913 114.443,39.466 L114.443,41.69 C114.443,42.242 113.996,42.69 113.443,42.69" id="Fill-27" fill="#000000"></path>
            <path d="M117.877,42.69 C117.325,42.69 116.877,42.242 116.877,41.69 L116.877,39.466 C116.877,38.913 117.325,38.466 117.877,38.466 C118.429,38.466 118.877,38.913 118.877,39.466 L118.877,41.69 C118.877,42.242 118.429,42.69 117.877,42.69" id="Fill-28" fill="#000000"></path>
            <path d="M122.31,42.69 C121.758,42.69 121.31,42.242 121.31,41.69 L121.31,39.466 C121.31,38.913 121.758,38.466 122.31,38.466 C122.862,38.466 123.31,38.913 123.31,39.466 L123.31,41.69 C123.31,42.242 122.862,42.69 122.31,42.69" id="Fill-29" fill="#000000"></path>
            <path d="M126.743,42.69 C126.191,42.69 125.743,42.242 125.743,41.69 L125.743,39.466 C125.743,38.913 126.191,38.466 126.743,38.466 C127.295,38.466 127.743,38.913 127.743,39.466 L127.743,41.69 C127.743,42.242 127.295,42.69 126.743,42.69" id="Fill-30" fill="#000000"></path>
            <path d="M131.176,42.69 C130.624,42.69 130.176,42.242 130.176,41.69 L130.176,39.466 C130.176,38.913 130.624,38.466 131.176,38.466 C131.728,38.466 132.176,38.913 132.176,39.466 L132.176,41.69 C132.176,42.242 131.728,42.69 131.176,42.69" id="Fill-31" fill="#000000"></path>
            <path d="M135.61,42.69 C135.058,42.69 134.61,42.242 134.61,41.69 L134.61,39.466 C134.61,38.913 135.058,38.466 135.61,38.466 C136.162,38.466 136.61,38.913 136.61,39.466 L136.61,41.69 C136.61,42.242 136.162,42.69 135.61,42.69" id="Fill-32" fill="#000000"></path>
            <path d="M140.043,42.69 C139.491,42.69 139.043,42.242 139.043,41.69 L139.043,39.466 C139.043,38.913 139.491,38.466 140.043,38.466 C140.595,38.466 141.043,38.913 141.043,39.466 L141.043,41.69 C141.043,42.242 140.595,42.69 140.043,42.69" id="Fill-33" fill="#000000"></path>
            <path d="M152.91,42.69 C152.358,42.69 151.91,42.242 151.91,41.69 L151.91,39.466 C151.91,38.913 152.358,38.466 152.91,38.466 C153.462,38.466 153.91,38.913 153.91,39.466 L153.91,41.69 C153.91,42.242 153.462,42.69 152.91,42.69" id="Fill-34" fill="#000000"></path>
            <path d="M157.531,42.69 C156.979,42.69 156.531,42.242 156.531,41.69 L156.531,39.466 C156.531,38.913 156.979,38.466 157.531,38.466 C158.083,38.466 158.531,38.913 158.531,39.466 L158.531,41.69 C158.531,42.242 158.083,42.69 157.531,42.69" id="Fill-35" fill="#000000"></path>
            <path d="M162.152,42.69 C161.6,42.69 161.152,42.242 161.152,41.69 L161.152,39.466 C161.152,38.913 161.6,38.466 162.152,38.466 C162.705,38.466 163.152,38.913 163.152,39.466 L163.152,41.69 C163.152,42.242 162.705,42.69 162.152,42.69" id="Fill-36" fill="#000000"></path>
            <path d="M166.773,42.69 C166.221,42.69 165.773,42.242 165.773,41.69 L165.773,39.466 C165.773,38.913 166.221,38.466 166.773,38.466 C167.325,38.466 167.773,38.913 167.773,39.466 L167.773,41.69 C167.773,42.242 167.325,42.69 166.773,42.69" id="Fill-37" fill="#000000"></path>
            <path d="M171.394,42.69 C170.842,42.69 170.394,42.242 170.394,41.69 L170.394,39.466 C170.394,38.913 170.842,38.466 171.394,38.466 C171.946,38.466 172.394,38.913 172.394,39.466 L172.394,41.69 C172.394,42.242 171.946,42.69 171.394,42.69" id="Fill-38" fill="#000000"></path>
            <path d="M176.015,42.69 C175.463,42.69 175.015,42.242 175.015,41.69 L175.015,39.466 C175.015,38.913 175.463,38.466 176.015,38.466 C176.567,38.466 177.015,38.913 177.015,39.466 L177.015,41.69 C177.015,42.242 176.567,42.69 176.015,42.69" id="Fill-39" fill="#000000"></path>
            <path d="M180.636,42.69 C180.084,42.69 179.636,42.242 179.636,41.69 L179.636,39.466 C179.636,38.913 180.084,38.466 180.636,38.466 C181.188,38.466 181.636,38.913 181.636,39.466 L181.636,41.69 C181.636,42.242 181.188,42.69 180.636,42.69" id="Fill-40" fill="#000000"></path>
            <path d="M185.257,42.69 C184.705,42.69 184.257,42.242 184.257,41.69 L184.257,39.466 C184.257,38.913 184.705,38.466 185.257,38.466 C185.81,38.466 186.257,38.913 186.257,39.466 L186.257,41.69 C186.257,42.242 185.81,42.69 185.257,42.69" id="Fill-41" fill="#000000"></path>
            <path d="M189.878,42.69 C189.326,42.69 188.878,42.242 188.878,41.69 L188.878,39.466 C188.878,38.913 189.326,38.466 189.878,38.466 C190.431,38.466 190.878,38.913 190.878,39.466 L190.878,41.69 C190.878,42.242 190.431,42.69 189.878,42.69" id="Fill-42" fill="#000000"></path>
            <path d="M194.499,42.69 C193.947,42.69 193.499,42.242 193.499,41.69 L193.499,39.466 C193.499,38.913 193.947,38.466 194.499,38.466 C195.051,38.466 195.499,38.913 195.499,39.466 L195.499,41.69 C195.499,42.242 195.051,42.69 194.499,42.69" id="Fill-43" fill="#000000"></path>
            <path d="M199.12,42.69 C198.568,42.69 198.12,42.242 198.12,41.69 L198.12,39.466 C198.12,38.913 198.568,38.466 199.12,38.466 C199.672,38.466 200.12,38.913 200.12,39.466 L200.12,41.69 C200.12,42.242 199.672,42.69 199.12,42.69" id="Fill-44" fill="#000000"></path>
            <path d="M203.741,42.69 C203.189,42.69 202.741,42.242 202.741,41.69 L202.741,39.466 C202.741,38.913 203.189,38.466 203.741,38.466 C204.293,38.466 204.741,38.913 204.741,39.466 L204.741,41.69 C204.741,42.242 204.293,42.69 203.741,42.69" id="Fill-45" fill="#000000"></path>
            <path d="M136.43,54.9 C136.43,56.281 139.848,57.503 145.093,58.252 L145.093,51.549 C139.848,52.297 136.43,53.519 136.43,54.9" id="Fill-46" fill="#DADADA"></path>
            <path d="M145.093,59.252 C145.046,59.252 144.999,59.249 144.951,59.242 C135.43,57.882 135.43,55.637 135.43,54.9 C135.43,54.162 135.43,51.917 144.952,50.559 C145.237,50.517 145.529,50.604 145.748,50.793 C145.967,50.984 146.093,51.259 146.093,51.549 L146.093,58.252 C146.093,58.542 145.967,58.818 145.748,59.008 C145.565,59.166 145.332,59.252 145.093,59.252 L145.093,59.252 Z M144.093,52.714 C139.056,53.545 137.549,54.61 137.424,54.941 C137.548,55.194 139.055,56.255 144.093,57.087 L144.093,52.714 L144.093,52.714 Z" id="Fill-47" fill="#000000"></path>
            <path d="M157.592,49.889 C153.015,49.975 148.796,50.305 145.256,50.811 L145.256,58.988 C148.796,59.494 153.015,59.824 157.592,59.91 L157.592,49.889" id="Fill-48" fill="#F1EEF8"></path>
            <path d="M157.592,60.91 L157.573,60.91 C153.101,60.826 148.792,60.504 145.114,59.979 C144.622,59.908 144.256,59.486 144.256,58.988 L144.256,50.811 C144.256,50.313 144.622,49.891 145.114,49.82 C148.792,49.295 153.101,48.973 157.573,48.889 C157.83,48.898 158.101,48.986 158.292,49.175 C158.484,49.363 158.592,49.62 158.592,49.889 L158.592,59.91 C158.592,60.179 158.484,60.436 158.292,60.624 C158.105,60.808 157.853,60.91 157.592,60.91 L157.592,60.91 Z M146.256,58.115 C149.373,58.524 152.91,58.787 156.592,58.887 L156.592,50.912 C152.91,51.012 149.373,51.276 146.256,51.684 L146.256,58.115 L146.256,58.115 Z" id="Fill-49" fill="#000000"></path>
            <path d="M104.372,47.1 C104.372,48.187 105.254,49.068 106.34,49.068 L175.417,49.068 C176.503,49.068 177.385,48.187 177.385,47.1 C177.385,46.012 176.503,45.131 175.417,45.131 L106.34,45.131 C105.254,45.131 104.372,46.012 104.372,47.1" id="Fill-50" fill="#DADADA"></path>
            <path d="M175.417,50.068 L106.34,50.068 C104.704,50.068 103.372,48.736 103.372,47.1 C103.372,45.463 104.704,44.131 106.34,44.131 L175.417,44.131 C177.053,44.131 178.385,45.463 178.385,47.1 C178.385,48.736 177.053,50.068 175.417,50.068 L175.417,50.068 Z M106.34,46.131 C105.806,46.131 105.372,46.566 105.372,47.1 C105.372,47.634 105.806,48.068 106.34,48.068 L175.417,48.068 C175.951,48.068 176.385,47.634 176.385,47.1 C176.385,46.566 175.951,46.131 175.417,46.131 L106.34,46.131 L106.34,46.131 Z" id="Fill-51" fill="#000000"></path>
            <path d="M98.645,47.1 C98.645,48.187 99.527,49.068 100.613,49.068 L122.446,49.068 C123.532,49.068 124.414,48.187 124.414,47.1 C124.414,46.012 123.532,45.131 122.446,45.131 L100.613,45.131 C99.527,45.131 98.645,46.012 98.645,47.1" id="Fill-52" fill="#DADADA"></path>
            <path d="M122.446,50.068 L100.613,50.068 C98.976,50.068 97.645,48.736 97.645,47.1 C97.645,45.463 98.976,44.131 100.613,44.131 L122.446,44.131 C124.082,44.131 125.414,45.463 125.414,47.1 C125.414,48.736 124.082,50.068 122.446,50.068 L122.446,50.068 Z M100.613,46.131 C100.079,46.131 99.645,46.566 99.645,47.1 C99.645,47.634 100.079,48.068 100.613,48.068 L122.446,48.068 C122.98,48.068 123.414,47.634 123.414,47.1 C123.414,46.566 122.98,46.131 122.446,46.131 L100.613,46.131 L100.613,46.131 Z" id="Fill-53" fill="#000000"></path>
            <path d="M45.632,39.312 C45.632,40.399 46.514,41.279 47.6,41.279 L69.433,41.279 C70.519,41.279 71.4,40.399 71.4,39.312 C71.4,38.223 70.519,37.342 69.433,37.342 L47.6,37.342 C46.514,37.342 45.632,38.223 45.632,39.312" id="Fill-54" fill="#DADADA"></path>
            <path d="M69.433,42.279 L47.6,42.279 C45.963,42.279 44.632,40.948 44.632,39.312 C44.632,37.674 45.963,36.342 47.6,36.342 L69.433,36.342 C71.069,36.342 72.4,37.674 72.4,39.312 C72.4,40.948 71.069,42.279 69.433,42.279 L69.433,42.279 Z M47.6,38.342 C47.066,38.342 46.632,38.776 46.632,39.312 C46.632,39.845 47.066,40.279 47.6,40.279 L69.433,40.279 C69.966,40.279 70.4,39.845 70.4,39.312 C70.4,38.776 69.966,38.342 69.433,38.342 L47.6,38.342 L47.6,38.342 Z" id="Fill-55" fill="#000000"></path>
            <path d="M235.421,37.378 L235.41,37.378 L233.068,37.353 C232.632,37.348 232.248,37.061 232.122,36.643 L231.504,34.603 C231.38,34.194 231.529,33.754 231.873,33.503 C232.218,33.252 232.684,33.248 233.033,33.492 L235.993,35.558 C236.353,35.809 236.507,36.266 236.373,36.683 C236.24,37.098 235.855,37.378 235.421,37.378" id="Fill-56" fill="#000000"></path>
            <path d="M112.541,54.9 C112.541,56.281 115.959,57.503 121.203,58.252 L121.203,51.549 C115.959,52.297 112.541,53.519 112.541,54.9" id="Fill-57" fill="#DADADA"></path>
            <path d="M121.203,59.252 C121.156,59.252 121.109,59.249 121.061,59.242 C111.541,57.882 111.541,55.637 111.541,54.9 C111.541,54.162 111.541,51.917 121.062,50.559 C121.348,50.517 121.64,50.604 121.858,50.793 C122.077,50.984 122.203,51.259 122.203,51.549 L122.203,58.252 C122.203,58.542 122.077,58.818 121.858,59.008 C121.675,59.166 121.442,59.252 121.203,59.252 L121.203,59.252 Z M120.203,52.714 C115.166,53.545 113.66,54.61 113.535,54.941 C113.66,55.194 115.165,56.255 120.203,57.087 L120.203,52.714 L120.203,52.714 Z" id="Fill-58" fill="#000000"></path>
            <path d="M133.702,49.889 C129.125,49.975 124.907,50.305 121.367,50.811 L121.367,58.988 C124.907,59.494 129.125,59.824 133.702,59.91 L133.702,49.889" id="Fill-59" fill="#F1EEF8"></path>
            <path d="M133.702,60.91 L133.684,60.91 C129.211,60.826 124.904,60.504 121.226,59.979 C120.733,59.908 120.367,59.486 120.367,58.988 L120.367,50.811 C120.367,50.313 120.733,49.891 121.226,49.82 C124.904,49.295 129.211,48.973 133.684,48.889 C133.931,48.898 134.211,48.986 134.403,49.175 C134.594,49.363 134.702,49.62 134.702,49.889 L134.702,59.91 C134.702,60.179 134.594,60.436 134.403,60.624 C134.215,60.808 133.964,60.91 133.702,60.91 L133.702,60.91 Z M122.367,58.115 C125.484,58.524 129.02,58.787 132.702,58.887 L132.702,50.912 C129.02,51.012 125.484,51.276 122.367,51.684 L122.367,58.115 L122.367,58.115 Z" id="Fill-60" fill="#000000"></path>
            <path d="M30.813,7.24 L32.397,11.007 C38.432,14.336 46.863,16.756 56.518,17.742 C54.366,16.036 51.734,13.919 49.111,11.789 C42.172,10.953 35.923,9.367 30.813,7.24" id="Fill-61" fill="#F1EEF8"></path>
            <path d="M33.498,13.631 L33.91,14.615 C41.957,19.16 50.016,22.449 63.106,23.081 C61.731,21.99 60.926,21.403 59.768,20.437 C50.865,20.392 41.246,17.842 33.498,13.631" id="Fill-62" fill="#F1EEF8"></path>
            <path d="M24.44,8.546 L19.56,8.546 C19.007,8.546 18.56,8.099 18.56,7.546 C18.56,6.993 19.007,6.546 19.56,6.546 L24.44,6.546 C24.993,6.546 25.44,6.993 25.44,7.546 C25.44,8.099 24.993,8.546 24.44,8.546" id="Fill-63" fill="#000000"></path>
            <path d="M29.321,25.222 L9.799,25.222 C9.247,25.222 8.799,24.775 8.799,24.222 C8.799,23.669 9.247,23.222 9.799,23.222 L29.321,23.222 C29.873,23.222 30.321,23.669 30.321,24.222 C30.321,24.775 29.873,25.222 29.321,25.222" id="Fill-64" fill="#000000"></path>
            <path d="M20.78,37.424 L16.713,37.424 C16.161,37.424 15.713,36.977 15.713,36.424 C15.713,35.871 16.161,35.424 16.713,35.424 L20.78,35.424 C21.332,35.424 21.78,35.871 21.78,36.424 C21.78,36.977 21.332,37.424 20.78,37.424" id="Fill-65" fill="#000000"></path>
            <path d="M35.829,48.813 L21.594,48.813 C21.041,48.813 20.594,48.365 20.594,47.813 C20.594,47.26 21.041,46.813 21.594,46.813 L35.829,46.813 C36.381,46.813 36.829,47.26 36.829,47.813 C36.829,48.365 36.381,48.813 35.829,48.813" id="Fill-66" fill="#000000"></path>
            <path d="M15.33,19.94 L1.752,19.94 C1.2,19.94 0.752,19.492 0.752,18.94 C0.752,18.387 1.2,17.94 1.752,17.94 L15.33,17.94 C15.882,17.94 16.33,18.387 16.33,18.94 C16.33,19.492 15.882,19.94 15.33,19.94" id="Fill-67" fill="#000000"></path>
            <path d="M15.902,48.741 L12.173,48.741 C11.621,48.741 11.173,48.294 11.173,47.741 C11.173,47.189 11.621,46.741 12.173,46.741 L15.902,46.741 C16.455,46.741 16.902,47.189 16.902,47.741 C16.902,48.294 16.455,48.741 15.902,48.741" id="Fill-68" fill="#000000"></path>
        </g>
    </g>
</svg>