<?xml version="1.0" encoding="UTF-8" standalone="no"?>
<svg width="107px" height="109px" viewBox="0 0 107 109" version="1.1" xmlns="http://www.w3.org/2000/svg" xmlns:xlink="http://www.w3.org/1999/xlink">
    <!-- Generator: Sketch 39.1 (31720) - http://www.bohemiancoding.com/sketch -->
    <title>Group</title>
    <desc>Created with Sketch.</desc>
    <defs></defs>
    <g id="Home-Page" stroke="none" stroke-width="1" fill="none" fill-rule="evenodd">
        <g id="Homepage" transform="translate(-1195.000000, -2885.000000)">
            <g id="MAIN-CONTENT" transform="translate(-10.000000, 196.000000)">
                <g id="5" transform="translate(98.000000, 2684.000000)">
                    <g id="Benefit-4-Copy-2" transform="translate(1059.500000, 7.000000)">
                        <g id="Group" transform="translate(48.000000, 0.000000)">
                            <circle id="Oval" fill="#F27553" cx="51.019" cy="54.399" r="50.236"></circle>
                            <circle id="Oval" fill="#FFFFFF" cx="51.019" cy="54.398" r="30.095"></circle>
                            <circle id="Oval" fill="#F27553" cx="51.019" cy="54.399" r="9.26"></circle>
                            <g transform="translate(1.000000, 4.000000)" id="Shape">
                                <path d="M50.394,80.354 C33.773,80.354 20.3,66.88 20.3,50.258 C20.3,33.637 33.773,20.163 50.394,20.163 L50.395,20.163 L50.395,0.021 C22.651,0.021 0.159,22.513 0.159,50.257 C0.159,78.003 22.651,100.493 50.395,100.493 L50.394,80.354 L50.394,80.354 Z" fill="#F48A71"></path>
                                <path d="M20.3,50.258 C20.3,66.88 33.773,80.354 50.394,80.354 L50.395,80.354 L50.395,59.519 L50.394,59.519 C45.281,59.519 41.134,55.373 41.134,50.259 C41.134,45.144 45.28,40.998 50.394,40.998 L50.395,40.998 L50.395,20.163 L50.394,20.163 C33.772,20.163 20.3,33.637 20.3,50.258 L20.3,50.258 Z" fill="#FFFFFF"></path>
                                <path d="M50.394,40.998 C45.281,40.998 41.134,45.144 41.134,50.259 C41.134,55.373 45.28,59.519 50.394,59.519 L50.395,59.519 L50.394,40.998 L50.394,40.998 Z" fill="#F48A71"></path>
                            </g>
                            <path d="M80.485,95.039 L91.368,105.921" id="Shape" stroke="#212022" stroke-width="2"></path>
                            <path d="M21.109,95.039 L10.228,105.921" id="Shape" stroke="#212022" stroke-width="2"></path>
                            <g transform="translate(51.000000, 0.000000)" id="Shape" stroke-width="2" stroke="#212022">
                                <polyline fill="#F5C31F" points="47.163 6.212 43.981 0.202 34.612 9.571 37.794 15.582"></polyline>
                                <polyline fill="#E2AD17" points="47.851 7.025 53.861 10.207 44.492 19.576 38.481 16.395"></polyline>
                                <path d="M0.143,54.344 L49.286,5.199"></path>
                            </g>
                            <circle id="Oval" stroke="#212022" stroke-width="2" cx="51.019" cy="54.399" r="50.236"></circle>
                            <circle id="Oval" stroke="#212022" stroke-width="2" cx="51.019" cy="54.398" r="30.095"></circle>
                            <circle id="Oval" stroke="#212022" stroke-width="2" cx="51.019" cy="54.399" r="9.26"></circle>
                        </g>
                    </g>
                </g>
            </g>
        </g>
    </g>
</svg>