<?xml version="1.0" encoding="UTF-8" standalone="no"?>
<svg width="85px" height="120px" viewBox="0 0 85 120" version="1.1" xmlns="http://www.w3.org/2000/svg" xmlns:xlink="http://www.w3.org/1999/xlink">
    <!-- Generator: Sketch 39.1 (31720) - http://www.bohemiancoding.com/sketch -->
    <title>Group</title>
    <desc>Created with Sketch.</desc>
    <defs></defs>
    <g id="Home-Page" stroke="none" stroke-width="1" fill="none" fill-rule="evenodd">
        <g id="Homepage" transform="translate(-410.000000, -2880.000000)">
            <g id="MAIN-CONTENT" transform="translate(-10.000000, 196.000000)">
                <g id="5" transform="translate(98.000000, 2684.000000)">
                    <g id="Benefit-2" transform="translate(264.000000, 0.000000)">
                        <g id="Group" transform="translate(58.000000, 0.000000)">
                            <path d="M47.648,114.399 C47.648,117.319 45.282,119.686 42.364,119.686 L42.364,119.686 C39.447,119.686 37.081,117.319 37.081,114.399 L37.081,107.854 C37.081,104.936 39.447,102.571 42.364,102.571 L42.364,102.571 C45.282,102.571 47.648,104.936 47.648,107.854 L47.648,114.399 L47.648,114.399 Z" id="Shape" fill="#212022"></path>
                            <path d="M25.281,84.417 L25.281,98.872 C25.281,108.306 32.929,115.956 42.364,115.956 C51.799,115.956 59.447,108.306 59.447,98.872 L59.447,84.417 L25.281,84.417 L25.281,84.417 Z" id="Shape" fill="#434046"></path>
                            <g id="Shape">
                                <path d="M59.447,80.095 C73.935,73.57 84.026,59.019 84.026,42.097 C84.026,19.091 65.374,0.437 42.365,0.437 C19.355,0.437 0.702,19.091 0.702,42.097 C0.702,59.019 10.794,73.57 25.28,80.095 L25.28,84.417 L59.447,84.417 L59.447,80.095 L59.447,80.095 Z" fill="#F5C31F"></path>
                                <g>
                                    <path d="M25.282,84.417 L25.282,98.872 C25.282,108.306 32.93,115.956 42.365,115.956 L42.365,84.417 L25.282,84.417 L25.282,84.417 Z" fill="#737175"></path>
                                    <path d="M42.365,0.437 C19.355,0.437 0.702,19.091 0.702,42.097 C0.702,59.019 10.794,73.57 25.282,80.095 L25.282,84.417 L42.365,84.417 L42.365,0.437 L42.365,0.437 Z" fill="#F7D258"></path>
                                </g>
                                <path d="M42.365,2.437 C64.234,2.437 82.026,20.228 82.026,42.097 C82.026,57.67 72.841,71.869 58.626,78.272 C57.909,78.594 57.447,79.308 57.447,80.095 L57.447,98.872 C57.447,107.189 50.681,113.956 42.364,113.956 C34.047,113.956 27.28,107.189 27.28,98.872 L27.28,80.095 C27.28,79.308 26.819,78.595 26.101,78.272 C11.887,71.869 2.702,57.669 2.702,42.097 C2.702,20.228 20.495,2.437 42.365,2.437 L42.365,2.437 Z M42.365,0.437 C19.355,0.437 0.702,19.091 0.702,42.097 C0.702,59.019 10.794,73.57 25.28,80.095 L25.28,98.872 C25.28,108.306 32.929,115.956 42.364,115.956 C51.798,115.956 59.447,108.306 59.447,98.872 L59.447,80.095 C73.935,73.57 84.026,59.019 84.026,42.097 C84.026,19.091 65.374,0.437 42.365,0.437 L42.365,0.437 L42.365,0.437 Z" fill="#212022"></path>
                            </g>
                            <path d="M37.035,83.448 L37.035,53.384 C37.035,49.579 33.949,46.493 30.142,46.493 C26.337,46.493 23.252,49.579 23.252,53.384 C23.252,57.191 26.337,60.275 30.142,60.275 L54.584,60.275 C58.39,60.275 61.476,57.191 61.476,53.384 C61.476,49.579 58.39,46.493 54.584,46.493 C50.777,46.493 47.692,49.579 47.692,53.384 L47.692,83.448" id="Shape" stroke="#212022" stroke-width="2"></path>
                            <path d="M24.437,84.505 L60.292,84.505" id="Shape" stroke="#212022" stroke-width="3"></path>
                            <path d="M24.437,90.671 L60.292,90.671" id="Shape" stroke="#212022" stroke-width="3"></path>
                            <path d="M24.437,96.839 L60.292,96.839" id="Shape" stroke="#212022" stroke-width="3"></path>
                        </g>
                    </g>
                </g>
            </g>
        </g>
    </g>
</svg>