<?xml version="1.0" encoding="UTF-8" standalone="no"?>
<svg width="177px" height="152px" viewBox="0 0 177 152" version="1.1" xmlns="http://www.w3.org/2000/svg" xmlns:xlink="http://www.w3.org/1999/xlink">
    <!-- Generator: Sketch 39.1 (31720) - http://www.bohemiancoding.com/sketch -->
    <title>engagement</title>
    <desc>Created with Sketch.</desc>
    <defs></defs>
    <g id="BrandCaptcha" stroke="none" stroke-width="1" fill="none" fill-rule="evenodd">
        <g id="Advertisers" transform="translate(-1071.000000, -1999.000000)">
            <g id="Beneficios" transform="translate(0.000000, 1792.000000)">
                <g id="Items" transform="translate(240.000000, 209.000000)">
                    <g id="3" transform="translate(720.000000, 0.000000)">
                        <g id="engagement" transform="translate(112.000000, 0.000000)">
                            <path d="M69.943,62.7943949 C69.943,65.7947006 72.455,68.2276688 75.555,68.2276688 C78.653,68.2276688 81.166,65.7947006 81.166,62.7943949 L81.166,58.7388025 C81.166,55.7384968 78.653,53.3064968 75.555,53.3064968 C72.455,53.3064968 69.943,55.7384968 69.943,58.7388025 L69.943,62.7943949 L69.943,62.7943949 Z" id="Fill-1" fill="#F7CE93"></path>
                            <path d="M69.943,62.7943949 C69.943,65.7947006 72.455,68.2276688 75.555,68.2276688 C78.653,68.2276688 81.166,65.7947006 81.166,62.7943949 L81.166,58.7388025 C81.166,55.7384968 78.653,53.3064968 75.555,53.3064968 C72.455,53.3064968 69.943,55.7384968 69.943,58.7388025 L69.943,62.7943949 L69.943,62.7943949 Z" id="Stroke-2" stroke="#000000" stroke-width="2.5"></path>
                            <path d="M0.635,62.7943949 C0.635,65.7947006 3.146,68.2276688 6.246,68.2276688 C9.345,68.2276688 11.856,65.7947006 11.856,62.7943949 L11.856,58.7388025 C11.856,55.7384968 9.345,53.3064968 6.246,53.3064968 C3.146,53.3064968 0.635,55.7384968 0.635,58.7388025 L0.635,62.7943949 L0.635,62.7943949 Z" id="Fill-3" fill="#F7CE93"></path>
                            <path d="M0.635,62.7943949 C0.635,65.7947006 3.146,68.2276688 6.246,68.2276688 C9.345,68.2276688 11.856,65.7947006 11.856,62.7943949 L11.856,58.7388025 C11.856,55.7384968 9.345,53.3064968 6.246,53.3064968 C3.146,53.3064968 0.635,55.7384968 0.635,58.7388025 L0.635,62.7943949 L0.635,62.7943949 Z" id="Stroke-4" stroke="#000000" stroke-width="2.5"></path>
                            <path d="M4.507,148.698599 L74.97,148.698599 L74.97,145.515312 C74.97,130.725809 62.587,118.739108 47.311,118.739108 L32.341,118.739108 C17.066,118.739108 4.684,130.725809 4.684,145.515312 L4.684,145.314904 L4.477,145.314904 C4.477,145.43786 4.477,145.564688 4.479,145.688611 C4.5,150.470318 4.518,144.535541 4.507,148.698599" id="Fill-5" fill="#F27553"></path>
                            <path d="M74.97,148.698599 L74.97,145.515312 C74.97,130.725809 62.587,118.739108 47.311,118.739108 L32.341,118.739108 C17.066,118.739108 4.684,130.725809 4.684,145.515312 C4.684,145.515312 4.646,140.768459 4.546,148.698599 L74.97,148.698599 L74.97,148.698599 Z" id="Stroke-6" stroke="#000000" stroke-width="2.5" stroke-linecap="round" stroke-linejoin="round"></path>
                            <path d="M48.749,118.855287 C48.749,123.28749 45.037,126.880306 40.459,126.880306 C35.881,126.880306 32.17,123.28749 32.17,118.855287 L32.17,84.5294268 C32.17,80.0981911 35.881,76.5053758 40.459,76.5053758 C45.037,76.5053758 48.749,80.0981911 48.749,84.5294268 L48.749,118.855287 L48.749,118.855287 Z" id="Fill-7" fill="#F7CE93"></path>
                            <path d="M48.749,118.855287 C48.749,123.28749 45.037,126.880306 40.459,126.880306 C35.881,126.880306 32.17,123.28749 32.17,118.855287 L32.17,84.5294268 C32.17,80.0981911 35.881,76.5053758 40.459,76.5053758 C45.037,76.5053758 48.749,80.0981911 48.749,84.5294268 L48.749,118.855287 L48.749,118.855287 Z" id="Stroke-8" stroke="#000000" stroke-width="2.5"></path>
                            <path d="M74.981,78.3313121 C74.981,96.4580382 59.804,111.153631 41.08,111.153631 L39.574,111.153631 C20.851,111.153631 5.674,96.4580382 5.674,78.3313121 L5.674,48.4279745 C5.674,30.3012484 20.851,15.6066242 39.574,15.6066242 L41.08,15.6066242 C59.804,15.6066242 74.981,30.3012484 74.981,48.4279745 L74.981,78.3313121" id="Fill-9" fill="#F7CE93"></path>
                            <path d="M40.146,15.6066242 C21.424,15.6066242 6.246,30.3012484 6.246,48.4279745 L6.246,78.3322803 C6.246,96.4580382 21.424,111.153631 40.146,111.153631 L40.9,111.153631 L40.9,15.6066242 L40.146,15.6066242" id="Fill-10" fill="#FFDFB1"></path>
                            <path d="M75.172,43.4923312 C74.125,36.7733503 70.971,30.729172 66.389,25.9949045 L66.389,44.7528662 C66.389,48.126879 68.132,51.1049172 70.792,52.8950318 L70.792,71.1882803 L70.789,71.1882803 L70.789,75.6882548 C70.789,77.9266242 70.445,80.0875414 69.815,82.1264713 C66.05,75.6030573 58.85,71.1882803 50.581,71.1882803 L31.22,71.1882803 C22.951,71.1882803 15.751,75.6030573 11.985,82.1264713 C11.354,80.0875414 11.012,77.9266242 11.012,75.6882548 L11.012,71.1882803 L11.008,71.1882803 L11.008,52.8950318 C13.669,51.1049172 15.412,48.126879 15.412,44.7528662 L15.412,25.9949045 C10.829,30.729172 7.675,36.7733503 6.629,43.4923312 C6.378,45.1023694 6.246,46.7501656 6.246,48.4279745 L6.246,78.3322803 C6.246,78.8657325 6.262,79.3962803 6.287,79.9239236 C6.29,79.9703949 6.291,80.0158981 6.294,80.0623694 C6.319,80.5483822 6.359,81.0314904 6.407,81.5116943 C6.416,81.6036688 6.424,81.6956433 6.434,81.7876178 C6.481,82.2242548 6.54,82.6579873 6.605,83.0907516 C6.626,83.2291975 6.646,83.3666752 6.669,83.505121 C6.732,83.891414 6.805,84.2757707 6.882,84.6572229 C6.919,84.8431083 6.957,85.0280255 6.998,85.2129427 C7.072,85.5479236 7.152,85.8819363 7.236,86.2140127 C7.296,86.4444331 7.357,86.6738854 7.422,86.9033376 C7.474,87.0901911 7.529,87.2751083 7.585,87.4600255 C7.697,87.8327643 7.813,88.2025987 7.937,88.5704968 C7.956,88.6247134 7.976,88.6779618 7.994,88.7321783 C8.165,89.2259363 8.347,89.7158217 8.54,90.1989299 C8.542,90.2047389 8.544,90.2095796 8.547,90.2144204 C8.736,90.686879 8.94,91.1515924 9.152,91.6134013 C9.174,91.6627771 9.193,91.713121 9.217,91.7615287 C9.283,91.9077197 9.355,92.0490701 9.425,92.194293 C9.488,92.3240255 9.55,92.4556943 9.614,92.5863949 C9.746,92.8487643 9.883,93.1101656 10.02,93.3686624 C10.07,93.4616051 10.118,93.5564841 10.168,93.6474904 C10.336,93.9543949 10.51,94.2583949 10.687,94.5594904 C10.762,94.6882548 10.84,94.8131465 10.917,94.9390064 C11.037,95.1384459 11.159,95.3369172 11.283,95.5324841 C11.371,95.6680255 11.459,95.8035669 11.548,95.9381401 C11.671,96.1249936 11.796,96.3099108 11.923,96.494828 C12.012,96.6264968 12.102,96.7562293 12.194,96.8849936 C12.334,97.0815287 12.477,97.2770955 12.621,97.4707261 C12.702,97.5801274 12.782,97.691465 12.865,97.8008662 C13.094,98.1000255 13.326,98.3962803 13.565,98.6886624 C13.577,98.7031847 13.589,98.7186752 13.602,98.7331975 C13.843,99.0284841 14.09,99.3189299 14.342,99.6055032 C14.35,99.6151847 14.358,99.6229299 14.366,99.6316433 C15.103,100.467159 15.884,101.266854 16.703,102.026854 C16.772,102.09172 16.843,102.157554 16.914,102.221452 C17.162,102.447032 17.412,102.670675 17.666,102.88851 C17.726,102.939822 17.786,102.990166 17.846,103.04051 C18.328,103.44907 18.822,103.843108 19.327,104.223592 C19.417,104.292331 19.504,104.36107 19.594,104.426904 C19.828,104.601172 20.067,104.770599 20.308,104.938089 C20.452,105.039745 20.599,105.140433 20.745,105.240153 C20.976,105.395057 21.206,105.55093 21.44,105.701962 C21.621,105.817172 21.804,105.92851 21.986,106.039847 C22.345,106.261554 22.707,106.475516 23.074,106.682701 C23.287,106.802752 23.498,106.922803 23.713,107.038981 C23.922,107.151287 24.131,107.25972 24.343,107.367185 C24.573,107.486268 24.807,107.60051 25.041,107.713783 C25.234,107.806726 25.428,107.902573 25.623,107.992611 C26.024,108.176561 26.43,108.355669 26.84,108.525096 C27,108.59093 27.163,108.652892 27.324,108.71679 C27.621,108.833936 27.92,108.949146 28.222,109.059516 C28.402,109.12535 28.585,109.18828 28.767,109.252178 C29.089,109.362548 29.413,109.468076 29.739,109.570701 C29.883,109.615236 30.025,109.663643 30.17,109.706242 C30.627,109.841783 31.088,109.968611 31.552,110.085758 C31.694,110.12158 31.838,110.153529 31.98,110.187414 C32.334,110.272611 32.689,110.352 33.048,110.426548 C33.209,110.460433 33.371,110.49335 33.533,110.523363 C33.947,110.602752 34.363,110.674395 34.781,110.740229 C34.864,110.752815 34.947,110.768306 35.03,110.780892 C35.528,110.853503 36.03,110.913529 36.535,110.965809 C36.677,110.980331 36.82,110.991949 36.963,111.003567 C37.349,111.03842 37.737,111.067465 38.128,111.089732 C38.278,111.098446 38.43,111.108127 38.582,111.114904 C39.101,111.137172 39.621,111.153631 40.146,111.153631 L41.653,111.153631 C42.178,111.153631 42.699,111.137172 43.219,111.114904 C43.37,111.108127 43.521,111.098446 43.673,111.089732 C44.062,111.067465 44.451,111.03842 44.838,111.003567 C44.98,110.991949 45.123,110.980331 45.266,110.965809 C45.77,110.913529 46.272,110.853503 46.769,110.780892 C46.854,110.768306 46.936,110.752815 47.019,110.740229 C47.437,110.674395 47.853,110.602752 48.267,110.523363 C48.43,110.49335 48.59,110.460433 48.752,110.427516 C49.11,110.352 49.467,110.272611 49.82,110.187414 C49.963,110.153529 50.105,110.12158 50.247,110.085758 C50.712,109.968611 51.174,109.841783 51.631,109.706242 C51.774,109.663643 51.916,109.616204 52.059,109.571669 C52.386,109.469045 52.711,109.362548 53.034,109.25121 C53.216,109.18828 53.396,109.12535 53.577,109.059516 C53.88,108.948178 54.182,108.832968 54.48,108.713885 C54.64,108.651924 54.801,108.59093 54.959,108.526064 C55.37,108.355669 55.776,108.176561 56.179,107.991643 C56.372,107.902573 56.562,107.809631 56.754,107.716688 C56.991,107.602446 57.228,107.485299 57.462,107.365248 C57.67,107.258752 57.878,107.151287 58.083,107.039949 C58.304,106.922803 58.521,106.798879 58.738,106.675924 C59.091,106.475516 59.439,106.271236 59.783,106.05921 C59.977,105.940127 60.173,105.822013 60.363,105.699057 C60.594,105.55093 60.82,105.397962 61.047,105.244994 C61.199,105.142369 61.351,105.037809 61.501,104.93228 C61.736,104.767694 61.971,104.60214 62.202,104.430777 C62.302,104.356229 62.4,104.279745 62.5,104.204229 C62.986,103.835363 63.464,103.453911 63.93,103.060841 C64,103.002752 64.07,102.943694 64.141,102.884637 C64.39,102.669707 64.635,102.450904 64.877,102.230166 C64.955,102.158522 65.032,102.086879 65.109,102.015236 C65.916,101.266854 66.684,100.480713 67.411,99.6577834 C67.43,99.6374522 67.448,99.617121 67.467,99.5958217 C67.713,99.3160255 67.953,99.0323567 68.189,98.7448153 C68.21,98.7196433 68.231,98.6935032 68.253,98.6673631 C68.982,97.7747261 69.664,96.8443312 70.296,95.8790828 C70.297,95.8781146 70.298,95.8761783 70.299,95.874242 C71.155,94.5682038 71.917,93.1982675 72.578,91.7750828 C72.58,91.770242 72.583,91.7663694 72.585,91.7615287 C72.587,91.7576561 72.588,91.7537834 72.591,91.7499108 C72.819,91.2551847 73.036,90.7536815 73.24,90.2473376 C73.249,90.2260382 73.258,90.205707 73.267,90.1834395 C73.453,89.7167898 73.629,89.2443312 73.794,88.7670318 C73.818,88.698293 73.843,88.6305223 73.866,88.5608153 C73.985,88.2103439 74.096,87.8579363 74.203,87.5026242 C74.264,87.3022166 74.324,87.1008408 74.381,86.8984968 C74.443,86.671949 74.504,86.4454013 74.563,86.2178854 C74.647,85.8838726 74.728,85.5469554 74.803,85.2100382 C74.844,85.0270573 74.881,84.8440764 74.918,84.6601274 C74.996,84.2767389 75.068,83.8923822 75.132,83.5041529 C75.154,83.3666752 75.174,83.2291975 75.195,83.0907516 C75.26,82.6589554 75.319,82.2252229 75.366,81.7876178 C75.376,81.6956433 75.384,81.6036688 75.393,81.5116943 C75.441,81.0314904 75.481,80.5483822 75.507,80.0623694 C75.51,80.0158981 75.511,79.9703949 75.513,79.9239236 C75.539,79.3962803 75.555,78.8657325 75.555,78.3322803 L75.555,48.4279745 C75.555,46.7501656 75.423,45.1023694 75.172,43.4923312" id="Fill-11" fill="#F27553"></path>
                            <path d="M66.829,26.631949 L66.829,44.7528662 C66.829,48.126879 68.572,51.1049172 71.232,52.8950318 L71.232,71.1882803 L71.229,71.1882803 L71.229,75.6882548 C71.229,77.9266242 70.887,80.0875414 70.257,82.1274395 C66.491,75.6020892 59.291,71.1882803 51.022,71.1882803 L31.66,71.1882803 C23.392,71.1882803 16.191,75.6020892 12.426,82.1274395 C11.795,80.0875414 11.453,77.9266242 11.453,75.6882548 L11.453,71.1882803 L11.449,71.1882803 L11.449,52.8950318 C14.109,51.1049172 15.853,48.126879 15.853,44.7528662 L15.853,25.9958726" id="Stroke-12" stroke="#000000" stroke-width="2.5" stroke-linecap="round" stroke-linejoin="round"></path>
                            <path d="M51.783,46.7927643 L59.133,49.735949 M20.873,50.1629045 L28.119,46.9873631" id="Stroke-13" stroke="#211F22" stroke-width="2.5" stroke-linecap="round" stroke-linejoin="round"></path>
                            <path d="M28.409,59.5326879 C28.409,60.9277962 27.24,62.0585987 25.8,62.0585987 C24.359,62.0585987 23.191,60.9277962 23.191,59.5326879 L23.191,56.3755414 C23.191,54.9814013 24.359,53.8496306 25.8,53.8496306 C27.24,53.8496306 28.409,54.9814013 28.409,56.3755414 L28.409,59.5326879" id="Fill-14" fill="#000000"></path>
                            <path d="M57.262,59.5326879 C57.262,60.9277962 56.094,62.0585987 54.653,62.0585987 C53.212,62.0585987 52.044,60.9277962 52.044,59.5326879 L52.044,56.3755414 C52.044,54.9814013 53.212,53.8496306 54.653,53.8496306 C56.094,53.8496306 57.262,54.9814013 57.262,56.3755414 L57.262,59.5326879" id="Fill-15" fill="#000000"></path>
                            <path d="M45.239,69.2442293 C45.239,71.6007134 43.267,73.5089427 40.834,73.5089427 C38.401,73.5089427 36.43,71.6007134 36.43,69.2442293" id="Fill-16" fill="#F7CE93"></path>
                            <path d="M45.239,69.2442293 C45.239,71.6007134 43.267,73.5089427 40.834,73.5089427 C38.401,73.5089427 36.43,71.6007134 36.43,69.2442293" id="Stroke-17" stroke="#000000" stroke-width="2.5" stroke-linecap="round" stroke-linejoin="round"></path>
                            <path d="M44.638,68.5868535 C44.638,70.3847134 42.935,71.8427516 40.834,71.8427516 C38.733,71.8427516 37.031,70.3847134 37.031,68.5868535 C37.031,66.7880255 38.733,65.3299873 40.834,65.3299873 C42.935,65.3299873 44.638,66.7880255 44.638,68.5868535" id="Fill-18" fill="#F7CE93"></path>
                            <path d="M75.555,78.3313121 C75.555,96.4580382 60.376,111.153631 41.653,111.153631 L40.146,111.153631 C21.424,111.153631 6.246,96.4580382 6.246,78.3313121 L6.246,48.4279745 C6.246,30.3012484 21.424,15.6066242 40.146,15.6066242 L41.653,15.6066242 C60.376,15.6066242 75.555,30.3012484 75.555,48.4279745 L75.555,78.3313121 L75.555,78.3313121 Z" id="Stroke-19" stroke="#000000" stroke-width="2.5" stroke-linecap="round" stroke-linejoin="round"></path>
                            <path d="M46.053,15.9416051 C44.48,15.7247389 42.875,15.6066242 41.242,15.6066242 L39.734,15.6066242 C38.101,15.6066242 36.496,15.7247389 34.924,15.9416051 L29.553,15.9416051 C25.479,15.9416051 22.051,13.268535 21.035,9.63505732 C20.835,10.4366879 20.727,11.2741401 20.727,12.134828 C20.727,14.9821656 21.885,17.5651975 23.766,19.4734268 C25.766,21.501707 28.584,22.7670828 31.708,22.7670828 L53.942,22.7670828 C56.151,22.7670828 58.207,22.1329427 59.929,21.045707 C55.838,18.423949 51.127,16.6396433 46.053,15.9416051" id="Fill-20" fill="#F27553"></path>
                            <path d="M46.053,15.9416051 C44.48,15.7247389 42.875,15.6066242 41.242,15.6066242 L39.734,15.6066242 C38.101,15.6066242 36.496,15.7247389 34.924,15.9416051 L29.553,15.9416051 C25.479,15.9416051 22.051,13.268535 21.035,9.63505732 C20.835,10.4366879 20.727,11.2741401 20.727,12.134828 C20.727,14.9821656 21.885,17.5651975 23.766,19.4734268 C25.766,21.501707 28.584,22.7670828 31.708,22.7670828 L53.942,22.7670828 C56.151,22.7670828 58.207,22.1329427 59.929,21.045707 C55.838,18.423949 51.127,16.6396433 46.053,15.9416051 L46.053,15.9416051 Z" id="Stroke-21" stroke="#000000" stroke-width="2.5" stroke-linecap="round" stroke-linejoin="round"></path>
                            <path d="M23.152,80.1659618 C23.977,88.6876433 31.757,95.3698344 41.238,95.3698344 C50.719,95.3698344 58.498,88.6876433 59.324,80.1659618 L23.152,80.1659618 L23.152,80.1659618 Z" id="Fill-22" fill="#F4F6F6"></path>
                            <path d="M23.152,80.1659618 C23.977,88.6876433 31.757,95.3698344 41.238,95.3698344 C50.719,95.3698344 58.498,88.6876433 59.324,80.1659618 L23.152,80.1659618 L23.152,80.1659618 Z" id="Stroke-23" stroke="#000000" stroke-width="2.5" stroke-linecap="round" stroke-linejoin="round"></path>
                            <path d="M132.085,0.183949045 C109.031,0.183949045 90.342,16.1381401 90.342,35.8168153 C90.342,43.0072866 92.846,49.6952866 97.137,55.2941146 C97.39,68.5103694 90.311,73.3627516 90.311,73.3627516 C90.311,73.3627516 104.67,76.4201783 113.987,67.9352866 C119.462,70.1872102 125.602,71.4487134 132.085,71.4487134 C155.14,71.4487134 173.829,55.4954904 173.829,35.8168153 C173.829,16.1381401 155.14,0.183949045 132.085,0.183949045 L132.085,0.183949045 Z" id="Fill-24" fill="#FFFFFF"></path>
                            <path d="M132.085,0.183949045 C109.031,0.183949045 90.342,16.1381401 90.342,35.8168153 C90.342,43.0072866 92.846,49.6952866 97.137,55.2941146 C97.39,68.5103694 90.311,73.3627516 90.311,73.3627516 C90.311,73.3627516 104.67,76.4201783 113.987,67.9352866 C119.462,70.1872102 125.602,71.4487134 132.085,71.4487134 C155.14,71.4487134 173.829,55.4954904 173.829,35.8168153 C173.829,16.1381401 155.14,0.183949045 132.085,0.183949045 L132.085,0.183949045 Z" id="Stroke-25" stroke="#000000" stroke-width="2.5" stroke-linecap="round" stroke-linejoin="round"></path>
                            <polyline id="Stroke-26" stroke="#F27553" stroke-width="4" stroke-linecap="round" stroke-linejoin="round" points="149.863 32.6906497 142.746 39.5258089 135.629 32.6906497 128.512 39.5258089 121.394 32.6906497 114.276 39.5258089"></polyline>
                            <path d="M132.07,17.2398981 L132.07,11.8472866 M147.427,22.3827261 L151.457,18.4810701 M158.442,36.1082293 L163.282,36.1082293 M147.506,49.9111847 L151.457,53.7353885 M132.07,54.5970446 L132.07,60.3682038 M116.75,49.7979108 L112.684,53.7353885 M105.932,36.1082293 L100.857,36.1082293 M116.724,22.3924076 L112.684,18.4810701" id="Stroke-27" stroke="#F27553" stroke-width="2.5" stroke-linecap="round"></path>
                        </g>
                    </g>
                </g>
            </g>
        </g>
    </g>
</svg>