<?xml version="1.0" encoding="UTF-8" standalone="no"?>
<svg width="120px" height="90px" viewBox="0 0 120 90" version="1.1" xmlns="http://www.w3.org/2000/svg" xmlns:xlink="http://www.w3.org/1999/xlink">
    <!-- Generator: Sketch 39.1 (31720) - http://www.bohemiancoding.com/sketch -->
    <title>icon</title>
    <desc>Created with Sketch.</desc>
    <defs></defs>
    <g id="Home-Page" stroke="none" stroke-width="1" fill="none" fill-rule="evenodd">
        <g id="Homepage" transform="translate(-129.000000, -2905.000000)">
            <g id="MAIN-CONTENT" transform="translate(-10.000000, 196.000000)">
                <g id="5" transform="translate(98.000000, 2684.000000)">
                    <g id="Benefit" transform="translate(0.500000, 26.000000)">
                        <g id="icon" transform="translate(41.000000, 0.000000)">
                            <path d="M117.878,50.483 C117.878,42.751 114.052,35.917 108.193,31.754 C107.601,25.742 103.571,20.74 98.094,18.744 C96.732,14.17 92.499,10.832 87.483,10.832 L84.873,10.832 C84.56,6.09 80.623,2.336 75.801,2.336 L63.966,2.336 C62.423,2.336 60.971,2.723 59.697,3.4 C57.797,1.617 55.247,0.515 52.434,0.515 L49.096,0.515 C44.982,0.515 41.421,2.859 39.658,6.281 L29.828,6.281 C23.542,6.281 18.448,11.375 18.448,17.66 C18.448,19.221 18.763,20.707 19.332,22.06 L11.621,22.06 C7.683,22.06 4.49,25.251 4.49,29.191 C4.49,30.716 4.972,32.127 5.789,33.287 C2.551,36.502 0.545,40.957 0.545,45.881 C0.545,55.684 8.493,63.633 18.297,63.633 L24.669,63.633 C25.151,63.633 25.625,63.608 26.096,63.57 C26.756,71.088 33.064,76.984 40.752,76.984 L55.014,76.984 C56.794,76.984 58.499,76.668 60.078,76.089 C60.65,82.542 66.063,87.605 72.665,87.605 L91.681,87.605 C98.663,87.605 104.325,81.943 104.325,74.96 C104.325,73.806 104.157,72.694 103.868,71.634 C112.102,68.146 117.878,59.989 117.878,50.483 L117.878,50.483 Z" id="Shape" stroke="#212022" stroke-width="2" fill="#F27553"></path>
                            <circle id="Oval" fill="#212022" cx="25.476" cy="17.954" r="1.859"></circle>
                            <circle id="Oval" fill="#212022" cx="28.851" cy="12.954" r="1.859"></circle>
                            <circle id="Oval" fill="#212022" cx="45.851" cy="7.704" r="1.859"></circle>
                            <circle id="Oval" fill="#212022" cx="62.63" cy="9.653" r="1.859"></circle>
                            <circle id="Oval" fill="#212022" cx="77.352" cy="10.735" r="1.859"></circle>
                            <circle id="Oval" fill="#212022" cx="89.043" cy="15.175" r="1.859"></circle>
                            <circle id="Oval" fill="#212022" cx="27.892" cy="22.892" r="1.859"></circle>
                            <circle id="Oval" fill="#212022" cx="31.342" cy="30.673" r="1.859"></circle>
                            <circle id="Oval" fill="#212022" cx="24.842" cy="29.173" r="1.859"></circle>
                            <circle id="Oval" fill="#212022" cx="18.347" cy="29.173" r="1.859"></circle>
                            <circle id="Oval" fill="#212022" cx="18.347" cy="35.251" r="1.859"></circle>
                            <circle id="Oval" fill="#212022" cx="49.176" cy="33.839" r="1.859"></circle>
                            <circle id="Oval" fill="#212022" cx="49.176" cy="25.032" r="1.859"></circle>
                            <circle id="Oval" fill="#212022" cx="49.176" cy="17.778" r="1.859"></circle>
                            <circle id="Oval" fill="#212022" cx="55.78" cy="6.087" r="1.859"></circle>
                            <circle id="Oval" fill="#212022" cx="55.022" cy="14.099" r="1.859"></circle>
                            <circle id="Oval" fill="#212022" cx="83.838" cy="19.235" r="1.859"></circle>
                            <circle id="Oval" fill="#212022" cx="94.488" cy="25.032" r="1.859"></circle>
                            <circle id="Oval" fill="#212022" cx="99.86" cy="29.794" r="1.859"></circle>
                            <circle id="Oval" fill="#212022" cx="24.149" cy="57.831" r="1.859"></circle>
                            <circle id="Oval" fill="#212022" cx="17.86" cy="55.794" r="1.859"></circle>
                            <circle id="Oval" fill="#212022" cx="11.531" cy="53.159" r="1.859"></circle>
                            <circle id="Oval" fill="#212022" cx="78.517" cy="44.212" r="1.859"></circle>
                            <circle id="Oval" fill="#212022" cx="87.527" cy="43.722" r="1.859"></circle>
                            <circle id="Oval" fill="#212022" cx="100.841" cy="64.655" r="1.859"></circle>
                            <circle id="Oval" fill="#212022" cx="92.849" cy="67.563" r="1.859"></circle>
                            <circle id="Oval" fill="#212022" cx="97.049" cy="72.544" r="1.859"></circle>
                            <circle id="Oval" fill="#212022" cx="69.103" cy="80.372" r="1.859"></circle>
                            <circle id="Oval" fill="#212022" cx="64.015" cy="65.54" r="1.859"></circle>
                            <circle id="Oval" fill="#212022" cx="57.412" cy="62.294" r="1.859"></circle>
                            <circle id="Oval" fill="#212022" cx="53.745" cy="72.062" r="1.859"></circle>
                            <circle id="Oval" fill="#212022" cx="86.979" cy="71.077" r="1.859"></circle>
                            <circle id="Oval" fill="#212022" cx="80.375" cy="74.759" r="1.859"></circle>
                            <circle id="Oval" fill="#212022" cx="75.504" cy="63.067" r="1.859"></circle>
                            <circle id="Oval" fill="#212022" cx="49.125" cy="51.483" r="1.859"></circle>
                            <circle id="Oval" fill="#212022" cx="49.125" cy="57.005" r="1.859"></circle>
                            <circle id="Oval" fill="#212022" cx="77.41" cy="36.323" r="1.859"></circle>
                            <circle id="Oval" fill="#212022" cx="106.996" cy="60.907" r="1.859"></circle>
                            <circle id="Oval" fill="#212022" cx="42.193" cy="51.794" r="1.859"></circle>
                            <circle id="Oval" fill="#212022" cx="36.86" cy="50.294" r="1.859"></circle>
                            <circle id="Oval" fill="#212022" cx="39.027" cy="70.96" r="1.859"></circle>
                            <circle id="Oval" fill="#212022" cx="44.527" cy="68.96" r="1.859"></circle>
                            <circle id="Oval" fill="#212022" cx="64.463" cy="39.603" r="1.859"></circle>
                            <polyline id="Shape" stroke="#212022" stroke-width="2" points="25.476 17.954 39.06 17.954 42.652 21.548 42.652 39.614 64.834 39.614"></polyline>
                            <polyline id="Shape" stroke="#212022" stroke-width="2" points="28.026 22.876 35.526 22.876 37.777 25.126 37.777 44.218 78.36 44.218"></polyline>
                            <polyline id="Shape" stroke="#212022" stroke-width="2" points="39.026 71.126 33.276 65.376 33.276 53.626 36.651 50.251"></polyline>
                            <polyline id="Shape" stroke="#212022" stroke-width="2" points="44.526 69.044 38.776 63.294 38.776 55.126 42.151 51.751"></polyline>
                            <polyline id="Shape" stroke="#212022" stroke-width="2" points="31.36 31.126 31.36 43.96 24.193 51.126 24.193 57.126"></polyline>
                            <polyline id="Shape" stroke="#212022" stroke-width="2" points="25.026 29.46 25.026 42.294 17.86 49.46 17.86 55.46"></polyline>
                            <polyline id="Shape" stroke="#212022" stroke-width="2" points="49.526 33.958 70.693 33.958 74.859 29.792 99.86 29.792"></polyline>
                            <polyline id="Shape" stroke="#212022" stroke-width="2" points="77.71 36.243 96.068 36.243 102.735 42.909 102.735 56.505 106.936 60.704"></polyline>
                            <g id="Group" transform="translate(102.000000, 34.000000)">
                                <circle id="Oval" fill="#212022" cx="2.547" cy="2.856" r="1.859"></circle>
                                <circle id="Oval" fill="#212022" cx="6.922" cy="20.618" r="1.859"></circle>
                                <polyline id="Shape" stroke="#212022" stroke-width="2" points="3.006 3.354 6.881 7.229 6.881 20.517"></polyline>
                            </g>
                            <polyline id="Shape" stroke="#212022" stroke-width="2" points="45.943 7.667 40.693 12.917 29.193 12.917"></polyline>
                            <path d="M93.668,24.868 L48.949,24.868" id="Shape" stroke="#212022" stroke-width="2"></path>
                            <polyline id="Shape" stroke="#212022" stroke-width="2" points="88.1 43.706 93.178 43.706 95.798 46.325 95.798 59.595 100.793 64.591"></polyline>
                            <polyline id="Shape" stroke="#212022" stroke-width="2" points="49.36 51.46 60.36 51.46 63.443 54.544 69.36 54.544 72.068 51.835 84.025 51.835 87.46 55.271 87.46 62.095 92.425 67.06"></polyline>
                            <polyline id="Shape" stroke="#212022" stroke-width="2" points="50.069 57.108 59.667 57.108 62.042 59.481 70.661 59.481 73.369 56.774 79.571 56.774 81.685 58.888 81.685 65.712 86.65 70.677"></polyline>
                            <polyline id="Shape" stroke="#212022" stroke-width="2" points="96.966 72.745 89.414 80.298 69.542 80.298"></polyline>
                            <polyline id="Shape" stroke="#212022" stroke-width="2" points="60.078 76.091 60.078 69.03 63.568 65.54"></polyline>
                            <polyline id="Shape" stroke="#212022" stroke-width="2" points="59.697 3.401 62.688 6.394 62.688 9.167"></polyline>
                            <path d="M84.873,10.833 L78.426,10.833" id="Shape" stroke="#212022" stroke-width="2"></path>
                            <polyline id="Shape" stroke="#212022" stroke-width="2" fill="#F27553" points="98.095 18.745 92.391 18.745 89.388 15.741"></polyline>
                            <polyline id="Shape" stroke="#212022" stroke-width="2" points="5.789 33.288 10.055 29.021 17.805 29.021"></polyline>
                            <polyline id="Shape" stroke="#212022" stroke-width="2" points="49.176 17.778 49.176 12.522 56.007 5.692"></polyline>
                            <polyline id="Shape" stroke="#212022" stroke-width="2" points="75.503 63.185 75.503 69.681 80.537 74.714"></polyline>
                            <circle id="Oval" fill="#212022" cx="72.852" cy="74.759" r="1.859"></circle>
                            <circle id="Oval" fill="#212022" cx="69.549" cy="64.159" r="1.859"></circle>
                            <polyline id="Shape" stroke="#212022" stroke-width="2" points="69.414 64.62 69.414 71.114 73.013 74.714"></polyline>
                            <polyline id="Shape" stroke="#212022" stroke-width="2" points="57.425 62.319 53.744 65.999 53.744 71.737"></polyline>
                            <polyline id="Shape" stroke="#212022" stroke-width="2" points="83.405 19.343 60.131 19.343 54.881 14.093"></polyline>
                            <polyline id="Shape" stroke="#212022" stroke-width="2" points="18.325 35.81 18.325 39.386 11.622 46.089 11.622 52.972"></polyline>
                        </g>
                    </g>
                </g>
            </g>
        </g>
    </g>
</svg>