<?xml version="1.0" encoding="UTF-8" standalone="no"?>
<svg width="119px" height="147px" viewBox="0 0 119 147" version="1.1" xmlns="http://www.w3.org/2000/svg" xmlns:xlink="http://www.w3.org/1999/xlink">
    <!-- Generator: Sketch 39.1 (31720) - http://www.bohemiancoding.com/sketch -->
    <title>hand</title>
    <desc>Created with Sketch.</desc>
    <defs></defs>
    <g id="BrandCaptcha" stroke="none" stroke-width="1" fill="none" fill-rule="evenodd">
        <g id="Advertisers" transform="translate(-308.000000, -2000.000000)">
            <g id="Beneficios" transform="translate(0.000000, 1792.000000)">
                <g id="Items" transform="translate(240.000000, 204.000000)">
                    <g id="1" transform="translate(0.000000, 6.000000)">
                        <g id="hand" transform="translate(69.000000, 0.000000)">
                            <path d="M115.761,67.365 C115.113,65.585 110.863,62.601 101.861,68.914 C92.859,75.227 86.902,83.78 85.049,85.622 C83.196,87.464 79.524,88.281 79.523,83.518 L79.523,25.067 C79.523,21.018 76.24,17.733 72.189,17.733 C68.139,17.733 64.855,21.018 64.855,25.067 L64.855,65.168 L64.855,65.167 C64.855,67.232 63.181,68.907 61.116,68.907 C59.051,68.907 57.377,67.233 57.376,65.168 L57.376,7.362 C57.376,3.312 54.093,0.028 50.043,0.028 C45.992,0.028 42.709,3.312 42.709,7.362 L42.709,65.167 C42.709,67.232 41.035,68.907 38.97,68.907 C36.904,68.907 35.231,67.233 35.23,65.168 L35.23,19.141 C35.23,15.385 32.186,12.34 28.43,12.34 C24.674,12.34 21.629,15.385 21.629,19.141 L21.629,65.167 C21.629,67.232 19.955,68.907 17.889,68.907 C15.824,68.907 14.15,67.232 14.15,65.167 L14.15,35.673 C14.15,31.917 11.105,28.872 7.349,28.872 C3.594,28.872 0.549,31.917 0.549,35.673 L0.549,102.128 L0.549,102.154 C0.549,135.752 25.611,143.351 42.709,143.351 C59.277,143.351 72.232,137.169 80.341,126.05 C88.45,114.93 95.639,97.536 105.833,85.622 C116.026,73.708 116.82,70.278 115.761,67.365" id="Fill-1" fill="#FFDFB1"></path>
                            <path d="M80.341,126.049 C88.45,114.93 95.64,97.536 105.833,85.622 C116.026,73.708 116.82,70.278 115.761,67.365 C115.113,65.584 110.863,62.6 101.861,68.914 C92.859,75.227 86.902,83.78 85.049,85.622 C83.196,87.464 79.524,88.281 79.523,83.518 L79.523,25.067 C79.523,21.018 76.24,17.733 72.189,17.733 C68.139,17.733 64.855,21.018 64.855,25.067 L64.855,65.167 C64.855,67.232 63.182,68.907 61.116,68.907 C59.051,68.907 57.377,67.233 57.376,65.168 L57.376,7.362 C57.376,3.312 54.093,0.028 50.043,0.028 C50.043,0.028 49.786,84.552 49.786,98.228 C31.849,115.622 37.421,143.351 37.421,143.351 L50.043,142.904 C63.116,141.327 73.473,135.468 80.341,126.049" id="Fill-2" fill="#F7CE93"></path>
                            <path d="M115.761,67.365 C115.113,65.585 110.863,62.601 101.861,68.914 C92.859,75.227 86.902,83.78 85.049,85.622 C83.196,87.464 79.524,88.281 79.523,83.518 L79.523,25.067 C79.523,21.018 76.24,17.733 72.189,17.733 C68.139,17.733 64.855,21.018 64.855,25.067 L64.855,65.168 L64.855,65.167 C64.855,67.232 63.181,68.907 61.116,68.907 C59.051,68.907 57.377,67.233 57.376,65.168 L57.376,7.362 C57.376,3.312 54.093,0.028 50.043,0.028 C45.992,0.028 42.709,3.312 42.709,7.362 L42.709,65.167 C42.709,67.232 41.035,68.907 38.97,68.907 C36.904,68.907 35.231,67.233 35.23,65.168 L35.23,19.141 C35.23,15.385 32.186,12.34 28.43,12.34 C24.674,12.34 21.629,15.385 21.629,19.141 L21.629,65.167 C21.629,67.232 19.955,68.907 17.889,68.907 C15.824,68.907 14.15,67.232 14.15,65.167 L14.15,35.673 C14.15,31.917 11.105,28.872 7.349,28.872 C3.594,28.872 0.549,31.917 0.549,35.673 L0.549,102.128 L0.549,102.154 C0.549,135.752 25.611,143.351 42.709,143.351 C59.277,143.351 72.232,137.169 80.341,126.05 C88.45,114.93 95.639,97.536 105.833,85.622 C116.026,73.708 116.82,70.278 115.761,67.365 L115.761,67.365 Z" id="Stroke-3" stroke="#000100" stroke-width="2.5"></path>
                            <path d="M43.124,117.391 C27.07,117.391 16.02,105.397 16.02,105.397 C15.274,104.589 15.273,103.264 16.017,102.453 C16.017,102.453 27.01,90.472 43.124,90.472 C59.18,90.472 70.229,102.464 70.229,102.464 C70.974,103.272 70.976,104.598 70.232,105.408 C70.232,105.408 59.239,117.391 43.124,117.391" id="Fill-4" fill="#FFFFFF"></path>
                            <path d="M43.124,117.391 C27.07,117.391 16.02,105.397 16.02,105.397 C15.274,104.589 15.273,103.264 16.017,102.453 C16.017,102.453 27.01,90.472 43.124,90.472 C59.18,90.472 70.229,102.464 70.229,102.464 C70.974,103.272 70.976,104.598 70.232,105.408 C70.232,105.408 59.239,117.391 43.124,117.391 L43.124,117.391 Z" id="Stroke-5" stroke="#000100" stroke-width="2.5"></path>
                            <path d="M49.547,103.931 C49.547,107.478 46.671,110.353 43.124,110.353 C39.577,110.353 36.702,107.478 36.702,103.931 C36.702,100.384 39.577,97.508 43.124,97.508 C46.671,97.508 49.547,100.384 49.547,103.931 L49.547,103.931 Z" id="Fill-6" fill="#80A7E1"></path>
                            <path d="M49.547,103.931 C49.547,107.478 46.671,110.353 43.124,110.353 C39.577,110.353 36.702,107.478 36.702,103.931 C36.702,100.384 39.577,97.508 43.124,97.508 C46.671,97.508 49.547,100.384 49.547,103.931 L49.547,103.931 Z" id="Stroke-7" stroke="#000100" stroke-width="2.5"></path>
                            <path d="M13.744,95.991 L10.289,92.511 M23.241,88.655 L20.812,84.821 M34.365,84.415 L33.206,80.249 M46.432,83.568 L46.746,79.3 M58.065,86.003 L59.724,82.073 M68.441,92.036 L71.293,88.32" id="Stroke-8" stroke="#000100" stroke-width="2.5" stroke-linecap="round"></path>
                            <path d="M51.642,99.672 C51.642,102.024 49.735,103.931 47.383,103.931 C45.031,103.931 43.124,102.024 43.124,99.672 C43.124,97.319 45.031,95.413 47.383,95.413 C49.735,95.413 51.642,97.319 51.642,99.672" id="Fill-9" fill="#FFFFFF"></path>
                        </g>
                    </g>
                </g>
            </g>
        </g>
    </g>
</svg>