<?xml version="1.0" encoding="UTF-8" standalone="no"?>
<svg width="38px" height="38px" viewBox="0 0 38 38" version="1.1" xmlns="http://www.w3.org/2000/svg" xmlns:xlink="http://www.w3.org/1999/xlink">
    <!-- Generator: Sketch 39.1 (31720) - http://www.bohemiancoding.com/sketch -->
    <title>228 - Error (Outline)</title>
    <desc>Created with Sketch.</desc>
    <defs></defs>
    <g id="Home-Page" stroke="none" stroke-width="1" fill="none" fill-rule="evenodd">
        <g id="Menu" transform="translate(-318.000000, -20.000000)" fill="#DCDCDD">
            <g id="228---Error-(Outline)" transform="translate(318.000000, 20.000000)">
                <path d="M19,36 C9.61124475,36 2,28.3887553 2,19 C2,9.61124475 9.61124475,2 19,2 C28.3887553,2 36,9.61124475 36,19 C36,28.3887553 28.3887553,36 19,36 Z M19,0 C8.50667525,0 0,8.50667525 0,19 C0,29.4933247 8.50667525,38 19,38 C29.4933247,38 38,29.4933247 38,19 C38,8.50667525 29.4933247,0 19,0 Z" id="Stroke-106"></path>
                <path d="M26.1871068,13.2271068 C26.5776311,12.8365825 26.5776311,12.2034175 26.1871068,11.8128932 C25.7965825,11.4223689 25.1634175,11.4223689 24.7728932,11.8128932 L11.8128932,24.7728932 C11.4223689,25.1634175 11.4223689,25.7965825 11.8128932,26.1871068 C12.2034175,26.5776311 12.8365825,26.5776311 13.2271068,26.1871068 L26.1871068,13.2271068 Z" id="Stroke-144"></path>
                <path d="M17.5684524,18.982666 L24.7728932,26.1871068 C25.1634175,26.5776311 25.7965825,26.5776311 26.1871068,26.1871068 C26.5776311,25.7965825 26.5776311,25.1634175 26.1871068,24.7728932 L18.982666,17.5684524 L13.2271068,11.8128932 C12.8365825,11.4223689 12.2034175,11.4223689 11.8128932,11.8128932 C11.4223689,12.2034175 11.4223689,12.8365825 11.8128932,13.2271068 L17.5684524,18.982666 Z" id="Stroke-146"></path>
            </g>
        </g>
    </g>
</svg>