<?xml version="1.0" encoding="UTF-8" standalone="no"?>
<svg width="300px" height="87px" viewBox="0 0 300 87" version="1.1" xmlns="http://www.w3.org/2000/svg" xmlns:xlink="http://www.w3.org/1999/xlink">
    <!-- Generator: Sketch 39.1 (31720) - http://www.bohemiancoding.com/sketch -->
    <title>Group</title>
    <desc>Created with Sketch.</desc>
    <defs></defs>
    <g id="Page-1" stroke="none" stroke-width="1" fill="none" fill-rule="evenodd">
        <g id="Group" fill="#000000">
            <path d="M226.792,66.366 L140.563,66.366 C140.011,66.366 139.563,65.918 139.563,65.366 C139.563,64.814 140.011,64.366 140.563,64.366 L226.792,64.366 C227.345,64.366 227.792,64.814 227.792,65.366 C227.792,65.918 227.345,66.366 226.792,66.366" id="Fill-41"></path>
            <path d="M183.678,86.366 L56.831,86.366 C56.278,86.366 55.831,85.919 55.831,85.366 C55.831,84.814 56.278,84.366 56.831,84.366 L183.678,84.366 C184.231,84.366 184.678,84.814 184.678,85.366 C184.678,85.919 184.231,86.366 183.678,86.366" id="Fill-42"></path>
            <path d="M298.792,51.261 L260.792,51.261 C260.239,51.261 259.792,50.813 259.792,50.261 C259.792,49.708 260.239,49.261 260.792,49.261 L298.792,49.261 C299.345,49.261 299.792,49.708 299.792,50.261 C299.792,50.813 299.345,51.261 298.792,51.261" id="Fill-43"></path>
            <path d="M32.746,51.261 C32.193,51.261 31.746,50.813 31.746,50.261 C31.746,45.531 35.594,41.683 40.323,41.683 L95.96,41.683 C98.08,34.736 104.487,29.95 111.806,29.95 C113.967,29.95 116.063,30.364 118.053,31.181 C121.14,13.456 136.733,0.253 154.866,0.253 C167.003,0.253 178.308,6.109 185.327,15.974 C188.502,13.49 192.405,12.134 196.438,12.134 C206.069,12.134 213.965,19.706 214.486,29.208 L291.372,29.208 C291.925,29.208 292.372,29.656 292.372,30.208 C292.372,30.76 291.925,31.208 291.372,31.208 L213.514,31.208 C212.961,31.208 212.514,30.76 212.514,30.208 C212.514,21.345 205.303,14.134 196.438,14.134 C192.521,14.134 188.739,15.575 185.789,18.19 C185.573,18.382 185.289,18.468 184.998,18.434 C184.712,18.397 184.455,18.238 184.295,17.998 C177.705,8.139 166.704,2.253 154.866,2.253 C137.28,2.253 122.217,15.375 119.828,32.776 C119.784,33.096 119.589,33.375 119.302,33.525 C119.015,33.676 118.673,33.678 118.386,33.532 C116.316,32.482 114.103,31.95 111.806,31.95 C105.142,31.95 99.335,36.465 97.687,42.93 C97.574,43.373 97.175,43.683 96.718,43.683 L40.323,43.683 C36.696,43.683 33.746,46.634 33.746,50.261 C33.746,50.813 33.299,51.261 32.746,51.261" id="Fill-52"></path>
            <path d="M171.877,66.366 L85.648,66.366 C85.096,66.366 84.648,65.918 84.648,65.366 C84.648,64.814 85.096,64.366 85.648,64.366 L171.877,64.366 C172.43,64.366 172.877,64.814 172.877,65.366 C172.877,65.918 172.43,66.366 171.877,66.366" id="Fill-53"></path>
            <path d="M128.763,86.366 L1.916,86.366 C1.363,86.366 0.916,85.919 0.916,85.366 C0.916,84.814 1.363,84.366 1.916,84.366 L128.763,84.366 C129.315,84.366 129.763,84.814 129.763,85.366 C129.763,85.919 129.315,86.366 128.763,86.366" id="Fill-54"></path>
            <path d="M243.877,51.261 L205.877,51.261 C205.324,51.261 204.877,50.813 204.877,50.261 C204.877,49.708 205.324,49.261 205.877,49.261 L243.877,49.261 C244.43,49.261 244.877,49.708 244.877,50.261 C244.877,50.813 244.43,51.261 243.877,51.261" id="Fill-55"></path>
        </g>
    </g>
</svg>