<?xml version="1.0" encoding="UTF-8" standalone="no"?>
<svg width="233px" height="538px" viewBox="0 0 233 538" version="1.1" xmlns="http://www.w3.org/2000/svg" xmlns:xlink="http://www.w3.org/1999/xlink">
    <!-- Generator: Sketch 39.1 (31720) - http://www.bohemiancoding.com/sketch -->
    <title>Character</title>
    <desc>Created with Sketch.</desc>
    <defs></defs>
    <g id="Contacto" stroke="none" stroke-width="1" fill="none" fill-rule="evenodd">
        <g id="Contacto---Speech-bubble" transform="translate(-1126.000000, -96.000000)">
            <g id="BG">
                <g id="Character" transform="translate(1127.000000, 98.000000)">
                    <path d="M13.646,485.785 C13.646,489.373 10.736,492.283 7.146,492.283 C3.557,492.283 0.647,489.373 0.647,485.785 L0.647,465.161 C0.647,461.572 3.557,458.662 7.146,458.662 C10.736,458.662 13.646,461.572 13.646,465.161 L13.646,485.785" id="Fill-1" fill="#FFDFB1"></path>
                    <path d="M26.644,492.945 C26.644,496.535 23.734,499.443 20.145,499.443 C16.556,499.443 13.646,496.535 13.646,492.945 L13.646,472.322 C13.646,468.732 16.556,465.822 20.145,465.822 C23.734,465.822 26.644,468.732 26.644,472.322 L26.644,492.945" id="Fill-2" fill="#FFDFB1"></path>
                    <path d="M39.643,476.135 C39.643,479.724 36.733,482.634 33.144,482.634 C29.554,482.634 26.644,479.724 26.644,476.135 L26.644,455.511 C26.644,451.922 29.554,449.012 33.144,449.012 C36.733,449.012 39.643,451.922 39.643,455.511 L39.643,476.135" id="Fill-3" fill="#FFDFB1"></path>
                    <path d="M13.646,485.785 C13.646,489.373 10.736,492.283 7.146,492.283 C3.557,492.283 0.647,489.373 0.647,485.785 L0.647,465.161 C0.647,461.572 3.557,458.662 7.146,458.662 C10.736,458.662 13.646,461.572 13.646,465.161 L13.646,485.785 L13.646,485.785 Z M26.644,492.945 C26.644,496.535 23.734,499.443 20.145,499.443 C16.556,499.443 13.646,496.535 13.646,492.945 L13.646,472.322 C13.646,468.732 16.556,465.822 20.145,465.822 C23.734,465.822 26.644,468.732 26.644,472.322 L26.644,492.945 L26.644,492.945 Z M39.643,476.135 C39.643,479.724 36.733,482.634 33.144,482.634 C29.554,482.634 26.644,479.724 26.644,476.135 L26.644,455.511 C26.644,451.922 29.554,449.012 33.144,449.012 C36.733,449.012 39.643,451.922 39.643,455.511 L39.643,476.135 L39.643,476.135 Z" id="Stroke-4" stroke="#211F22" stroke-width="3.007" stroke-linecap="round" stroke-linejoin="round"></path>
                    <path d="M204.234,499.744 C204.234,503.332 201.324,506.242 197.735,506.242 C194.145,506.242 191.236,503.332 191.236,499.744 L191.236,479.12 C191.236,475.531 194.145,472.621 197.735,472.621 C201.324,472.621 204.234,475.531 204.234,479.12 L204.234,499.744" id="Fill-5" fill="#FFDFB1"></path>
                    <path d="M217.232,506.904 C217.232,510.494 214.323,513.402 210.732,513.402 C207.145,513.402 204.234,510.494 204.234,506.904 L204.234,486.281 C204.234,482.691 207.145,479.781 210.732,479.781 C214.323,479.781 217.232,482.691 217.232,486.281 L217.232,506.904" id="Fill-6" fill="#FFDFB1"></path>
                    <path d="M230.231,490.094 C230.231,493.682 227.322,496.592 223.732,496.592 C220.143,496.592 217.232,493.682 217.232,490.094 L217.232,469.47 C217.232,465.881 220.143,462.971 223.732,462.971 C227.322,462.971 230.231,465.881 230.231,469.47 L230.231,490.094" id="Fill-7" fill="#FFDFB1"></path>
                    <path d="M204.234,499.744 C204.234,503.332 201.324,506.242 197.735,506.242 C194.145,506.242 191.236,503.332 191.236,499.744 L191.236,479.12 C191.236,475.531 194.145,472.621 197.735,472.621 C201.324,472.621 204.234,475.531 204.234,479.12 L204.234,499.744 L204.234,499.744 Z M217.232,506.904 C217.232,510.494 214.323,513.402 210.732,513.402 C207.145,513.402 204.234,510.494 204.234,506.904 L204.234,486.281 C204.234,482.691 207.145,479.781 210.732,479.781 C214.323,479.781 217.232,482.691 217.232,486.281 L217.232,506.904 L217.232,506.904 Z M230.231,490.094 C230.231,493.682 227.322,496.592 223.732,496.592 C220.143,496.592 217.232,493.682 217.232,490.094 L217.232,469.47 C217.232,465.881 220.143,462.971 223.732,462.971 C227.322,462.971 230.231,465.881 230.231,469.47 L230.231,490.094 L230.231,490.094 Z" id="Stroke-8" stroke="#211F22" stroke-width="3.007" stroke-linecap="round" stroke-linejoin="round"></path>
                    <polygon id="Fill-9" fill="#FFDFB1" points="32.284 348.759 63.394 348.759 63.394 506.49 32.284 506.49"></polygon>
                    <polygon id="Stroke-10" stroke="#211F22" stroke-width="3.007" stroke-linecap="round" stroke-linejoin="round" points="32.284 348.759 63.394 348.759 63.394 506.49 32.284 506.49"></polygon>
                    <polygon id="Fill-11" fill="#F7CE93" points="173.982 348.759 205.093 348.759 205.093 506.49 173.982 506.49"></polygon>
                    <polygon id="Stroke-12" stroke="#211F22" stroke-width="3.007" stroke-linecap="round" stroke-linejoin="round" points="173.982 348.759 205.093 348.759 205.093 506.49 173.982 506.49"></polygon>
                    <path d="M205.094,343.644 C205.094,306.089 174.649,275.644 137.094,275.644 L100.284,275.644 C62.729,275.644 32.284,306.089 32.284,343.644 L32.284,348.759 L205.094,348.759 L205.094,343.644" id="Fill-13" fill="#819B98"></path>
                    <path d="M205.094,343.644 C205.094,306.089 174.649,275.644 137.094,275.644 L100.284,275.644 C62.729,275.644 32.284,306.089 32.284,343.644 L32.284,348.759 L205.094,348.759 L205.094,343.644 L205.094,343.644 Z" id="Stroke-14" stroke="#211F22" stroke-width="3.007" stroke-linecap="round" stroke-linejoin="round"></path>
                    <path d="M118.689,269.614 C86.749,269.614 60.857,295.507 60.857,327.446 L60.857,530.428 L176.52,530.428 L176.52,327.446 C176.52,295.507 150.629,269.614 118.689,269.614" id="Fill-15" fill="#819B98"></path>
                    <path d="M175.811,327.446 C175.811,295.507 149.92,269.614 117.98,269.614 L117.98,530.428 L175.811,530.428 L175.811,327.446" id="Fill-16" fill="#788D8A"></path>
                    <path d="M176.52,327.446 C176.52,295.507 150.629,269.614 118.689,269.614 C86.749,269.614 60.857,295.507 60.857,327.446 L60.857,530.428 L176.52,530.428 L176.52,327.446 L176.52,327.446 Z" id="Stroke-17" stroke="#211F22" stroke-width="2.751" stroke-linecap="round" stroke-linejoin="round"></path>
                    <path d="M228.734,524.258 L228.734,530.535 C228.734,532.654 227.018,534.371 224.898,534.371 L12.48,534.371 C10.362,534.371 8.643,532.654 8.643,530.535 L8.643,524.258 L228.734,524.258" id="Fill-18" fill="#D0D0D1"></path>
                    <path d="M228.734,524.258 L228.734,530.535 C228.734,532.654 227.018,534.371 224.898,534.371 L12.48,534.371 C10.362,534.371 8.643,532.654 8.643,530.535 L8.643,524.258 L228.734,524.258 L228.734,524.258 Z" id="Stroke-19" stroke="#211F22" stroke-width="3" stroke-linecap="round" stroke-linejoin="round"></path>
                    <path d="M217.232,398.536 C217.232,396.418 215.516,394.7 213.396,394.7 L23.982,394.7 C21.863,394.7 20.145,396.418 20.145,398.536 L20.145,528.314 L217.232,528.314 L217.232,398.536" id="Fill-20" fill="#EFEDEE"></path>
                    <path d="M217.232,398.536 C217.232,396.418 215.516,394.7 213.396,394.7 L23.982,394.7 C21.863,394.7 20.145,396.418 20.145,398.536 L20.145,528.314 L217.232,528.314 L217.232,398.536 L217.232,398.536 Z" id="Stroke-21" stroke="#211F22" stroke-width="3" stroke-linecap="round" stroke-linejoin="round"></path>
                    <path d="M127.597,467.596 C127.597,472.516 123.609,476.504 118.689,476.504 C113.769,476.504 109.781,472.516 109.781,467.596 C109.781,462.676 113.769,458.687 118.689,458.687 C123.609,458.687 127.597,462.676 127.597,467.596" id="Fill-22" fill="#D0D0D1"></path>
                    <path d="M127.597,467.596 C127.597,472.516 123.609,476.504 118.689,476.504 C113.769,476.504 109.781,472.516 109.781,467.596 C109.781,462.676 113.769,458.687 118.689,458.687 C123.609,458.687 127.597,462.676 127.597,467.596 L127.597,467.596 Z" id="Stroke-23" stroke="#211F22" stroke-width="3" stroke-linecap="round" stroke-linejoin="round"></path>
                    <path d="M141.268,275.006 C141.268,286.879 131.643,296.501 119.773,296.501 C107.901,296.501 98.278,286.879 98.278,275.006 L98.278,183.071 C98.278,171.202 107.901,161.577 119.773,161.577 C131.643,161.577 141.268,171.202 141.268,183.071 L141.268,275.006" id="Fill-24" fill="#F7CE93"></path>
                    <path d="M141.268,275.006 C141.268,286.879 131.643,296.501 119.773,296.501 C107.901,296.501 98.278,286.879 98.278,275.006 L98.278,183.071 C98.278,171.202 107.901,161.577 119.773,161.577 C131.643,161.577 141.268,171.202 141.268,183.071 L141.268,275.006 L141.268,275.006 Z" id="Stroke-25" stroke="#211F22" stroke-width="2.751" stroke-linecap="round" stroke-linejoin="round"></path>
                    <path d="M18.607,154.423 C18.607,162.042 24.784,168.22 32.403,168.22 C40.022,168.22 46.199,162.042 46.199,154.423 L46.199,144.122 C46.199,136.503 40.022,130.327 32.403,130.327 C24.784,130.327 18.607,136.503 18.607,144.122 L18.607,154.423" id="Fill-26" fill="#FFDFB1"></path>
                    <path d="M18.607,154.423 C18.607,162.042 24.784,168.22 32.403,168.22 C40.022,168.22 46.199,162.042 46.199,154.423 L46.199,144.122 C46.199,136.503 40.022,130.327 32.403,130.327 C24.784,130.327 18.607,136.503 18.607,144.122 L18.607,154.423 L18.607,154.423 Z" id="Stroke-27" stroke="#211F22" stroke-width="2.751" stroke-linecap="round" stroke-linejoin="round"></path>
                    <path d="M191.18,154.423 C191.18,162.042 197.355,168.22 204.975,168.22 C212.594,168.22 218.772,162.042 218.772,154.423 L218.772,144.122 C218.772,136.503 212.594,130.327 204.975,130.327 C197.355,130.327 191.18,136.503 191.18,144.122 L191.18,154.423" id="Fill-28" fill="#FFDFB1"></path>
                    <path d="M191.18,154.423 C191.18,162.042 197.355,168.22 204.975,168.22 C212.594,168.22 218.772,162.042 218.772,154.423 L218.772,144.122 C218.772,136.503 212.594,130.327 204.975,130.327 C197.355,130.327 191.18,136.503 191.18,144.122 L191.18,154.423 L191.18,154.423 Z" id="Stroke-29" stroke="#211F22" stroke-width="2.751" stroke-linecap="round" stroke-linejoin="round"></path>
                    <path d="M204.975,172.581 C204.975,218.612 167.656,255.931 121.624,255.931 L117.919,255.931 C71.887,255.931 34.57,218.612 34.57,172.581 L34.57,96.64 C34.57,50.606 71.887,13.288 117.919,13.288 L121.624,13.288 C167.656,13.288 204.975,50.606 204.975,96.64 L204.975,172.581" id="Fill-30" fill="#F7CE93"></path>
                    <path d="M117.919,13.288 C71.887,13.288 34.569,50.606 34.569,96.64 L34.569,172.581 C34.569,218.612 71.887,255.931 117.919,255.931 L119.772,255.931 L119.772,13.288 L117.919,13.288" id="Fill-31" fill="#FFDFB1"></path>
                    <path d="M204.975,172.581 C204.975,218.612 167.656,255.931 121.624,255.931 L117.919,255.931 C71.887,255.931 34.57,218.612 34.57,172.581 L34.57,96.64 C34.57,50.606 71.887,13.288 117.919,13.288 L121.624,13.288 C167.656,13.288 204.975,50.606 204.975,96.64 L204.975,172.581 L204.975,172.581 Z" id="Stroke-32" stroke="#211F22" stroke-width="2.751" stroke-linecap="round" stroke-linejoin="round"></path>
                    <path d="M84.894,144.528 C84.894,148.263 81.865,151.29 78.129,151.29 C74.393,151.29 71.364,148.263 71.364,144.528 L71.364,136.071 C71.364,132.335 74.393,129.306 78.129,129.306 C81.865,129.306 84.894,132.335 84.894,136.071 L84.894,144.528" id="Fill-33" fill="#211F22"></path>
                    <path d="M168.181,144.528 C168.181,148.263 165.152,151.29 161.416,151.29 C157.681,151.29 154.651,148.263 154.651,144.528 L154.651,136.071 C154.651,132.335 157.681,129.306 161.416,129.306 C165.152,129.306 168.181,132.335 168.181,136.071 L168.181,144.528" id="Fill-34" fill="#211F22"></path>
                    <path d="M155.594,194.663 C142.539,194.663 130.313,190.776 119.773,184.021 C109.232,190.776 97.005,194.663 83.951,194.663 C64.802,194.663 47.422,186.325 34.57,172.769 L34.57,212.198 C34.57,249.755 65.014,280.199 102.57,280.199 L136.975,280.199 C174.531,280.199 204.975,249.755 204.975,212.198 L204.975,172.769 C192.123,186.325 174.742,194.663 155.594,194.663" id="Fill-35" fill="#F48F59"></path>
                    <path d="M84.888,0.298 L34.564,43.727 L34.554,151.411 L40.373,151.411 L40.373,100.087 C52.519,92.251 65.001,78.427 74.654,60.749 C80.078,50.817 85.14,39.269 87.701,29.608 C97.78,71.991 142.021,105.362 199.078,112.745 L199.078,151.411 L204.897,151.411 L204.97,28.853 L84.888,0.298" id="Fill-36" fill="#F6985B"></path>
                    <path d="M155.83,194.663 C142.776,194.663 130.549,190.776 120.009,184.021 L120.009,280.199 L137.212,280.199 C174.768,280.199 205.212,249.755 205.212,212.198 L205.212,172.769 C192.359,186.325 174.98,194.663 155.83,194.663" id="Fill-37" fill="#D68550"></path>
                    <path d="M205.134,151.411 L205.207,28.853 L120.009,8.593 L120.009,79.489 C140.115,96.61 167.746,108.661 199.315,112.745 L199.315,151.411 L205.134,151.411 Z" id="Fill-38" fill="#D68550"></path>
                    <path d="M155.594,194.663 C142.539,194.663 130.313,190.776 119.773,184.021 C109.232,190.776 97.005,194.663 83.951,194.663 C64.802,194.663 47.422,186.325 34.57,172.769 L34.57,212.198 C34.57,249.755 65.014,280.199 102.57,280.199 L136.975,280.199 C174.531,280.199 204.975,249.755 204.975,212.198 L204.975,172.769 C192.123,186.325 174.742,194.663 155.594,194.663 L155.594,194.663 Z" id="Stroke-39" stroke="#211F22" stroke-width="2.751" stroke-linecap="round" stroke-linejoin="round"></path>
                    <path d="M84.612,189.506 C94.794,200.73 106.968,207.28 120.059,207.28 C133.149,207.28 145.324,200.73 155.506,189.506" id="Fill-40" fill="#211F22"></path>
                    <path d="M142.723,180.306 L132.575,180.306 C129.423,180.306 126.858,177.741 126.858,174.589 C126.858,170.675 123.686,167.503 119.773,167.503 C115.859,167.503 112.686,170.675 112.686,174.589 C112.686,177.741 110.122,180.306 106.97,180.306 L96.823,180.306 C85.856,180.306 76.934,189.228 76.934,200.194 C76.934,204.106 80.107,207.28 84.02,207.28 C87.933,207.28 91.106,204.106 91.106,200.194 C91.106,197.04 93.67,194.478 96.823,194.478 L106.97,194.478 C111.845,194.478 116.31,192.706 119.773,189.786 C123.235,192.706 127.7,194.478 132.575,194.478 L142.723,194.478 C145.875,194.478 148.439,197.04 148.439,200.194 C148.439,204.106 151.611,207.28 155.525,207.28 C159.438,207.28 162.611,204.106 162.611,200.194 C162.611,189.228 153.689,180.306 142.723,180.306" id="Fill-41" fill="#F6985B"></path>
                    <path d="M119.773,189.786 C123.235,192.706 127.7,194.478 132.575,194.478 L142.723,194.478 C145.875,194.478 148.439,197.04 148.439,200.194 C148.439,204.106 151.611,207.28 155.525,207.28 C159.438,207.28 162.611,204.106 162.611,200.194 C162.611,189.228 153.689,180.306 142.723,180.306 L132.575,180.306 C129.423,180.306 126.858,177.741 126.858,174.589 C126.858,170.675 123.686,167.503 119.773,167.503" id="Fill-42" fill="#D68550"></path>
                    <path d="M142.723,180.306 L132.575,180.306 C129.423,180.306 126.858,177.741 126.858,174.589 C126.858,170.675 123.686,167.503 119.773,167.503 C115.859,167.503 112.686,170.675 112.686,174.589 C112.686,177.741 110.122,180.306 106.97,180.306 L96.823,180.306 C85.856,180.306 76.934,189.228 76.934,200.194 C76.934,204.106 80.107,207.28 84.02,207.28 C87.933,207.28 91.106,204.106 91.106,200.194 C91.106,197.04 93.67,194.478 96.823,194.478 L106.97,194.478 C111.845,194.478 116.31,192.706 119.773,189.786 C123.235,192.706 127.7,194.478 132.575,194.478 L142.723,194.478 C145.875,194.478 148.439,197.04 148.439,200.194 C148.439,204.106 151.611,207.28 155.525,207.28 C159.438,207.28 162.611,204.106 162.611,200.194 C162.611,189.228 153.689,180.306 142.723,180.306 L142.723,180.306 Z" id="Stroke-43" stroke="#211F22" stroke-width="2.751" stroke-linecap="round" stroke-linejoin="round"></path>
                    <path d="M129.734,169.602 C129.734,175.11 125.269,179.573 119.762,179.573 C114.255,179.573 109.79,175.11 109.79,169.602" id="Fill-44" fill="#F7CE93"></path>
                    <path d="M129.734,169.602 C129.734,175.11 125.269,179.573 119.762,179.573 C114.255,179.573 109.79,175.11 109.79,169.602" id="Stroke-45" stroke="#211F22" stroke-width="2.751" stroke-linecap="round" stroke-linejoin="round"></path>
                    <path d="M128.372,168.064 C128.372,172.269 124.518,175.677 119.762,175.677 C115.007,175.677 111.152,172.269 111.152,168.064 C111.152,163.858 115.007,160.45 119.762,160.45 C124.518,160.45 128.372,163.858 128.372,168.064" id="Fill-46" fill="#F7CE93"></path>
                    <path d="M153.013,110.331 L169.818,120.332 L153.013,110.331 Z M71.364,114.47 L89.081,106.191 L71.364,114.47 Z M84.888,0.298 L34.564,43.727 L34.554,151.411 L40.373,151.411 L40.373,100.087 C52.519,92.251 65.001,78.427 74.654,60.749 C80.078,50.817 85.14,39.269 87.701,29.608 C97.78,71.991 142.021,105.362 199.078,112.745 L199.078,151.411 L204.897,151.411 L204.97,28.853 L84.888,0.298 L84.888,0.298 Z M109.79,135.981 C109.79,130.474 114.254,126.007 119.762,126.007 C125.269,126.007 129.732,130.474 129.732,135.981 L109.79,135.981 Z M46.198,122.532 L46.198,143.665 C46.198,151.31 52.395,157.505 60.037,157.505 L95.95,157.505 C103.594,157.505 109.79,151.31 109.79,143.665 L109.79,122.532 L46.198,122.532 L46.198,122.532 Z M129.609,122.532 L129.609,143.665 C129.609,151.31 135.807,157.505 143.448,157.505 L179.363,157.505 C187.006,157.505 193.201,151.31 193.201,143.665 L193.201,122.532 L129.609,122.532 L129.609,122.532 Z M46.198,129.479 L34.559,129.479 L46.198,129.479 Z M204.965,129.479 L193.201,129.479 L204.965,129.479 Z" id="Stroke-47" stroke="#211F22" stroke-width="2.751" stroke-linecap="round" stroke-linejoin="round"></path>
                    <path d="M49.236,75.525 C55.247,68.771 60.941,60.718 65.89,51.653 C68.557,46.769 71.137,41.493 73.375,36.243 M102.749,37.54 C116.025,66.876 146.33,90.239 185.207,100.896 M111.975,36.243 C121.809,49.876 135.622,61.644 152.309,70.663" id="Imported-Layers" stroke="#211F22" stroke-width="2.751" stroke-linecap="round" stroke-linejoin="round"></path>
                </g>
            </g>
        </g>
    </g>
</svg>