<?xml version="1.0" encoding="UTF-8" standalone="no"?>
<svg width="788px" height="550px" viewBox="0 0 788 550" version="1.1" xmlns="http://www.w3.org/2000/svg" xmlns:xlink="http://www.w3.org/1999/xlink">
    <!-- Generator: Sketch 39.1 (31720) - http://www.bohemiancoding.com/sketch -->
    <title>ico_money</title>
    <desc>Created with Sketch.</desc>
    <defs>
        <polygon id="path-1" points="443.346919 344.597641 406.465154 347.106792 0.902473451 137.182579 351.327191 0.27799952 764.159141 176.980291"></polygon>
        <polygon id="path-3" points="443.346919 344.597641 406.465154 347.106792 0.902473451 137.182579 351.327191 0.27799952 764.159141 176.980291"></polygon>
        <polygon id="path-5" points="443.346919 344.597641 406.465154 347.106792 0.902473451 137.182579 351.327191 0.27799952 764.159141 176.980291"></polygon>
        <polygon id="path-7" points="443.346919 344.597641 406.465154 347.106792 0.902473451 137.182579 351.327191 0.27799952 764.159141 176.980291"></polygon>
    </defs>
    <g id="Page-1" stroke="none" stroke-width="1" fill="none" fill-rule="evenodd">
        <g id="ico_money" transform="translate(-59.000000, -1.000000)">
            <g id="Page-1">
                <g id="ico_money">
                    <g id="BrandCaptcha">
                        <g id="Publishers">
                            <g id="Intro">
                                <g id="Icono-$" transform="translate(0.000000, 0.112029)">
                                    <polyline id="Fill-3" fill="#6ABC46" points="554.269111 548.262654 63.4910585 276.98392 351.349323 135.73657 842.127376 407.018723 554.269111 548.262654"></polyline>
                                    <polygon id="Stroke-4" stroke="#211F22" stroke-width="4" points="554.269111 548.262654 63.4910585 276.98392 351.349323 135.73657 842.127376 407.018723"></polygon>
                                    <path d="M724.751132,382.809189 L390.771005,198.198672 C363.67629,211.493062 318.450065,209.400966 289.758929,193.546148 L177.958193,248.398759 C206.652746,264.260412 207.955181,287.899064 180.867303,301.193454 L514.847429,485.803971 C541.942144,472.50958 587.17179,474.59484 615.862925,490.456495 L727.660242,435.600466 C698.965688,419.735394 697.656419,396.100161 724.751132,382.809189 L724.751132,382.809189 L724.751132,382.809189 L724.751132,382.809189 Z M377.244159,379.07623 C333.88441,355.105987 331.905123,319.386499 372.841182,299.303047 C413.777241,279.216176 482.122513,282.371414 525.485678,306.334818 C568.852263,330.308479 570.824713,366.024549 529.885236,386.11484 C488.952595,406.198292 420.610742,403.046472 377.244159,379.07623 L377.244159,379.07623 L377.244159,379.07623 L377.244159,379.07623 Z" id="Fill-5" fill="#ABCF3B"></path>
                                    <path d="M724.751132,382.809189 L390.771005,198.198672 C363.67629,211.493062 318.450065,209.400966 289.758929,193.546148 L177.958193,248.398759 C206.652746,264.260412 207.955181,287.899064 180.867303,301.193454 L514.847429,485.803971 C541.942144,472.50958 587.17179,474.59484 615.862925,490.456495 L727.660242,435.600466 C698.965688,419.735394 697.656419,396.100161 724.751132,382.809189 L724.751132,382.809189 L724.751132,382.809189 L724.751132,382.809189 Z M377.244159,379.07623 C333.88441,355.105987 331.905123,319.386499 372.841182,299.303047 C413.777241,279.216176 482.122513,282.371414 525.485678,306.334818 C568.852263,330.308479 570.824713,366.024549 529.885236,386.11484 C488.952595,406.198292 420.610742,403.046472 377.244159,379.07623 L377.244159,379.07623 L377.244159,379.07623 L377.244159,379.07623 Z" id="Stroke-6" stroke="#211F22" stroke-width="4"></path>
                                    <g id="Group-12">
                                        <g id="Fill-7-Clipped">
                                            <g>
                                                <mask id="mask-2" fill="white">
                                                    <use xlink:href="#path-1"></use>
                                                </mask>
                                                <g id="path-1"></g>
                                                <polyline id="Fill-7" fill="#6ABC46" mask="url(#mask-2)" points="554.269111 416.453671 63.4910585 145.17152 351.349323 3.9275878 842.127376 275.206322 554.269111 416.453671"></polyline>
                                            </g>
                                        </g>
                                        <g id="Stroke-9-Clipped">
                                            <g>
                                                <mask id="mask-4" fill="white">
                                                    <use xlink:href="#path-3"></use>
                                                </mask>
                                                <g id="path-3"></g>
                                                <polygon id="Stroke-9" stroke="#211F22" stroke-width="4" mask="url(#mask-4)" points="554.269111 416.453671 63.4910585 145.17152 351.349323 3.9275878 842.127376 275.206322"></polygon>
                                            </g>
                                        </g>
                                        <g id="Fill-10-Clipped">
                                            <g>
                                                <mask id="mask-6" fill="white">
                                                    <use xlink:href="#path-5"></use>
                                                </mask>
                                                <g id="path-5"></g>
                                                <path d="M724.751132,251.000206 L390.771005,66.3862712 C363.67629,79.6806624 318.450065,77.5954017 289.758929,61.7337472 L177.958193,116.589776 C206.652746,132.45143 207.955181,156.086663 180.867303,169.381054 L514.847429,353.991569 C541.942144,340.697179 587.17179,342.789277 615.862925,358.644094 L727.660242,303.791485 C698.965688,287.929829 697.656419,264.294596 724.751132,251.000206 L724.751132,251.000206 L724.751132,251.000206 L724.751132,251.000206 Z M377.244159,247.263829 C333.88441,223.297006 331.905123,187.577517 372.841182,167.490646 C413.777241,147.407193 482.122513,150.559013 525.485678,174.525836 C568.852263,198.499496 570.824713,234.215566 529.885236,254.302439 C488.952595,274.385891 420.610742,271.23749 377.244159,247.263829 L377.244159,247.263829 L377.244159,247.263829 L377.244159,247.263829 Z" id="Fill-10" fill="#ABCF3B" mask="url(#mask-6)"></path>
                                            </g>
                                        </g>
                                        <g id="Stroke-11-Clipped">
                                            <g>
                                                <mask id="mask-8" fill="white">
                                                    <use xlink:href="#path-7"></use>
                                                </mask>
                                                <g id="path-7"></g>
                                                <path d="M724.751132,251.000206 L390.771005,66.3862712 C363.67629,79.6806624 318.450065,77.5954017 289.758929,61.7337472 L177.958193,116.589776 C206.652746,132.45143 207.955181,156.086663 180.867303,169.381054 L514.847429,353.991569 C541.942144,340.697179 587.17179,342.789277 615.862925,358.644094 L727.660242,303.791485 C698.965688,287.929829 697.656419,264.294596 724.751132,251.000206 L724.751132,251.000206 L724.751132,251.000206 L724.751132,251.000206 Z M377.244159,247.263829 C333.88441,223.297006 331.905123,187.577517 372.841182,167.490646 C413.777241,147.407193 482.122513,150.559013 525.485678,174.525836 C568.852263,198.499496 570.824713,234.215566 529.885236,254.302439 C488.952595,274.385891 420.610742,271.23749 377.244159,247.263829 L377.244159,247.263829 L377.244159,247.263829 L377.244159,247.263829 Z" id="Stroke-11" stroke="#211F22" stroke-width="4" mask="url(#mask-8)"></path>
                                            </g>
                                        </g>
                                    </g>
                                    <path d="M740.021393,201.090689 C746.335289,197.805549 751.774059,192.671022 755.424975,185.943493 C765.167586,168.010251 758.525517,145.57148 740.592275,135.832287 C733.389581,131.91815 725.465591,130.649902 717.927886,131.692532 L429.594456,272.102359 C437.13216,271.05973 445.05615,272.327979 452.258845,276.242114 C470.192087,285.981307 476.834154,308.420079 467.094961,326.353321 C463.249195,333.429533 457.427556,338.748657 450.686354,341.999612" id="Fill-13" fill="#4E8E41"></path>
                                    <path d="M416.97692,341.189437 C434.91358,350.932048 457.348931,344.286562 467.091543,326.353321 C476.830736,308.420079 470.188668,285.981307 452.255427,276.242114 C445.052732,272.327979 437.128742,271.05973 429.591037,272.102359 L717.924468,131.692532 C725.462172,130.649902 733.386162,131.91815 740.588857,135.832287 C758.522098,145.57148 765.164166,168.010251 755.421557,185.943493 C751.770641,192.671022 746.328453,197.808968 740.011138,201.090689 L451.732402,341.46975" id="Stroke-14" stroke="#211F22" stroke-width="4"></path>
                                </g>
                            </g>
                        </g>
                    </g>
                </g>
            </g>
        </g>
    </g>
</svg>