<?xml version="1.0" encoding="UTF-8" standalone="no"?>
<svg width="784px" height="552px" viewBox="0 0 784 552" version="1.1" xmlns="http://www.w3.org/2000/svg" xmlns:xlink="http://www.w3.org/1999/xlink">
    <!-- Generator: Sketch 39.1 (31720) - http://www.bohemiancoding.com/sketch -->
    <title>Artboard</title>
    <desc>Created with Sketch.</desc>
    <defs>
        <path d="M344.12,171 C344.12,76.56 267.31,0 172.55,0 C77.79,0 0.97,76.55 0.97,171 L0.97,255.74 L59.09,255.74 L59.09,178.46 C59.09,116 109.88,65.38 172.55,65.38 C235.22,65.38 286,116 286,178.46 L286,255.74 L344.11,255.74 L344.11,171 L344.12,171 Z" id="path-1"></path>
        <mask id="mask-2" maskContentUnits="userSpaceOnUse" maskUnits="objectBoundingBox" x="0" y="0" width="343.15" height="255.74" fill="white">
            <use xlink:href="#path-1"></use>
        </mask>
        <path d="M421.1,532.19 C421.100045,537.243005 419.087287,542.087893 415.506774,545.653392 C411.926262,549.218892 407.07296,551.211276 402.02,551.19 L19.08,551.19 C14.0270399,551.211276 9.17373803,549.218892 5.59322559,545.653392 C2.01271315,542.087893 -4.47913783e-05,537.243005 0,532.19 L0,266.84 C-4.47913783e-05,261.786995 2.01271315,256.942107 5.59322559,253.376608 C9.17373803,249.811108 14.0270399,247.818724 19.08,247.84 L402.02,247.84 C407.07296,247.818724 411.926262,249.811108 415.506774,253.376608 C419.087287,256.942107 421.100045,261.786995 421.1,266.84 L421.1,532.19 L421.1,532.19 Z" id="path-3"></path>
        <mask id="mask-4" maskContentUnits="userSpaceOnUse" maskUnits="objectBoundingBox" x="0" y="0" width="421.1" height="303.350337" fill="white">
            <use xlink:href="#path-3"></use>
        </mask>
    </defs>
    <g id="Page-1" stroke="none" stroke-width="1" fill="none" fill-rule="evenodd">
        <g id="Artboard">
            <g id="ico_chain" transform="translate(181.000000, 0.000000)">
                <g id="Home-Page">
                    <g id="Homepage">
                        <g id="MAIN-CONTENT">
                            <g id="_5">
                                <g id="Benefit-4">
                                    <g id="Group">
                                        <g id="Shape" transform="translate(38.000000, 0.000000)">
                                            <path d="M344.12,171 C344.12,76.56 267.31,0 172.55,0 C77.79,0 0.97,76.55 0.97,171 L0.97,255.74 L59.09,255.74 L59.09,178.46 C59.09,116 109.88,65.38 172.55,65.38 C235.22,65.38 286,116 286,178.46 L286,255.74 L344.11,255.74 L344.11,171 L344.12,171 Z" fill="#80A7E0"></path>
                                            <path d="M172.36,39.32 C92.72,39.32 28.15,108.91 28.15,194.74 L28.15,255.74 L58.89,255.74 L58.89,178.46 C58.89,116 109.65,65.38 172.35,65.38 C235.05,65.38 285.81,116 285.81,178.46 L285.81,255.74 L316.56,255.74 L316.56,194.74 C316.56,108.9 252,39.32 172.35,39.32 L172.36,39.32 Z" fill="#476DB1"></path>
                                            <use stroke="#000000" mask="url(#mask-2)" stroke-width="8" xlink:href="#path-1"></use>
                                        </g>
                                        <path d="M421.1,532.19 C421.100045,537.243005 419.087287,542.087893 415.506774,545.653392 C411.926262,549.218892 407.07296,551.211276 402.02,551.19 L19.08,551.19 C14.0270399,551.211276 9.17373803,549.218892 5.59322559,545.653392 C2.01271315,542.087893 -4.47913783e-05,537.243005 0,532.19 L0,266.84 C-4.47913783e-05,261.786995 2.01271315,256.942107 5.59322559,253.376608 C9.17373803,249.811108 14.0270399,247.818724 19.08,247.84 L402.02,247.84 C407.07296,247.818724 411.926262,249.811108 415.506774,253.376608 C419.087287,256.942107 421.100045,261.786995 421.1,266.84 L421.1,532.19 L421.1,532.19 Z" id="Shape-2" fill="#476DB1"></path>
                                        <path d="M20.65,248.62 C15.5970399,248.598724 10.743738,250.591108 7.16322559,254.156608 C3.58271315,257.722107 1.56995521,262.566995 1.57,267.62 L1.57,532.99 C1.56995521,538.043005 3.58271315,542.887893 7.16322559,546.453392 C10.743738,550.018892 15.5970399,552.011276 20.65,551.99 L212.09,551.99 L212.09,248.62 L20.65,248.62 Z" id="Shape-3" fill="#80A7E0"></path>
                                        <use id="Shape-4" stroke="#000000" mask="url(#mask-4)" stroke-width="8" xlink:href="#path-3"></use>
                                        <ellipse id="Oval" fill="#000000" cx="210.55" cy="380.96" rx="32.9" ry="32.79"></ellipse>
                                        <path d="M238.77,441.19 C239.96,445.49 235.77,450.37 229.39,451.37 C216.90906,453.320255 204.20094,453.320255 191.72,451.37 C185.31,450.37 181.16,445.5 182.35,441.2 C185.883333,427.473333 189.42,413.743333 192.96,400.01 C194.15,395.7 197.66,392.9 200.85,393.39 C207.284124,394.397597 213.835876,394.397597 220.27,393.39 C223.46,392.9 226.97,395.7 228.16,400.01 C231.693333,413.743333 235.23,427.473333 238.77,441.2 L238.77,441.19 Z" id="Shape-5" fill="#000000"></path>
                                    </g>
                                </g>
                            </g>
                        </g>
                    </g>
                </g>
            </g>
        </g>
    </g>
</svg>