<?xml version="1.0" encoding="UTF-8" standalone="no"?>
<svg width="784px" height="552px" viewBox="0 0 784 552" version="1.1" xmlns="http://www.w3.org/2000/svg" xmlns:xlink="http://www.w3.org/1999/xlink">
    <!-- Generator: Sketch 39.1 (31720) - http://www.bohemiancoding.com/sketch -->
    <title>Artboard</title>
    <desc>Created with Sketch.</desc>
    <defs></defs>
    <g id="Page-1" stroke="none" stroke-width="1" fill="none" fill-rule="evenodd">
        <g id="Artboard">
            <g id="Group" transform="translate(94.000000, 2.000000)">
                <path d="M439.326183,0.0119126083 C525.459915,0.0119126083 587.493374,73.6199191 595.292275,161.344366 C595.292275,161.344366 599.501774,183.132527 590.236107,222.336921 C577.619537,275.729231 547.962248,323.165237 507.977975,359.355741 L296.334409,547.97998 L88.2683198,359.343828 C48.2721218,323.153325 18.6267586,275.717318 6.01018809,222.325008 C-3.25547853,183.120614 0.95401995,161.332454 0.95401995,161.332454 C8.75292081,73.6080065 70.78638,0 156.920112,0 C220.873484,0 272.26991,39.8238495 296.334409,96.8018548 C320.410832,39.8238495 375.372811,0.0119126083 439.326183,0.0119126083 Z" id="Fill-1008" stroke="#000000" stroke-width="4" fill="#3EAE99"></path>
                <path d="M50.2863283,194.12108 C43.6557116,194.12108 38.2960631,188.766967 38.2960631,182.143199 C38.2960631,116.097162 92.0843928,62.3643873 158.198715,62.3643873 C164.829332,62.3643873 170.18898,67.730478 170.18898,74.3422684 C170.18898,80.9660367 164.829332,86.3201495 158.198715,86.3201495 C105.309655,86.3201495 62.2765935,129.308765 62.2765935,182.143199 C62.2765935,188.766967 56.9169449,194.12108 50.2863283,194.12108" id="Fill-1010" fill="#6EC2B2"></path>
            </g>
        </g>
    </g>
</svg>