<?xml version="1.0" encoding="UTF-8" standalone="no"?>
<svg width="297px" height="284px" viewBox="0 0 297 284" version="1.1" xmlns="http://www.w3.org/2000/svg" xmlns:xlink="http://www.w3.org/1999/xlink">
    <!-- Generator: Sketch 39.1 (31720) - http://www.bohemiancoding.com/sketch -->
    <title>Icon</title>
    <desc>Created with Sketch.</desc>
    <defs>
        <path d="M267.071121,141.196602 C267.071121,214.94766 207.284182,274.73743 133.53556,274.73743 C59.7869391,274.73743 0,214.94766 0,141.196602 C0,67.4423775 59.7869391,7.65471781 133.53556,7.65471781 C207.284182,7.65471781 267.071121,67.4423775 267.071121,141.196602 L131.037154,1.00654825" id="path-1"></path>
        <path d="M141.597859,275.240398 C134.153331,275.240398 128.121162,269.207967 128.121162,261.763116 C128.121162,254.318266 134.153331,248.285834 141.597859,248.285834 C149.042386,248.285834 155.074556,254.318266 155.074556,261.763116 C155.074556,269.207967 149.042386,275.240398 141.597859,275.240398 Z" id="path-3"></path>
        <mask id="mask-4" maskContentUnits="userSpaceOnUse" maskUnits="objectBoundingBox" x="-2" y="-2" width="30.9533943" height="30.9545642">
            <rect x="126.121162" y="246.285834" width="30.9533943" height="30.9545642" fill="white"></rect>
            <use xlink:href="#path-3" fill="black"></use>
        </mask>
        <path d="M156.29676,34.9712659 C156.29676,24.5162101 147.821663,16.0407459 137.367061,16.0407459 C129.616702,16.0407459 122.975082,20.7084713 120.049091,27.377423 L144.960575,52.2899874 C151.629237,49.3638698 156.29676,42.7219617 156.29676,34.9712659 Z" id="path-5"></path>
        <mask id="mask-6" maskContentUnits="userSpaceOnUse" maskUnits="objectBoundingBox" x="-3" y="-3" width="42.2476682" height="42.2492415">
            <rect x="117.049091" y="13.0407459" width="42.2476682" height="42.2492415" fill="white"></rect>
            <use xlink:href="#path-5" fill="black"></use>
        </mask>
        <path d="M185.451349,64.1271202 C185.451349,53.6720645 176.976252,45.1966002 166.52165,45.1966002 C158.771291,45.1966002 152.129671,49.8643256 149.20368,56.5332773 L174.115164,81.4458417 C180.783826,78.5197242 185.451349,71.877816 185.451349,64.1271202 Z" id="path-7"></path>
        <mask id="mask-8" maskContentUnits="userSpaceOnUse" maskUnits="objectBoundingBox" x="-3" y="-3" width="42.2476682" height="42.2492415">
            <rect x="146.20368" y="42.1966002" width="42.2476682" height="42.2492415" fill="white"></rect>
            <use xlink:href="#path-7" fill="black"></use>
        </mask>
        <path d="M214.761452,93.4380657 C214.761452,82.9830099 206.286356,74.5075456 195.831754,74.5075456 C188.081394,74.5075456 181.439775,79.175271 178.513784,85.8442228 L203.425267,110.756787 C210.093929,107.83067 214.761452,101.188761 214.761452,93.4380657 Z" id="path-9"></path>
        <mask id="mask-10" maskContentUnits="userSpaceOnUse" maskUnits="objectBoundingBox" x="-3" y="-3" width="42.2476682" height="42.2492415">
            <rect x="175.513784" y="71.5075456" width="42.2476682" height="42.2492415" fill="white"></rect>
            <use xlink:href="#path-9" fill="black"></use>
        </mask>
        <path d="M244.071556,122.749011 C244.071556,112.293955 235.596459,103.818491 225.141857,103.818491 C217.391498,103.818491 210.749878,108.486216 207.823888,115.155168 L232.735371,140.067733 C239.404033,137.141615 244.071556,130.499707 244.071556,122.749011 Z" id="path-11"></path>
        <mask id="mask-12" maskContentUnits="userSpaceOnUse" maskUnits="objectBoundingBox" x="-3" y="-3" width="42.2476682" height="42.2492415">
            <rect x="204.823888" y="100.818491" width="42.2476682" height="42.2492415" fill="white"></rect>
            <use xlink:href="#path-11" fill="black"></use>
        </mask>
        <path d="M67.8215255,175.322082 C57.8849088,175.322082 49.7549497,166.747743 49.7549497,156.267994 C49.7549497,145.788245 57.8849088,137.213905 67.8215255,137.213905 L119.440314,137.213905 C129.37693,137.213905 137.506889,145.788245 137.506889,156.267994 C137.506889,166.747743 129.37693,175.322082 119.440314,175.322082 L67.8215255,175.322082 Z" id="path-13"></path>
        <mask id="mask-14" maskContentUnits="userSpaceOnUse" maskUnits="objectBoundingBox" x="-3" y="-3" width="93.7519397" height="44.1081769">
            <rect x="46.7549497" y="134.213905" width="93.7519397" height="44.1081769" fill="white"></rect>
            <use xlink:href="#path-13" fill="black"></use>
        </mask>
    </defs>
    <g id="BrandCaptcha" stroke="none" stroke-width="1" fill="none" fill-rule="evenodd">
        <g id="Publishers" transform="translate(-901.000000, -837.000000)">
            <g id="Ingresos-adicionales" transform="translate(0.000000, 730.000000)">
                <g id="Main" transform="translate(240.000000, 109.000000)">
                    <g id="Icon" transform="translate(810.500000, 140.500000) scale(-1, 1) rotate(-270.000000) translate(-810.500000, -140.500000) translate(670.000000, -7.000000)">
                        <path d="M146.253233,292.519161 C72.5046115,292.519161 12.7176724,232.729391 12.7176724,158.978333 C12.7176724,85.2241085 72.5046115,25.4364488 146.253233,25.4364488 C220.001854,25.4364488 279.788793,85.2241085 279.788793,158.978333 C279.788793,232.729391 220.001854,292.519161 146.253233,292.519161 Z" id="BG" fill="#466DB2"></path>
                        <g id="Manga" transform="translate(12.717672, 19.053553)">
                            <mask id="mask-2" fill="white">
                                <use xlink:href="#path-1"></use>
                            </mask>
                            <g id="Mask"></g>
                            <polygon id="Fill-688" stroke="#000000" stroke-width="3" fill="#ECF0F1" mask="url(#mask-2)" points="91.6620971 231.495467 222.654123 231.495467 222.654123 291.271122 91.6620971 291.271122"></polygon>
                            <path d="M180.685804,289.999299 L92.9338643,289.999299 L92.9338643,232.76729 L145.076321,232.76729 C164.539447,232.76729 180.685804,248.079454 180.685804,267.106496 L180.685804,289.999299" id="Fill-689" fill="#BDC3C7" mask="url(#mask-2)"></path>
                            <g id="Fill-690" mask="url(#mask-2)">
                                <use fill="#727075" fill-rule="evenodd" xlink:href="#path-3"></use>
                                <use stroke="#000000" mask="url(#mask-4)" stroke-width="4" xlink:href="#path-3"></use>
                            </g>
                        </g>
                        <path d="M279.788793,158.978333 C279.788793,232.729391 220.001854,292.519161 146.253233,292.519161 C72.5046115,292.519161 12.7176724,232.729391 12.7176724,158.978333 C12.7176724,85.2241085 72.5046115,25.4364488 146.253233,25.4364488 C220.001854,25.4364488 279.788793,85.2241085 279.788793,158.978333 L279.788793,158.978333 Z" id="BG-outline" stroke="#1B1B1B" stroke-width="3" stroke-linecap="round" stroke-linejoin="round"></path>
                        <g id="Fill-691">
                            <use fill="#F2CC90" fill-rule="evenodd" xlink:href="#path-5"></use>
                            <use stroke="#000000" mask="url(#mask-6)" stroke-width="6" xlink:href="#path-5"></use>
                        </g>
                        <g id="Fill-692">
                            <use fill="#F2CC90" fill-rule="evenodd" xlink:href="#path-7"></use>
                            <use stroke="#000000" mask="url(#mask-8)" stroke-width="6" xlink:href="#path-7"></use>
                        </g>
                        <g id="Fill-693">
                            <use fill="#F2CC90" fill-rule="evenodd" xlink:href="#path-9"></use>
                            <use stroke="#000000" mask="url(#mask-10)" stroke-width="6" xlink:href="#path-9"></use>
                        </g>
                        <g id="Fill-694">
                            <use fill="#F2CC90" fill-rule="evenodd" xlink:href="#path-11"></use>
                            <use stroke="#000000" mask="url(#mask-12)" stroke-width="6" xlink:href="#path-11"></use>
                        </g>
                        <path d="M82.7380294,173.81172 L57.8863989,168.051926 C54.7266448,169.598842 51.5540023,168.983379 54.8613574,171.835848 L112.968895,231.694903 C113.373431,232.095346 113.843568,232.391564 114.26997,232.753608 L114.26997,250.608968 L159.271867,250.608968 L82.7380294,173.81172 Z" id="Fill-125" stroke="#000000" stroke-width="3" fill="#F2CC90"></path>
                        <path d="M164.074519,250.608968 L223.11922,250.608968 L223.11922,226.100449 C232.965417,218.660945 239.358137,206.868598 239.358137,193.549223 C239.358137,188.071487 238.248478,182.870899 236.288982,178.110486 L164.074519,250.608968" id="Fill-126" stroke="#000000" stroke-width="3" fill="#F2CC90"></path>
                        <path d="M0.49529808,92.855417 L52.0777231,144.828163 C55.4648983,141.745319 58.305626,137.809479 63.220564,137.809479 L117.589348,137.809479 C128.055339,137.809479 136.618422,146.372934 136.618422,156.839379 C136.618422,167.305824 128.055339,175.869279 117.589348,175.869279 L83.5109941,175.869279 L161.965149,254.326839 L254.228975,162.059009 L92.7645612,0.582149208 L0.49529808,92.855417 Z" id="Fill-235" stroke="#000000" stroke-width="3" stroke-linecap="round" fill="#69BC46"></path>
                        <path d="M126.246466,57.7465197 L107.190236,38.6903261 L103.380068,42.500487 C97.2687094,48.606445 86.625029,48.606445 80.5190595,42.500487 L76.7035022,38.6903261 L38.6018211,76.7973241 L42.4119892,80.607485 C48.7119701,86.9128432 48.7119701,97.1738705 42.4119892,103.479229 L38.6018211,107.28939 L57.6526616,126.340194 C58.7035566,127.391087 60.0831932,127.919228 61.4628297,127.919228 C62.8424663,127.919228 64.2221028,127.391087 65.2729978,126.340194 C67.3801771,124.233019 67.3801771,120.821658 65.2729978,118.719872 L53.4598599,106.901368 C59.3933749,97.9283578 59.3933749,86.1583559 53.4598599,77.1853462 L77.0861357,53.553726 C85.8220374,59.3632782 98.0663118,59.3632782 106.812992,53.553726 L118.62613,65.3668415 C120.72792,67.4740168 124.139287,67.4740168 126.246466,65.3668415 C128.353645,63.2650554 128.353645,59.853695 126.246466,57.7465197" id="Fill-696" stroke="#000000" stroke-width="2.1" fill="#ABCF3B"></path>
                        <path d="M215.193025,144.833478 L196.142185,125.78181 C194.035005,123.67454 190.623638,123.67454 188.521848,125.78181 C186.414669,127.883692 186.414669,131.295207 188.521848,133.402477 L200.334986,145.216128 C194.401471,154.189544 194.401471,165.965469 200.334986,174.938885 L176.70871,198.571576 C167.96203,192.756371 155.717756,192.756371 146.981854,198.571576 L135.168716,186.752535 C133.061537,184.650654 129.655559,184.650654 127.54838,186.752535 C125.441201,188.859806 125.441201,192.271321 127.54838,194.373202 L146.599221,213.430259 L150.409389,209.619926 C156.526137,203.513691 167.169817,203.52447 173.275787,209.619926 L177.085955,213.430259 L215.193025,175.321535 L211.382857,171.511202 C205.082876,165.205558 205.082876,154.949455 211.382857,148.643811 L215.193025,144.833478" id="Fill-697" stroke="#000000" stroke-width="2.1" fill="#ABCF3B"></path>
                        <path d="M227.503291,157.438863 C225.322854,155.258059 221.792889,155.258059 219.612452,157.438863 C217.437592,159.614089 217.437592,163.144649 219.612452,165.325453 C221.792889,167.500679 225.322854,167.500679 227.503291,165.325453 C229.678151,163.144649 229.678151,159.614089 227.503291,157.438863" id="Fill-698" stroke="#000000" stroke-width="2.1" fill="#ABCF3B"></path>
                        <path d="M158.274631,218.77955 C156.093922,220.960354 156.093922,224.490914 158.274631,226.66614 C160.449763,228.846944 163.98017,228.846944 166.160879,226.66614 C168.336011,224.490914 168.336011,220.960354 166.160879,218.77955 C163.98017,216.604324 160.449763,216.604324 158.274631,218.77955" id="Fill-699" stroke="#000000" stroke-width="2.1" fill="#ABCF3B"></path>
                        <path d="M96.453825,35.1964009 C98.628957,33.0219901 98.628957,29.4871785 96.453825,27.3127676 C94.2731158,25.1327813 90.7427092,25.1327813 88.5675773,27.3127676 C86.386868,29.4871785 86.386868,33.0219901 88.5675773,35.1964009 C90.7427092,37.3763872 94.2731158,37.3763872 96.453825,35.1964009" id="Fill-700" stroke="#000000" stroke-width="2.1" fill="#ABCF3B"></path>
                        <path d="M27.2211866,88.658251 C25.0460546,90.8334774 25.0460546,94.3640371 27.2211866,96.544841 C29.3963186,98.7200674 32.9323024,98.7200674 35.1074343,96.544841 C37.2881436,94.3640371 37.2881436,90.8334774 35.1074343,88.658251 C32.9323024,86.4774471 29.3963186,86.4774471 27.2211866,88.658251" id="Fill-701" stroke="#000000" stroke-width="2.1" fill="#ABCF3B"></path>
                        <path d="M160.020297,93.7144724 C141.716478,75.5808588 112.039817,75.5808588 93.7412051,93.7144724 C82.0507148,105.296254 77.8640091,121.464318 81.1081852,136.368446 L117.517944,136.368446 C127.542084,136.368446 135.743653,144.493749 135.743653,154.424676 C135.743653,163.777803 128.442955,171.438803 119.220746,172.310661 C133.619056,174.66313 148.913029,170.381224 160.020297,159.377242 C178.324116,141.243628 178.324116,111.848086 160.020297,93.7144724" id="Fill-702" stroke="#000000" stroke-width="2" fill="#ABCF3B"></path>
                        <g id="Fill-695">
                            <use fill="#FBDDAD" fill-rule="evenodd" xlink:href="#path-13"></use>
                            <use stroke="#000000" mask="url(#mask-14)" stroke-width="6" xlink:href="#path-13"></use>
                        </g>
                        <path d="M68.9277268,179.594706 L84.2864382,178.95075 L80.4891409,175.172468 L67.6393581,175.172468 C61.4348456,175.172468 56.0447018,170.682445 56.0447018,170.682445 L63.4352075,178.2729 L68.9277268,179.594706 Z" id="Path-5308" fill="#F2CC90"></path>
                    </g>
                </g>
            </g>
        </g>
    </g>
</svg>