<?xml version="1.0" encoding="UTF-8" standalone="no"?>
<svg width="281px" height="281px" viewBox="0 0 281 281" version="1.1" xmlns="http://www.w3.org/2000/svg" xmlns:xlink="http://www.w3.org/1999/xlink">
    <!-- Generator: Sketch 39.1 (31720) - http://www.bohemiancoding.com/sketch -->
    <title>Iconos</title>
    <desc>Created with Sketch.</desc>
    <defs></defs>
    <g id="BrandCaptcha" stroke="none" stroke-width="1" fill="none" fill-rule="evenodd">
        <g id="Publishers" transform="translate(-918.000000, -1873.000000)">
            <g id="Seguridad" transform="translate(0.000000, 1733.000000)">
                <g id="Iconos" transform="translate(920.000000, 142.000000)">
                    <path d="M138.533129,276.955939 C62.0548053,276.955939 0.0549363203,214.961363 0.0549363203,138.490663 C0.0549363203,62.016681 62.0548053,0.0242936644 138.533129,0.0242936644 C215.011452,0.0242936644 277.011321,62.016681 277.011321,138.490663 C277.011321,214.961363 215.011452,276.955939 138.533129,276.955939 Z" id="BG" stroke="#000000" stroke-width="3" fill="#6EC2B2"></path>
                    <g id="16---Fingeprint-Encryption-(Flat)" transform="translate(13.834963, 34.050137)">
                        <path d="M151.068795,180.826305 C150.168623,183.32343 147.78836,185.131693 144.97965,185.131693 L110.357644,185.131693 C107.548934,185.131693 105.164343,183.32343 104.268499,180.826305 L2.50143993,180.826305 C1.12088744,180.826305 0,181.9414 0,183.314819 L0,195.559343 C0,196.932762 1.12088744,198.047858 2.50143993,198.047858 L248.508104,198.047858 C249.888656,198.047858 251.009543,196.932762 251.009543,195.559343 L251.009543,183.314819 C251.009543,181.9414 249.888656,180.826305 248.508104,180.826305 L151.068795,180.826305" id="Fill-132" fill="#505050"></path>
                        <path d="M104.268499,180.826305 C105.164343,183.32343 107.548934,185.131693 110.357644,185.131693 L144.97965,185.131693 C147.78836,185.131693 150.168623,183.32343 151.068795,180.826305 L238.026291,180.826305 L238.026291,13.2046256 C238.026291,5.91129801 232.084289,0 224.75308,0 L26.2564638,0 C18.925254,0 12.9832522,5.91129801 12.9832522,13.2046256 L12.9832522,180.826305 L104.268499,180.826305" id="Fill-133" fill="#363239"></path>
                        <path d="M25.9665045,167.91014 L25.9665045,19.7703427 C25.9665045,15.9859064 29.0521908,12.9161646 32.8562837,12.9161646 L218.15326,12.9161646 C221.957353,12.9161646 225.043039,15.9859064 225.043039,19.7703427 L225.043039,167.91014 L25.9665045,167.91014 Z" id="Fill-134" fill="#466DB2"></path>
                        <path d="M124.634894,84.4458844 C122.769633,85.8494409 122.393119,88.523087 123.739049,90.4217632 C123.816949,90.5293979 131.394841,101.766461 129.83685,146.232511 C129.750295,148.609085 131.619884,150.606785 134.008802,150.684282 C134.060735,150.688587 134.112668,150.688587 134.160273,150.688587 C136.484275,150.688587 138.405797,148.858797 138.488024,146.533888 C140.171519,98.4728392 131.559295,86.3660875 130.572568,85.1390519 C129.10546,83.3264834 126.495827,83.0509386 124.634894,84.4458844" id="Fill-298" fill-opacity="0.30431952" fill="#FFFFFF"></path>
                        <path d="M181.605405,86.4866384 C180.804771,81.513915 179.683883,76.9545089 178.182154,72.5630129 C171.318341,52.435323 149.277107,35.4720935 129.0492,34.757399 C121.311181,34.468938 113.767912,35.8423569 106.644434,38.8001586 C86.9618236,46.96748 74.1257148,65.9370204 73.9439493,87.1238358 C73.9006718,92.1310023 74.5758009,97.1209473 75.9563534,101.955898 C76.67476,104.487466 77.3498892,106.96737 77.717748,109.464495 C78.5832981,115.319823 78.7867024,124.748623 78.4274991,141.991703 C78.3755661,144.363972 80.2754487,146.331535 82.6643671,146.383199 L82.7552498,146.383199 C85.1052185,146.383199 87.0310676,144.510355 87.0830006,142.168224 C87.4551872,124.180312 87.2344719,114.661099 86.2823667,108.215933 C85.8409361,105.210772 85.0532855,102.313245 84.2829459,99.6094616 C83.1274364,95.5580913 82.5648288,91.3861702 82.5994508,87.2013328 C82.7509221,69.4631334 93.4967272,53.5848617 109.976802,46.7435998 C115.940443,44.2680016 122.258959,43.152906 128.741929,43.3595647 C145.390786,43.9537082 164.277091,58.5877228 169.985394,75.3270721 C171.331324,79.262197 172.335363,83.3566211 173.062425,87.847141 C174.334783,95.7389176 173.919319,105.731724 173.391334,118.380954 C173.209568,122.811199 173.010492,127.53421 172.876331,132.562903 C172.811415,134.939477 174.693987,136.919956 177.082905,136.984537 L177.204082,136.984537 C179.53674,136.984537 181.462589,135.137525 181.527505,132.799699 C181.665993,127.818365 181.856414,123.134103 182.042508,118.733996 C182.587804,105.602562 183.020579,95.2308818 181.605405,86.4866384" id="Fill-299" fill-opacity="0.30431952" fill="#FFFFFF"></path>
                        <path d="M100.737054,87.5672908 L100.737054,87.55868 C100.970753,79.4171909 104.528164,68.3566486 111.777146,63.2935121 C113.73329,61.928704 114.205015,59.2421418 112.833118,57.3004117 C111.456893,55.3543762 108.760704,54.8721727 106.804561,56.249897 C96.3919925,63.5173923 92.371512,77.5228201 92.0858805,87.3046621 L92.0858805,87.3218837 C91.9690312,91.4076971 92.458067,95.4978159 93.535677,99.4544677 C93.8386195,100.582479 96.4309422,111.500944 95.2105165,146.232511 C95.1282892,148.609085 96.9978776,150.606785 99.386796,150.684282 C99.438729,150.688587 99.490662,150.688587 99.5382672,150.688587 C101.862269,150.688587 103.783791,148.858797 103.866018,146.533888 C105.099427,111.315812 102.446516,99.3037791 101.896891,97.228582 C101.035669,94.0598162 100.641844,90.8092481 100.737054,87.5672908" id="Fill-300" fill-opacity="0.30431952" fill="#FFFFFF"></path>
                        <path d="M163.839988,86.6158 C162.97011,82.1252801 161.723718,78.009329 160.027239,74.0225395 C154.17612,60.253908 141.989174,51.703407 128.218271,51.703407 C125.634604,51.703407 123.06392,51.9789519 120.575464,52.5214308 C118.238478,53.0294666 116.762715,55.3285439 117.277718,57.6491481 C117.788392,59.9740578 120.086428,61.4335844 122.432069,60.929854 C124.310313,60.5251475 126.2578,60.3141834 128.218271,60.3141834 C138.449074,60.3141834 147.580628,66.8497627 152.055523,77.3807423 C153.513975,80.8078313 154.591585,84.3683874 155.344613,88.2647637 C157.240168,98.0552165 156.803065,110.080166 156.076003,130.005502 L155.799027,137.621734 C155.7168,140.002614 157.586388,141.996009 159.975306,142.073506 C160.027239,142.077811 160.079172,142.077811 160.126778,142.077811 C162.45078,142.077811 164.372301,140.248021 164.454528,137.923111 L164.722849,130.324101 C165.475878,109.783094 165.925964,97.3878813 163.844316,86.6330216 C163.839988,86.6287162 163.839988,86.6244108 163.839988,86.6158" id="Fill-301" fill-opacity="0.30431952" fill="#FFFFFF"></path>
                        <path d="M151.471276,135.951244 L151.471276,135.115998 C151.488587,132.739424 149.562738,130.797694 147.17382,130.780472 L147.143525,130.780472 C144.76759,130.780472 142.833086,132.687759 142.815775,135.055723 L142.815775,135.951244 C142.815775,137.208417 142.833086,138.319207 142.850397,139.417081 C142.867708,140.437458 142.885019,141.449224 142.885019,142.555709 L142.880691,143.644972 C142.854725,146.021547 144.771918,147.971887 147.160836,147.99772 L147.208442,147.99772 C149.575721,147.99772 151.510226,146.103349 151.536193,143.739691 L151.54052,142.555709 C151.54052,141.39756 151.523209,140.34274 151.505898,139.275003 C151.488587,138.224489 151.471276,137.156752 151.471276,135.951244" id="Fill-302" fill-opacity="0.30431952" fill="#FFFFFF"></path>
                        <path d="M145.607174,80.0888315 C142.469555,72.7223123 135.246539,67.9562475 127.20125,67.9562475 C124.556994,67.9562475 121.968999,68.4728941 119.506509,69.4932711 C112.261854,72.4984321 107.44074,79.4989933 107.224353,87.3304945 C107.150781,89.965392 107.600867,92.5443196 108.475073,94.7831215 C108.496711,94.8477023 108.617888,95.1706064 108.643855,95.2351872 C110.201845,99.3166952 113.707323,112.45674 112.521519,146.232511 C112.439292,148.609085 114.308881,150.606785 116.697799,150.684282 C116.749732,150.688587 116.801665,150.688587 116.84927,150.688587 C119.173272,150.688587 121.094794,148.858797 121.177021,146.533888 C122.37148,112.461045 118.904952,97.8485579 116.628555,91.8985114 C116.087586,90.507871 115.836577,89.0526497 115.875526,87.5672908 C116.001031,83.1198248 118.731842,79.1416461 122.830222,77.4410177 C128.495248,75.0945812 135.272505,77.8844727 137.652768,83.4814774 C137.986005,84.2779742 138.617857,85.7633332 139.366557,88.5575301 C140.876942,94.1803671 142.768169,104.814676 143.200945,123.543115 C143.257205,125.885246 145.183054,127.749479 147.524368,127.749479 L147.628234,127.749479 C150.017152,127.693509 151.908379,125.721641 151.852118,123.340761 C151.492915,107.621789 150.103707,95.1749118 147.7321,86.3402552 C146.8276,82.9691362 146.01831,81.0575438 145.607174,80.0888315" id="Fill-303" fill-opacity="0.30431952" fill="#FFFFFF"></path>
                    </g>
                </g>
            </g>
        </g>
    </g>
</svg>