<?xml version="1.0" encoding="UTF-8" standalone="no"?>
<svg width="45px" height="45px" viewBox="0 0 45 45" version="1.1" xmlns="http://www.w3.org/2000/svg" xmlns:xlink="http://www.w3.org/1999/xlink">
    <!-- Generator: Sketch 39.1 (31720) - http://www.bohemiancoding.com/sketch -->
    <title>Group-2</title>
    <desc>Created with Sketch.</desc>
    <defs></defs>
    <g id="Page-1" stroke="none" stroke-width="1" fill="none" fill-rule="evenodd">
        <g id="iso-ponta">
            <g id="Home-Page">
                <g id="Homepage">
                    <g id="HEADER-Ponta">
                        <g id="Logo">
                            <g id="Group-2">
                                <circle id="Oval" fill="#FFFFFF" cx="22.5" cy="22.5" r="22.5"></circle>
                                <path d="M22.6632165,0.227578947 L22.6632165,0.213052632 C22.6632165,0.213052632 22.6559175,0.208210526 22.6461856,0.208210526 C16.4882887,0.213052632 10.9216082,2.70431579 6.88771134,6.71842105 L11.9653608,11.7735789 C14.6927423,9.03052632 18.4663093,7.32852632 22.6461856,7.31157895 L22.6461856,0.227578947 L22.6632165,0.227578947" id="Fill-1" fill="#68BB45"></path>
                                <path d="M6.87797938,6.75231579 C5.79286598,7.83452632 4.844,8.99905263 4.03138144,10.2289474 C4.02651546,10.2337895 4.01921649,10.2410526 4.01678351,10.2458947 C3.83674227,10.5170526 3.67129897,10.7857895 3.50342268,11.0593684 C3.428,11.1925263 3.35257732,11.3208421 3.27958763,11.4515789 C3.192,11.6041053 3.10684536,11.7590526 3.02412371,11.9164211 C2.89517526,12.1488421 2.77595876,12.3836842 2.65674227,12.6257895 C2.62997938,12.6766316 2.60321649,12.7347368 2.57402062,12.7855789 C1.17991753,15.686 0.398927835,18.9374737 0.398927835,22.3656842 L0.398927835,22.4431579 L7.58354639,22.4431579 L7.58354639,22.3656842 C7.58354639,18.2377895 9.25257732,14.5021053 11.9556289,11.7784211 L6.89014433,6.73778947 C6.89014433,6.73778947 6.88771134,6.74263158 6.87797938,6.75231579" id="Fill-2" fill="#ACCD3A"></path>
                                <path d="M44.9907629,22.4044211 C44.9883299,16.2815789 42.4872165,10.7373684 38.4557526,6.72326316 L38.4508866,6.72326316 L38.4484536,6.71842105 L33.4170309,11.7227368 C36.1541443,14.4512632 37.8450722,18.2087368 37.8450722,22.3656842 L37.8450722,22.4189474 L44.9907629,22.4189474 L44.9907629,22.4044211" id="Fill-3" fill="#1980BA"></path>
                                <path d="M22.6632165,7.31157895 L22.7143093,7.31157895 C26.8868866,7.31157895 30.6799175,8.99905263 33.4170309,11.7227368 L38.4484536,6.71842105 C34.0958351,2.39684211 28.3612784,0.227578947 22.6632165,0.227578947 L22.6632165,7.31157895" id="Fill-4" fill="#42AC98"></path>
                                <path d="M22.7143093,37.4222105 L22.7143093,44.5715789 C28.8478763,44.5715789 34.4048247,42.1093684 38.4338557,38.1218947 L33.3537732,33.0667368 C30.6190928,35.7589474 26.8625567,37.4222105 22.7143093,37.4222105" id="Fill-5" fill="#9F4294"></path>
                                <path d="M44.9907629,22.4189474 L37.8450722,22.4189474 C37.8256082,26.5807368 36.1054845,30.3478947 33.3537732,33.0667368 L38.4338557,38.1267368 C39.7087423,36.8653684 40.8303505,35.4538947 41.7646186,33.9334737 C41.7767835,33.9092632 41.7889485,33.8947368 41.8035464,33.8753684 C41.9227629,33.6768421 42.0322474,33.4783158 42.1465979,33.2797895 C42.2317526,33.1296842 42.3169072,32.9771579 42.3971959,32.8318947 C42.4409897,32.7447368 42.4799175,32.66 42.5237113,32.5849474 C44.1635464,29.4036842 44.9931959,25.9028421 44.9931959,22.4189474 L44.9907629,22.4189474" id="Fill-6" fill="#456DB2"></path>
                                <path d="M6.96556701,38.0831579 L7.58354639,37.4754737 L7.58354639,22.4504211 L0.398927835,22.4504211 C0.423257732,28.5611579 2.92680412,34.0835789 6.96556701,38.0831579" id="Fill-7" fill="#F2BF1A"></path>
                                <path d="M7.58354639,38.6811579 L7.58354639,37.4875789 L6.97286598,38.0976842 C7.17723711,38.2913684 7.37674227,38.4898947 7.58354639,38.6811579" id="Fill-8" fill="#DD5C26"></path>
                                <path d="M22.7021443,37.4222105 C19.8628454,37.4173684 17.2084536,36.6281053 14.9360412,35.2698947 L14.9360412,43.1770526 C17.356866,44.0752632 19.9771959,44.5667368 22.7143093,44.5715789 L22.7021443,44.5715789 L22.7021443,37.4222105" id="Fill-9" fill="#DD5C26"></path>
                                <path d="M22.6899794,30.1130526 C26.9793402,30.1130526 30.4609485,26.6509474 30.4609485,22.3802105 C30.4609485,18.1118947 26.9793402,14.6449474 22.6899794,14.6449474 C18.3957526,14.6449474 14.9165773,18.1118947 14.9165773,22.3802105 C14.9165773,26.6509474 18.3957526,30.1130526 22.6899794,30.1130526" id="Fill-10" fill="#363239"></path>
                            </g>
                        </g>
                    </g>
                </g>
            </g>
        </g>
    </g>
</svg>