<?xml version="1.0" encoding="UTF-8" standalone="no"?>
<svg width="232px" height="45px" viewBox="0 0 232 45" version="1.1" xmlns="http://www.w3.org/2000/svg" xmlns:xlink="http://www.w3.org/1999/xlink">
    <!-- Generator: Sketch 39.1 (31720) - http://www.bohemiancoding.com/sketch -->
    <title>Logo</title>
    <desc>Created with Sketch.</desc>
    <defs></defs>
    <g id="Home-Page" stroke="none" stroke-width="1" fill="none" fill-rule="evenodd">
        <g id="Homepage" transform="translate(-55.000000, -40.000000)">
            <g id="HEADER-Ponta" transform="translate(55.000000, 40.000000)">
                <g id="Logo">
                    <g id="Iso">
                        <path d="M22.6632165,0.227578947 L22.6632165,0.213052632 C22.6632165,0.213052632 22.6559175,0.208210526 22.6461856,0.208210526 C16.4882887,0.213052632 10.9216082,2.70431579 6.88771134,6.71842105 L11.9653608,11.7735789 C14.6927423,9.03052632 18.4663093,7.32852632 22.6461856,7.31157895 L22.6461856,0.227578947 L22.6632165,0.227578947" id="Fill-1" fill="#68BB45"></path>
                        <path d="M6.87797938,6.75231579 C5.79286598,7.83452632 4.844,8.99905263 4.03138144,10.2289474 C4.02651546,10.2337895 4.01921649,10.2410526 4.01678351,10.2458947 C3.83674227,10.5170526 3.67129897,10.7857895 3.50342268,11.0593684 C3.428,11.1925263 3.35257732,11.3208421 3.27958763,11.4515789 C3.192,11.6041053 3.10684536,11.7590526 3.02412371,11.9164211 C2.89517526,12.1488421 2.77595876,12.3836842 2.65674227,12.6257895 C2.62997938,12.6766316 2.60321649,12.7347368 2.57402062,12.7855789 C1.17991753,15.686 0.398927835,18.9374737 0.398927835,22.3656842 L0.398927835,22.4431579 L7.58354639,22.4431579 L7.58354639,22.3656842 C7.58354639,18.2377895 9.25257732,14.5021053 11.9556289,11.7784211 L6.89014433,6.73778947 C6.89014433,6.73778947 6.88771134,6.74263158 6.87797938,6.75231579" id="Fill-2" fill="#ACCD3A"></path>
                        <path d="M44.9907629,22.4044211 C44.9883299,16.2815789 42.4872165,10.7373684 38.4557526,6.72326316 L38.4508866,6.72326316 L38.4484536,6.71842105 L33.4170309,11.7227368 C36.1541443,14.4512632 37.8450722,18.2087368 37.8450722,22.3656842 L37.8450722,22.4189474 L44.9907629,22.4189474 L44.9907629,22.4044211" id="Fill-3" fill="#1980BA"></path>
                        <path d="M22.6632165,7.31157895 L22.7143093,7.31157895 C26.8868866,7.31157895 30.6799175,8.99905263 33.4170309,11.7227368 L38.4484536,6.71842105 C34.0958351,2.39684211 28.3612784,0.227578947 22.6632165,0.227578947 L22.6632165,7.31157895" id="Fill-4" fill="#42AC98"></path>
                        <path d="M22.7143093,37.4222105 L22.7143093,44.5715789 C28.8478763,44.5715789 34.4048247,42.1093684 38.4338557,38.1218947 L33.3537732,33.0667368 C30.6190928,35.7589474 26.8625567,37.4222105 22.7143093,37.4222105" id="Fill-5" fill="#9F4294"></path>
                        <path d="M44.9907629,22.4189474 L37.8450722,22.4189474 C37.8256082,26.5807368 36.1054845,30.3478947 33.3537732,33.0667368 L38.4338557,38.1267368 C39.7087423,36.8653684 40.8303505,35.4538947 41.7646186,33.9334737 C41.7767835,33.9092632 41.7889485,33.8947368 41.8035464,33.8753684 C41.9227629,33.6768421 42.0322474,33.4783158 42.1465979,33.2797895 C42.2317526,33.1296842 42.3169072,32.9771579 42.3971959,32.8318947 C42.4409897,32.7447368 42.4799175,32.66 42.5237113,32.5849474 C44.1635464,29.4036842 44.9931959,25.9028421 44.9931959,22.4189474 L44.9907629,22.4189474" id="Fill-6" fill="#456DB2"></path>
                        <path d="M6.96556701,38.0831579 L7.58354639,37.4754737 L7.58354639,22.4504211 L0.398927835,22.4504211 C0.423257732,28.5611579 2.92680412,34.0835789 6.96556701,38.0831579" id="Fill-7" fill="#F2BF1A"></path>
                        <path d="M7.58354639,38.6811579 L7.58354639,37.4875789 L6.97286598,38.0976842 C7.17723711,38.2913684 7.37674227,38.4898947 7.58354639,38.6811579" id="Fill-8" fill="#DD5C26"></path>
                        <path d="M22.7021443,37.4222105 C19.8628454,37.4173684 17.2084536,36.6281053 14.9360412,35.2698947 L14.9360412,43.1770526 C17.356866,44.0752632 19.9771959,44.5667368 22.7143093,44.5715789 L22.7021443,44.5715789 L22.7021443,37.4222105" id="Fill-9" fill="#DD5C26"></path>
                        <path d="M22.6899794,30.1130526 C26.9793402,30.1130526 30.4609485,26.6509474 30.4609485,22.3802105 C30.4609485,18.1118947 26.9793402,14.6449474 22.6899794,14.6449474 C18.3957526,14.6449474 14.9165773,18.1118947 14.9165773,22.3802105 C14.9165773,26.6509474 18.3957526,30.1130526 22.6899794,30.1130526" id="Fill-10" fill="#363239"></path>
                    </g>
                    <path d="M68.2720412,9.88757895 L57.9829278,9.88757895 L57.9829278,13.3811579 L60.0412371,13.3811579 L60.0412371,32.2484211 L64.1870515,32.2484211 L64.1870515,24.5373684 L68.2720412,24.5373684 C72.4811134,24.5373684 75.4274639,21.5110526 75.4274639,17.1604211 C75.4274639,12.8146316 72.4811134,9.88757895 68.2720412,9.88757895 L68.2720412,9.88757895 Z M67.5105155,21.0098947 L64.1870515,21.0098947 L64.1870515,13.3811579 L67.5786392,13.3811579 C69.8534845,13.3811579 71.1867629,14.8628421 71.1867629,17.1604211 C71.1867629,19.4967368 69.8534845,21.0098947 67.5105155,21.0098947 L67.5105155,21.0098947 Z M85.2737732,15.8070526 C80.368866,15.8070526 76.4444536,19.3030526 76.4444536,24.2202105 C76.4444536,29.1615789 80.368866,32.6285263 85.2737732,32.6285263 C90.2176082,32.6285263 94.1371546,29.1615789 94.1371546,24.2202105 C94.1371546,19.3030526 90.2176082,15.8070526 85.2737732,15.8070526 L85.2737732,15.8070526 Z M85.2737732,29.2269474 C82.6802062,29.2269474 80.4929485,27.2126316 80.4929485,24.2202105 C80.4929485,21.2592632 82.6802062,19.2110526 85.2737732,19.2110526 C87.9014021,19.2110526 90.0862268,21.2592632 90.0862268,24.2202105 C90.0862268,27.2126316 87.9014021,29.2269474 85.2737732,29.2269474 L85.2737732,29.2269474 Z M112.973361,28.1883158 L112.973361,21.9177895 C112.973361,17.6664211 110.917485,15.8070526 107.338557,15.8070526 C104.080784,15.8070526 102.33633,17.7947368 101.642928,19.1456842 L101.577237,19.1456842 C101.577237,19.1456842 101.642928,18.8067368 101.642928,18.4556842 L101.642928,17.9835789 C101.642928,16.8481053 100.94466,16.1871579 99.5213608,16.1871579 L95.8159175,16.1871579 L95.8159175,19.5911579 L97.0835052,19.5911579 C97.5238763,19.5911579 97.7817732,19.8138947 97.7817732,20.2811579 L97.7817732,32.2484211 L101.76701,32.2484211 L101.76701,24.8763158 C101.76701,24.1257895 101.86433,23.3970526 102.083299,22.7361053 C102.657485,20.8162105 104.270557,19.4628421 106.42132,19.4628421 C108.448,19.4628421 108.954062,20.7871579 108.954062,22.7361053 L108.954062,30.1082105 C108.954062,31.6165263 109.584206,32.2484211 111.104825,32.2484211 L114.939216,32.2484211 L114.939216,28.8831579 L113.669196,28.8831579 C113.228825,28.8831579 112.973361,28.6313684 112.973361,28.1883158 L112.973361,28.1883158 Z M122.221155,25.8568421 L122.221155,19.3684211 L125.890103,19.3684211 L125.890103,16.1871579 L122.221155,16.1871579 L122.221155,11.8074737 L118.299175,11.8074737 L118.299175,16.1871579 L116.109485,16.1871579 L116.109485,19.3684211 L118.199423,19.3684211 L118.199423,26.3628421 C118.199423,31.7472632 122.661526,32.4106316 124.909608,32.4106316 C125.639505,32.4106316 126.143134,32.3162105 126.143134,32.3162105 L126.143134,28.8153684 C126.143134,28.8153684 125.860907,28.8831579 125.41567,28.8831579 C124.306227,28.8831579 122.221155,28.4982105 122.221155,25.8568421 L122.221155,25.8568421 Z M142.29332,28.1883158 L142.29332,22.2010526 C142.29332,18.6130526 140.709443,15.8070526 135.330103,15.8070526 C133.646474,15.8070526 129.405773,16.1242105 129.405773,19.1166316 L129.405773,20.8162105 L133.142845,20.8162105 L133.142845,19.9688421 C133.142845,19.0851579 134.566144,18.8963158 135.293608,18.8963158 C137.354351,18.8963158 138.269155,19.7461053 138.269155,22.0461053 L138.269155,22.172 L137.763093,22.172 C135.135464,22.172 128.172247,22.5787368 128.172247,27.6193684 C128.172247,30.8345263 130.799876,32.6285263 133.678103,32.6285263 C137.320289,32.6285263 138.553814,29.7958947 138.553814,29.7958947 L138.619505,29.7958947 C138.619505,29.7958947 138.585443,30.0791579 138.585443,30.4858947 C138.585443,31.4301053 139.157196,32.2484211 140.643753,32.2484211 L144.251876,32.2484211 L144.251876,28.8831579 L142.986722,28.8831579 C142.543918,28.8831579 142.29332,28.6313684 142.29332,28.1883158 L142.29332,28.1883158 Z M138.334845,25.2878947 C138.334845,27.2416842 136.814227,29.5102105 134.661031,29.5102105 C133.013897,29.5102105 132.223175,28.4982105 132.223175,27.4305263 C132.223175,25.1934737 135.549072,24.9150526 137.636577,24.9150526 L138.334845,24.9150526 L138.334845,25.2878947 L138.334845,25.2878947 Z M169.039175,29.6046316 L167.489361,10.1103158 L165.238845,10.1103158 L159.355876,22.9903158 C158.847381,24.1257895 158.275629,25.6050526 158.275629,25.6050526 L158.217237,25.6050526 C158.217237,25.6050526 157.643052,24.1257895 157.107794,22.9903158 L151.222392,10.1103158 L148.971876,10.1103158 L147.419629,29.6046316 C147.392866,30.0791579 147.169031,30.2970526 146.726227,30.2970526 L145.553526,30.2970526 L145.553526,32.2484211 L147.675093,32.2484211 C149.035134,32.2484211 149.509567,31.6818947 149.606887,30.3285263 L150.648206,16.882 C150.74066,15.686 150.74066,13.7322105 150.74066,13.7322105 L150.808784,13.7322105 C150.808784,13.7322105 151.47299,15.7804211 151.979052,16.882 L157.231876,28.1205263 L159.226928,28.1205263 L164.513814,16.882 C165.051505,15.7465263 165.652454,13.7927368 165.652454,13.7927368 L165.715711,13.7927368 C165.715711,13.7927368 165.715711,15.686 165.810598,16.882 L166.856784,30.3285263 C166.949237,31.6818947 167.426103,32.2484211 168.788577,32.2484211 L170.93934,32.2484211 L170.93934,30.2970526 L169.737443,30.2970526 C169.292206,30.2970526 169.073237,30.0791579 169.039175,29.6046316 L169.039175,29.6046316 Z M180.727258,16.0297895 C176.454928,16.0297895 172.873567,19.1456842 172.873567,24.3436842 C172.873567,29.2269474 176.486557,32.6285263 181.201691,32.6285263 C184.807381,32.6285263 187.118722,30.3672632 187.118722,30.3672632 L186.072536,28.7548421 C186.072536,28.7548421 184.208866,30.7086316 181.294144,30.7086316 C177.999876,30.7086316 175.184907,28.4086316 175.124082,24.4042105 L187.340124,24.4042105 C187.340124,24.4042105 187.403381,23.7142105 187.403381,23.3413684 C187.403381,19.3974737 185.12367,16.0297895 180.727258,16.0297895 L180.727258,16.0297895 Z M175.216536,22.7070526 C175.75666,19.5233684 178.065567,17.8262105 180.693196,17.8262105 C183.036165,17.8262105 185.062845,19.4337895 185.186928,22.7070526 L175.216536,22.7070526 L175.216536,22.7070526 Z M204.787093,29.7014737 L204.787093,12.0302105 C204.787093,10.672 204.21534,10.1103158 202.850433,10.1103158 L200.604784,10.1103158 L200.604784,11.9672632 L201.935629,11.9672632 C202.378433,11.9672632 202.631464,12.2190526 202.631464,12.6596842 L202.631464,17.7947368 C202.631464,18.4556842 202.694722,18.9907368 202.694722,18.9907368 L202.631464,18.9907368 C202.631464,18.9907368 201.305485,16.0297895 197.441897,16.0297895 C193.262021,16.0297895 190.286474,19.3030526 190.286474,24.3146316 C190.286474,29.2269474 192.945732,32.6285263 197.220495,32.6285263 C201.397938,32.6285263 202.694722,29.4787368 202.694722,29.4787368 L202.755546,29.4787368 C202.755546,29.4787368 202.694722,29.8903158 202.694722,30.4858947 C202.694722,31.6528421 203.266474,32.2484211 204.594887,32.2484211 L206.806474,32.2484211 L206.806474,30.3914737 L205.480495,30.3914737 C205.037691,30.3914737 204.787093,30.1735789 204.787093,29.7014737 L204.787093,29.7014737 Z M197.534351,30.7086316 C194.558804,30.7086316 192.505361,28.2197895 192.505361,24.3146316 C192.505361,20.3150526 194.814268,17.9496842 197.629237,17.9496842 C201.050021,17.9496842 202.694722,21.0994737 202.694722,24.3146316 C202.694722,28.8153684 200.196041,30.7086316 197.534351,30.7086316 L197.534351,30.7086316 Z M210.421897,12.8146316 L212.509402,12.8146316 L212.509402,10.1103158 L210.421897,10.1103158 L210.421897,12.8146316 Z M212.635918,29.7014737 L212.635918,18.3273684 C212.635918,16.9764211 212.069031,16.4074737 210.706557,16.4074737 L208.458474,16.4074737 L208.458474,18.2668421 L209.78932,18.2668421 C210.232124,18.2668421 210.485155,18.5162105 210.485155,18.9568421 L210.485155,30.3285263 C210.485155,31.6818947 211.056907,32.2484211 212.416948,32.2484211 L214.665031,32.2484211 L214.665031,30.3914737 L213.334186,30.3914737 C212.888948,30.3914737 212.635918,30.1735789 212.635918,29.7014737 L212.635918,29.7014737 Z M230.270227,30.3914737 C229.82499,30.3914737 229.571959,30.1735789 229.571959,29.7014737 L229.571959,22.1066316 C229.571959,18.7074737 228.370062,16.0297895 223.336206,16.0297895 C221.944536,16.0297895 218.144206,16.5018947 218.144206,18.7074737 L218.144206,20.2206316 L220.202515,20.2206316 L220.202515,19.2110526 C220.202515,18.0441053 222.513856,17.8262105 223.304577,17.8262105 C226.216866,17.8262105 227.418763,18.9907368 227.418763,22.2954737 L227.418763,22.4891579 L226.535588,22.4891579 C223.783876,22.4891579 216.784165,22.6731579 216.784165,27.9365263 C216.784165,31.0863158 219.535876,32.6285263 222.195134,32.6285263 C226.182804,32.6285263 227.516082,29.1954737 227.484454,29.1954737 L227.545278,29.1954737 C227.545278,29.1954737 227.516082,29.6724211 227.516082,30.3575789 C227.516082,31.6528421 228.05134,32.2484211 229.413814,32.2484211 L231.601072,32.2484211 L231.601072,30.3914737 L230.270227,30.3914737 L230.270227,30.3914737 Z M227.418763,24.9102105 C227.418763,27.6532632 225.584289,30.8030526 222.543052,30.8030526 C220.168454,30.8030526 219.000619,29.2898947 219.000619,27.8082105 C219.000619,24.2492632 224.002845,24.1863158 226.501526,24.1863158 L227.418763,24.1863158 L227.418763,24.9102105 L227.418763,24.9102105 Z" id="Fill-11" fill="#363239"></path>
                </g>
            </g>
        </g>
    </g>
</svg>