<?xml version="1.0" encoding="UTF-8" standalone="no"?>
<svg width="602px" height="542px" viewBox="0 0 602 542" version="1.1" xmlns="http://www.w3.org/2000/svg" xmlns:xlink="http://www.w3.org/1999/xlink">
    <!-- Generator: Sketch 39.1 (31720) - http://www.bohemiancoding.com/sketch -->
    <title>Artboard</title>
    <desc>Created with Sketch.</desc>
    <defs></defs>
    <g id="Page-1" stroke="none" stroke-width="1" fill="none" fill-rule="evenodd">
        <g id="Artboard">
            <g id="pc" transform="translate(2.000000, 2.000000)">
                <g id="Home-Page">
                    <g id="Homepage">
                        <g id="MAIN-CONTENT">
                            <g id="Productos">
                                <g id="compu">
                                    <g id="computer">
                                        <path d="M0.154094545,505.428729 L0.154094545,525.481572 C0.154094545,532.249965 5.63126147,537.734312 12.3868591,537.734312 L764.234822,537.734312 C770.990419,537.734312 776.467586,532.249965 776.467586,525.481572 L776.467586,505.428729 L0.154094545,505.428729" id="Fill-1" fill="#CCCCC8"></path>
                                        <path d="M0.154094545,505.428729 L0.154094545,525.481572 C0.154094545,532.249965 5.63126147,537.734312 12.3868591,537.734312 L764.234822,537.734312 C770.990419,537.734312 776.467586,532.249965 776.467586,525.481572 L776.467586,505.428729 L0.154094545,505.428729 L0.154094545,505.428729 L0.154094545,505.428729 Z" id="Stroke-2" stroke="#1B1B1B" stroke-width="3"></path>
                                        <path d="M0.756646669,502.97882 C0.756646669,509.747213 6.2338136,515.234754 12.9862231,515.234754 L763.638646,515.234754 C770.394243,515.234754 775.87141,509.747213 775.87141,502.97882 L702.481199,426.923033 L74.1436697,426.923033 L0.756646669,502.97882" id="Fill-4" fill="#F3EFEF"></path>
                                        <path d="M426.097872,407.355056 C419.339087,407.355056 413.865108,401.86432 413.865108,395.099121 L413.865108,61.1895902 C413.865108,54.421197 419.339087,48.93685 426.097872,48.93685 L702.165577,48.93685 L702.165577,0.519999981 L400.229576,0.519999981 C393.473979,0.519999981 388,6.00115281 388,12.7695461 L388,427.305685 L702.165577,427.305685 L702.165577,407.355056 L426.097872,407.355056" id="Fill-6-Copy" fill="#363239" transform="translate(545.082789, 213.912842) scale(-1, 1) translate(-545.082789, -213.912842) "></path>
                                        <path d="M112.330817,407.358663 C105.572032,407.358663 100.098053,401.867927 100.098053,395.102728 L100.098053,61.1931974 C100.098053,54.4248042 105.572032,48.9404572 112.330817,48.9404572 L388.398522,48.9404572 L388.398522,0.52360717 L86.4625213,0.52360717 C79.7069237,0.52360717 74.2329449,6.00476 74.2329449,12.7731533 L74.2329449,427.309292 L388.398522,427.309292 L388.398522,407.358663 L112.330817,407.358663" id="Fill-6" fill="#4C4B4B"></path>
                                        <path d="M676.612903,394.719663 C676.612903,401.488057 671.138924,406.972404 664.380139,406.972404 L112.247918,406.972404 C105.485944,406.972404 100.015154,401.488057 100.015154,394.719663 L100.015154,60.8101326 C100.015154,54.0449335 105.485944,48.5541982 112.247918,48.5541982 L664.380139,48.5541982 C671.138924,48.5541982 676.612903,54.0449335 676.612903,60.8101326 L676.612903,394.719663 L676.612903,394.719663 L676.612903,394.719663 Z M0.756646669,502.97882 C0.756646669,509.747213 6.2338136,515.234754 12.9862231,515.234754 L763.638646,515.234754 C770.394243,515.234754 775.87141,509.747213 775.87141,502.97882 L702.481199,426.923033 L74.1436697,426.923033 L0.756646669,502.97882 L0.756646669,502.97882 L0.756646669,502.97882 Z M106.461505,450.725802 L670.163364,450.725802 L106.461505,450.725802 L106.461505,450.725802 Z M86.6601757,470.967099 L689.964693,470.967099 L86.6601757,470.967099 L86.6601757,470.967099 Z M320.912675,491.21159 L455.712193,491.21159 L320.912675,491.21159 L320.912675,491.21159 Z" id="Stroke-8" stroke="#1B1B1B" stroke-width="3"></path>
                                        <path d="M398.093545,25.8661863 C398.093545,31.2738738 393.716275,35.6594349 388.312434,35.6594349 C382.911782,35.6594349 378.534512,31.2738738 378.534512,25.8661863 C378.534512,20.4521105 382.911782,16.0633552 388.312434,16.0633552 C393.716275,16.0633552 398.093545,20.4521105 398.093545,25.8661863" id="Fill-9" fill="#46639E"></path>
                                        <path d="M398.093545,25.8661863 C398.093545,31.2738738 393.716275,35.6594349 388.312434,35.6594349 C382.911782,35.6594349 378.534512,31.2738738 378.534512,25.8661863 C378.534512,20.4521105 382.911782,16.0633552 388.312434,16.0633552 C393.716275,16.0633552 398.093545,20.4521105 398.093545,25.8661863 L398.093545,25.8661863 L398.093545,25.8661863 Z M702.481199,12.3900885 C702.481199,5.62488936 697.004032,0.137348235 690.248435,0.137348235 L86.3764342,0.137348235 C79.6208366,0.137348235 74.1436697,5.62488936 74.1436697,12.3900885 L74.1436697,426.923033 L702.481199,426.923033 L702.481199,12.3900885 L702.481199,12.3900885 L702.481199,12.3900885 Z" id="Stroke-10" stroke="#1B1B1B" stroke-width="3"></path>
                                    </g>
                                </g>
                            </g>
                        </g>
                    </g>
                </g>
            </g>
        </g>
    </g>
</svg>