<?xml version="1.0" encoding="UTF-8" standalone="no"?>
<svg width="132px" height="103px" viewBox="0 0 132 103" version="1.1" xmlns="http://www.w3.org/2000/svg" xmlns:xlink="http://www.w3.org/1999/xlink">
    <!-- Generator: Sketch 39.1 (31720) - http://www.bohemiancoding.com/sketch -->
    <title>Group</title>
    <desc>Created with Sketch.</desc>
    <defs>
        <polygon id="path-1" points="125.732 42.028 73.241 69.454 67.207 69.864 0.849 35.517 63.291 0.346"></polygon>
    </defs>
    <g id="Home-Page" stroke="none" stroke-width="1" fill="none" fill-rule="evenodd">
        <g id="Homepage" transform="translate(-920.000000, -2895.000000)">
            <g id="MAIN-CONTENT" transform="translate(-10.000000, 196.000000)">
                <g id="5" transform="translate(98.000000, 2684.000000)">
                    <g id="Benefit-4-Copy" transform="translate(792.000000, 3.000000)">
                        <g id="Group" transform="translate(31.000000, 0.000000)">
                            <g transform="translate(11.000000, 46.000000)" id="Shape">
                                <polygon fill="#6ABC46" points="80.391 67.778 0.09 23.392 47.189 0.28 127.489 44.667"></polygon>
                                <polygon stroke="#212022" stroke-width="2" points="80.391 67.778 0.09 23.392 47.189 0.28 127.489 44.667"></polygon>
                                <path d="M108.284,40.706 L53.638,10.501 C49.205,12.675 41.805,12.333 37.111,9.739 L18.818,18.714 C23.513,21.31 23.726,25.177 19.295,27.353 L73.941,57.558 C78.375,55.384 85.774,55.724 90.469,58.32 L108.761,49.345 C104.065,46.749 103.852,42.882 108.284,40.706 L108.284,40.706 Z M51.426,40.095 C44.331,36.173 44.007,30.329 50.705,27.044 C57.403,23.757 68.586,24.273 75.681,28.194 C82.777,32.116 83.1,37.96 76.401,41.247 C69.703,44.532 58.521,44.017 51.426,40.095 L51.426,40.095 Z" fill="#ABCF3B"></path>
                                <path d="M108.284,40.706 L53.638,10.501 C49.205,12.675 41.805,12.333 37.111,9.739 L18.818,18.714 C23.513,21.31 23.726,25.177 19.295,27.353 L73.941,57.558 C78.375,55.384 85.774,55.724 90.469,58.32 L108.761,49.345 C104.065,46.749 103.852,42.882 108.284,40.706 L108.284,40.706 Z M51.426,40.095 C44.331,36.173 44.007,30.329 50.705,27.044 C57.403,23.757 68.586,24.273 75.681,28.194 C82.777,32.116 83.1,37.96 76.401,41.247 C69.703,44.532 58.521,44.017 51.426,40.095 L51.426,40.095 Z" stroke="#212022" stroke-width="2"></path>
                            </g>
                            <g transform="translate(11.000000, 29.000000)" id="Shape">
                                <polygon fill="#6ABC46" points="80.391 68.316 0.09 23.93 47.189 0.818 127.489 45.205"></polygon>
                                <polygon stroke="#212022" stroke-width="2" points="80.391 68.316 0.09 23.93 47.189 0.818 127.489 45.205"></polygon>
                                <path d="M108.284,41.244 L53.638,11.039 C49.205,13.213 41.805,12.871 37.111,10.277 L18.818,19.252 C23.513,21.848 23.726,25.715 19.295,27.891 L73.941,58.096 C78.375,55.922 85.774,56.262 90.469,58.858 L108.761,49.883 C104.065,47.287 103.852,43.42 108.284,41.244 L108.284,41.244 Z M51.426,40.633 C44.331,36.711 44.007,30.867 50.705,27.582 C57.403,24.295 68.586,24.811 75.681,28.732 C82.777,32.654 83.1,38.498 76.401,41.785 C69.703,45.07 58.521,44.555 51.426,40.633 L51.426,40.633 Z" fill="#ABCF3B"></path>
                                <path d="M108.284,41.244 L53.638,11.039 C49.205,13.213 41.805,12.871 37.111,10.277 L18.818,19.252 C23.513,21.848 23.726,25.715 19.295,27.891 L73.941,58.096 C78.375,55.922 85.774,56.262 90.469,58.858 L108.761,49.883 C104.065,47.287 103.852,43.42 108.284,41.244 L108.284,41.244 Z M51.426,40.633 C44.331,36.711 44.007,30.867 50.705,27.582 C57.403,24.295 68.586,24.811 75.681,28.732 C82.777,32.654 83.1,38.498 76.401,41.785 C69.703,45.07 58.521,44.555 51.426,40.633 L51.426,40.633 Z" stroke="#212022" stroke-width="2"></path>
                            </g>
                            <g id="Clipped">
                                <mask id="mask-2" fill="white">
                                    <use xlink:href="#path-1"></use>
                                </mask>
                                <g id="SVGID_1_"></g>
                                <g id="Group" mask="url(#mask-2)">
                                    <g transform="translate(11.000000, 13.000000)" id="Shape">
                                        <polygon stroke="none" fill="#6ABC46" fill-rule="evenodd" points="80.391 68.212 0.09 23.825 47.189 0.714 127.489 45.101"></polygon>
                                        <polygon stroke="#212022" stroke-width="2" fill="none" points="80.391 68.212 0.09 23.825 47.189 0.714 127.489 45.101"></polygon>
                                        <path d="M108.284,41.14 L53.638,10.934 C49.205,13.109 41.805,12.767 37.111,10.173 L18.818,19.148 C23.513,21.744 23.726,25.611 19.295,27.787 L73.941,57.992 C78.375,55.816 85.774,56.16 90.469,58.754 L108.761,49.779 C104.065,47.183 103.852,43.315 108.284,41.14 L108.284,41.14 Z M51.426,40.528 C44.331,36.606 44.007,30.762 50.705,27.475 C57.403,24.19 68.586,24.705 75.681,28.627 C82.777,32.549 83.1,38.393 76.401,41.68 C69.703,44.966 58.521,44.452 51.426,40.528 L51.426,40.528 Z" stroke="none" fill="#ABCF3B" fill-rule="evenodd"></path>
                                        <path d="M108.284,41.14 L53.638,10.934 C49.205,13.109 41.805,12.767 37.111,10.173 L18.818,19.148 C23.513,21.744 23.726,25.611 19.295,27.787 L73.941,57.992 C78.375,55.816 85.774,56.16 90.469,58.754 L108.761,49.779 C104.065,47.183 103.852,43.315 108.284,41.14 L108.284,41.14 Z M51.426,40.528 C44.331,36.606 44.007,30.762 50.705,27.475 C57.403,24.19 68.586,24.705 75.681,28.627 C82.777,32.549 83.1,38.393 76.401,41.68 C69.703,44.966 58.521,44.452 51.426,40.528 L51.426,40.528 Z" stroke="#212022" stroke-width="2" fill="none"></path>
                                    </g>
                                </g>
                            </g>
                            <g transform="translate(68.000000, 34.000000)" id="Shape">
                                <path d="M53.782,11.974 C54.816,11.437 55.706,10.597 56.303,9.495 C57.897,6.561 56.81,2.89 53.875,1.296 C52.697,0.655 51.4,0.448 50.167,0.618 L2.99,23.593 C4.223,23.423 5.52,23.63 6.698,24.271 C9.633,25.865 10.719,29.535 9.126,32.47 C8.497,33.628 7.544,34.497 6.441,35.031" fill="#4E8E41"></path>
                                <path d="M0.927,34.897 C3.862,36.491 7.532,35.403 9.126,32.469 C10.721,29.533 9.633,25.864 6.699,24.27 C5.52,23.629 4.223,23.422 2.99,23.592 L50.168,0.617 C51.4,0.447 52.697,0.654 53.876,1.295 C56.81,2.889 57.897,6.561 56.303,9.494 C55.706,10.596 54.816,11.435 53.782,11.973 L6.614,34.942" stroke="#212022" stroke-width="2"></path>
                            </g>
                        </g>
                    </g>
                </g>
            </g>
        </g>
    </g>
</svg>