<?xml version="1.0" encoding="UTF-8" standalone="no"?>
<svg width="86px" height="113px" viewBox="0 0 86 113" version="1.1" xmlns="http://www.w3.org/2000/svg" xmlns:xlink="http://www.w3.org/1999/xlink">
    <!-- Generator: Sketch 39.1 (31720) - http://www.bohemiancoding.com/sketch -->
    <title>Group</title>
    <desc>Created with Sketch.</desc>
    <defs></defs>
    <g id="Home-Page" stroke="none" stroke-width="1" fill="none" fill-rule="evenodd">
        <g id="Homepage" transform="translate(-673.000000, -2883.000000)">
            <g id="MAIN-CONTENT" transform="translate(-10.000000, 196.000000)">
                <g id="5" transform="translate(98.000000, 2684.000000)">
                    <g id="Benefit-4" transform="translate(528.000000, 4.000000)">
                        <g id="Group" transform="translate(58.000000, 0.000000)">
                            <g transform="translate(7.550562, 0.000000)" id="Shape">
                                <path d="M68.4175281,34.7796864 C68.4175281,16.0902966 53.2163596,0.939737288 34.4645393,0.939737288 C15.7127191,0.939737288 0.511550562,16.0893559 0.511550562,34.7796864 L0.511550562,51.5482119 L12.012,51.5482119 L12.012,36.2556102 C12.012,23.8960424 22.0636854,13.877822 34.4645393,13.877822 C46.8653933,13.877822 56.9170787,23.8960424 56.9170787,36.2556102 L56.9170787,51.5482119 L68.4175281,51.5482119 L68.4175281,34.7796864 L68.4175281,34.7796864 Z" fill="#80A7E0"></path>
                                <path d="M34.4267865,8.72102542 C18.6659326,8.72102542 5.88849438,22.4916102 5.88849438,39.4774322 L5.88849438,51.5482119 L11.9733034,51.5482119 L11.9733034,36.2556102 C11.9733034,23.8960424 22.0249888,13.877822 34.4258427,13.877822 C46.8266966,13.877822 56.8793258,23.8960424 56.8793258,36.2556102 L56.8793258,51.5482119 L62.9641348,51.5482119 L62.9641348,39.4774322 C62.9641348,22.4906695 50.1876404,8.72102542 34.4267865,8.72102542 L34.4267865,8.72102542 Z" fill="#476DB1"></path>
                                <path d="M68.4175281,34.7796864 C68.4175281,16.0902966 53.2163596,0.939737288 34.4645393,0.939737288 C15.7127191,0.939737288 0.511550562,16.0893559 0.511550562,34.7796864 L0.511550562,51.5482119 L12.012,51.5482119 L12.012,36.2556102 C12.012,23.8960424 22.0636854,13.877822 34.4645393,13.877822 C46.8653933,13.877822 56.9170787,23.8960424 56.9170787,36.2556102 L56.9170787,51.5482119 L68.4175281,51.5482119 L68.4175281,34.7796864 L68.4175281,34.7796864 Z" stroke="#000000" stroke-width="2"></path>
                            </g>
                            <g transform="translate(0.000000, 49.855932)">
                                <path d="M83.6819326,56.4011695 C83.6819326,58.4791271 81.9915506,60.1638814 79.9066517,60.1638814 L4.12449438,60.1638814 C2.03959551,60.1638814 0.349213483,58.4791271 0.349213483,56.4011695 L0.349213483,3.88970339 C0.349213483,1.81174576 2.03959551,0.126991525 4.12449438,0.126991525 L79.9066517,0.126991525 C81.9915506,0.126991525 83.6819326,1.81174576 83.6819326,3.88970339 L83.6819326,56.4011695 L83.6819326,56.4011695 Z" id="Shape" fill="#476DB1"></path>
                                <path d="M4.42934831,0.284084746 C2.34539326,0.284084746 0.654067416,1.96883898 0.654067416,4.04679661 L0.654067416,56.5582627 C0.654067416,58.6362203 2.34539326,60.3209746 4.42934831,60.3209746 L42.3208989,60.3209746 L42.3208989,0.284084746 L4.42934831,0.284084746 L4.42934831,0.284084746 Z" id="Shape" fill="#80A7E0"></path>
                                <path d="M83.6819326,56.4011695 C83.6819326,58.4791271 81.9915506,60.1638814 79.9066517,60.1638814 L4.12449438,60.1638814 C2.03959551,60.1638814 0.349213483,58.4791271 0.349213483,56.4011695 L0.349213483,3.88970339 C0.349213483,1.81174576 2.03959551,0.126991525 4.12449438,0.126991525 L79.9066517,0.126991525 C81.9915506,0.126991525 83.6819326,1.81174576 83.6819326,3.88970339 L83.6819326,56.4011695 L83.6819326,56.4011695 Z" id="Shape" stroke="#000000" stroke-width="2"></path>
                                <g transform="translate(34.921348, 19.754237)" fill="#000000">
                                    <ellipse id="Oval" cx="7.09469663" cy="6.71926271" rx="6.51141573" ry="6.48973729"></ellipse>
                                    <path d="M12.6783371,18.6385932 C12.9142921,19.4889661 12.0912809,20.4550424 10.8218427,20.6525847 C8.35186517,21.0382627 5.83658427,21.0382627 3.36660674,20.6516441 C2.09716854,20.4541017 1.27604494,19.4899068 1.512,18.6385932 C2.21137079,15.9219153 2.91168539,13.2052373 3.612,10.4876186 C3.84795506,9.63536441 4.54166292,9.08130508 5.17307865,9.17725424 C6.44723596,9.37667797 7.74310112,9.37667797 9.01631461,9.17725424 C9.64773034,9.08036441 10.342382,9.63442373 10.5783371,10.4876186 C11.2777079,13.2052373 11.9780225,15.9228559 12.6783371,18.6385932 L12.6783371,18.6385932 Z" id="Shape"></path>
                                </g>
                            </g>
                        </g>
                    </g>
                </g>
            </g>
        </g>
    </g>
</svg>