<?xml version="1.0" encoding="UTF-8" standalone="no"?>
<svg width="142px" height="146px" viewBox="0 0 142 146" version="1.1" xmlns="http://www.w3.org/2000/svg" xmlns:xlink="http://www.w3.org/1999/xlink">
    <!-- Generator: Sketch 39.1 (31720) - http://www.bohemiancoding.com/sketch -->
    <title>click</title>
    <desc>Created with Sketch.</desc>
    <defs></defs>
    <g id="BrandCaptcha" stroke="none" stroke-width="1" fill="none" fill-rule="evenodd">
        <g id="Advertisers" transform="translate(-637.000000, -2003.000000)">
            <g id="Beneficios" transform="translate(0.000000, 1792.000000)">
                <g id="Items" transform="translate(240.000000, 204.000000)">
                    <g id="2" transform="translate(338.000000, 8.000000)">
                        <g id="click" transform="translate(61.000000, 0.000000)">
                            <path d="M60.019,33.0453669 L60.019,0.846589928 M80.66,41.9555683 L102.336,19.193223 M17.45,108.348806 L39.127,85.5864604 M30.935,63.7473813 L0.29,63.7473813 M39.425,42.0679568 L17.758,19.3108633" id="Stroke-1" stroke="#000100" stroke-width="3.5" stroke-linecap="round"></path>
                            <path d="M134.888,79.9061151 L105.334,69.3478993 L83.526,61.571036 L56.611,51.9297842 C55.533,51.5621583 54.075,52.095741 52.965,53.2605899 C51.863,54.4191367 51.349,55.9673669 51.721,57.074446 L60.869,85.3679856 L78.356,139.309209 C78.706,140.424691 79.863,140.874245 81.203,140.424691 C82.543,139.958331 83.779,138.675842 84.272,137.261007 L93.665,109.549367 L122.703,140.074921 C126.271,143.822604 132.05,143.822604 135.625,140.074921 C139.192,136.328288 139.192,130.249856 135.625,126.518978 L106.587,96.0186331 L132.946,86.1179424 C133.604,85.8774101 134.222,85.4436115 134.753,84.9026763 C135.284,84.335482 135.704,83.6369928 135.942,82.9206475 C136.386,81.5058129 135.958,80.3063022 134.888,79.9061151" id="Fill-2" fill="#F9D357"></path>
                            <path d="M93.665,109.549367 L122.703,140.074921 C126.209,143.756432 131.844,143.812101 135.431,140.258734 L106.587,109.962158 L97.43,100.18436 L106.587,96.0186331 L123.343,89.7248777 L105.334,83.2914245 L83.526,75.5145612 L56.611,65.8733094 C56.021,65.6716403 55.319,65.7514676 54.622,66.0476691 L60.869,85.3679856 L78.356,139.309209 C78.706,140.424691 79.863,140.874245 81.203,140.424691 C82.543,139.958331 83.779,138.675842 84.272,137.261007 L93.665,109.549367 L93.665,109.549367 Z" id="Fill-3" fill="#F7C41D"></path>
                            <path d="M93.665,109.549367 L122.703,140.074921 C126.209,143.756432 131.844,143.812101 135.431,140.258734 L106.587,109.962158 L97.43,100.18436 L106.587,96.0186331 L123.343,89.7248777 L105.334,83.2914245 L83.526,75.5145612 L56.611,65.8733094 C56.021,65.6716403 55.319,65.7514676 54.622,66.0476691 L60.869,85.3679856 L78.356,139.309209 C78.706,140.424691 79.863,140.874245 81.203,140.424691 C82.543,139.958331 83.779,138.675842 84.272,137.261007 L93.665,109.549367 L93.665,109.549367 Z" id="Stroke-4" stroke="#F7C41D" stroke-width="2.5" stroke-linecap="round"></path>
                            <path d="M134.888,79.9061151 L105.334,69.3478993 L83.526,61.571036 L56.611,51.9297842 C55.533,51.5621583 54.075,52.095741 52.965,53.2605899 C51.863,54.4191367 51.349,55.9673669 51.721,57.074446 L60.869,85.3679856 L78.356,139.309209 C78.706,140.424691 79.863,140.874245 81.203,140.424691 C82.543,139.958331 83.779,138.675842 84.272,137.261007 L93.665,109.549367 L122.703,140.074921 C126.271,143.822604 132.05,143.822604 135.625,140.074921 C139.192,136.328288 139.192,130.249856 135.625,126.518978 L106.587,96.0186331 L132.946,86.1179424 C133.604,85.8774101 134.222,85.4436115 134.753,84.9026763 C135.284,84.335482 135.704,83.6369928 135.942,82.9206475 C136.386,81.5058129 135.958,80.3063022 134.888,79.9061151 L134.888,79.9061151 Z" id="Stroke-5" stroke="#000100" stroke-width="2.5" stroke-linecap="round"></path>
                            <polygon id="Stroke-6" stroke="#000100" stroke-width="2.5" stroke-linecap="round" stroke-linejoin="round" points="89.964 92.2846043 81.099 118.43646 69.388 82.3198417 63.601 64.4206619 80.621 70.518 102.441 78.2990647 115.045 82.8019568 90.171 92.1459568"></polygon>
                        </g>
                    </g>
                </g>
            </g>
        </g>
    </g>
</svg>