<?xml version="1.0" encoding="UTF-8" standalone="no"?>
<svg width="720px" height="366px" viewBox="0 0 720 366" version="1.1" xmlns="http://www.w3.org/2000/svg" xmlns:xlink="http://www.w3.org/1999/xlink">
    <!-- Generator: Sketch 39.1 (31720) - http://www.bohemiancoding.com/sketch -->
    <title>Group</title>
    <desc>Created with Sketch.</desc>
    <defs>
        <rect id="path-1" x="0" y="0" width="720" height="366"></rect>
    </defs>
    <g id="Page-1" stroke="none" stroke-width="1" fill="none" fill-rule="evenodd">
        <g id="Group">
            <mask id="mask-2" fill="white">
                <use xlink:href="#path-1"></use>
            </mask>
            <use id="Mask" fill="#E7855D" xlink:href="#path-1"></use>
            <g id="Icons" opacity="0.156658116" mask="url(#mask-2)">
                <g transform="translate(-5.000000, -17.000000)">
                    <g id="220---Smiling-(Outline)" transform="translate(607.819026, 94.328792) rotate(24.000000) translate(-607.819026, -94.328792) translate(592.319026, 78.828792)">
                        <path d="M30.5807908,15.80468 C30.5807908,24.1968382 23.9363378,31 15.7399577,31 C7.54357765,31 0.899124687,24.1968382 0.899124687,15.80468 C0.899124687,7.41252183 7.54357765,0.609359993 15.7399577,0.609359993 C23.9363378,0.609359993 30.5807908,7.41252183 30.5807908,15.80468 L30.5807908,15.80468 Z" id="Stroke-2" stroke="#000000" stroke-linecap="round" stroke-linejoin="round"></path>
                        <path d="M11.7731129,10.4665999 C11.7731129,11.8652929 10.6657041,12.9991532 9.29964075,12.9991532 C7.93357741,12.9991532 6.82616858,11.8652929 6.82616858,10.4665999 C6.82616858,9.06790687 7.93357741,7.93404656 9.29964075,7.93404656 C10.6657041,7.93404656 11.7731129,9.06790687 11.7731129,10.4665999" id="Fill-3" fill="#000000"></path>
                        <path d="M23.1543196,10.4665999 C23.1543196,11.8652929 22.0469108,12.9991532 20.6808475,12.9991532 C19.3147841,12.9991532 18.2073753,11.8652929 18.2073753,10.4665999 C18.2073753,9.06790687 19.3147841,7.93404656 20.6808475,7.93404656 C22.0469108,7.93404656 23.1543196,9.06790687 23.1543196,10.4665999" id="Fill-4" fill="#000000"></path>
                        <path d="M23.1835847,17.8484373 C23.1835847,22.3143177 19.7032005,25.934805 15.4101376,25.934805 C11.1170748,25.934805 7.63669047,22.3143177 7.63669047,17.8484373" id="Stroke-19" stroke="#000000" stroke-linecap="round" stroke-linejoin="round"></path>
                    </g>
                    <g id="90---Growing-Stats-(Outline)" transform="translate(53.796772, 145.536938) rotate(-26.000000) translate(-53.796772, -145.536938) translate(29.796772, 123.036938)" stroke-linecap="round">
                        <path d="M0.623376623,43.5883156 L47.5177145,43.5883156" id="Stroke-569" stroke="#000000"></path>
                        <polygon id="Stroke-571" stroke="#000000" points="2.24042276 32.2395152 10.3256534 32.2395152 10.3256534 43.5883156 2.24042276 43.5883156"></polygon>
                        <polygon id="Stroke-573" stroke="#000000" points="14.3682688 24.9438579 22.4534994 24.9438579 22.4534994 43.5883156 14.3682688 43.5883156"></polygon>
                        <polygon id="Stroke-575" stroke="#000000" points="26.4961148 18.4588291 34.5813454 18.4588291 34.5813454 43.5883156 26.4961148 43.5883156"></polygon>
                        <polygon id="Stroke-577" stroke="#000000" points="38.6239608 11.9738003 46.7091914 11.9738003 46.7091914 43.5883156 38.6239608 43.5883156"></polygon>
                        <path d="M6.30648526,19.5369651 L37.8154377,1.29782173" id="Stroke-579" stroke="#000000"></path>
                        <path d="M37.8154377,1.29782173 L30.8928632,0.625" id="Stroke-581" stroke="#000000"></path>
                        <path d="M34.9354785,7.64504364 L37.8154377,1.29782173" id="Stroke-583" stroke="#000000"></path>
                    </g>
                    <g id="61---Chat-Conversation-(Outline)" transform="translate(681.857840, 237.289428) rotate(30.000000) translate(-681.857840, -237.289428) translate(653.357840, 210.789428)" stroke-linecap="round">
                        <path d="M2.59211382,10.6316625 C1.71274303,10.6316625 1,11.3444056 1,12.2237764 L1,52.0478115 L8.70533003,44.3424814 L42.7503676,44.3424814 C43.6297384,44.3424814 44.3424814,43.6297384 44.3424814,42.7503676 L44.3424814,12.2237764 C44.3424814,11.3444056 43.6297384,10.6316625 42.7503676,10.6316625 L2.59211382,10.6316625 L2.59211382,10.6316625 Z" id="Path" stroke="#000000"></path>
                        <path d="M10.6316625,20 L22.1896576,20 L10.6316625,20 Z" id="Path" stroke="#000000" stroke-linejoin="round"></path>
                        <path d="M10.6316625,27 L34.7108189,27 L10.6316625,27 Z" id="Path" stroke="#000000" stroke-linejoin="round"></path>
                        <path d="M10.6316625,33 L34.7108189,33 L10.6316625,33 Z" id="Path" stroke="#000000" stroke-linejoin="round"></path>
                        <path d="M55.2715289,1 L15.1132751,1 C14.2339043,1 13.5211613,1.71274303 13.5211613,2.59211382 L13.5211613,10.6316625 L42.7503676,10.6316625 C43.6297384,10.6316625 44.3424814,11.3444056 44.3424814,12.2237764 L44.3424814,34.7108189 L55.2715289,34.7108189 C56.1508997,34.7108189 56.8636427,33.9980759 56.8636427,33.1187051 L56.8636427,2.59211382 C56.8636427,1.71274303 56.1508997,1 55.2715289,1 L55.2715289,1 Z" id="Stroke-6" stroke="#000000"></path>
                    </g>
                    <g id="190---Thumbs-Up-(Outline)-Copy" transform="translate(105.000000, 266.500000) rotate(-22.000000) translate(-105.000000, -266.500000) translate(90.000000, 250.000000)" stroke-linecap="round">
                        <polygon id="Stroke-498" stroke="#000000" points="3.12638804e-13 11.8784878 7.84482047 11.8784878 7.84482047 32.772245 3.12638804e-13 32.772245"></polygon>
                        <path d="M6.16378751,27.5488057 C6.16378751,28.8308698 5.16021084,29.8703343 3.92241023,29.8703343 C2.68460963,29.8703343 1.68103296,28.8308698 1.68103296,27.5488057 C1.68103296,26.2667415 2.68460963,25.2272771 3.92241023,25.2272771 C5.16021084,25.2272771 6.16378751,26.2667415 6.16378751,27.5488057 L6.16378751,27.5488057 Z" id="Stroke-500" stroke="#000000"></path>
                        <path d="M25.7758387,17.604925 L21.2930841,17.604925" id="Stroke-502" stroke="#000000"></path>
                        <path d="M25.7758387,21.938445 L21.2930841,21.938445" id="Stroke-504" stroke="#000000"></path>
                        <path d="M24.65515,26.271965 L20.1723955,26.271965" id="Stroke-506" stroke="#000000"></path>
                        <path d="M29.1379046,15.3607807 C29.1379046,14.0787165 28.1343279,13.0392521 26.8965273,13.0392521 L18.1540353,13.0392521 L18.7070951,10.358467 C19.1295947,8.31378073 19.0164052,5.82045904 18.7659312,4.06944612 C18.514897,2.3184332 17.0008466,0.270845 15.4167533,0.270845 L15.282831,0.270845 C13.9324012,0.270845 13.4482637,1.81408112 13.4482637,3.75313785 C13.4482637,13.1843477 8.96550911,13.0392521 8.96550911,13.0392521 L7.84482047,13.0392521 L7.84482047,31.6114807 L24.0948057,31.6114807 C25.3326063,31.6114807 26.336183,30.5720163 26.336183,29.2899521 C26.336183,28.007888 25.3326063,26.9684235 24.0948057,26.9684235 L25.7758387,26.9684235 C27.0136393,26.9684235 28.017216,25.9289591 28.017216,24.646895 C28.017216,23.3648308 27.0136393,22.3253664 25.7758387,22.3253664 L27.4568716,22.3253664 C28.6946722,22.3253664 29.6982489,21.285902 29.6982489,20.0038378 C29.6982489,18.5569452 28.7944135,18.0061625 27.4568716,17.8007072 C26.8051912,17.7003011 25.6211837,17.6823093 25.2154944,17.6823093 L26.8965273,17.6823093 C28.1343279,17.6823093 29.1379046,16.6428448 29.1379046,15.3607807 L29.1379046,15.3607807 Z" id="Stroke-508" stroke="#000000"></path>
                    </g>
                    <g id="31---Chat-(Outline)" transform="translate(52.500000, 52.561240) rotate(20.000000) translate(-52.500000, -52.561240) translate(12.000000, 11.561240)">
                        <path d="M52.8961026,0.0238845869 C37.7043419,0.0238845869 25.3901292,11.0220343 25.3901292,24.5870747 C25.3901292,29.5859782 27.0672883,34.2336378 29.9391941,38.1127757 C29.5625738,42.5960532 28.4764405,48.910014 25.3901292,51.9841008 C25.3901292,51.9841008 34.8211517,50.6662336 41.2081797,46.8236251 C44.755745,48.3128993 48.7166052,49.1502648 52.8961026,49.1502648 C68.0878632,49.1502648 80.4020759,38.1521151 80.4020759,24.5870747 C80.4020759,11.0220343 68.0878632,0.0238845869 52.8961026,0.0238845869 L52.8961026,0.0238845869 Z M46.2565838,43.4811879 C46.4540626,43.5992058 41.2081797,46.8236251 41.2081797,46.8236251 L46.2565838,43.4811879 Z" id="Stroke-60" stroke="#000000" stroke-linecap="round" stroke-linejoin="round"></path>
                        <path d="M35.8875371,78.1377234 L29.9956166,74.3864383 C28.532863,73.591222 26.8303138,70.8416846 26.8303138,69.1810033 L26.8303138,64.6288821 C26.8303138,64.6288821 30.8955556,61.9524034 32.1453142,56.5320071 C33.1806672,55.8660487 33.8732535,54.7111586 33.8732535,53.3989113 L33.8732535,49.9918453 C29.3495788,51.4249205 25.3901292,51.9841008 25.3901292,51.9841008 C28.4764405,48.910014 29.5625738,42.5960532 29.9391941,38.1127757 C28.3325631,35.9434933 27.1180686,33.52834 26.3436696,30.9502096 C24.3745241,30.0735048 21.7861414,29.5044896 18.3669374,29.5044896 C3.12862815,29.5044896 4.26131002,40.7442952 4.26131002,40.7442952 L4.26131002,45.1362493 C3.49960615,45.8218774 2.86062123,47.3209865 2.86062123,48.4168675 L2.86062123,53.3989113 C2.86062123,54.7111586 3.55320753,55.8660487 4.58856058,56.5320071 C5.83831916,61.9524034 9.90356096,64.6288821 9.90356096,64.6288821 L9.90356096,69.1810033 C9.90356096,70.8416846 8.20101174,73.591222 6.73684762,74.3864383 L0.846337641,78.1377234 C-0.69117574,79.1169915 0.00423168821,81.4885904 1.8280893,81.4885904 L34.9043749,81.4885904 C36.7296431,81.4885904 37.4250505,79.1169915 35.8875371,78.1377234 L35.8875371,78.1377234 Z" id="Stroke-61" stroke="#000000"></path>
                        <path d="M39.4957566,16.8597084 L53.6013839,16.8597084 M39.4957566,25.2895626 L67.7070113,25.2895626 M39.4957566,33.7194167 L67.7070113,33.7194167" id="Stroke-62" stroke="#000000" stroke-linecap="round" stroke-linejoin="round"></path>
                    </g>
                    <g id="131---Advertising-(Outline)" transform="translate(37.500000, 237.000000) rotate(-14.000000) translate(-37.500000, -237.000000) translate(10.000000, 212.000000)">
                        <path d="M3.81417647,26.4004914 L2.12587557,26.4004914 C0.973603132,26.4004914 0.0393281794,25.4761671 0.0393281794,24.3361671 L0.0393281794,19.1282064 C0.0393281794,17.9882064 0.973603132,17.0638821 2.12587557,17.0638821 L3.81417647,17.0638821 L3.81417647,26.4004914 L3.81417647,26.4004914 Z" id="Stroke-102" stroke="#000000"></path>
                        <path d="M18.9626427,30.2761179 L6.31406976,29.5151843 C4.93341899,29.4180835 3.8632495,28.2808845 3.8632495,26.9112039 L3.8632495,16.5148894 C3.8632495,15.3254054 4.79280589,14.3375921 5.99226394,14.252629 L18.9626427,13.4702211 L18.9626427,30.2761179 L18.9626427,30.2761179 Z" id="Stroke-104" stroke="#000000"></path>
                        <path d="M39.6742916,42.3885012 L21.144505,33.2227518 C19.807265,32.5607862 18.9626427,31.2088452 18.9626427,29.7289926 L18.9626427,13.9407862 C18.9626427,12.5010811 19.7629105,11.1780835 21.0463589,10.4983784 L39.5752018,0.678132678 C42.2043836,-0.715823096 45.3865807,1.16923833 45.3865807,4.12054054 L45.3865807,38.8956757 C45.3865807,41.7984275 42.2987548,43.6872236 39.6742916,42.3885012 L39.6742916,42.3885012 Z" id="Stroke-106" stroke="#000000"></path>
                        <path d="M46.2812198,17.0638821 L45.3375077,17.0638821 L45.3375077,26.4004914 L46.2812198,26.4004914 C48.3573864,26.4004914 50.0560681,24.7199017 50.0560681,22.6658477 L50.0560681,20.7985258 C50.0560681,18.7444717 48.3573864,17.0638821 46.2812198,17.0638821 L46.2812198,17.0638821 Z" id="Stroke-108" stroke="#000000"></path>
                        <path d="M52.8872043,16.1302211 C54.2121761,17.9910074 54.7283866,19.9414251 54.7746285,21.7321867 C54.8378572,24.1279607 53.6893596,26.2268305 52.8872043,27.3341523" id="Stroke-110" stroke="#000000" stroke-linecap="round"></path>
                        <path d="M7.6380978,43.9189189 L10.469234,43.9189189" id="Stroke-112" stroke="#000000" stroke-linecap="round"></path>
                        <path d="M7.6380978,41.2162162 L10.469234,41.2162162" id="Stroke-114" stroke="#000000" stroke-linecap="round"></path>
                        <path d="M7.6380978,37.1621622 L10.469234,37.1621622" id="Stroke-116" stroke="#000000" stroke-linecap="round"></path>
                        <path d="M7.6380978,33.1081081 L10.469234,33.1081081" id="Stroke-118" stroke="#000000" stroke-linecap="round"></path>
                        <path d="M7.6380978,29.5964128 L7.6380978,46.6151843 C7.6380978,48.4124816 9.12444431,49.8829975 10.9410901,49.8829975 C12.7577358,49.8829975 14.2440823,48.4124816 14.2440823,46.6151843 L14.2440823,30.0034889 L7.6380978,29.5964128 L7.6380978,29.5964128 Z" id="Stroke-120" stroke="#000000"></path>
                        <path d="M39.5261288,0.678132678 L37.7878111,1.59872236 L37.7878111,41.4800491 L39.6252185,42.3885012 C42.2496818,43.6862899 45.3375077,41.7984275 45.3375077,38.894742 L45.3375077,4.12054054 C45.3375077,1.16923833 42.1553106,-0.715823096 39.5261288,0.678132678 L39.5261288,0.678132678 Z" id="Stroke-122" stroke="#000000"></path>
                        <path d="M22.6884179,17.997543 L22.6884179,15.9621622 C22.6884179,14.9342015 23.2603075,13.9884029 24.1766519,13.5028993 L28.3506904,11.4619165" id="Stroke-124" stroke="#000000" stroke-linecap="round"></path>
                        <path d="M21.7283951,22.6658477 L21.7283951,20.7985258" id="Stroke-126" stroke="#000000" stroke-linecap="round"></path>
                    </g>
                    <g id="152---Target-(Outline)" transform="translate(619.361303, 279.088530) rotate(18.000000) translate(-619.361303, -279.088530) translate(597.361303, 256.588530)" stroke-linecap="round" stroke-linejoin="round">
                        <path d="M41.7241379,23 C41.7241379,33.8930345 32.8930345,42.7241379 22,42.7241379 C11.1069655,42.7241379 2.27586207,33.8930345 2.27586207,23 C2.27586207,12.1069655 11.1069655,3.27586207 22,3.27586207 C32.8930345,3.27586207 41.7241379,12.1069655 41.7241379,23 L41.7241379,23 Z M-1.13686838e-13,23 L4.55172414,23 L-1.13686838e-13,23 Z M39.4482759,23 L44,23 L39.4482759,23 Z M26.5517241,23 L31.1034483,23 L26.5517241,23 Z M12.8965517,23 L17.4482759,23 L12.8965517,23 Z M22,45 L22,40.4482759 L22,45 Z M22,5.55172414 L22,1 L22,5.55172414 Z M22,18.4482759 L22,13.8965517 L22,18.4482759 Z M22,32.1034483 L22,27.5517241 L22,32.1034483 Z M26.5517241,23 C26.5517241,25.514069 24.514069,27.5517241 22,27.5517241 C19.485931,27.5517241 17.4482759,25.514069 17.4482759,23 C17.4482759,20.485931 19.485931,18.4482759 22,18.4482759 C24.514069,18.4482759 26.5517241,20.485931 26.5517241,23 L26.5517241,23 Z" id="Stroke-176" stroke="#000000"></path>
                    </g>
                    <g id="181---Idea-(Outline)" transform="translate(47.535426, 337.059277) rotate(25.000000) translate(-47.535426, -337.059277) translate(13.035426, 299.559277)" stroke-linecap="round" stroke-linejoin="round">
                        <path d="M34.210262,11.4034207 C21.6137585,11.4034207 11.4034207,21.6137585 11.4034207,34.210262 C11.4034207,44.3151182 17.981769,52.8705345 27.0831241,55.8653579 L27.0831241,69.8459517 L29.9339793,69.8459517 L29.9339793,74.1222344 L38.4865448,74.1222344 L38.4865448,69.8459517 L41.3374,69.8459517 L41.3374,55.8653579 C50.4387551,52.8705345 57.0171034,44.3151182 57.0171034,34.210262 C57.0171034,21.6137585 46.8053402,11.4034207 34.210262,11.4034207 L34.210262,11.4034207 Z" id="Stroke-702" stroke="#000000"></path>
                        <path d="M27.0831241,59 L41.3374,59" id="Stroke-704" stroke="#000000"></path>
                        <path d="M34,5.68434189e-14 L34,5.70171034" id="Stroke-706" stroke="#000000"></path>
                        <path d="M68.4205241,34 L62.7188137,34" id="Stroke-708" stroke="#000000"></path>
                        <path d="M5.70171034,34 L-2.84217094e-14,34" id="Stroke-710" stroke="#000000"></path>
                        <path d="M58.4011936,10.0193305 L54.3686589,14.0518651" id="Stroke-712" stroke="#000000"></path>
                        <path d="M14.0518651,54.3686589 L10.0193305,58.4011936" id="Stroke-714" stroke="#000000"></path>
                        <path d="M58.4011936,58.4011936 L54.3686589,54.3686589" id="Stroke-716" stroke="#000000"></path>
                        <path d="M14.0518651,14.0518651 L10.0193305,10.0193305" id="Stroke-718" stroke="#000000"></path>
                        <path d="M18.5305586,34.210262 C18.5305586,25.5507895 25.5507895,18.5305586 34.210262,18.5305586" id="Stroke-720" stroke="#000000"></path>
                    </g>
                    <g id="182---Promote-(Outline)" transform="translate(661.688818, 340.497624) rotate(-23.000000) translate(-661.688818, -340.497624) translate(616.688818, 310.997624)" stroke-linecap="round">
                        <polygon id="Stroke-494" stroke="#000000" points="58.5375958 50.8352805 7.70231523 34.8144648 7.70231523 23.7231309 58.5375958 7.70231523"></polygon>
                        <path d="M32.7748918,50.6550463 L15.1889656,44.958414 C13.254144,44.3314455 12.1850627,42.2364158 12.8104907,40.3031347 C13.4374592,38.3683131 15.5324889,37.2976913 17.4673105,37.9246597 L35.0532366,43.6212921 C36.9880582,44.2482605 38.0571396,46.3432903 37.4317116,48.2781119 C36.8047431,50.2129335 34.7081729,51.2820148 32.7748918,50.6550463 L32.7748918,50.6550463 Z" id="Stroke-496" stroke="#000000"></path>
                        <path d="M3.85115762,40.0520392 L3.85115762,40.0520392 C1.73302093,40.0520392 5.68434189e-14,38.3190183 5.68434189e-14,36.2008816 L5.68434189e-14,22.3367142 C5.68434189e-14,20.2185775 1.73302093,18.4855566 3.85115762,18.4855566 C5.9692943,18.4855566 7.70231523,20.2185775 7.70231523,22.3367142 L7.70231523,36.2008816 C7.70231523,38.3190183 5.9692943,40.0520392 3.85115762,40.0520392 L3.85115762,40.0520392 Z" id="Stroke-522" stroke="#000000"></path>
                        <path d="M63.1589849,58.5375958 L63.1589849,58.5375958 C60.6172209,58.5375958 58.5375958,56.4579706 58.5375958,53.9162066 L58.5375958,4.62138914 C58.5375958,2.07962511 60.6172209,1.13686838e-13 63.1589849,1.13686838e-13 C65.7007489,1.13686838e-13 67.780374,2.07962511 67.780374,4.62138914 L67.780374,53.9162066 C67.780374,56.4579706 65.7007489,58.5375958 63.1589849,58.5375958 L63.1589849,58.5375958 Z" id="Stroke-524" stroke="#000000"></path>
                        <path d="M75.4826893,28 L89.3468567,28" id="Stroke-526" stroke="#000000" stroke-dasharray="3"></path>
                        <path d="M75.4826893,11.3439699 L85.2861961,1.54046305" id="Stroke-528" stroke="#000000" stroke-dasharray="3"></path>
                        <path d="M75.4826893,20.5867481 L89.3468567,15.965359" id="Stroke-626" stroke="#000000" stroke-dasharray="3"></path>
                        <path d="M75.4826893,47.1936259 L85.2861961,56.9971327" id="Stroke-628" stroke="#000000" stroke-dasharray="3"></path>
                        <path d="M75.4826893,37.9508476 L89.3468567,42.5722367" id="Stroke-630" stroke="#000000" stroke-dasharray="3"></path>
                    </g>
                    <g id="197---Network-(Outline)" transform="translate(647.237429, 114.793165)">
                        <path d="M40.5275182,27.7902982 C40.5275182,32.2668521 36.8985685,35.8958019 32.4220146,35.8958019 C27.9454607,35.8958019 24.3165109,32.2668521 24.3165109,27.7902982 C24.3165109,23.3137443 27.9454607,19.6847946 32.4220146,19.6847946 C36.8985685,19.6847946 40.5275182,23.3137443 40.5275182,27.7902982 L40.5275182,27.7902982 Z" id="Stroke-632" stroke="#000000"></path>
                        <path d="M61.3702419,5.78964546 C61.3702419,8.98668769 58.7776387,11.5792909 55.5805964,11.5792909 C52.3835542,11.5792909 49.790951,8.98668769 49.790951,5.78964546 C49.790951,2.59144531 52.3835542,0 55.5805964,0 C58.7776387,0 61.3702419,2.59144531 61.3702419,5.78964546 L61.3702419,5.78964546 Z" id="Stroke-634" stroke="#000000"></path>
                        <path d="M38.21166,55.5805964 C38.21166,58.7776387 35.6190568,61.3702419 32.4220146,61.3702419 C29.2249724,61.3702419 26.6323691,58.7776387 26.6323691,55.5805964 C26.6323691,52.3835542 29.2249724,49.790951 32.4220146,49.790951 C35.6190568,49.790951 38.21166,52.3835542 38.21166,55.5805964 L38.21166,55.5805964 Z" id="Stroke-636" stroke="#000000"></path>
                        <path d="M11.5792909,53.2647382 C11.5792909,56.4617805 8.98668769,59.0543837 5.78964546,59.0543837 C2.59260324,59.0543837 0,56.4617805 0,53.2647382 C0,50.0665381 2.59260324,47.4750928 5.78964546,47.4750928 C8.98668769,47.4750928 11.5792909,50.0665381 11.5792909,53.2647382 L11.5792909,53.2647382 Z" id="Stroke-638" stroke="#000000"></path>
                        <path d="M17.3689364,9.26343274 C17.3689364,11.1821212 15.8138376,12.73722 13.8951491,12.73722 C11.9764606,12.73722 10.4213618,11.1821212 10.4213618,9.26343274 C10.4213618,7.34474423 11.9764606,5.78964546 13.8951491,5.78964546 C15.8138376,5.78964546 17.3689364,7.34474423 17.3689364,9.26343274 L17.3689364,9.26343274 Z" id="Stroke-640" stroke="#000000"></path>
                        <path d="M54.4226673,46.3171637 C54.4226673,48.2358522 52.8675686,49.790951 50.9488801,49.790951 C49.0301916,49.790951 47.4750928,48.2358522 47.4750928,46.3171637 C47.4750928,44.3984752 49.0301916,42.8433764 50.9488801,42.8433764 C52.8675686,42.8433764 54.4226673,44.3984752 54.4226673,46.3171637 L54.4226673,46.3171637 Z" id="Stroke-642" stroke="#000000"></path>
                        <path d="M31.6749636,35.8958019 L31.6749636,49.790951" id="Stroke-644" stroke="#000000"></path>
                        <path d="M38.21166,22.0006528 L50.9488801,9.26343274" id="Stroke-646" stroke="#000000"></path>
                        <path d="M26.6323691,33.5799437 L10.4213618,49.790951" id="Stroke-648" stroke="#000000"></path>
                        <path d="M26.6323691,22.0006528 L16.2110073,11.5792909" id="Stroke-650" stroke="#000000"></path>
                        <path d="M48.6330219,44.0013055 L38.21166,33.5799437" id="Stroke-652" stroke="#000000"></path>
                    </g>
                    <g id="138---Time-is-Money-(Outline)" transform="translate(146.907005, 75.566474) rotate(8.000000) translate(-146.907005, -75.566474) translate(118.907005, 47.066474)" stroke-linecap="round">
                        <path d="M24.9890685,28.0960678 L17.3124288,28.0960678" id="Stroke-150" stroke="#000000" stroke-linejoin="round"></path>
                        <path d="M27.3367146,25.5923231 L27.3367146,15.0369435" id="Stroke-152" stroke="#000000" stroke-linejoin="round"></path>
                        <path d="M24.9890685,28.4710629 C24.9890685,30.0610869 26.2777844,31.3498028 27.8678084,31.3498028 C29.4578324,31.3498028 30.7465483,30.0610869 30.7465483,28.4710629 C30.7465483,26.8810389 29.4578324,25.5923231 27.8678084,25.5923231 C26.2777844,25.5923231 24.9890685,26.8810389 24.9890685,28.4710629 L24.9890685,28.4710629 Z" id="Stroke-154" stroke="#000000" stroke-linejoin="round"></path>
                        <path d="M27.3367146,7.36030375 L27.3367146,8.31988372" id="Stroke-156" stroke="#000000"></path>
                        <path d="M27.3367146,48.6222422 L27.3367146,49.5818221" id="Stroke-158" stroke="#000000"></path>
                        <path d="M48.9785676,28.0960678 L48.0189876,28.0960678" id="Stroke-160" stroke="#000000"></path>
                        <path d="M7.71662916,28.0960678 L6.7570492,28.0960678" id="Stroke-162" stroke="#000000"></path>
                        <path d="M42.7950343,13.5428775 L42.1166113,14.2213005" id="Stroke-164" stroke="#000000"></path>
                        <path d="M13.6190055,42.7198658 L12.9405825,43.3982889" id="Stroke-166" stroke="#000000"></path>
                        <path d="M13.6190055,14.2213005 L12.9405825,13.5428775" id="Stroke-168" stroke="#000000"></path>
                        <path d="M53.9712621,38.2472636 C55.0853345,35.2370613 55.6956273,31.9840852 55.6956273,28.5871721 C55.6956273,13.2185394 43.2364411,0.759353185 27.8678084,0.759353185 C12.4991757,0.759353185 0.0399894565,13.2185394 0.0399894565,28.5871721 C0.0399894565,43.9558048 12.4991757,56.4149911 27.8678084,56.4149911 C31.2647215,56.4149911 34.5186571,55.8046982 37.5278999,54.6906259" id="Stroke-170" stroke="#000000" stroke-linejoin="round"></path>
                        <path d="M42.2615078,49.9109581 C42.2615078,52.0306702 43.9801156,53.7492779 46.0998277,53.7492779 C47.2753132,53.7492779 48.3270128,53.2215089 49.0313445,52.3885935 C49.9247134,51.332096 49.7011313,49.7267187 48.6091293,48.8774904 L43.5905261,44.9739192 C42.4985241,44.1246909 42.274942,42.5193136 43.1683109,41.4628161 C43.8726426,40.6308602 44.9243422,40.1021317 46.0998277,40.1021317 C48.2195398,40.1021317 49.9381476,41.8207394 49.9381476,43.9404515" id="Stroke-172" stroke="#000000"></path>
                        <path d="M45.5611911,38.1829718 L45.5611911,55.4554111" id="Stroke-174" stroke="#000000"></path>
                    </g>
                    <g id="106---Graph-Presentation-(Outline)" transform="translate(685.169153, 47.255409) rotate(24.000000) translate(-685.169153, -47.255409) translate(649.169153, 11.755409)">
                        <path d="M9.52209105,17 L27.7837147,17" id="Stroke-144" stroke="#000000" stroke-linecap="round"></path>
                        <path d="M9.52209105,13 L20.4790653,13" id="Stroke-146" stroke="#000000" stroke-linecap="round"></path>
                        <path d="M9.52209105,20 L27.7837147,20" id="Stroke-148" stroke="#000000" stroke-linecap="round"></path>
                        <polygon id="Stroke-150" stroke="#000000" points="1 4.86976632 71.6116116 4.86976632 71.6116116 53.5674295 1 53.5674295"></polygon>
                        <path d="M36,4.86976632 L36,5.68434189e-14" id="Stroke-152" stroke="#000000" stroke-linecap="round"></path>
                        <path d="M36,53.5674295 L36,68.1767284" id="Stroke-154" stroke="#000000" stroke-linecap="round"></path>
                        <path d="M36.3058058,53.5674295 L53.3499879,70.6116116" id="Stroke-156" stroke="#000000" stroke-linecap="round"></path>
                        <path d="M36.3058058,53.5674295 L19.2616237,70.6116116" id="Stroke-158" stroke="#000000" stroke-linecap="round"></path>
                        <path d="M14.3918574,43.8278968 L29.7316213,28.4881329" id="Stroke-210" stroke="#000000" stroke-linecap="round"></path>
                        <path d="M29.7316213,28.4881329 L40.6885955,39.4451072" id="Stroke-212" stroke="#000000" stroke-linecap="round"></path>
                        <path d="M40.6885955,39.4451072 L58.2197542,21.9139484" id="Stroke-214" stroke="#000000" stroke-linecap="round"></path>
                        <path d="M58,21.9139484 L58,30.4360395" id="Stroke-216" stroke="#000000" stroke-linecap="round"></path>
                        <path d="M58.2197542,21 L49.6976632,21" id="Stroke-218" stroke="#000000" stroke-linecap="round"></path>
                    </g>
                    <g id="28---Retina-Recognition-(Outline)" transform="translate(540.357150, 55.047164) rotate(15.000000) translate(-540.357150, -55.047164) translate(523.357150, 38.047164)">
                        <path d="M30.0028271,17.7203801 L27.3653693,20.3447077 C27.3316874,20.3778187 27.296293,20.4103587 27.2597568,20.4411862 C21.0748611,25.6053514 12.0709683,25.5882251 5.90434071,20.3915197 L3.91368802,18.7137084 C3.26973727,18.171374 3.27087903,17.1791875 3.91597153,16.6379948" id="Path" stroke="#000000" stroke-linecap="round"></path>
                        <path d="M24.1678798,17.4435041 C24.6434215,16.4170649 24.9094507,15.2730248 24.9094507,14.0667589 C24.9094507,13.8195686 24.894037,13.5752326 24.8723437,13.3337511 C19.9610775,10.491348 13.9263228,10.3680383 8.91743646,12.9643928 C8.86777005,13.3257588 8.83351735,13.6922627 8.83351735,14.0667589 C8.83351735,15.2724539 9.09840489,16.4153523 9.57394653,17.4417915 C10.8492887,20.1951376 13.6374584,22.1047256 16.871484,22.1047256 C20.104368,22.1047256 22.8919668,20.1957085 24.1678798,17.4435041 L24.1678798,17.4435041 Z" id="Path" stroke="#000000" stroke-linecap="round"></path>
                        <path d="M15.6532297,14.7974831 C15.6532297,15.8735888 14.7809277,16.7464617 13.704822,16.7464617 C12.6287164,16.7464617 11.7564143,15.8735888 11.7564143,14.7974831 C11.7564143,13.7213775 12.6287164,12.8490754 13.704822,12.8490754 C14.7809277,12.8490754 15.6532297,13.7213775 15.6532297,14.7974831 L15.6532297,14.7974831 Z" id="Path" stroke="#000000" stroke-linecap="round"></path>
                        <polyline id="Path" stroke="#000000" stroke-linecap="round" points="10.022086 0.31715462 0.31715462 0.31715462 0.31715462 10.022086"></polyline>
                        <polyline id="Path" stroke="#000000" stroke-linecap="round" points="24.2940439 33.428097 33.428097 33.428097 33.428097 24.2940439"></polyline>
                        <polyline id="Path" stroke="#000000" stroke-linecap="round" points="33.428097 10.022086 33.428097 0.31715462 24.2940439 0.31715462"></polyline>
                        <polyline id="Path" stroke="#000000" stroke-linecap="round" points="0.31715462 24.2940439 0.31715462 33.428097 10.022086 33.428097"></polyline>
                        <path d="M3.91597153,16.6379948 L5.88036382,14.99044 C12.0401409,9.82284947 21.0132062,9.80914839 27.1878261,14.9487659 C27.2232206,14.9784515 27.2580441,15.0098499 27.2911551,15.0429608 L30.0028271,17.7203801" id="Path" stroke="#000000" stroke-linecap="round"></path>
                        <path d="M3.1715462,31.1445837 C3.1715462,31.4597086 2.91579272,31.715462 2.60066789,31.715462 C2.28554306,31.715462 2.02978957,31.4597086 2.02978957,31.1445837 C2.02978957,30.8294589 2.28554306,30.5737054 2.60066789,30.5737054 C2.91579272,30.5737054 3.1715462,30.8294589 3.1715462,31.1445837" id="Fill-37" fill="#000000"></path>
                        <path d="M5.45505947,31.1445837 C5.45505947,31.4597086 5.19930598,31.715462 4.88418115,31.715462 C4.56905632,31.715462 4.31330284,31.4597086 4.31330284,31.1445837 C4.31330284,30.8294589 4.56905632,30.5737054 4.88418115,30.5737054 C5.19930598,30.5737054 5.45505947,30.8294589 5.45505947,31.1445837" id="Fill-38" fill="#000000"></path>
                        <path d="M7.73857274,31.1445837 C7.73857274,31.4597086 7.48281925,31.715462 7.16769442,31.715462 C6.85256959,31.715462 6.5968161,31.4597086 6.5968161,31.1445837 C6.5968161,30.8294589 6.85256959,30.5737054 7.16769442,30.5737054 C7.48281925,30.5737054 7.73857274,30.8294589 7.73857274,31.1445837" id="Fill-39" fill="#000000"></path>
                        <path d="M6.5968161,30.0028271 C6.5968161,30.3179519 6.34106262,30.5737054 6.02593779,30.5737054 C5.71081296,30.5737054 5.45505947,30.3179519 5.45505947,30.0028271 C5.45505947,29.6877023 5.71081296,29.4319488 6.02593779,29.4319488 C6.34106262,29.4319488 6.5968161,29.6877023 6.5968161,30.0028271" id="Fill-40" fill="#000000"></path>
                        <path d="M8.88032937,30.0028271 C8.88032937,30.3179519 8.62457588,30.5737054 8.30945105,30.5737054 C7.99432622,30.5737054 7.73857274,30.3179519 7.73857274,30.0028271 C7.73857274,29.6877023 7.99432622,29.4319488 8.30945105,29.4319488 C8.62457588,29.4319488 8.88032937,29.6877023 8.88032937,30.0028271" id="Fill-41" fill="#000000"></path>
                        <path d="M10.022086,31.1445837 C10.022086,31.4597086 9.76633252,31.715462 9.45120769,31.715462 C9.13608286,31.715462 8.88032937,31.4597086 8.88032937,31.1445837 C8.88032937,30.8294589 9.13608286,30.5737054 9.45120769,30.5737054 C9.76633252,30.5737054 10.022086,30.8294589 10.022086,31.1445837" id="Fill-42" fill="#000000"></path>
                        <path d="M12.3055993,31.1445837 C12.3055993,31.4597086 12.0498458,31.715462 11.734721,31.715462 C11.4195961,31.715462 11.1638426,31.4597086 11.1638426,31.1445837 C11.1638426,30.8294589 11.4195961,30.5737054 11.734721,30.5737054 C12.0498458,30.5737054 12.3055993,30.8294589 12.3055993,31.1445837" id="Fill-43" fill="#000000"></path>
                        <path d="M11.1638426,30.0028271 C11.1638426,30.3179519 10.9080892,30.5737054 10.5929643,30.5737054 C10.2778395,30.5737054 10.022086,30.3179519 10.022086,30.0028271 C10.022086,29.6877023 10.2778395,29.4319488 10.5929643,29.4319488 C10.9080892,29.4319488 11.1638426,29.6877023 11.1638426,30.0028271" id="Fill-44" fill="#000000"></path>
                        <path d="M4.31330284,30.0028271 C4.31330284,30.3179519 4.05754935,30.5737054 3.74242452,30.5737054 C3.42729969,30.5737054 3.1715462,30.3179519 3.1715462,30.0028271 C3.1715462,29.6877023 3.42729969,29.4319488 3.74242452,29.4319488 C4.05754935,29.4319488 4.31330284,29.6877023 4.31330284,30.0028271" id="Fill-45" fill="#000000"></path>
                        <path d="M14.5891125,31.1445837 C14.5891125,31.4597086 14.3333591,31.715462 14.0182342,31.715462 C13.7031094,31.715462 13.4473559,31.4597086 13.4473559,31.1445837 C13.4473559,30.8294589 13.7031094,30.5737054 14.0182342,30.5737054 C14.3333591,30.5737054 14.5891125,30.8294589 14.5891125,31.1445837" id="Fill-46" fill="#000000"></path>
                        <path d="M16.8726258,31.1445837 C16.8726258,31.4597086 16.6168723,31.715462 16.3017475,31.715462 C15.9866227,31.715462 15.7308692,31.4597086 15.7308692,31.1445837 C15.7308692,30.8294589 15.9866227,30.5737054 16.3017475,30.5737054 C16.6168723,30.5737054 16.8726258,30.8294589 16.8726258,31.1445837" id="Fill-47" fill="#000000"></path>
                        <path d="M19.1561391,31.1445837 C19.1561391,31.4597086 18.9003856,31.715462 18.5852608,31.715462 C18.2701359,31.715462 18.0143824,31.4597086 18.0143824,31.1445837 C18.0143824,30.8294589 18.2701359,30.5737054 18.5852608,30.5737054 C18.9003856,30.5737054 19.1561391,30.8294589 19.1561391,31.1445837" id="Fill-48" fill="#000000"></path>
                        <path d="M18.0143824,30.0028271 C18.0143824,30.3179519 17.758629,30.5737054 17.4435041,30.5737054 C17.1283793,30.5737054 16.8726258,30.3179519 16.8726258,30.0028271 C16.8726258,29.6877023 17.1283793,29.4319488 17.4435041,29.4319488 C17.758629,29.4319488 18.0143824,29.6877023 18.0143824,30.0028271" id="Fill-49" fill="#000000"></path>
                        <path d="M20.2978957,30.0028271 C20.2978957,30.3179519 20.0421422,30.5737054 19.7270174,30.5737054 C19.4118926,30.5737054 19.1561391,30.3179519 19.1561391,30.0028271 C19.1561391,29.6877023 19.4118926,29.4319488 19.7270174,29.4319488 C20.0421422,29.4319488 20.2978957,29.6877023 20.2978957,30.0028271" id="Fill-50" fill="#000000"></path>
                        <path d="M21.4396523,31.1445837 C21.4396523,31.4597086 21.1838989,31.715462 20.868774,31.715462 C20.5536492,31.715462 20.2978957,31.4597086 20.2978957,31.1445837 C20.2978957,30.8294589 20.5536492,30.5737054 20.868774,30.5737054 C21.1838989,30.5737054 21.4396523,30.8294589 21.4396523,31.1445837" id="Fill-51" fill="#000000"></path>
                        <path d="M23.7231656,31.1445837 C23.7231656,31.4597086 23.4674121,31.715462 23.1522873,31.715462 C22.8371625,31.715462 22.581409,31.4597086 22.581409,31.1445837 C22.581409,30.8294589 22.8371625,30.5737054 23.1522873,30.5737054 C23.4674121,30.5737054 23.7231656,30.8294589 23.7231656,31.1445837" id="Fill-52" fill="#000000"></path>
                        <path d="M22.581409,30.0028271 C22.581409,30.3179519 22.3256555,30.5737054 22.0105307,30.5737054 C21.6954058,30.5737054 21.4396523,30.3179519 21.4396523,30.0028271 C21.4396523,29.6877023 21.6954058,29.4319488 22.0105307,29.4319488 C22.3256555,29.4319488 22.581409,29.6877023 22.581409,30.0028271" id="Fill-53" fill="#000000"></path>
                        <path d="M15.7308692,30.0028271 C15.7308692,30.3179519 15.4751157,30.5737054 15.1599909,30.5737054 C14.844866,30.5737054 14.5891125,30.3179519 14.5891125,30.0028271 C14.5891125,29.6877023 14.844866,29.4319488 15.1599909,29.4319488 C15.4751157,29.4319488 15.7308692,29.6877023 15.7308692,30.0028271" id="Fill-54" fill="#000000"></path>
                        <path d="M26.0066789,31.1445837 C26.0066789,31.4597086 25.7509254,31.715462 25.4358006,31.715462 C25.1206757,31.715462 24.8649222,31.4597086 24.8649222,31.1445837 C24.8649222,30.8294589 25.1206757,30.5737054 25.4358006,30.5737054 C25.7509254,30.5737054 26.0066789,30.8294589 26.0066789,31.1445837" id="Fill-55" fill="#000000"></path>
                        <path d="M28.2901921,31.1445837 C28.2901921,31.4597086 28.0344387,31.715462 27.7193138,31.715462 C27.404189,31.715462 27.1484355,31.4597086 27.1484355,31.1445837 C27.1484355,30.8294589 27.404189,30.5737054 27.7193138,30.5737054 C28.0344387,30.5737054 28.2901921,30.8294589 28.2901921,31.1445837" id="Fill-56" fill="#000000"></path>
                        <path d="M30.5737054,31.1445837 C30.5737054,31.4597086 30.3179519,31.715462 30.0028271,31.715462 C29.6877023,31.715462 29.4319488,31.4597086 29.4319488,31.1445837 C29.4319488,30.8294589 29.6877023,30.5737054 30.0028271,30.5737054 C30.3179519,30.5737054 30.5737054,30.8294589 30.5737054,31.1445837" id="Fill-57" fill="#000000"></path>
                        <path d="M29.4319488,30.0028271 C29.4319488,30.3179519 29.1761953,30.5737054 28.8610705,30.5737054 C28.5459456,30.5737054 28.2901921,30.3179519 28.2901921,30.0028271 C28.2901921,29.6877023 28.5459456,29.4319488 28.8610705,29.4319488 C29.1761953,29.4319488 29.4319488,29.6877023 29.4319488,30.0028271" id="Fill-58" fill="#000000"></path>
                        <path d="M31.715462,30.0028271 C31.715462,30.3179519 31.4597086,30.5737054 31.1445837,30.5737054 C30.8294589,30.5737054 30.5737054,30.3179519 30.5737054,30.0028271 C30.5737054,29.6877023 30.8294589,29.4319488 31.1445837,29.4319488 C31.4597086,29.4319488 31.715462,29.6877023 31.715462,30.0028271" id="Fill-59" fill="#000000"></path>
                        <path d="M24.8649222,30.0028271 C24.8649222,30.3179519 24.6091688,30.5737054 24.2940439,30.5737054 C23.9789191,30.5737054 23.7231656,30.3179519 23.7231656,30.0028271 C23.7231656,29.6877023 23.9789191,29.4319488 24.2940439,29.4319488 C24.6091688,29.4319488 24.8649222,29.6877023 24.8649222,30.0028271" id="Fill-60" fill="#000000"></path>
                        <path d="M13.4473559,30.0028271 C13.4473559,30.3179519 13.1916024,30.5737054 12.8764776,30.5737054 C12.5613528,30.5737054 12.3055993,30.3179519 12.3055993,30.0028271 C12.3055993,29.6877023 12.5613528,29.4319488 12.8764776,29.4319488 C13.1916024,29.4319488 13.4473559,29.6877023 13.4473559,30.0028271" id="Fill-61" fill="#000000"></path>
                        <path d="M27.1484355,30.0028271 C27.1484355,30.3179519 26.892682,30.5737054 26.5775572,30.5737054 C26.2624324,30.5737054 26.0066789,30.3179519 26.0066789,30.0028271 C26.0066789,29.6877023 26.2624324,29.4319488 26.5775572,29.4319488 C26.892682,29.4319488 27.1484355,29.6877023 27.1484355,30.0028271" id="Fill-62" fill="#000000"></path>
                        <path d="M3.1715462,28.8610705 C3.1715462,29.1761953 2.91579272,29.4319488 2.60066789,29.4319488 C2.28554306,29.4319488 2.02978957,29.1761953 2.02978957,28.8610705 C2.02978957,28.5459456 2.28554306,28.2901921 2.60066789,28.2901921 C2.91579272,28.2901921 3.1715462,28.5459456 3.1715462,28.8610705" id="Fill-63" fill="#000000"></path>
                        <path d="M5.45505947,28.8610705 C5.45505947,29.1761953 5.19930598,29.4319488 4.88418115,29.4319488 C4.56905632,29.4319488 4.31330284,29.1761953 4.31330284,28.8610705 C4.31330284,28.5459456 4.56905632,28.2901921 4.88418115,28.2901921 C5.19930598,28.2901921 5.45505947,28.5459456 5.45505947,28.8610705" id="Fill-64" fill="#000000"></path>
                        <path d="M7.73857274,28.8610705 C7.73857274,29.1761953 7.48281925,29.4319488 7.16769442,29.4319488 C6.85256959,29.4319488 6.5968161,29.1761953 6.5968161,28.8610705 C6.5968161,28.5459456 6.85256959,28.2901921 7.16769442,28.2901921 C7.48281925,28.2901921 7.73857274,28.5459456 7.73857274,28.8610705" id="Fill-65" fill="#000000"></path>
                        <path d="M6.5968161,27.7193138 C6.5968161,28.0344387 6.34106262,28.2901921 6.02593779,28.2901921 C5.71081296,28.2901921 5.45505947,28.0344387 5.45505947,27.7193138 C5.45505947,27.404189 5.71081296,27.1484355 6.02593779,27.1484355 C6.34106262,27.1484355 6.5968161,27.404189 6.5968161,27.7193138" id="Fill-66" fill="#000000"></path>
                        <path d="M8.88032937,27.7193138 C8.88032937,28.0344387 8.62457588,28.2901921 8.30945105,28.2901921 C7.99432622,28.2901921 7.73857274,28.0344387 7.73857274,27.7193138 C7.73857274,27.404189 7.99432622,27.1484355 8.30945105,27.1484355 C8.62457588,27.1484355 8.88032937,27.404189 8.88032937,27.7193138" id="Fill-67" fill="#000000"></path>
                        <path d="M10.022086,28.8610705 C10.022086,29.1761953 9.76633252,29.4319488 9.45120769,29.4319488 C9.13608286,29.4319488 8.88032937,29.1761953 8.88032937,28.8610705 C8.88032937,28.5459456 9.13608286,28.2901921 9.45120769,28.2901921 C9.76633252,28.2901921 10.022086,28.5459456 10.022086,28.8610705" id="Fill-68" fill="#000000"></path>
                        <path d="M12.3055993,28.8610705 C12.3055993,29.1761953 12.0498458,29.4319488 11.734721,29.4319488 C11.4195961,29.4319488 11.1638426,29.1761953 11.1638426,28.8610705 C11.1638426,28.5459456 11.4195961,28.2901921 11.734721,28.2901921 C12.0498458,28.2901921 12.3055993,28.5459456 12.3055993,28.8610705" id="Fill-69" fill="#000000"></path>
                        <path d="M11.1638426,27.7193138 C11.1638426,28.0344387 10.9080892,28.2901921 10.5929643,28.2901921 C10.2778395,28.2901921 10.022086,28.0344387 10.022086,27.7193138 C10.022086,27.404189 10.2778395,27.1484355 10.5929643,27.1484355 C10.9080892,27.1484355 11.1638426,27.404189 11.1638426,27.7193138" id="Fill-70" fill="#000000"></path>
                        <path d="M4.31330284,27.7193138 C4.31330284,28.0344387 4.05754935,28.2901921 3.74242452,28.2901921 C3.42729969,28.2901921 3.1715462,28.0344387 3.1715462,27.7193138 C3.1715462,27.404189 3.42729969,27.1484355 3.74242452,27.1484355 C4.05754935,27.1484355 4.31330284,27.404189 4.31330284,27.7193138" id="Fill-71" fill="#000000"></path>
                        <path d="M14.5891125,28.8610705 C14.5891125,29.1761953 14.3333591,29.4319488 14.0182342,29.4319488 C13.7031094,29.4319488 13.4473559,29.1761953 13.4473559,28.8610705 C13.4473559,28.5459456 13.7031094,28.2901921 14.0182342,28.2901921 C14.3333591,28.2901921 14.5891125,28.5459456 14.5891125,28.8610705" id="Fill-72" fill="#000000"></path>
                        <path d="M16.8726258,28.8610705 C16.8726258,29.1761953 16.6168723,29.4319488 16.3017475,29.4319488 C15.9866227,29.4319488 15.7308692,29.1761953 15.7308692,28.8610705 C15.7308692,28.5459456 15.9866227,28.2901921 16.3017475,28.2901921 C16.6168723,28.2901921 16.8726258,28.5459456 16.8726258,28.8610705" id="Fill-73" fill="#000000"></path>
                        <path d="M19.1561391,28.8610705 C19.1561391,29.1761953 18.9003856,29.4319488 18.5852608,29.4319488 C18.2701359,29.4319488 18.0143824,29.1761953 18.0143824,28.8610705 C18.0143824,28.5459456 18.2701359,28.2901921 18.5852608,28.2901921 C18.9003856,28.2901921 19.1561391,28.5459456 19.1561391,28.8610705" id="Fill-74" fill="#000000"></path>
                        <path d="M18.0143824,27.7193138 C18.0143824,28.0344387 17.758629,28.2901921 17.4435041,28.2901921 C17.1283793,28.2901921 16.8726258,28.0344387 16.8726258,27.7193138 C16.8726258,27.404189 17.1283793,27.1484355 17.4435041,27.1484355 C17.758629,27.1484355 18.0143824,27.404189 18.0143824,27.7193138" id="Fill-75" fill="#000000"></path>
                        <path d="M20.2978957,27.7193138 C20.2978957,28.0344387 20.0421422,28.2901921 19.7270174,28.2901921 C19.4118926,28.2901921 19.1561391,28.0344387 19.1561391,27.7193138 C19.1561391,27.404189 19.4118926,27.1484355 19.7270174,27.1484355 C20.0421422,27.1484355 20.2978957,27.404189 20.2978957,27.7193138" id="Fill-76" fill="#000000"></path>
                        <path d="M21.4396523,28.8610705 C21.4396523,29.1761953 21.1838989,29.4319488 20.868774,29.4319488 C20.5536492,29.4319488 20.2978957,29.1761953 20.2978957,28.8610705 C20.2978957,28.5459456 20.5536492,28.2901921 20.868774,28.2901921 C21.1838989,28.2901921 21.4396523,28.5459456 21.4396523,28.8610705" id="Fill-77" fill="#000000"></path>
                        <path d="M23.7231656,28.8610705 C23.7231656,29.1761953 23.4674121,29.4319488 23.1522873,29.4319488 C22.8371625,29.4319488 22.581409,29.1761953 22.581409,28.8610705 C22.581409,28.5459456 22.8371625,28.2901921 23.1522873,28.2901921 C23.4674121,28.2901921 23.7231656,28.5459456 23.7231656,28.8610705" id="Fill-78" fill="#000000"></path>
                        <path d="M22.581409,27.7193138 C22.581409,28.0344387 22.3256555,28.2901921 22.0105307,28.2901921 C21.6954058,28.2901921 21.4396523,28.0344387 21.4396523,27.7193138 C21.4396523,27.404189 21.6954058,27.1484355 22.0105307,27.1484355 C22.3256555,27.1484355 22.581409,27.404189 22.581409,27.7193138" id="Fill-79" fill="#000000"></path>
                        <path d="M15.7308692,27.7193138 C15.7308692,28.0344387 15.4751157,28.2901921 15.1599909,28.2901921 C14.844866,28.2901921 14.5891125,28.0344387 14.5891125,27.7193138 C14.5891125,27.404189 14.844866,27.1484355 15.1599909,27.1484355 C15.4751157,27.1484355 15.7308692,27.404189 15.7308692,27.7193138" id="Fill-80" fill="#000000"></path>
                        <path d="M26.0066789,28.8610705 C26.0066789,29.1761953 25.7509254,29.4319488 25.4358006,29.4319488 C25.1206757,29.4319488 24.8649222,29.1761953 24.8649222,28.8610705 C24.8649222,28.5459456 25.1206757,28.2901921 25.4358006,28.2901921 C25.7509254,28.2901921 26.0066789,28.5459456 26.0066789,28.8610705" id="Fill-81" fill="#000000"></path>
                        <path d="M28.2901921,28.8610705 C28.2901921,29.1761953 28.0344387,29.4319488 27.7193138,29.4319488 C27.404189,29.4319488 27.1484355,29.1761953 27.1484355,28.8610705 C27.1484355,28.5459456 27.404189,28.2901921 27.7193138,28.2901921 C28.0344387,28.2901921 28.2901921,28.5459456 28.2901921,28.8610705" id="Fill-82" fill="#000000"></path>
                        <path d="M30.5737054,28.8610705 C30.5737054,29.1761953 30.3179519,29.4319488 30.0028271,29.4319488 C29.6877023,29.4319488 29.4319488,29.1761953 29.4319488,28.8610705 C29.4319488,28.5459456 29.6877023,28.2901921 30.0028271,28.2901921 C30.3179519,28.2901921 30.5737054,28.5459456 30.5737054,28.8610705" id="Fill-83" fill="#000000"></path>
                        <path d="M29.4319488,27.7193138 C29.4319488,28.0344387 29.1761953,28.2901921 28.8610705,28.2901921 C28.5459456,28.2901921 28.2901921,28.0344387 28.2901921,27.7193138 C28.2901921,27.404189 28.5459456,27.1484355 28.8610705,27.1484355 C29.1761953,27.1484355 29.4319488,27.404189 29.4319488,27.7193138" id="Fill-84" fill="#000000"></path>
                        <path d="M31.715462,27.7193138 C31.715462,28.0344387 31.4597086,28.2901921 31.1445837,28.2901921 C30.8294589,28.2901921 30.5737054,28.0344387 30.5737054,27.7193138 C30.5737054,27.404189 30.8294589,27.1484355 31.1445837,27.1484355 C31.4597086,27.1484355 31.715462,27.404189 31.715462,27.7193138" id="Fill-85" fill="#000000"></path>
                        <path d="M24.8649222,27.7193138 C24.8649222,28.0344387 24.6091688,28.2901921 24.2940439,28.2901921 C23.9789191,28.2901921 23.7231656,28.0344387 23.7231656,27.7193138 C23.7231656,27.404189 23.9789191,27.1484355 24.2940439,27.1484355 C24.6091688,27.1484355 24.8649222,27.404189 24.8649222,27.7193138" id="Fill-86" fill="#000000"></path>
                        <path d="M13.4473559,27.7193138 C13.4473559,28.0344387 13.1916024,28.2901921 12.8764776,28.2901921 C12.5613528,28.2901921 12.3055993,28.0344387 12.3055993,27.7193138 C12.3055993,27.404189 12.5613528,27.1484355 12.8764776,27.1484355 C13.1916024,27.1484355 13.4473559,27.404189 13.4473559,27.7193138" id="Fill-87" fill="#000000"></path>
                        <path d="M27.1484355,27.7193138 C27.1484355,28.0344387 26.892682,28.2901921 26.5775572,28.2901921 C26.2624324,28.2901921 26.0066789,28.0344387 26.0066789,27.7193138 C26.0066789,27.404189 26.2624324,27.1484355 26.5775572,27.1484355 C26.892682,27.1484355 27.1484355,27.404189 27.1484355,27.7193138" id="Fill-88" fill="#000000"></path>
                        <path d="M3.1715462,26.5775572 C3.1715462,26.892682 2.91579272,27.1484355 2.60066789,27.1484355 C2.28554306,27.1484355 2.02978957,26.892682 2.02978957,26.5775572 C2.02978957,26.2624324 2.28554306,26.0066789 2.60066789,26.0066789 C2.91579272,26.0066789 3.1715462,26.2624324 3.1715462,26.5775572" id="Fill-89" fill="#000000"></path>
                        <path d="M5.45505947,26.5775572 C5.45505947,26.892682 5.19930598,27.1484355 4.88418115,27.1484355 C4.56905632,27.1484355 4.31330284,26.892682 4.31330284,26.5775572 C4.31330284,26.2624324 4.56905632,26.0066789 4.88418115,26.0066789 C5.19930598,26.0066789 5.45505947,26.2624324 5.45505947,26.5775572" id="Fill-90" fill="#000000"></path>
                        <path d="M7.73857274,26.5775572 C7.73857274,26.892682 7.48281925,27.1484355 7.16769442,27.1484355 C6.85256959,27.1484355 6.5968161,26.892682 6.5968161,26.5775572 C6.5968161,26.2624324 6.85256959,26.0066789 7.16769442,26.0066789 C7.48281925,26.0066789 7.73857274,26.2624324 7.73857274,26.5775572" id="Fill-91" fill="#000000"></path>
                        <path d="M6.5968161,25.4358006 C6.5968161,25.7509254 6.34106262,26.0066789 6.02593779,26.0066789 C5.71081296,26.0066789 5.45505947,25.7509254 5.45505947,25.4358006 C5.45505947,25.1206757 5.71081296,24.8649222 6.02593779,24.8649222 C6.34106262,24.8649222 6.5968161,25.1206757 6.5968161,25.4358006" id="Fill-92" fill="#000000"></path>
                        <path d="M8.88032937,25.4358006 C8.88032937,25.7509254 8.62457588,26.0066789 8.30945105,26.0066789 C7.99432622,26.0066789 7.73857274,25.7509254 7.73857274,25.4358006 C7.73857274,25.1206757 7.99432622,24.8649222 8.30945105,24.8649222 C8.62457588,24.8649222 8.88032937,25.1206757 8.88032937,25.4358006" id="Fill-93" fill="#000000"></path>
                        <path d="M10.022086,26.5775572 C10.022086,26.892682 9.76633252,27.1484355 9.45120769,27.1484355 C9.13608286,27.1484355 8.88032937,26.892682 8.88032937,26.5775572 C8.88032937,26.2624324 9.13608286,26.0066789 9.45120769,26.0066789 C9.76633252,26.0066789 10.022086,26.2624324 10.022086,26.5775572" id="Fill-94" fill="#000000"></path>
                        <path d="M12.3055993,26.5775572 C12.3055993,26.892682 12.0498458,27.1484355 11.734721,27.1484355 C11.4195961,27.1484355 11.1638426,26.892682 11.1638426,26.5775572 C11.1638426,26.2624324 11.4195961,26.0066789 11.734721,26.0066789 C12.0498458,26.0066789 12.3055993,26.2624324 12.3055993,26.5775572" id="Fill-95" fill="#000000"></path>
                        <path d="M11.1638426,25.4358006 C11.1638426,25.7509254 10.9080892,26.0066789 10.5929643,26.0066789 C10.2778395,26.0066789 10.022086,25.7509254 10.022086,25.4358006 C10.022086,25.1206757 10.2778395,24.8649222 10.5929643,24.8649222 C10.9080892,24.8649222 11.1638426,25.1206757 11.1638426,25.4358006" id="Fill-96" fill="#000000"></path>
                        <path d="M4.31330284,25.4358006 C4.31330284,25.7509254 4.05754935,26.0066789 3.74242452,26.0066789 C3.42729969,26.0066789 3.1715462,25.7509254 3.1715462,25.4358006 C3.1715462,25.1206757 3.42729969,24.8649222 3.74242452,24.8649222 C4.05754935,24.8649222 4.31330284,25.1206757 4.31330284,25.4358006" id="Fill-97" fill="#000000"></path>
                        <path d="M14.5891125,26.5775572 C14.5891125,26.892682 14.3333591,27.1484355 14.0182342,27.1484355 C13.7031094,27.1484355 13.4473559,26.892682 13.4473559,26.5775572 C13.4473559,26.2624324 13.7031094,26.0066789 14.0182342,26.0066789 C14.3333591,26.0066789 14.5891125,26.2624324 14.5891125,26.5775572" id="Fill-98" fill="#000000"></path>
                        <path d="M16.8726258,26.5775572 C16.8726258,26.892682 16.6168723,27.1484355 16.3017475,27.1484355 C15.9866227,27.1484355 15.7308692,26.892682 15.7308692,26.5775572 C15.7308692,26.2624324 15.9866227,26.0066789 16.3017475,26.0066789 C16.6168723,26.0066789 16.8726258,26.2624324 16.8726258,26.5775572" id="Fill-99" fill="#000000"></path>
                        <path d="M19.1561391,26.5775572 C19.1561391,26.892682 18.9003856,27.1484355 18.5852608,27.1484355 C18.2701359,27.1484355 18.0143824,26.892682 18.0143824,26.5775572 C18.0143824,26.2624324 18.2701359,26.0066789 18.5852608,26.0066789 C18.9003856,26.0066789 19.1561391,26.2624324 19.1561391,26.5775572" id="Fill-100" fill="#000000"></path>
                        <path d="M18.0143824,25.4358006 C18.0143824,25.7509254 17.758629,26.0066789 17.4435041,26.0066789 C17.1283793,26.0066789 16.8726258,25.7509254 16.8726258,25.4358006 C16.8726258,25.1206757 17.1283793,24.8649222 17.4435041,24.8649222 C17.758629,24.8649222 18.0143824,25.1206757 18.0143824,25.4358006" id="Fill-101" fill="#000000"></path>
                        <path d="M20.2978957,25.4358006 C20.2978957,25.7509254 20.0421422,26.0066789 19.7270174,26.0066789 C19.4118926,26.0066789 19.1561391,25.7509254 19.1561391,25.4358006 C19.1561391,25.1206757 19.4118926,24.8649222 19.7270174,24.8649222 C20.0421422,24.8649222 20.2978957,25.1206757 20.2978957,25.4358006" id="Fill-102" fill="#000000"></path>
                        <path d="M21.4396523,26.5775572 C21.4396523,26.892682 21.1838989,27.1484355 20.868774,27.1484355 C20.5536492,27.1484355 20.2978957,26.892682 20.2978957,26.5775572 C20.2978957,26.2624324 20.5536492,26.0066789 20.868774,26.0066789 C21.1838989,26.0066789 21.4396523,26.2624324 21.4396523,26.5775572" id="Fill-103" fill="#000000"></path>
                        <path d="M23.7231656,26.5775572 C23.7231656,26.892682 23.4674121,27.1484355 23.1522873,27.1484355 C22.8371625,27.1484355 22.581409,26.892682 22.581409,26.5775572 C22.581409,26.2624324 22.8371625,26.0066789 23.1522873,26.0066789 C23.4674121,26.0066789 23.7231656,26.2624324 23.7231656,26.5775572" id="Fill-104" fill="#000000"></path>
                        <path d="M22.581409,25.4358006 C22.581409,25.7509254 22.3256555,26.0066789 22.0105307,26.0066789 C21.6954058,26.0066789 21.4396523,25.7509254 21.4396523,25.4358006 C21.4396523,25.1206757 21.6954058,24.8649222 22.0105307,24.8649222 C22.3256555,24.8649222 22.581409,25.1206757 22.581409,25.4358006" id="Fill-105" fill="#000000"></path>
                        <path d="M15.7308692,25.4358006 C15.7308692,25.7509254 15.4751157,26.0066789 15.1599909,26.0066789 C14.844866,26.0066789 14.5891125,25.7509254 14.5891125,25.4358006 C14.5891125,25.1206757 14.844866,24.8649222 15.1599909,24.8649222 C15.4751157,24.8649222 15.7308692,25.1206757 15.7308692,25.4358006" id="Fill-106" fill="#000000"></path>
                        <path d="M26.0066789,26.5775572 C26.0066789,26.892682 25.7509254,27.1484355 25.4358006,27.1484355 C25.1206757,27.1484355 24.8649222,26.892682 24.8649222,26.5775572 C24.8649222,26.2624324 25.1206757,26.0066789 25.4358006,26.0066789 C25.7509254,26.0066789 26.0066789,26.2624324 26.0066789,26.5775572" id="Fill-107" fill="#000000"></path>
                        <path d="M28.2901921,26.5775572 C28.2901921,26.892682 28.0344387,27.1484355 27.7193138,27.1484355 C27.404189,27.1484355 27.1484355,26.892682 27.1484355,26.5775572 C27.1484355,26.2624324 27.404189,26.0066789 27.7193138,26.0066789 C28.0344387,26.0066789 28.2901921,26.2624324 28.2901921,26.5775572" id="Fill-108" fill="#000000"></path>
                        <path d="M30.5737054,26.5775572 C30.5737054,26.892682 30.3179519,27.1484355 30.0028271,27.1484355 C29.6877023,27.1484355 29.4319488,26.892682 29.4319488,26.5775572 C29.4319488,26.2624324 29.6877023,26.0066789 30.0028271,26.0066789 C30.3179519,26.0066789 30.5737054,26.2624324 30.5737054,26.5775572" id="Fill-109" fill="#000000"></path>
                        <path d="M29.4319488,25.4358006 C29.4319488,25.7509254 29.1761953,26.0066789 28.8610705,26.0066789 C28.5459456,26.0066789 28.2901921,25.7509254 28.2901921,25.4358006 C28.2901921,25.1206757 28.5459456,24.8649222 28.8610705,24.8649222 C29.1761953,24.8649222 29.4319488,25.1206757 29.4319488,25.4358006" id="Fill-110" fill="#000000"></path>
                        <path d="M31.715462,25.4358006 C31.715462,25.7509254 31.4597086,26.0066789 31.1445837,26.0066789 C30.8294589,26.0066789 30.5737054,25.7509254 30.5737054,25.4358006 C30.5737054,25.1206757 30.8294589,24.8649222 31.1445837,24.8649222 C31.4597086,24.8649222 31.715462,25.1206757 31.715462,25.4358006" id="Fill-111" fill="#000000"></path>
                        <path d="M24.8649222,25.4358006 C24.8649222,25.7509254 24.6091688,26.0066789 24.2940439,26.0066789 C23.9789191,26.0066789 23.7231656,25.7509254 23.7231656,25.4358006 C23.7231656,25.1206757 23.9789191,24.8649222 24.2940439,24.8649222 C24.6091688,24.8649222 24.8649222,25.1206757 24.8649222,25.4358006" id="Fill-112" fill="#000000"></path>
                        <path d="M13.4473559,25.4358006 C13.4473559,25.7509254 13.1916024,26.0066789 12.8764776,26.0066789 C12.5613528,26.0066789 12.3055993,25.7509254 12.3055993,25.4358006 C12.3055993,25.1206757 12.5613528,24.8649222 12.8764776,24.8649222 C13.1916024,24.8649222 13.4473559,25.1206757 13.4473559,25.4358006" id="Fill-113" fill="#000000"></path>
                        <path d="M27.1484355,25.4358006 C27.1484355,25.7509254 26.892682,26.0066789 26.5775572,26.0066789 C26.2624324,26.0066789 26.0066789,25.7509254 26.0066789,25.4358006 C26.0066789,25.1206757 26.2624324,24.8649222 26.5775572,24.8649222 C26.892682,24.8649222 27.1484355,25.1206757 27.1484355,25.4358006" id="Fill-114" fill="#000000"></path>
                        <path d="M3.1715462,24.2940439 C3.1715462,24.6091688 2.91579272,24.8649222 2.60066789,24.8649222 C2.28554306,24.8649222 2.02978957,24.6091688 2.02978957,24.2940439 C2.02978957,23.9789191 2.28554306,23.7231656 2.60066789,23.7231656 C2.91579272,23.7231656 3.1715462,23.9789191 3.1715462,24.2940439" id="Fill-115" fill="#000000"></path>
                        <path d="M5.45505947,24.2940439 C5.45505947,24.6091688 5.19930598,24.8649222 4.88418115,24.8649222 C4.56905632,24.8649222 4.31330284,24.6091688 4.31330284,24.2940439 C4.31330284,23.9789191 4.56905632,23.7231656 4.88418115,23.7231656 C5.19930598,23.7231656 5.45505947,23.9789191 5.45505947,24.2940439" id="Fill-116" fill="#000000"></path>
                        <path d="M7.73857274,24.2940439 C7.73857274,24.6091688 7.48281925,24.8649222 7.16769442,24.8649222 C6.85256959,24.8649222 6.5968161,24.6091688 6.5968161,24.2940439 C6.5968161,23.9789191 6.85256959,23.7231656 7.16769442,23.7231656 C7.48281925,23.7231656 7.73857274,23.9789191 7.73857274,24.2940439" id="Fill-117" fill="#000000"></path>
                        <path d="M6.5968161,23.1522873 C6.5968161,23.4674121 6.34106262,23.7231656 6.02593779,23.7231656 C5.71081296,23.7231656 5.45505947,23.4674121 5.45505947,23.1522873 C5.45505947,22.8371625 5.71081296,22.581409 6.02593779,22.581409 C6.34106262,22.581409 6.5968161,22.8371625 6.5968161,23.1522873" id="Fill-118" fill="#000000"></path>
                        <path d="M8.88032937,23.1522873 C8.88032937,23.4674121 8.62457588,23.7231656 8.30945105,23.7231656 C7.99432622,23.7231656 7.73857274,23.4674121 7.73857274,23.1522873 C7.73857274,22.8371625 7.99432622,22.581409 8.30945105,22.581409 C8.62457588,22.581409 8.88032937,22.8371625 8.88032937,23.1522873" id="Fill-119" fill="#000000"></path>
                        <path d="M10.022086,24.2940439 C10.022086,24.6091688 9.76633252,24.8649222 9.45120769,24.8649222 C9.13608286,24.8649222 8.88032937,24.6091688 8.88032937,24.2940439 C8.88032937,23.9789191 9.13608286,23.7231656 9.45120769,23.7231656 C9.76633252,23.7231656 10.022086,23.9789191 10.022086,24.2940439" id="Fill-120" fill="#000000"></path>
                        <path d="M12.3055993,24.2940439 C12.3055993,24.6091688 12.0498458,24.8649222 11.734721,24.8649222 C11.4195961,24.8649222 11.1638426,24.6091688 11.1638426,24.2940439 C11.1638426,23.9789191 11.4195961,23.7231656 11.734721,23.7231656 C12.0498458,23.7231656 12.3055993,23.9789191 12.3055993,24.2940439" id="Fill-121" fill="#000000"></path>
                        <path d="M4.31330284,23.1522873 C4.31330284,23.4674121 4.05754935,23.7231656 3.74242452,23.7231656 C3.42729969,23.7231656 3.1715462,23.4674121 3.1715462,23.1522873 C3.1715462,22.8371625 3.42729969,22.581409 3.74242452,22.581409 C4.05754935,22.581409 4.31330284,22.8371625 4.31330284,23.1522873" id="Fill-122" fill="#000000"></path>
                        <path d="M23.7231656,24.2940439 C23.7231656,24.6091688 23.4674121,24.8649222 23.1522873,24.8649222 C22.8371625,24.8649222 22.581409,24.6091688 22.581409,24.2940439 C22.581409,23.9789191 22.8371625,23.7231656 23.1522873,23.7231656 C23.4674121,23.7231656 23.7231656,23.9789191 23.7231656,24.2940439" id="Fill-123" fill="#000000"></path>
                        <path d="M26.0066789,24.2940439 C26.0066789,24.6091688 25.7509254,24.8649222 25.4358006,24.8649222 C25.1206757,24.8649222 24.8649222,24.6091688 24.8649222,24.2940439 C24.8649222,23.9789191 25.1206757,23.7231656 25.4358006,23.7231656 C25.7509254,23.7231656 26.0066789,23.9789191 26.0066789,24.2940439" id="Fill-124" fill="#000000"></path>
                        <path d="M28.2901921,24.2940439 C28.2901921,24.6091688 28.0344387,24.8649222 27.7193138,24.8649222 C27.404189,24.8649222 27.1484355,24.6091688 27.1484355,24.2940439 C27.1484355,23.9789191 27.404189,23.7231656 27.7193138,23.7231656 C28.0344387,23.7231656 28.2901921,23.9789191 28.2901921,24.2940439" id="Fill-125" fill="#000000"></path>
                        <path d="M30.5737054,24.2940439 C30.5737054,24.6091688 30.3179519,24.8649222 30.0028271,24.8649222 C29.6877023,24.8649222 29.4319488,24.6091688 29.4319488,24.2940439 C29.4319488,23.9789191 29.6877023,23.7231656 30.0028271,23.7231656 C30.3179519,23.7231656 30.5737054,23.9789191 30.5737054,24.2940439" id="Fill-126" fill="#000000"></path>
                        <path d="M29.4319488,23.1522873 C29.4319488,23.4674121 29.1761953,23.7231656 28.8610705,23.7231656 C28.5459456,23.7231656 28.2901921,23.4674121 28.2901921,23.1522873 C28.2901921,22.8371625 28.5459456,22.581409 28.8610705,22.581409 C29.1761953,22.581409 29.4319488,22.8371625 29.4319488,23.1522873" id="Fill-127" fill="#000000"></path>
                        <path d="M31.715462,23.1522873 C31.715462,23.4674121 31.4597086,23.7231656 31.1445837,23.7231656 C30.8294589,23.7231656 30.5737054,23.4674121 30.5737054,23.1522873 C30.5737054,22.8371625 30.8294589,22.581409 31.1445837,22.581409 C31.4597086,22.581409 31.715462,22.8371625 31.715462,23.1522873" id="Fill-128" fill="#000000"></path>
                        <path d="M24.8649222,23.1522873 C24.8649222,23.4674121 24.6091688,23.7231656 24.2940439,23.7231656 C23.9789191,23.7231656 23.7231656,23.4674121 23.7231656,23.1522873 C23.7231656,22.8371625 23.9789191,22.581409 24.2940439,22.581409 C24.6091688,22.581409 24.8649222,22.8371625 24.8649222,23.1522873" id="Fill-129" fill="#000000"></path>
                        <path d="M27.1484355,23.1522873 C27.1484355,23.4674121 26.892682,23.7231656 26.5775572,23.7231656 C26.2624324,23.7231656 26.0066789,23.4674121 26.0066789,23.1522873 C26.0066789,22.8371625 26.2624324,22.581409 26.5775572,22.581409 C26.892682,22.581409 27.1484355,22.8371625 27.1484355,23.1522873" id="Fill-130" fill="#000000"></path>
                        <path d="M3.1715462,22.0105307 C3.1715462,22.3256555 2.91579272,22.581409 2.60066789,22.581409 C2.28554306,22.581409 2.02978957,22.3256555 2.02978957,22.0105307 C2.02978957,21.6954058 2.28554306,21.4396523 2.60066789,21.4396523 C2.91579272,21.4396523 3.1715462,21.6954058 3.1715462,22.0105307" id="Fill-131" fill="#000000"></path>
                        <path d="M5.45505947,22.0105307 C5.45505947,22.3256555 5.19930598,22.581409 4.88418115,22.581409 C4.56905632,22.581409 4.31330284,22.3256555 4.31330284,22.0105307 C4.31330284,21.6954058 4.56905632,21.4396523 4.88418115,21.4396523 C5.19930598,21.4396523 5.45505947,21.6954058 5.45505947,22.0105307" id="Fill-132" fill="#000000"></path>
                        <path d="M7.73857274,22.0105307 C7.73857274,22.3256555 7.48281925,22.581409 7.16769442,22.581409 C6.85256959,22.581409 6.5968161,22.3256555 6.5968161,22.0105307 C6.5968161,21.6954058 6.85256959,21.4396523 7.16769442,21.4396523 C7.48281925,21.4396523 7.73857274,21.6954058 7.73857274,22.0105307" id="Fill-133" fill="#000000"></path>
                        <path d="M4.31330284,20.868774 C4.31330284,21.1838989 4.05754935,21.4396523 3.74242452,21.4396523 C3.42729969,21.4396523 3.1715462,21.1838989 3.1715462,20.868774 C3.1715462,20.5536492 3.42729969,20.2978957 3.74242452,20.2978957 C4.05754935,20.2978957 4.31330284,20.5536492 4.31330284,20.868774" id="Fill-134" fill="#000000"></path>
                        <path d="M28.2901921,22.0105307 C28.2901921,22.3256555 28.0344387,22.581409 27.7193138,22.581409 C27.404189,22.581409 27.1484355,22.3256555 27.1484355,22.0105307 C27.1484355,21.6954058 27.404189,21.4396523 27.7193138,21.4396523 C28.0344387,21.4396523 28.2901921,21.6954058 28.2901921,22.0105307" id="Fill-135" fill="#000000"></path>
                        <path d="M30.5737054,22.0105307 C30.5737054,22.3256555 30.3179519,22.581409 30.0028271,22.581409 C29.6877023,22.581409 29.4319488,22.3256555 29.4319488,22.0105307 C29.4319488,21.6954058 29.6877023,21.4396523 30.0028271,21.4396523 C30.3179519,21.4396523 30.5737054,21.6954058 30.5737054,22.0105307" id="Fill-136" fill="#000000"></path>
                        <path d="M29.4319488,20.868774 C29.4319488,21.1838989 29.1761953,21.4396523 28.8610705,21.4396523 C28.5459456,21.4396523 28.2901921,21.1838989 28.2901921,20.868774 C28.2901921,20.5536492 28.5459456,20.2978957 28.8610705,20.2978957 C29.1761953,20.2978957 29.4319488,20.5536492 29.4319488,20.868774" id="Fill-137" fill="#000000"></path>
                        <path d="M31.715462,20.868774 C31.715462,21.1838989 31.4597086,21.4396523 31.1445837,21.4396523 C30.8294589,21.4396523 30.5737054,21.1838989 30.5737054,20.868774 C30.5737054,20.5536492 30.8294589,20.2978957 31.1445837,20.2978957 C31.4597086,20.2978957 31.715462,20.5536492 31.715462,20.868774" id="Fill-138" fill="#000000"></path>
                        <path d="M3.1715462,19.7270174 C3.1715462,20.0421422 2.91579272,20.2978957 2.60066789,20.2978957 C2.28554306,20.2978957 2.02978957,20.0421422 2.02978957,19.7270174 C2.02978957,19.4118926 2.28554306,19.1561391 2.60066789,19.1561391 C2.91579272,19.1561391 3.1715462,19.4118926 3.1715462,19.7270174" id="Fill-139" fill="#000000"></path>
                        <path d="M30.5737054,19.7270174 C30.5737054,20.0421422 30.3179519,20.2978957 30.0028271,20.2978957 C29.6877023,20.2978957 29.4319488,20.0421422 29.4319488,19.7270174 C29.4319488,19.4118926 29.6877023,19.1561391 30.0028271,19.1561391 C30.3179519,19.1561391 30.5737054,19.4118926 30.5737054,19.7270174" id="Fill-140" fill="#000000"></path>
                        <path d="M31.715462,18.5852608 C31.715462,18.9003856 31.4597086,19.1561391 31.1445837,19.1561391 C30.8294589,19.1561391 30.5737054,18.9003856 30.5737054,18.5852608 C30.5737054,18.2701359 30.8294589,18.0143824 31.1445837,18.0143824 C31.4597086,18.0143824 31.715462,18.2701359 31.715462,18.5852608" id="Fill-141" fill="#000000"></path>
                    </g>
                </g>
            </g>
        </g>
    </g>
</svg>