<?xml version="1.0" encoding="UTF-8" standalone="no"?>
<svg width="720px" height="366px" viewBox="0 0 720 366" version="1.1" xmlns="http://www.w3.org/2000/svg" xmlns:xlink="http://www.w3.org/1999/xlink">
    <!-- Generator: Sketch 39.1 (31720) - http://www.bohemiancoding.com/sketch -->
    <title>BG</title>
    <desc>Created with Sketch.</desc>
    <defs>
        <rect id="path-1" x="0" y="0" width="720" height="365.398438"></rect>
    </defs>
    <g id="BrandCaptcha" stroke="none" stroke-width="1" fill="none" fill-rule="evenodd">
        <g transform="translate(0.000000, -658.000000)" id="Publishers">
            <g transform="translate(0.000000, 658.000000)">
                <g id="BG">
                    <mask id="mask-2" fill="white">
                        <use xlink:href="#path-1"></use>
                    </mask>
                    <use id="Mask" fill="#A04297" xlink:href="#path-1"></use>
                    <g id="Icons" opacity="0.156658116" mask="url(#mask-2)">
                        <g transform="translate(-33.000000, -9.000000)">
                            <g id="80---Receipt-(Outline)" transform="translate(722.090034, 338.235867) rotate(-14.000000) translate(-722.090034, -338.235867) translate(687.090034, 303.735867)">
                                <path d="M65.9382942,0 L3.59663423,0 C1.6184854,0 3.41060513e-13,1.61653427 3.41060513e-13,3.59229838 C3.41060513e-13,5.56806248 1.6184854,7.18459675 3.59663423,7.18459675 L3.59663423,3.59229838 L65.9382942,3.59229838 L65.9382942,7.18459675 C67.916443,7.18459675 69.5349284,5.56806248 69.5349284,3.59229838 C69.5349284,1.61653427 67.916443,0 65.9382942,0 L65.9382942,0 Z" id="Stroke-495" stroke="#000000" stroke-linecap="round"></path>
                                <polygon id="Stroke-497" stroke="#000000" stroke-linecap="round" points="5.99439038 61.0690724 13.1876588 68.2536692 20.3809273 61.0690724 27.5741957 68.2536692 34.7674642 61.0690724 41.9607327 68.2536692 49.1540011 61.0690724 56.3472696 68.2536692 63.540538 61.0690724 65.9382942 63.463938 65.9382942 3.59229838 3.59663423 3.59229838 3.59663423 63.463938"></polygon>
                                <path d="M33.5685861,47.2525402 L51.5517573,47.2525402" id="Stroke-499" stroke="#000000" stroke-linecap="round"></path>
                                <path d="M39.5629765,30.8454082 L57.5461476,30.8454082" id="Stroke-501" stroke="#000000" stroke-linecap="round"></path>
                                <path d="M45.5573669,39.3771168 L57.5461476,39.3771168" id="Stroke-503" stroke="#000000" stroke-linecap="round"></path>
                                <path d="M33.5685861,39.3771168 L35.9663423,39.3771168" id="Stroke-505" stroke="#000000" stroke-linecap="round"></path>
                                <path d="M33.5685861,22.3136995 L51.5517573,22.3136995" id="Stroke-507" stroke="#000000" stroke-linecap="round"></path>
                                <path d="M13.1876588,37.3862466 C13.1876588,40.0313757 15.3348495,42.1759778 17.9831711,42.1759778 C19.4517968,42.1759778 20.7657672,41.5161923 21.6457437,40.4780181 C22.7618991,39.1596446 22.4825606,37.1563395 21.1182373,36.0966115 L14.848105,31.2254549 C13.4837817,30.1657269 13.2044431,28.1624218 14.3205986,26.8440483 C15.2005751,25.8058741 16.5145455,25.1460886 17.9831711,25.1460886 C20.6314928,25.1460886 22.7786834,27.2906908 22.7786834,29.9358198" id="Stroke-509" stroke="#000000" stroke-linecap="round"></path>
                                <path d="M17.711727,22.7512231 L17.711727,44.3050133" id="Stroke-511" stroke="#000000" stroke-linecap="round"></path>
                                <path d="" id="Stroke-513" stroke="#000000" stroke-linecap="round"></path>
                                <path d="M8.39214653,11.813135 L63.540538,11.813135" id="Stroke-514" stroke="#000000" stroke-linecap="round" stroke-dasharray="0,4"></path>
                                <path d="" id="Stroke-515" stroke="#000000" stroke-linecap="round"></path>
                                <path d="M58.7450257,47.8973117 C58.7450257,48.5582946 58.2079283,49.0947445 57.5461476,49.0947445 C56.8843669,49.0947445 56.3472696,48.5582946 56.3472696,47.8973117 C56.3472696,47.2363288 56.8843669,46.6998789 57.5461476,46.6998789 C58.2079283,46.6998789 58.7450257,47.2363288 58.7450257,47.8973117" id="Fill-567" fill="#000000"></path>
                                <path d="M41.9607327,39.5152822 C41.9607327,40.1762651 41.4236353,40.7127149 40.7618546,40.7127149 C40.1000739,40.7127149 39.5629765,40.1762651 39.5629765,39.5152822 C39.5629765,38.8542992 40.1000739,38.3178494 40.7618546,38.3178494 C41.4236353,38.3178494 41.9607327,38.8542992 41.9607327,39.5152822" id="Fill-568" fill="#000000"></path>
                                <path d="M35.9663423,31.1332526 C35.9663423,31.7942355 35.4292449,32.3306854 34.7674642,32.3306854 C34.1056835,32.3306854 33.5685861,31.7942355 33.5685861,31.1332526 C33.5685861,30.4722697 34.1056835,29.9358198 34.7674642,29.9358198 C35.4292449,29.9358198 35.9663423,30.4722697 35.9663423,31.1332526" id="Fill-569" fill="#000000"></path>
                                <path d="M58.7450257,22.7512231 C58.7450257,23.412206 58.2079283,23.9486558 57.5461476,23.9486558 C56.8843669,23.9486558 56.3472696,23.412206 56.3472696,22.7512231 C56.3472696,22.0902402 56.8843669,21.5537903 57.5461476,21.5537903 C58.2079283,21.5537903 58.7450257,22.0902402 58.7450257,22.7512231" id="Fill-570" fill="#000000"></path>
                            </g>
                            <g id="46---Resumee-(Outline)" transform="translate(580.921781, 45.014714) rotate(-12.000000) translate(-580.921781, -45.014714) translate(561.921781, 21.014714)">
                                <polygon id="Path" stroke="#000000" stroke-linejoin="round" points="37.3996451 11.9833783 26.0753111 0.656201093 1 0.656201093 1 47.5830783 37.3996451 47.5830783"></polygon>
                                <polygon id="Path" stroke="#000000" stroke-linejoin="round" points="26.0753111 0.656201093 26.0753111 11.9833783 37.3996451 11.9833783"></polygon>
                                <path d="M9.08881002,28.8728481 L22.8397871,28.8728481" id="Path" stroke="#000000" stroke-linecap="round" stroke-linejoin="round"></path>
                                <path d="M25.2664301,24.2794404 L30.9285971,24.2794404" id="Path" stroke="#000000" stroke-linecap="round" stroke-linejoin="round"></path>
                                <path d="M13.133215,24.2794404 L21.2220251,24.2794404" id="Path" stroke="#000000" stroke-linecap="round" stroke-linejoin="round"></path>
                                <path d="M13.5578776,32.3447885 C11.2566111,33.542233 10.9362942,36.1571928 10.8570239,38.4938276 C11.3172772,38.3028838 11.7775305,38.1119399 12.2377838,37.9209961 C11.48148,37.2874832 10.7251763,36.6539704 9.96806367,36.0196485 C9.17455141,35.3545814 8.02351374,36.4929627 8.82430593,37.1636934 C9.58141855,37.7972062 10.3377223,38.4315281 11.094026,39.0658501 C11.6295052,39.5140827 12.4497106,39.2365668 12.4747859,38.4938276 C12.5338342,36.7405424 12.6187667,34.6563418 14.3740385,33.7420768 C15.3002072,33.2598626 14.4816197,31.8633835 13.5578776,32.3447885" id="Fill-101" fill="#000000"></path>
                                <path d="M14.5091216,36.9161136 C16.2093895,38.7648708 18.4645497,37.900769 20.3160783,36.7648149 C19.9472286,36.6677248 19.5783789,36.5714438 19.2095291,36.4743537 C19.6576492,37.2721106 20.2109238,37.6815072 21.0634844,37.9889591 C21.7987572,38.2543387 24.369381,37.0018766 24.5675569,37.2745379 C25.1766443,38.1078945 26.5816706,37.3020468 25.9653033,36.457363 C25.6223377,35.9889033 25.2696656,35.5981157 24.6444006,35.5503797 C23.465861,35.4621895 21.4428496,37.1483208 20.6064666,35.6579879 C20.3945398,35.2793365 19.8711938,35.139365 19.4999174,35.3675267 C18.3545419,36.0706208 16.8573032,37.0811668 15.6528794,35.7720687 C14.9451085,35.0018207 13.8037774,36.1491019 14.5091216,36.9161136" id="Fill-102" fill="#000000"></path>
                                <path d="M16.8484055,17.7214027 L14.8173053,16.6833478 C14.6781777,16.6129575 14.5908186,16.4697496 14.5908186,16.3144055 L14.5908186,15.6922198 C15.6334662,15.2431781 16.232847,14.3701764 16.5240442,13.278722 C16.9640755,13.1419868 17.2876279,12.7358265 17.2876279,12.2528033 L17.2876279,11.7131443 C17.2876279,11.3005114 17.0498168,10.9437053 16.7060424,10.7624705 C16.4690403,8.73409664 15.1279156,7.91287629 12.9730566,7.91287629 C12.8711376,7.91287629 12.7716452,7.91692171 12.6729617,7.92501255 C11.9409244,7.98326661 11.1999894,7.84491323 10.590902,7.43470759 C10.3377223,7.26399085 10.1241777,7.08275602 9.97453472,6.89262125 C9.90577983,6.80604926 9.76907894,6.86106698 9.78202104,6.97110241 C9.80386083,7.159619 9.83540719,7.37968988 9.88313117,7.61998785 C10.0618939,8.51564394 9.95512158,8.38457232 9.60892051,9.22925611 C9.41721571,9.69690671 9.2942658,10.2155296 9.23683525,10.7648977 C8.89548746,10.9461325 8.65929421,11.3021295 8.65929421,11.7131443 L8.65929421,12.2528033 C8.65929421,12.7358265 8.98284661,13.1419868 9.42287788,13.278722 C9.71407504,14.3701764 10.3134559,15.2431781 11.3552946,15.6922198 L11.3552946,16.309551 C11.3552946,16.4681315 11.2663177,16.6121484 11.1239546,16.6817297 L9.04189492,17.7076483 C8.69003169,17.9002103 8.43442529,18.2084713 8.27992902,18.5644683 C9.60406722,19.5110967 11.2218292,20.0742192 12.9730566,20.0742192 C14.7186218,20.0742192 16.3299128,19.5159512 17.6516243,18.5757955 C17.4866126,18.214944 17.2164463,17.9058739 16.8484055,17.7214027 L16.8484055,17.7214027 Z" id="Stroke-105" stroke="#000000" stroke-linecap="round" stroke-linejoin="round"></path>
                            </g>
                            <g id="148---Rich-(Outline)" transform="translate(623.146668, 347.299391) rotate(-13.000000) translate(-623.146668, -347.299391) translate(597.646668, 320.799391)">
                                <path d="M42.077626,37.6487531 C37.6558623,37.6487531 34.0720188,36.8766427 34.0720188,35.9253086 L34.0720188,39.5468955 C34.0746874,40.4982296 37.6576413,41.2694348 42.077626,41.2694348 C46.4976107,41.2694348 50.0805647,40.4982296 50.0832332,39.5468955 L50.0832332,35.9253086 C50.0832332,36.8766427 46.4993897,37.6487531 42.077626,37.6487531 L42.077626,37.6487531 Z" id="Stroke-10" stroke="#000000" stroke-linecap="round"></path>
                                <path d="M34.0720188,35.9234983 L34.0720188,35.9253086 L34.0720188,35.9234983 L34.0720188,35.9234983 Z" id="Stroke-12" stroke="#000000" stroke-linecap="round"></path>
                                <path d="M50.0832332,35.9234983 L50.0832332,35.9253086 L50.0832332,35.9234983 L50.0832332,35.9234983 Z" id="Stroke-14" stroke="#000000" stroke-linecap="round"></path>
                                <path d="M50.0832332,32.304627 C50.0832332,33.2559611 46.4993897,34.0280714 42.077626,34.0280714 C37.6558623,34.0280714 34.0720188,33.2559611 34.0720188,32.304627 C34.0720188,31.3523877 37.6558623,29.5022194 42.077626,29.5022194 C46.4993897,29.5022194 50.0832332,31.3523877 50.0832332,32.304627 L50.0832332,32.304627 Z" id="Stroke-16" stroke="#000000" stroke-linecap="round"></path>
                                <path d="M42.077626,34.0280714 C37.6558623,34.0280714 34.0720188,33.2559611 34.0720188,32.304627 L34.0720188,35.9262138 C34.0746874,36.8775479 37.6576413,37.6487531 42.077626,37.6487531 C46.4976107,37.6487531 50.0805647,36.8775479 50.0832332,35.9262138 L50.0832332,32.304627 C50.0832332,33.2559611 46.4993897,34.0280714 42.077626,34.0280714 L42.077626,34.0280714 Z" id="Stroke-18" stroke="#000000" stroke-linecap="round"></path>
                                <path d="M34.0720188,32.3028166 L34.0720188,32.304627 L34.0720188,32.3028166 L34.0720188,32.3028166 Z" id="Stroke-20" stroke="#000000" stroke-linecap="round"></path>
                                <path d="M50.0832332,32.3028166 L50.0832332,32.304627 L50.0832332,32.3028166 L50.0832332,32.3028166 Z" id="Stroke-22" stroke="#000000" stroke-linecap="round"></path>
                                <path d="M15.3922688,14.4374681 L26.0664117,14.4374681" id="Stroke-62" stroke="#000000" stroke-linecap="round"></path>
                                <path d="M15.3922688,10.4999768 L26.0664117,10.4999768" id="Stroke-64" stroke="#000000" stroke-linecap="round"></path>
                                <path d="M18.9867864,1.18577324 C17.093905,-0.354826803 14.8274287,-0.161120334 12.9745754,0.462542082 C11.6892307,0.895213541 11.4232666,2.56977881 12.4568795,3.45956133 C13.5207357,4.37649896 15.0756025,6.94627777 15.3922688,7.8786033 C15.6279894,8.57377418 16.2568743,9.05170416 16.9800475,9.05170416 L23.5900105,9.05170416 C24.3122942,9.05170416 24.9411791,8.57377418 25.1768998,7.8786033 C25.493566,6.94627777 26.6499315,4.37649896 27.7137877,3.45956133 C28.746511,2.56977881 28.4814365,0.895213541 27.1952023,0.462542082 C25.342349,-0.161120334 23.0767621,-0.354826803 21.1829913,1.18577324 C20.5336476,1.71439277 19.6361301,1.71439277 18.9867864,1.18577324 L18.9867864,1.18577324 Z" id="Stroke-66" stroke="#000000" stroke-linecap="round"></path>
                                <path d="M25.5845863,11.7672154 L25.5845863,14.4827266" id="Stroke-68" stroke="#000000" stroke-linecap="round"></path>
                                <path d="M26.311917,14.4827266 C27.7022241,15.897508 29.9526892,15.897508 31.3438858,14.4827266" id="Stroke-70" stroke="#000000" stroke-linecap="round"></path>
                                <path d="M42.077626,48.5107981 C40.2870385,48.5107981 38.640552,48.3822639 37.3071737,48.1686437 C36.8979982,49.4150633 36.1187857,50.4858799 35.1029631,51.2516541 C36.47548,51.7766529 39.0826394,52.1314797 42.077626,52.1314797 C46.4976107,52.1314797 50.0805647,51.3602746 50.0832332,50.4089404 L50.0832332,46.7873536 C50.0832332,47.7386877 46.4993897,48.5107981 42.077626,48.5107981 L42.077626,48.5107981 Z" id="Stroke-74" stroke="#000000" stroke-linecap="round"></path>
                                <path d="M42.077626,41.2694348 C37.6558623,41.2694348 34.0720188,40.4973244 34.0720188,39.5459903 L34.0720188,40.4457297 C35.7140578,41.2404693 36.9558165,42.742147 37.4228102,44.5669706 C38.7348403,44.7688236 40.3395198,44.8892113 42.077626,44.8892113 C46.4976107,44.8892113 50.0805647,44.1189112 50.0832332,43.1675771 L50.0832332,39.5459903 C50.0832332,40.4973244 46.4993897,41.2694348 42.077626,41.2694348 L42.077626,41.2694348 Z" id="Stroke-76" stroke="#000000" stroke-linecap="round"></path>
                                <path d="M42.077626,44.8892113 C40.3395198,44.8892113 38.7348403,44.7688236 37.4228102,44.5669706 C37.5535685,45.0774867 37.6300665,45.6106321 37.6300665,46.1636912 C37.6300665,46.8651983 37.5135404,47.5377399 37.3071737,48.1686437 C38.6396625,48.3822639 40.2870385,48.5107981 42.077626,48.5107981 C46.4976107,48.5107981 50.0805647,47.7395929 50.0832332,46.7882588 L50.0832332,43.1666719 C50.0832332,44.1180061 46.4993897,44.8892113 42.077626,44.8892113 L42.077626,44.8892113 Z" id="Stroke-78" stroke="#000000" stroke-linecap="round"></path>
                                <path d="M25.2525083,45.1725296 C25.6421145,42.6054663 27.6168309,40.4891779 30.1163594,39.9632738 C31.5502526,39.6609469 32.9067582,39.8809033 34.0720188,40.4457297 L34.0720188,32.304627 C34.0720188,31.5379476 36.3998715,30.1892437 39.6154571,29.6932103 C38.4946721,27.2383881 36.8045994,25.0161948 34.5843777,23.2836986 L28.1371954,18.823924 C26.953255,17.9006501 25.5033506,17.1982379 24.0116392,17.1982379 L17.093905,17.1982379 C15.5746187,17.1982379 14.0989185,17.7178057 12.9034144,18.6736657 L6.63413452,23.3208106 C0.467148454,28.2548945 -1.60897234,36.9572029 1.93929066,44.0763682 C3.41943848,47.0462324 5.46887392,49.2267879 7.87678265,49.3924341 C8.09916063,49.407822 8.32242812,49.4159685 8.54836414,49.4159685 L26.0664117,49.4159685 C25.3521336,48.2039453 25.0150086,46.7366641 25.2525083,45.1725296 L25.2525083,45.1725296 Z" id="Stroke-80" stroke="#000000"></path>
                                <path d="M37.6300665,46.1636912 C37.6300665,49.66308 34.8423362,52.4998841 31.4034831,52.4998841 C27.9646301,52.4998841 25.1768998,49.66308 25.1768998,46.1636912 C25.1768998,42.6643024 27.9646301,39.8274983 31.4034831,39.8274983 C34.8423362,39.8274983 37.6300665,42.6643024 37.6300665,46.1636912 L37.6300665,46.1636912 Z" id="Stroke-82" stroke="#000000"></path>
                                <path d="M6.49714968,36.2068166 C6.49714968,30.7033805 12.6525721,23.5344308 18.0608045,23.5344308" id="Stroke-86" stroke="#000000" stroke-linecap="round"></path>
                            </g>
                            <g id="190---Thumbs-Up-(Outline)" transform="translate(660.025890, 266.020533) rotate(-22.000000) translate(-660.025890, -266.020533) translate(641.525890, 246.020533)" stroke-linecap="round">
                                <polygon id="Stroke-498" stroke="#000000" points="0 14.4432302 9.72910278 14.4432302 9.72910278 39.8482606 0 39.8482606"></polygon>
                                <path d="M7.64429504,33.497003 C7.64429504,35.0558839 6.39966482,36.3197841 4.86455139,36.3197841 C3.32943796,36.3197841 2.08480774,35.0558839 2.08480774,33.497003 C2.08480774,31.9381221 3.32943796,30.6742218 4.86455139,30.6742218 C6.39966482,30.6742218 7.64429504,31.9381221 7.64429504,33.497003 L7.64429504,33.497003 Z" id="Stroke-500" stroke="#000000"></path>
                                <path d="M31.967052,21.4060904 L26.4075647,21.4060904" id="Stroke-502" stroke="#000000"></path>
                                <path d="M31.967052,26.6752819 L26.4075647,26.6752819" id="Stroke-504" stroke="#000000"></path>
                                <path d="M30.5771802,31.9444734 L25.0176929,31.9444734" id="Stroke-506" stroke="#000000"></path>
                                <path d="M36.1366675,18.6774019 C36.1366675,17.1185211 34.8920372,15.8546208 33.3569238,15.8546208 L22.5145337,15.8546208 L23.2004354,12.5950143 C23.7244171,10.1088498 23.5840401,7.07718281 23.2734037,4.94810013 C22.9620724,2.81901744 21.0843556,0.329324468 19.1197718,0.329324468 L18.9536821,0.329324468 C17.2788865,0.329324468 16.6784619,2.20576824 16.6784619,4.56349619 C16.6784619,16.0310446 11.1189746,15.8546208 11.1189746,15.8546208 L9.72910278,15.8546208 L9.72910278,38.43687 L29.8822442,38.43687 C31.4173577,38.43687 32.6619879,37.1729697 32.6619879,35.6140889 C32.6619879,34.055208 31.4173577,32.7913077 29.8822442,32.7913077 L31.967052,32.7913077 C33.5021654,32.7913077 34.7467956,31.5274074 34.7467956,29.9685266 C34.7467956,28.4096457 33.5021654,27.1457454 31.967052,27.1457454 L34.0518597,27.1457454 C35.5869732,27.1457454 36.8316034,25.8818451 36.8316034,24.3229642 C36.8316034,22.5636659 35.7106717,21.8939611 34.0518597,21.6441449 C33.2436493,21.5220597 31.7752497,21.5001831 31.2721161,21.5001831 L33.3569238,21.5001831 C34.8920372,21.5001831 36.1366675,20.2362828 36.1366675,18.6774019 L36.1366675,18.6774019 Z" id="Stroke-508" stroke="#000000"></path>
                            </g>
                            <g id="79---Call-to-Action-(Outline)" transform="translate(722.212619, 191.833941) rotate(26.000000) translate(-722.212619, -191.833941) translate(683.712619, 153.333941)" stroke-linejoin="round">
                                <path d="M41.9368174,38.1031465 L11.7947299,38.1031465 M41.9368174,32.8475401 L11.7947299,32.8475401" id="Stroke-57" stroke="#000000" stroke-linecap="round"></path>
                                <polygon id="Path" stroke="#000000" points="6.55262772 22.3363272 69.4578538 22.3363272 69.4578538 53.8699657 6.55262772 53.8699657"></polygon>
                                <polygon id="Path" stroke="#000000" points="2.27373675e-13 4.54747351e-13 76.0104816 4.54747351e-13 76.0104816 76.206293 2.27373675e-13 76.206293"></polygon>
                                <path d="M11.7947299,7.88340962 C11.7947299,10.0605446 10.0346941,11.8251144 7.86315327,11.8251144 C5.69161244,11.8251144 3.93157663,10.0605446 3.93157663,7.88340962 C3.93157663,5.70627466 5.69161244,3.94170481 7.86315327,3.94170481 C10.0346941,3.94170481 11.7947299,5.70627466 11.7947299,7.88340962 L11.7947299,7.88340962 Z" id="Path" stroke="#000000"></path>
                                <path d="M23.5894598,7.88340962 C23.5894598,10.0605446 21.829424,11.8251144 19.6578832,11.8251144 C17.4863423,11.8251144 15.7263065,10.0605446 15.7263065,7.88340962 C15.7263065,5.70627466 17.4863423,3.94170481 19.6578832,3.94170481 C21.829424,3.94170481 23.5894598,5.70627466 23.5894598,7.88340962 L23.5894598,7.88340962 Z" id="Path" stroke="#000000"></path>
                                <path d="M35.3841897,7.88340962 C35.3841897,10.0605446 33.6241539,11.8251144 31.4526131,11.8251144 C29.2810722,11.8251144 27.5210364,10.0605446 27.5210364,7.88340962 C27.5210364,5.70627466 29.2810722,3.94170481 31.4526131,3.94170481 C33.6241539,3.94170481 35.3841897,5.70627466 35.3841897,7.88340962 L35.3841897,7.88340962 Z" id="Path" stroke="#000000"></path>
                                <polygon id="Path" stroke="#000000" points="2.27373675e-13 4.54747351e-13 76.0104816 4.54747351e-13 76.0104816 15.7668192 2.27373675e-13 15.7668192"></polygon>
                                <polygon id="Stroke-61" stroke="#000000" points="11.7947299 43.3587529 30.1420875 43.3587529 30.1420875 48.6143593 11.7947299 48.6143593"></polygon>
                                <polygon id="Path" stroke="#000000" stroke-linecap="round" points="6.55262772 59.1255721 35.3841897 59.1255721 35.3841897 68.3228834 6.55262772 68.3228834"></polygon>
                                <polygon id="Path" stroke="#000000" stroke-linecap="round" points="40.6262919 59.1255721 69.4578538 59.1255721 69.4578538 68.3228834 40.6262919 68.3228834"></polygon>
                            </g>
                            <g id="103---Privacy-(Outline)" transform="translate(647.248223, 140.419271) rotate(-36.000000) translate(-647.248223, -140.419271) translate(631.748223, 120.919271)" stroke-linecap="round" stroke-linejoin="round">
                                <path d="M16.8405542,7.10435411 L16.8405542,17.3283839 C16.8405542,17.874545 16.3980621,18.3178062 15.8528486,18.3178062 C15.3076351,18.3178062 14.865143,17.874545 14.865143,17.3283839 L14.865143,2.48705032 C14.865143,1.39406855 13.9808173,0.508205838 12.8897319,0.508205838 C11.7986465,0.508205838 10.9143208,1.39406855 10.9143208,2.48705032 L10.9143208,17.3283839 C10.9143208,17.874545 10.4718287,18.3178062 9.92661525,18.3178062 C9.38140178,18.3178062 8.93890969,17.874545 8.93890969,17.3283839 L8.93890969,5.45531704 C8.93890969,4.54438897 8.20208134,3.80627998 7.29273375,3.80627998 C6.38338617,3.80627998 5.64655782,4.54438897 5.64655782,5.45531704 L5.64655782,18.6476136 C5.64655782,19.1937747 5.20406573,19.6370358 4.65885226,19.6370358 C4.11363879,19.6370358 3.6711467,19.1937747 3.6711467,18.6476136 L3.6711467,10.4024282 C3.6711467,9.49150017 2.93431835,8.75339118 2.02497077,8.75339118 L2.01838606,8.75339118 C1.10903848,8.75339118 0.372210127,9.49150017 0.372210127,10.4024282 L0.372210127,28.2971189 C0.92269136,36.2646064 5.28439911,38.1497856 11.4410971,38.1497856 C15.8304606,38.1497856 19.6166653,35.9011586 21.434702,32.6413422 C22.1991861,31.405224 26.8302082,24.181782 27.2279243,23.4271826 C27.690829,22.5479161 28.3697119,21.4885747 29.2263819,20.7880637 C29.6827019,20.4140621 29.9862567,19.9180317 30.2674236,19.3995745 C30.3391968,19.2663323 30.5479319,17.653574 29.3514913,17.6581914 C28.313742,17.662149 27.1291538,18.1001333 26.2698499,18.6819136 C25.3065078,19.3349322 24.0560725,20.4602351 22.9880336,22.3309028 C22.6410197,22.938408 22.0200821,23.3625404 21.3207866,23.3783711 C20.6623162,23.3928827 20.83286,23.0696714 20.7913764,21.7055879 L20.7913764,7.10435411 C20.7913764,6.01137234 19.9070507,5.12550963 18.8159653,5.12550963 C17.7248799,5.12550963 16.8405542,6.01137234 16.8405542,7.10435411 L16.8405542,7.10435411 Z" id="Stroke-493" stroke="#000000"></path>
                            </g>
                            <g id="18---Combination-Lock-Closed-(Outline)" transform="translate(115.072523, 176.255776) rotate(33.000000) translate(-115.072523, -176.255776) translate(95.572523, 150.755776)" stroke-linecap="round" stroke-linejoin="round">
                                <path d="M38.4146749,31.072483 C38.4146749,41.5594461 29.9614121,50.0612227 19.5342909,50.0612227 C9.1071698,50.0612227 0.653906992,41.5594461 0.653906992,31.072483 C0.653906992,20.58552 9.1071698,12.0837434 19.5342909,12.0837434 C29.9614121,12.0837434 38.4146749,20.58552 38.4146749,31.072483 L38.4146749,31.072483 Z" id="Stroke-579" stroke="#000000"></path>
                                <path d="M28.1162836,31.072483 C28.1162836,35.8395198 24.2741255,39.7037283 19.5342909,39.7037283 C14.7944564,39.7037283 10.9522982,35.8395198 10.9522982,31.072483 C10.9522982,26.3054463 14.7944564,22.4412378 19.5342909,22.4412378 C24.2741255,22.4412378 28.1162836,26.3054463 28.1162836,31.072483 L28.1162836,31.072483 Z" id="Stroke-581" stroke="#000000"></path>
                                <path d="M18.9633028,14.673117 L18.9633028,18.1256151" id="Stroke-583" stroke="#000000"></path>
                                <path d="M18.9633028,44.019351 L18.9633028,47.4718491" id="Stroke-585" stroke="#000000"></path>
                                <path d="M35.8400771,30.252351 L32.40728,30.252351" id="Stroke-587" stroke="#000000"></path>
                                <path d="M6.66130188,30.252351 L3.2285048,30.252351" id="Stroke-589" stroke="#000000"></path>
                                <path d="M31.0641981,19.476405 L28.6372106,21.9173212" id="Stroke-591" stroke="#000000"></path>
                                <path d="M10.4313713,40.2276449 L8.00438374,42.6685611" id="Stroke-593" stroke="#000000"></path>
                                <path d="M31.0641981,42.6685611 L28.6372106,40.2276449" id="Stroke-595" stroke="#000000"></path>
                                <path d="M10.4313713,21.9173212 L8.00438374,19.476405" id="Stroke-597" stroke="#000000"></path>
                                <path d="M27.687184,16.870632 L25.9707855,19.8604954" id="Stroke-599" stroke="#000000"></path>
                                <path d="M13.0977964,42.2844707 L11.3813979,45.2751972" id="Stroke-601" stroke="#000000"></path>
                                <path d="M33.6559599,39.2721661 L30.6822994,37.545917" id="Stroke-603" stroke="#000000"></path>
                                <path d="M8.38628241,24.5990491 L5.41348014,22.8728" id="Stroke-605" stroke="#000000"></path>
                                <path d="M23.7549149,15.2315586 L22.8658205,18.5666717" id="Stroke-607" stroke="#000000"></path>
                                <path d="M16.2027614,43.5782943 L15.3136669,46.9134075" id="Stroke-609" stroke="#000000"></path>
                                <path d="M35.2848221,35.3173295 L31.9687402,34.4231325" id="Stroke-611" stroke="#000000"></path>
                                <path d="M7.09984171,27.7218336 L3.78375973,26.8276366" id="Stroke-613" stroke="#000000"></path>
                                <path d="M15.3136669,15.2315586 L16.2027614,18.5666717" id="Stroke-615" stroke="#000000"></path>
                                <path d="M22.8658205,43.5782943 L23.7549149,46.9134075" id="Stroke-617" stroke="#000000"></path>
                                <path d="M35.2848221,26.8276366 L31.9687402,27.7218336" id="Stroke-619" stroke="#000000"></path>
                                <path d="M7.09984171,34.4231325 L3.78375973,35.3173295" id="Stroke-621" stroke="#000000"></path>
                                <path d="M11.3813979,16.870632 L13.0977964,19.8604954" id="Stroke-623" stroke="#000000"></path>
                                <path d="M25.9707855,42.2844707 L27.687184,45.2751972" id="Stroke-625" stroke="#000000"></path>
                                <path d="M33.6559599,22.8728 L30.6822994,24.5990491" id="Stroke-627" stroke="#000000"></path>
                                <path d="M8.38628241,37.545917 L5.41348014,39.2721661" id="Stroke-629" stroke="#000000"></path>
                                <path d="M20.3924902,30.2093585 L22.967088,27.6199849" id="Stroke-631" stroke="#000000"></path>
                                <path d="M19.5342909,12.0837434 C24.0990528,12.0837434 28.2844907,13.7133225 31.5490807,16.4243967 L31.5490807,11.2206189 C31.5490807,4.92930419 26.1595893,3.12638804e-13 19.5342909,3.12638804e-13 C12.9089926,3.12638804e-13 7.51950115,4.92930419 7.51950115,11.2206189 L7.51950115,16.4243967 C10.7840912,13.7133225 14.969529,12.0837434 19.5342909,12.0837434 L19.5342909,12.0837434 Z" id="Stroke-633" stroke="#000000"></path>
                                <path d="M19.5342909,12.0837434 C22.6255247,12.0837434 25.5408276,12.8355249 28.1162836,14.160421 L28.1162836,11.2206189 C28.1162836,6.84371439 24.2543869,3.45249812 19.5342909,3.45249812 C14.8141949,3.45249812 10.9522982,6.84371439 10.9522982,11.2206189 L10.9522982,14.160421 C13.5277542,12.8355249 16.4430572,12.0837434 19.5342909,12.0837434 L19.5342909,12.0837434 Z" id="Stroke-635" stroke="#000000"></path>
                            </g>
                            <g id="48---Protected-System-(Outline)" transform="translate(115.100491, 268.226043) rotate(-12.000000) translate(-115.100491, -268.226043) translate(96.600491, 243.726043)" stroke-linejoin="round">
                                <path d="M18.3089678,0.416215765 C18.3089678,0.416215765 12.7605183,7.075668 4.97379915e-14,7.075668 L4.97379915e-14,22.9626237 C4.97379915e-14,31.2586364 3.6018733,39.2591358 10.1231947,44.3852491 C12.4317891,46.1999499 15.1531675,47.760759 18.3089678,48.6972445 C21.4647681,47.760759 24.1869787,46.1999499 26.4947409,44.3852491 C33.0160623,39.2591358 36.6179356,31.2586364 36.6179356,22.9626237 L36.6179356,7.075668 C23.8574173,7.075668 18.3089678,0.416215765 18.3089678,0.416215765 L18.3089678,0.416215765 Z" id="Stroke-12" stroke="#000000"></path>
                                <path d="M18.3089678,43.420461 C16.5421524,42.7270455 14.8319284,41.7347871 13.209088,40.4586696 C8.06426809,36.4147172 4.99335485,29.8743027 4.99335485,22.9626237 L4.99335485,11.7605926 C11.1443358,10.9764421 15.5118569,8.83542825 18.3089678,6.93498707 C21.1060787,8.83542825 25.4735998,10.9764421 31.6245807,11.7605926 L31.6245807,22.9626237 C31.6245807,29.8743027 28.5536675,36.4147172 23.4096798,40.4586696 C21.7860072,41.7347871 20.0757832,42.7270455 18.3089678,43.420461 L18.3089678,43.420461 Z" id="Stroke-14" stroke="#000000"></path>
                                <polyline id="Stroke-18" stroke="#000000" stroke-linecap="round" points="28.2956775 17.8972779 16.6445162 31.2161823 9.98670971 24.5567301"></polyline>
                            </g>
                            <g id="43---Laptop-Encryption-(Outline)" transform="translate(704.434258, 61.766995) rotate(19.000000) translate(-704.434258, -61.766995) translate(646.934258, 16.266995)" stroke-linecap="round">
                                <path d="M68.6762359,82.730037 C68.2689829,83.8724995 67.1849423,84.6997998 65.9080959,84.6997998 L50.1688491,84.6997998 C48.8920027,84.6997998 47.8099295,83.8724995 47.4007091,82.730037 L1.13716058,82.730037 C0.509558114,82.730037 1.02318154e-12,83.2402056 1.02318154e-12,83.8685599 L1.02318154e-12,89.4705653 C1.02318154e-12,90.0989196 0.509558114,90.6090882 1.13716058,90.6090882 L112.972379,90.6090882 C113.599981,90.6090882 114.109539,90.0989196 114.109539,89.4705653 L114.109539,83.8685599 C114.109539,83.2402056 113.599981,82.730037 112.972379,82.730037 L68.6762359,82.730037 L68.6762359,82.730037 Z" id="Stroke-65" stroke="#000000"></path>
                                <path d="M47.4007091,82.730037 C47.8099295,83.8724995 48.8920027,84.6997998 50.1688491,84.6997998 L65.9080959,84.6997998 C67.1849423,84.6997998 68.2689829,83.8724995 68.6762359,82.730037 L108.207322,82.730037 L108.207322,6.04126247 C108.207322,2.70448431 105.506073,1.42108547e-13 102.173288,1.42108547e-13 L11.9362513,1.42108547e-13 C8.60346577,1.42108547e-13 5.90221754,2.70448431 5.90221754,6.04126247 L5.90221754,82.730037 L47.4007091,82.730037 L47.4007091,82.730037 Z" id="Stroke-67" stroke="#000000"></path>
                                <polygon id="Stroke-69" stroke="#000000" points="11.8044351 5.90928836 102.305104 5.90928836 102.305104 76.8207487 11.8044351 76.8207487"></polygon>
                                <polygon id="Stroke-81" stroke="#000000" stroke-linejoin="round" points="41.3155228 37.4254929 70.8266105 37.4254929 70.8266105 61.0626464 41.3155228 61.0626464"></polygon>
                                <path d="M47.2177403,37.4254929 L47.2177403,30.5313232 C47.2177403,25.6561603 51.2017372,21.6673907 56.0710666,21.6673907 C60.9403961,21.6673907 64.9243929,25.6561603 64.9243929,30.5313232 L64.9243929,37.4254929 L47.2177403,37.4254929 L47.2177403,37.4254929 Z" id="Stroke-83" stroke="#000000" stroke-linejoin="round"></path>
                            </g>
                            <g id="156---Money-(Outline)" transform="translate(76.131126, 342.677590) rotate(-17.000000) translate(-76.131126, -342.677590) translate(39.131126, 316.177590)">
                                <polygon id="Stroke-128" stroke="#000000" stroke-linecap="round" points="0.0546669635 10.5044904 73.514282 10.5044904 73.514282 52.5224519 0.0546669635 52.5224519"></polygon>
                                <polygon id="Stroke-130" stroke="#000000" stroke-linecap="round" points="68.2671667 10.5044904 2.67822464 10.5044904 2.67822464 5.25224519"></polygon>
                                <path d="M53.8375994,31.5134711 C53.8375994,40.9412513 46.2030466,48.583268 36.7844745,48.583268 C27.3659024,48.583268 19.7313496,40.9412513 19.7313496,31.5134711 C19.7313496,22.085691 27.3659024,14.4436743 36.7844745,14.4436743 C46.2030466,14.4436743 53.8375994,22.085691 53.8375994,31.5134711 L53.8375994,31.5134711 Z" id="Stroke-132" stroke="#000000" stroke-linecap="round"></path>
                                <path d="M27.7253298,45.9571454 C22.9294664,42.9357914 19.7313496,37.6047625 19.7313496,31.5134711 C19.7313496,25.4221798 22.9294664,20.0911509 27.7253298,17.0697969 L14.4514397,17.0697969 C14.4711164,17.286452 14.4842342,17.5044202 14.4842342,17.7263275 C14.4842342,21.7154077 11.2533229,24.9481647 7.26945058,24.9481647 C7.04775996,24.9481647 6.83000467,24.935034 6.61356116,24.9153381 L6.61356116,38.1116042 C6.83000467,38.0919082 7.04775996,38.0787776 7.26945058,38.0787776 C11.2533229,38.0787776 14.4842342,41.3115345 14.4842342,45.3006148 C14.4842342,45.5225221 14.4711164,45.7404903 14.4514397,45.9571454 L27.7253298,45.9571454 L27.7253298,45.9571454 Z" id="Stroke-134" stroke="#000000" stroke-linecap="round"></path>
                                <path d="M66.2994984,24.9481647 C62.3156261,24.9481647 59.0847148,21.7154077 59.0847148,17.7263275 C59.0847148,17.5044202 59.0978326,17.286452 59.1175092,17.0697969 L45.8436192,17.0697969 C50.6394826,20.0911509 53.8375994,25.4221798 53.8375994,31.5134711 C53.8375994,37.6047625 50.6394826,42.9357914 45.8436192,45.9571454 L59.1175092,45.9571454 C59.0978326,45.7404903 59.0847148,45.5225221 59.0847148,45.3006148 C59.0847148,41.3115345 62.3156261,38.0787776 66.2994984,38.0787776 C66.521189,38.0787776 66.7389443,38.0919082 66.9553878,38.1116042 L66.9553878,24.9153381 C66.7389443,24.935034 66.521189,24.9481647 66.2994984,24.9481647 L66.2994984,24.9481647 Z" id="Stroke-136" stroke="#000000" stroke-linecap="round"></path>
                                <path d="M7.26945058,21.0089808 C5.46050756,21.0089808 3.99000348,19.537039 3.99000348,17.7263275 C3.99000348,15.915616 5.46050756,14.4436743 7.26945058,14.4436743 C9.0783936,14.4436743 10.5488977,15.915616 10.5488977,17.7263275 C10.5488977,19.537039 9.0783936,21.0089808 7.26945058,21.0089808 L7.26945058,21.0089808 Z" id="Stroke-138" stroke="#000000"></path>
                                <path d="M66.2994984,21.0089808 C64.4905554,21.0089808 63.0200513,19.537039 63.0200513,17.7263275 C63.0200513,15.915616 64.4905554,14.4436743 66.2994984,14.4436743 C68.1084414,14.4436743 69.5789455,15.915616 69.5789455,17.7263275 C69.5789455,19.537039 68.1084414,21.0089808 66.2994984,21.0089808 L66.2994984,21.0089808 Z" id="Stroke-140" stroke="#000000"></path>
                                <path d="M7.26945058,48.583268 C5.46050756,48.583268 3.99000348,47.1113263 3.99000348,45.3006148 C3.99000348,43.4899032 5.46050756,42.0179615 7.26945058,42.0179615 C9.0783936,42.0179615 10.5488977,43.4899032 10.5488977,45.3006148 C10.5488977,47.1113263 9.0783936,48.583268 7.26945058,48.583268 L7.26945058,48.583268 Z" id="Stroke-142" stroke="#000000"></path>
                                <path d="M66.2994984,48.583268 C64.4905554,48.583268 63.0200513,47.1113263 63.0200513,45.3006148 C63.0200513,43.4899032 64.4905554,42.0179615 66.2994984,42.0179615 C68.1084414,42.0179615 69.5789455,43.4899032 69.5789455,45.3006148 C69.5789455,47.1113263 68.1084414,48.583268 66.2994984,48.583268 L66.2994984,48.583268 Z" id="Stroke-144" stroke="#000000"></path>
                                <polygon id="Stroke-214" stroke="#000000" stroke-linecap="round" points="6.61356116 0 6.61356116 5.5673799 68.2671667 10.5044904 72.2025032 10.5044904"></polygon>
                                <path d="M44.0884591,35.4854816 C45.019822,35.1966081 45.7045706,34.3352399 45.7045706,33.3110521 L45.7045706,32.1686887 C45.7045706,31.2928768 45.2008475,30.5365535 44.474122,30.1531396 C43.970399,25.8541769 41.1317096,24.1143707 36.568031,24.1143707 C36.3528992,24.1143707 36.1403911,24.1222491 35.93313,24.1393189 C34.3812957,24.2627467 32.8137199,23.971247 31.5229296,23.1006874 C30.986412,22.7382825 30.5351601,22.3548686 30.2177096,21.9504457 C30.0721022,21.7666171 29.7835108,21.8834796 29.8097464,22.1172045 C29.8556587,22.5163751 29.9238712,22.9825119 30.0248781,23.4932927 C30.4013587,25.3906663 30.1770445,25.1136104 29.4437601,26.904626 C29.0384204,27.8946742 28.7760647,28.9937065 28.655381,30.1570788 C27.9325909,30.5431188 27.4328031,31.295503 27.4328031,32.1686887 L27.4328031,33.3110521 C27.4328031,34.3352399 28.1175517,35.1966081 29.0489147,35.4854816 C29.6654507,37.7990956 30.9339409,39.6491989 33.1429764,40.6011684 L33.1429764,41.9102905 C33.1429764,42.2451211 32.9527685,42.5497513 32.6523711,42.6981273 L28.2434825,44.8725568 C27.8617548,45.0800205 27.5469279,45.3649548 27.2662072,45.6787764 C29.9855248,47.51181 33.2597247,48.583268 36.7844745,48.583268 C40.1780463,48.583268 43.3328745,47.5787761 45.9892266,45.8678572 C45.6625937,45.4713127 45.2520069,45.1391082 44.7758312,44.9014441 L40.4731966,42.7007534 C40.1793581,42.5510644 39.9943973,42.2490603 39.9943973,41.9194819 L39.9943973,40.6011684 C42.2021211,39.6491989 43.471923,37.7990956 44.0884591,35.4854816 L44.0884591,35.4854816 Z" id="Stroke-216" stroke="#000000" stroke-linecap="round"></path>
                            </g>
                            <g id="92---Graph-(Outline)" transform="translate(176.522892, 54.288449) rotate(21.000000) translate(-176.522892, -54.288449) translate(152.022892, 29.288449)">
                                <path d="M44.0775106,21.5029791 C44.0775106,21.9632684 43.7049309,22.3368365 43.2458595,22.3368365 C42.7867881,22.3368365 42.4142083,21.9632684 42.4142083,21.5029791 C42.4142083,21.0426897 42.7867881,20.6691216 43.2458595,20.6691216 C43.7049309,20.6691216 44.0775106,21.0426897 44.0775106,21.5029791" id="Fill-13" fill="#000000"></path>
                                <path d="M46.5724641,19.0014067 C46.5724641,19.461696 46.1998844,19.8352641 45.7408129,19.8352641 C45.2817415,19.8352641 44.9091618,19.461696 44.9091618,19.0014067 C44.9091618,18.5411174 45.2817415,18.1675492 45.7408129,18.1675492 C46.1998844,18.1675492 46.5724641,18.5411174 46.5724641,19.0014067" id="Fill-14" fill="#000000"></path>
                                <path d="M46.5724641,24.0045514 C46.5724641,24.4648407 46.1998844,24.8384089 45.7408129,24.8384089 C45.2817415,24.8384089 44.9091618,24.4648407 44.9091618,24.0045514 C44.9091618,23.5442621 45.2817415,23.170694 45.7408129,23.170694 C46.1998844,23.170694 46.5724641,23.5442621 46.5724641,24.0045514" id="Fill-15" fill="#000000"></path>
                                <path d="M44.0775106,26.5061238 C44.0775106,26.9664131 43.7049309,27.3399813 43.2458595,27.3399813 C42.7867881,27.3399813 42.4142083,26.9664131 42.4142083,26.5061238 C42.4142083,26.0458345 42.7867881,25.6722663 43.2458595,25.6722663 C43.7049309,25.6722663 44.0775106,26.0458345 44.0775106,26.5061238" id="Fill-16" fill="#000000"></path>
                                <path d="M39.0876038,26.5061238 C39.0876038,26.9664131 38.7150241,27.3399813 38.2559526,27.3399813 C37.7968812,27.3399813 37.4243015,26.9664131 37.4243015,26.5061238 C37.4243015,26.0458345 37.7968812,25.6722663 38.2559526,25.6722663 C38.7150241,25.6722663 39.0876038,26.0458345 39.0876038,26.5061238" id="Fill-17" fill="#000000"></path>
                                <path d="M34.0976969,26.5061238 C34.0976969,26.9664131 33.7251172,27.3399813 33.2660458,27.3399813 C32.8069743,27.3399813 32.4343946,26.9664131 32.4343946,26.5061238 C32.4343946,26.0458345 32.8069743,25.6722663 33.2660458,25.6722663 C33.7251172,25.6722663 34.0976969,26.0458345 34.0976969,26.5061238" id="Fill-18" fill="#000000"></path>
                                <path d="M36.5926503,24.0045514 C36.5926503,24.4648407 36.2200706,24.8384089 35.7609992,24.8384089 C35.3019278,24.8384089 34.9293481,24.4648407 34.9293481,24.0045514 C34.9293481,23.5442621 35.3019278,23.170694 35.7609992,23.170694 C36.2200706,23.170694 36.5926503,23.5442621 36.5926503,24.0045514" id="Fill-19" fill="#000000"></path>
                                <path d="M21.6229297,34.0108409 C21.6229297,34.4711302 21.25035,34.8446984 20.7912786,34.8446984 C20.3322072,34.8446984 19.9596275,34.4711302 19.9596275,34.0108409 C19.9596275,33.5505516 20.3322072,33.1769835 20.7912786,33.1769835 C21.25035,33.1769835 21.6229297,33.5505516 21.6229297,34.0108409" id="Fill-20" fill="#000000"></path>
                                <path d="M44.0775106,31.5092685 C44.0775106,31.9695579 43.7049309,32.343126 43.2458595,32.343126 C42.7867881,32.343126 42.4142083,31.9695579 42.4142083,31.5092685 C42.4142083,31.0489792 42.7867881,30.6754111 43.2458595,30.6754111 C43.7049309,30.6754111 44.0775106,31.0489792 44.0775106,31.5092685" id="Fill-21" fill="#000000"></path>
                                <path d="M46.5724641,29.0076962 C46.5724641,29.4679855 46.1998844,29.8415536 45.7408129,29.8415536 C45.2817415,29.8415536 44.9091618,29.4679855 44.9091618,29.0076962 C44.9091618,28.5474069 45.2817415,28.1738387 45.7408129,28.1738387 C46.1998844,28.1738387 46.5724641,28.5474069 46.5724641,29.0076962" id="Fill-22" fill="#000000"></path>
                                <path d="M46.5724641,34.0108409 C46.5724641,34.4711302 46.1998844,34.8446984 45.7408129,34.8446984 C45.2817415,34.8446984 44.9091618,34.4711302 44.9091618,34.0108409 C44.9091618,33.5505516 45.2817415,33.1769835 45.7408129,33.1769835 C46.1998844,33.1769835 46.5724641,33.5505516 46.5724641,34.0108409" id="Fill-23" fill="#000000"></path>
                                <path d="M39.0876038,31.5092685 C39.0876038,31.9695579 38.7150241,32.343126 38.2559526,32.343126 C37.7968812,32.343126 37.4243015,31.9695579 37.4243015,31.5092685 C37.4243015,31.0489792 37.7968812,30.6754111 38.2559526,30.6754111 C38.7150241,30.6754111 39.0876038,31.0489792 39.0876038,31.5092685" id="Fill-24" fill="#000000"></path>
                                <path d="M41.5825572,29.0076962 C41.5825572,29.4679855 41.2099775,29.8415536 40.7509061,29.8415536 C40.2918346,29.8415536 39.9192549,29.4679855 39.9192549,29.0076962 C39.9192549,28.5474069 40.2918346,28.1738387 40.7509061,28.1738387 C41.2099775,28.1738387 41.5825572,28.5474069 41.5825572,29.0076962" id="Fill-25" fill="#000000"></path>
                                <path d="M41.5825572,34.0108409 C41.5825572,34.4711302 41.2099775,34.8446984 40.7509061,34.8446984 C40.2918346,34.8446984 39.9192549,34.4711302 39.9192549,34.0108409 C39.9192549,33.5505516 40.2918346,33.1769835 40.7509061,33.1769835 C41.2099775,33.1769835 41.5825572,33.5505516 41.5825572,34.0108409" id="Fill-26" fill="#000000"></path>
                                <path d="M26.6128366,34.0108409 C26.6128366,34.4711302 26.2402569,34.8446984 25.7811855,34.8446984 C25.322114,34.8446984 24.9495343,34.4711302 24.9495343,34.0108409 C24.9495343,33.5505516 25.322114,33.1769835 25.7811855,33.1769835 C26.2402569,33.1769835 26.6128366,33.5505516 26.6128366,34.0108409" id="Fill-27" fill="#000000"></path>
                                <path d="M29.10779,31.5092685 C29.10779,31.9695579 28.7352103,32.343126 28.2761389,32.343126 C27.8170675,32.343126 27.4444878,31.9695579 27.4444878,31.5092685 C27.4444878,31.0489792 27.8170675,30.6754111 28.2761389,30.6754111 C28.7352103,30.6754111 29.10779,31.0489792 29.10779,31.5092685" id="Fill-28" fill="#000000"></path>
                                <path d="M34.0976969,31.5092685 C34.0976969,31.9695579 33.7251172,32.343126 33.2660458,32.343126 C32.8069743,32.343126 32.4343946,31.9695579 32.4343946,31.5092685 C32.4343946,31.0489792 32.8069743,30.6754111 33.2660458,30.6754111 C33.7251172,30.6754111 34.0976969,31.0489792 34.0976969,31.5092685" id="Fill-29" fill="#000000"></path>
                                <path d="M19.1279763,36.5124133 C19.1279763,36.9727026 18.7553966,37.3462707 18.2963252,37.3462707 C17.8372537,37.3462707 17.464674,36.9727026 17.464674,36.5124133 C17.464674,36.052124 17.8372537,35.6785558 18.2963252,35.6785558 C18.7553966,35.6785558 19.1279763,36.052124 19.1279763,36.5124133" id="Fill-30" fill="#000000"></path>
                                <path d="M24.1178832,36.5124133 C24.1178832,36.9727026 23.7453035,37.3462707 23.286232,37.3462707 C22.8271606,37.3462707 22.4545809,36.9727026 22.4545809,36.5124133 C22.4545809,36.052124 22.8271606,35.6785558 23.286232,35.6785558 C23.7453035,35.6785558 24.1178832,36.052124 24.1178832,36.5124133" id="Fill-31" fill="#000000"></path>
                                <path d="M9.14816258,36.5124133 C9.14816258,36.9727026 8.77558287,37.3462707 8.31651144,37.3462707 C7.85744001,37.3462707 7.4848603,36.9727026 7.4848603,36.5124133 C7.4848603,36.052124 7.85744001,35.6785558 8.31651144,35.6785558 C8.77558287,35.6785558 9.14816258,36.052124 9.14816258,36.5124133" id="Fill-32" fill="#000000"></path>
                                <path d="M44.0775106,36.5124133 C44.0775106,36.9727026 43.7049309,37.3462707 43.2458595,37.3462707 C42.7867881,37.3462707 42.4142083,36.9727026 42.4142083,36.5124133 C42.4142083,36.052124 42.7867881,35.6785558 43.2458595,35.6785558 C43.7049309,35.6785558 44.0775106,36.052124 44.0775106,36.5124133" id="Fill-33" fill="#000000"></path>
                                <path d="M39.0876038,36.5124133 C39.0876038,36.9727026 38.7150241,37.3462707 38.2559526,37.3462707 C37.7968812,37.3462707 37.4243015,36.9727026 37.4243015,36.5124133 C37.4243015,36.052124 37.7968812,35.6785558 38.2559526,35.6785558 C38.7150241,35.6785558 39.0876038,36.052124 39.0876038,36.5124133" id="Fill-34" fill="#000000"></path>
                                <path d="M29.10779,36.5124133 C29.10779,36.9727026 28.7352103,37.3462707 28.2761389,37.3462707 C27.8170675,37.3462707 27.4444878,36.9727026 27.4444878,36.5124133 C27.4444878,36.052124 27.8170675,35.6785558 28.2761389,35.6785558 C28.7352103,35.6785558 29.10779,36.052124 29.10779,36.5124133" id="Fill-35" fill="#000000"></path>
                                <path d="M34.0976969,36.5124133 C34.0976969,36.9727026 33.7251172,37.3462707 33.2660458,37.3462707 C32.8069743,37.3462707 32.4343946,36.9727026 32.4343946,36.5124133 C32.4343946,36.052124 32.8069743,35.6785558 33.2660458,35.6785558 C33.7251172,35.6785558 34.0976969,36.052124 34.0976969,36.5124133" id="Fill-36" fill="#000000"></path>
                                <path d="M31.6027435,29.0076962 C31.6027435,29.4679855 31.2301638,29.8415536 30.7710923,29.8415536 C30.3120209,29.8415536 29.9394412,29.4679855 29.9394412,29.0076962 C29.9394412,28.5474069 30.3120209,28.1738387 30.7710923,28.1738387 C31.2301638,28.1738387 31.6027435,28.5474069 31.6027435,29.0076962" id="Fill-37" fill="#000000"></path>
                                <path d="M36.5926503,29.0076962 C36.5926503,29.4679855 36.2200706,29.8415536 35.7609992,29.8415536 C35.3019278,29.8415536 34.9293481,29.4679855 34.9293481,29.0076962 C34.9293481,28.5474069 35.3019278,28.1738387 35.7609992,28.1738387 C36.2200706,28.1738387 36.5926503,28.5474069 36.5926503,29.0076962" id="Fill-38" fill="#000000"></path>
                                <path d="M31.6027435,34.0108409 C31.6027435,34.4711302 31.2301638,34.8446984 30.7710923,34.8446984 C30.3120209,34.8446984 29.9394412,34.4711302 29.9394412,34.0108409 C29.9394412,33.5505516 30.3120209,33.1769835 30.7710923,33.1769835 C31.2301638,33.1769835 31.6027435,33.5505516 31.6027435,34.0108409" id="Fill-39" fill="#000000"></path>
                                <path d="M36.5926503,34.0108409 C36.5926503,34.4711302 36.2200706,34.8446984 35.7609992,34.8446984 C35.3019278,34.8446984 34.9293481,34.4711302 34.9293481,34.0108409 C34.9293481,33.5505516 35.3019278,33.1769835 35.7609992,33.1769835 C36.2200706,33.1769835 36.5926503,33.5505516 36.5926503,34.0108409" id="Fill-40" fill="#000000"></path>
                                <path d="M19.1279763,41.515558 C19.1279763,41.9758473 18.7553966,42.3494155 18.2963252,42.3494155 C17.8372537,42.3494155 17.464674,41.9758473 17.464674,41.515558 C17.464674,41.0552687 17.8372537,40.6817006 18.2963252,40.6817006 C18.7553966,40.6817006 19.1279763,41.0552687 19.1279763,41.515558" id="Fill-41" fill="#000000"></path>
                                <path d="M21.6229297,39.0139857 C21.6229297,39.474275 21.25035,39.8478431 20.7912786,39.8478431 C20.3322072,39.8478431 19.9596275,39.474275 19.9596275,39.0139857 C19.9596275,38.5536963 20.3322072,38.1801282 20.7912786,38.1801282 C21.25035,38.1801282 21.6229297,38.5536963 21.6229297,39.0139857" id="Fill-42" fill="#000000"></path>
                                <path d="M21.6229297,44.0171304 C21.6229297,44.4774197 21.25035,44.8509879 20.7912786,44.8509879 C20.3322072,44.8509879 19.9596275,44.4774197 19.9596275,44.0171304 C19.9596275,43.5568411 20.3322072,43.1832729 20.7912786,43.1832729 C21.25035,43.1832729 21.6229297,43.5568411 21.6229297,44.0171304" id="Fill-43" fill="#000000"></path>
                                <path d="M24.1178832,41.515558 C24.1178832,41.9758473 23.7453035,42.3494155 23.286232,42.3494155 C22.8271606,42.3494155 22.4545809,41.9758473 22.4545809,41.515558 C22.4545809,41.0552687 22.8271606,40.6817006 23.286232,40.6817006 C23.7453035,40.6817006 24.1178832,41.0552687 24.1178832,41.515558" id="Fill-44" fill="#000000"></path>
                                <path d="M14.1380694,41.515558 C14.1380694,41.9758473 13.7654897,42.3494155 13.3064183,42.3494155 C12.8473469,42.3494155 12.4747672,41.9758473 12.4747672,41.515558 C12.4747672,41.0552687 12.8473469,40.6817006 13.3064183,40.6817006 C13.7654897,40.6817006 14.1380694,41.0552687 14.1380694,41.515558" id="Fill-45" fill="#000000"></path>
                                <path d="M16.6330229,39.0139857 C16.6330229,39.474275 16.2604432,39.8478431 15.8013717,39.8478431 C15.3423003,39.8478431 14.9697206,39.474275 14.9697206,39.0139857 C14.9697206,38.5536963 15.3423003,38.1801282 15.8013717,38.1801282 C16.2604432,38.1801282 16.6330229,38.5536963 16.6330229,39.0139857" id="Fill-46" fill="#000000"></path>
                                <path d="M16.6330229,44.0171304 C16.6330229,44.4774197 16.2604432,44.8509879 15.8013717,44.8509879 C15.3423003,44.8509879 14.9697206,44.4774197 14.9697206,44.0171304 C14.9697206,43.5568411 15.3423003,43.1832729 15.8013717,43.1832729 C16.2604432,43.1832729 16.6330229,43.5568411 16.6330229,44.0171304" id="Fill-47" fill="#000000"></path>
                                <path d="M4.15825572,41.515558 C4.15825572,41.9758473 3.78567601,42.3494155 3.32660458,42.3494155 C2.86753314,42.3494155 2.49495343,41.9758473 2.49495343,41.515558 C2.49495343,41.0552687 2.86753314,40.6817006 3.32660458,40.6817006 C3.78567601,40.6817006 4.15825572,41.0552687 4.15825572,41.515558" id="Fill-48" fill="#000000"></path>
                                <path d="M9.14816258,41.515558 C9.14816258,41.9758473 8.77558287,42.3494155 8.31651144,42.3494155 C7.85744001,42.3494155 7.4848603,41.9758473 7.4848603,41.515558 C7.4848603,41.0552687 7.85744001,40.6817006 8.31651144,40.6817006 C8.77558287,40.6817006 9.14816258,41.0552687 9.14816258,41.515558" id="Fill-49" fill="#000000"></path>
                                <path d="M6.65320915,39.0139857 C6.65320915,39.474275 6.28062944,39.8478431 5.82155801,39.8478431 C5.36248658,39.8478431 4.98990686,39.474275 4.98990686,39.0139857 C4.98990686,38.5536963 5.36248658,38.1801282 5.82155801,38.1801282 C6.28062944,38.1801282 6.65320915,38.5536963 6.65320915,39.0139857" id="Fill-50" fill="#000000"></path>
                                <path d="M11.643116,39.0139857 C11.643116,39.474275 11.2705363,39.8478431 10.8114649,39.8478431 C10.3523934,39.8478431 9.97981373,39.474275 9.97981373,39.0139857 C9.97981373,38.5536963 10.3523934,38.1801282 10.8114649,38.1801282 C11.2705363,38.1801282 11.643116,38.5536963 11.643116,39.0139857" id="Fill-51" fill="#000000"></path>
                                <path d="M6.65320915,44.0171304 C6.65320915,44.4774197 6.28062944,44.8509879 5.82155801,44.8509879 C5.36248658,44.8509879 4.98990686,44.4774197 4.98990686,44.0171304 C4.98990686,43.5568411 5.36248658,43.1832729 5.82155801,43.1832729 C6.28062944,43.1832729 6.65320915,43.5568411 6.65320915,44.0171304" id="Fill-52" fill="#000000"></path>
                                <path d="M11.643116,44.0171304 C11.643116,44.4774197 11.2705363,44.8509879 10.8114649,44.8509879 C10.3523934,44.8509879 9.97981373,44.4774197 9.97981373,44.0171304 C9.97981373,43.5568411 10.3523934,43.1832729 10.8114649,43.1832729 C11.2705363,43.1832729 11.643116,43.5568411 11.643116,44.0171304" id="Fill-53" fill="#000000"></path>
                                <path d="M44.0775106,41.515558 C44.0775106,41.9758473 43.7049309,42.3494155 43.2458595,42.3494155 C42.7867881,42.3494155 42.4142083,41.9758473 42.4142083,41.515558 C42.4142083,41.0552687 42.7867881,40.6817006 43.2458595,40.6817006 C43.7049309,40.6817006 44.0775106,41.0552687 44.0775106,41.515558" id="Fill-54" fill="#000000"></path>
                                <path d="M46.5724641,39.0139857 C46.5724641,39.474275 46.1998844,39.8478431 45.7408129,39.8478431 C45.2817415,39.8478431 44.9091618,39.474275 44.9091618,39.0139857 C44.9091618,38.5536963 45.2817415,38.1801282 45.7408129,38.1801282 C46.1998844,38.1801282 46.5724641,38.5536963 46.5724641,39.0139857" id="Fill-55" fill="#000000"></path>
                                <path d="M46.5724641,44.0171304 C46.5724641,44.4774197 46.1998844,44.8509879 45.7408129,44.8509879 C45.2817415,44.8509879 44.9091618,44.4774197 44.9091618,44.0171304 C44.9091618,43.5568411 45.2817415,43.1832729 45.7408129,43.1832729 C46.1998844,43.1832729 46.5724641,43.5568411 46.5724641,44.0171304" id="Fill-56" fill="#000000"></path>
                                <path d="M39.0876038,41.515558 C39.0876038,41.9758473 38.7150241,42.3494155 38.2559526,42.3494155 C37.7968812,42.3494155 37.4243015,41.9758473 37.4243015,41.515558 C37.4243015,41.0552687 37.7968812,40.6817006 38.2559526,40.6817006 C38.7150241,40.6817006 39.0876038,41.0552687 39.0876038,41.515558" id="Fill-57" fill="#000000"></path>
                                <path d="M41.5825572,39.0139857 C41.5825572,39.474275 41.2099775,39.8478431 40.7509061,39.8478431 C40.2918346,39.8478431 39.9192549,39.474275 39.9192549,39.0139857 C39.9192549,38.5536963 40.2918346,38.1801282 40.7509061,38.1801282 C41.2099775,38.1801282 41.5825572,38.5536963 41.5825572,39.0139857" id="Fill-58" fill="#000000"></path>
                                <path d="M41.5825572,44.0171304 C41.5825572,44.4774197 41.2099775,44.8509879 40.7509061,44.8509879 C40.2918346,44.8509879 39.9192549,44.4774197 39.9192549,44.0171304 C39.9192549,43.5568411 40.2918346,43.1832729 40.7509061,43.1832729 C41.2099775,43.1832729 41.5825572,43.5568411 41.5825572,44.0171304" id="Fill-59" fill="#000000"></path>
                                <path d="M26.6128366,39.0139857 C26.6128366,39.474275 26.2402569,39.8478431 25.7811855,39.8478431 C25.322114,39.8478431 24.9495343,39.474275 24.9495343,39.0139857 C24.9495343,38.5536963 25.322114,38.1801282 25.7811855,38.1801282 C26.2402569,38.1801282 26.6128366,38.5536963 26.6128366,39.0139857" id="Fill-60" fill="#000000"></path>
                                <path d="M26.6128366,44.0171304 C26.6128366,44.4774197 26.2402569,44.8509879 25.7811855,44.8509879 C25.322114,44.8509879 24.9495343,44.4774197 24.9495343,44.0171304 C24.9495343,43.5568411 25.322114,43.1832729 25.7811855,43.1832729 C26.2402569,43.1832729 26.6128366,43.5568411 26.6128366,44.0171304" id="Fill-61" fill="#000000"></path>
                                <path d="M29.10779,41.515558 C29.10779,41.9758473 28.7352103,42.3494155 28.2761389,42.3494155 C27.8170675,42.3494155 27.4444878,41.9758473 27.4444878,41.515558 C27.4444878,41.0552687 27.8170675,40.6817006 28.2761389,40.6817006 C28.7352103,40.6817006 29.10779,41.0552687 29.10779,41.515558" id="Fill-62" fill="#000000"></path>
                                <path d="M34.0976969,41.515558 C34.0976969,41.9758473 33.7251172,42.3494155 33.2660458,42.3494155 C32.8069743,42.3494155 32.4343946,41.9758473 32.4343946,41.515558 C32.4343946,41.0552687 32.8069743,40.6817006 33.2660458,40.6817006 C33.7251172,40.6817006 34.0976969,41.0552687 34.0976969,41.515558" id="Fill-63" fill="#000000"></path>
                                <path d="M19.1279763,46.5187028 C19.1279763,46.9789921 18.7553966,47.3525602 18.2963252,47.3525602 C17.8372537,47.3525602 17.464674,46.9789921 17.464674,46.5187028 C17.464674,46.0584135 17.8372537,45.6848453 18.2963252,45.6848453 C18.7553966,45.6848453 19.1279763,46.0584135 19.1279763,46.5187028" id="Fill-64" fill="#000000"></path>
                                <path d="M24.1178832,46.5187028 C24.1178832,46.9789921 23.7453035,47.3525602 23.286232,47.3525602 C22.8271606,47.3525602 22.4545809,46.9789921 22.4545809,46.5187028 C22.4545809,46.0584135 22.8271606,45.6848453 23.286232,45.6848453 C23.7453035,45.6848453 24.1178832,46.0584135 24.1178832,46.5187028" id="Fill-65" fill="#000000"></path>
                                <path d="M14.1380694,46.5187028 C14.1380694,46.9789921 13.7654897,47.3525602 13.3064183,47.3525602 C12.8473469,47.3525602 12.4747672,46.9789921 12.4747672,46.5187028 C12.4747672,46.0584135 12.8473469,45.6848453 13.3064183,45.6848453 C13.7654897,45.6848453 14.1380694,46.0584135 14.1380694,46.5187028" id="Fill-66" fill="#000000"></path>
                                <path d="M4.15825572,46.5187028 C4.15825572,46.9789921 3.78567601,47.3525602 3.32660458,47.3525602 C2.86753314,47.3525602 2.49495343,46.9789921 2.49495343,46.5187028 C2.49495343,46.0584135 2.86753314,45.6848453 3.32660458,45.6848453 C3.78567601,45.6848453 4.15825572,46.0584135 4.15825572,46.5187028" id="Fill-67" fill="#000000"></path>
                                <path d="M9.14816258,46.5187028 C9.14816258,46.9789921 8.77558287,47.3525602 8.31651144,47.3525602 C7.85744001,47.3525602 7.4848603,46.9789921 7.4848603,46.5187028 C7.4848603,46.0584135 7.85744001,45.6848453 8.31651144,45.6848453 C8.77558287,45.6848453 9.14816258,46.0584135 9.14816258,46.5187028" id="Fill-68" fill="#000000"></path>
                                <path d="M44.0775106,46.5187028 C44.0775106,46.9789921 43.7049309,47.3525602 43.2458595,47.3525602 C42.7867881,47.3525602 42.4142083,46.9789921 42.4142083,46.5187028 C42.4142083,46.0584135 42.7867881,45.6848453 43.2458595,45.6848453 C43.7049309,45.6848453 44.0775106,46.0584135 44.0775106,46.5187028" id="Fill-69" fill="#000000"></path>
                                <path d="M39.0876038,46.5187028 C39.0876038,46.9789921 38.7150241,47.3525602 38.2559526,47.3525602 C37.7968812,47.3525602 37.4243015,46.9789921 37.4243015,46.5187028 C37.4243015,46.0584135 37.7968812,45.6848453 38.2559526,45.6848453 C38.7150241,45.6848453 39.0876038,46.0584135 39.0876038,46.5187028" id="Fill-70" fill="#000000"></path>
                                <path d="M29.10779,46.5187028 C29.10779,46.9789921 28.7352103,47.3525602 28.2761389,47.3525602 C27.8170675,47.3525602 27.4444878,46.9789921 27.4444878,46.5187028 C27.4444878,46.0584135 27.8170675,45.6848453 28.2761389,45.6848453 C28.7352103,45.6848453 29.10779,46.0584135 29.10779,46.5187028" id="Fill-71" fill="#000000"></path>
                                <path d="M34.0976969,46.5187028 C34.0976969,46.9789921 33.7251172,47.3525602 33.2660458,47.3525602 C32.8069743,47.3525602 32.4343946,46.9789921 32.4343946,46.5187028 C32.4343946,46.0584135 32.8069743,45.6848453 33.2660458,45.6848453 C33.7251172,45.6848453 34.0976969,46.0584135 34.0976969,46.5187028" id="Fill-72" fill="#000000"></path>
                                <path d="M31.6027435,39.0139857 C31.6027435,39.474275 31.2301638,39.8478431 30.7710923,39.8478431 C30.3120209,39.8478431 29.9394412,39.474275 29.9394412,39.0139857 C29.9394412,38.5536963 30.3120209,38.1801282 30.7710923,38.1801282 C31.2301638,38.1801282 31.6027435,38.5536963 31.6027435,39.0139857" id="Fill-73" fill="#000000"></path>
                                <path d="M36.5926503,39.0139857 C36.5926503,39.474275 36.2200706,39.8478431 35.7609992,39.8478431 C35.3019278,39.8478431 34.9293481,39.474275 34.9293481,39.0139857 C34.9293481,38.5536963 35.3019278,38.1801282 35.7609992,38.1801282 C36.2200706,38.1801282 36.5926503,38.5536963 36.5926503,39.0139857" id="Fill-74" fill="#000000"></path>
                                <path d="M31.6027435,44.0171304 C31.6027435,44.4774197 31.2301638,44.8509879 30.7710923,44.8509879 C30.3120209,44.8509879 29.9394412,44.4774197 29.9394412,44.0171304 C29.9394412,43.5568411 30.3120209,43.1832729 30.7710923,43.1832729 C31.2301638,43.1832729 31.6027435,43.5568411 31.6027435,44.0171304" id="Fill-75" fill="#000000"></path>
                                <path d="M36.5926503,44.0171304 C36.5926503,44.4774197 36.2200706,44.8509879 35.7609992,44.8509879 C35.3019278,44.8509879 34.9293481,44.4774197 34.9293481,44.0171304 C34.9293481,43.5568411 35.3019278,43.1832729 35.7609992,43.1832729 C36.2200706,43.1832729 36.5926503,43.5568411 36.5926503,44.0171304" id="Fill-76" fill="#000000"></path>
                                <path d="M1.30961093,0.656542621 L1.30961093,49.0202751" id="Stroke-537" stroke="#000000" stroke-linecap="round"></path>
                                <path d="M48.2357664,47.2710687 L1.13686838e-13,47.2710687" id="Stroke-539" stroke="#000000" stroke-linecap="round"></path>
                                <path d="M4.98990686,22.9789917 L6.65320915,22.9789917" id="Stroke-541" stroke="#000000" stroke-linecap="round"></path>
                                <path d="M4.98990686,19.6962786 L6.65320915,19.6962786" id="Stroke-543" stroke="#000000" stroke-linecap="round"></path>
                                <path d="M4.98990686,16.4135655 L6.65320915,16.4135655" id="Stroke-545" stroke="#000000" stroke-linecap="round"></path>
                                <path d="M4.98990686,13.1308524 L6.65320915,13.1308524" id="Stroke-547" stroke="#000000" stroke-linecap="round"></path>
                                <path d="M4.98990686,9.19159669 L6.65320915,9.19159669" id="Stroke-549" stroke="#000000" stroke-linecap="round"></path>
                                <path d="M4.98990686,5.90888359 L6.65320915,5.90888359" id="Stroke-551" stroke="#000000" stroke-linecap="round"></path>
                                <path d="M4.98990686,2.62617048 L6.65320915,2.62617048" id="Stroke-553" stroke="#000000" stroke-linecap="round"></path>
                                <polygon id="Stroke-555" stroke="#000000" stroke-linecap="round" points="1.66330229 39.8478431 9.14816258 32.343126 14.1380694 39.0139857 19.9596275 26.5061238 24.9495343 33.1769835 34.0976969 19.0014067 39.0876038 25.6722663 48.2357664 11.4966896 48.2357664 47.3525602 1.66330229 47.3525602"></polygon>
                            </g>
                            <g id="150---Piggy-Bank-(Outline)" transform="translate(73.078260, 72.448966) rotate(17.000000) translate(-73.078260, -72.448966) translate(15.078260, 14.448966)" stroke-linecap="round">
                                <path d="M31.8844295,56.422025 C31.8844295,59.1632725 29.6632457,61.3880531 26.9219992,61.3880531 C24.1827377,61.3880531 21.9595689,59.1632725 21.9595689,56.422025 C21.9595689,53.6787911 24.1827377,51.4559969 26.9219992,51.4559969 C29.6632457,51.4559969 31.8844295,53.6787911 31.8844295,56.422025 L31.8844295,56.422025 Z" id="Stroke-24" stroke="#000000"></path>
                                <path d="M115.271123,63.3744644 C115.271123,68.8629186 110.83074,73.3065206 105.346262,73.3065206" id="Stroke-26" stroke="#000000"></path>
                                <path d="M115.271123,63.3744644 C115.271123,57.8840237 110.83074,53.4424081 105.346262,53.4424081" id="Stroke-28" stroke="#000000"></path>
                                <path d="" id="Stroke-30" stroke="#000000"></path>
                                <path d="M111.301179,60.3948475 C111.301179,64.2345804 108.190727,67.3472868 104.351791,67.3472868 C100.516825,67.3472868 97.406374,64.2345804 97.406374,60.3948475 C97.406374,56.5551145 100.516825,53.4424081 104.351791,53.4424081 C108.190727,53.4424081 111.301179,56.5551145 111.301179,60.3948475 L111.301179,60.3948475 Z" id="Stroke-32" stroke="#000000"></path>
                                <path d="M111.24163,49.4656128 C112.595381,52.4909171 112.684704,56.064471 111.19002,59.3182126" id="Stroke-34" stroke="#000000"></path>
                                <path d="M41.8092901,44.8333018 C53.2586092,33.3756817 71.7883239,33.3756817 83.2356581,44.8333018" id="Stroke-36" stroke="#000000"></path>
                                <path d="M46.7101862,40.8922619 C55.6028613,35.1694111 66.8953676,34.7264414 76.1473227,39.5991082 C80.6551943,35.4256581 83.4937044,29.47437 83.4937044,22.8437293 C83.4937044,10.2280315 73.275068,8.34887715e-14 60.6665251,8.34887715e-14 C48.0599673,8.34887715e-14 37.8393458,10.2280315 37.8393458,22.8437293 C37.8393458,30.1934509 41.3229719,36.714839 46.7101862,40.8922619 L46.7101862,40.8922619 Z" id="Stroke-38" stroke="#000000"></path>
                                <path d="M104.893689,67.2916673 C104.711071,67.3055722 104.538379,67.3472868 104.351791,67.3472868 C100.516825,67.3472868 97.406374,64.2345804 97.406374,60.3948475 C97.406374,57.4668773 99.2166685,54.9739312 101.775298,53.948943 C98.0018656,43.8381098 90.8043567,36.2778286 81.7786885,31.5203736 C81.7707486,31.5183872 81.7628088,31.5164008 81.7548689,31.5144144 C80.4785318,34.6032839 78.5630337,37.3624091 76.1473227,39.5991082 C66.8953676,34.7264414 55.6028613,35.1694111 46.7101862,40.8922619 C43.1551012,38.1351231 40.4575241,34.3450504 39.0144493,29.9828913 C38.96681,29.8656931 38.9052759,29.7604133 38.8655764,29.6372558 C36.0092016,30.5311408 33.5021818,31.4131074 31.8844295,32.0884872 C23.5614414,28.7056289 17.7514281,27.2456166 12.6639445,27.8097574 C11.9394297,27.8892139 11.8024666,28.8565962 12.4594924,29.1724355 C17.0864624,31.401189 17.896331,37.3008304 19.9745968,41.7146361 C13.9343267,47.5407803 13.34082,51.7718363 12.276875,59.4016419 L8.04888438,59.4016419 C2.35201442,59.4016419 0.108995928,64.0220344 0.108995928,69.7230347 L0.108995928,76.88802 C0.108995928,82.5890203 2.35201442,87.2113993 8.04888438,87.2113993 L10.6571377,87.2113993 C16.5743396,104.439544 37.3589826,113.660465 59.1619163,113.660465 C85.7466478,113.660465 105.346262,98.3313294 105.346262,75.2929318 C105.346262,72.5159289 105.18548,69.8541378 104.893689,67.2916673 L104.893689,67.2916673 Z" id="Stroke-40" stroke="#000000"></path>
                                <path d="M70.6052805,32.7420165 C73.4993699,30.0623478 75.3215743,26.242479 75.3215743,21.9855997 C75.3215743,13.8850146 68.7612414,7.31992544 60.6665251,7.31992544 C52.5737938,7.31992544 46.013461,13.8850146 46.013461,21.9855997 C46.013461,26.7033264 48.2485396,30.8906813 51.708346,33.5723364" id="Stroke-42" stroke="#000000"></path>
                                <path d="M96.8466118,98.6173727 C92.0548892,104.15946 85.4568419,108.372638 77.5884124,110.907299 L78.1759642,112.863914 C78.5928083,114.258375 79.8751003,115.211852 81.3280999,115.211852 L93.2716771,115.211852 C97.8728424,115.211852 101.092467,110.658998 99.5600687,106.314716 L96.8466118,98.6173727 L96.8466118,98.6173727 Z" id="Stroke-44" stroke="#000000"></path>
                                <path d="M17.9022859,98.8378643 L14.7005259,106.851047 C13.0986534,110.855652 16.046337,115.211852 20.3557115,115.211852 L33.7344235,115.211852 C34.6058263,115.211852 35.3898903,114.68148 35.7134407,113.871025 L37.1525455,110.267675 C29.5520873,107.780688 22.8547914,103.958832 17.9022859,98.8378643 L17.9022859,98.8378643 Z" id="Stroke-46" stroke="#000000"></path>
                                <path d="M36.4161208,101.267245 C43.7942622,104.534892 51.6110824,106.147858 61.6590112,105.279796" id="Stroke-48" stroke="#000000"></path>
                            </g>
                            <g id="169---Coins-(Outline)" transform="translate(46.856649, 222.620599) rotate(22.000000) translate(-46.856649, -222.620599) translate(20.356649, 195.120599)" stroke-linecap="round">
                                <path d="M34.463386,13.0583954 C35.2114872,12.8968749 35.6488667,12.4271657 35.487583,11.8915487 L35.3144536,11.3197288 C35.1877958,10.8992184 34.6948326,10.5474006 34.0907022,10.3738125 C33.2687932,8.5840905 31.1739276,7.93708002 28.0603322,7.93708002 C27.9136278,7.93708002 27.7687458,7.93986486 27.6265975,7.94636281 C26.565041,7.99092021 25.5053069,7.8850964 24.6779306,7.57783604 C24.3416951,7.45251837 24.0665105,7.32070275 23.8851803,7.18517401 C23.8031716,7.12297931 23.6045284,7.16289531 23.6045284,7.24087075 C23.6045284,7.37639949 23.6145517,7.53699176 23.6437103,7.71522133 C23.7567,8.40864577 23.6218413,8.30375024 22.9502815,8.99531811 C22.5593736,9.39819121 22.2486519,9.86140245 22.0235837,10.375669 C21.4230981,10.5501855 20.9328685,10.9001467 20.8062107,11.3197288 L20.6339925,11.8915487 C20.4717976,12.4271657 20.9100884,12.8968749 21.6572784,13.0583954 C21.8714121,14.4266787 22.7844418,15.6315849 24.7772522,16.2934478 L24.6679073,17.2570015 C24.6387487,17.5132065 24.4209702,17.7517742 24.10387,17.8678091 L20.0845345,19.3465576 C22.4318046,19.8469 25.1071093,20.1504472 28.0603322,20.1504472 C30.9725508,20.1504472 33.6141408,19.8561827 35.9377194,19.367908 L32.0058599,17.8705939 C31.6951382,17.7527025 31.4828269,17.5169196 31.4536682,17.2634994 L31.3443233,16.2934478 C33.3371337,15.6315849 34.2501635,14.4266787 34.463386,13.0583954 L34.463386,13.0583954 Z" id="Stroke-66" stroke="#000000"></path>
                                <path d="M29.1966077,47.070539 C16.1125818,47.070539 5.50521748,41.4377419 5.50521748,35.0029116 L5.50521748,42.8450129 C5.50521748,49.2798431 16.1125818,54.4967712 29.1966077,54.4967712 C42.2806336,54.4967712 52.8879979,49.2798431 52.8879979,42.8450129 L52.8879979,35.0029116 C52.8879979,41.4377419 42.2806336,47.070539 29.1966077,47.070539 L29.1966077,47.070539 Z" id="Stroke-68" stroke="#000000"></path>
                                <path d="M48.5162334,49.0514865 L48.5162334,41.3291332" id="Stroke-72" stroke="#000000"></path>
                                <path d="M44.5824848,51.2487229 L44.5824848,43.6229107" id="Stroke-76" stroke="#000000"></path>
                                <path d="M40.6487361,52.6606353 L40.6487361,45.1118703" id="Stroke-80" stroke="#000000"></path>
                                <path d="M20.9799928,46.3009957 L20.9799928,53.7792115" id="Stroke-82" stroke="#000000"></path>
                                <path d="M36.7149875,53.7792115 L36.7149875,46.3009957" id="Stroke-84" stroke="#000000"></path>
                                <path d="M26.2249911,46.9851373 L26.2249911,54.4169392" id="Stroke-86" stroke="#000000"></path>
                                <path d="M31.4699893,54.4169392 L31.4699893,46.9851373" id="Stroke-88" stroke="#000000"></path>
                                <path d="M51.9767906,11.7959359 C51.9767906,18.2307662 41.3694262,23.8635633 28.2854004,23.8635633 C15.2013745,23.8635633 4.59401016,18.2307662 4.59401016,11.7959359 C4.59401016,5.36110572 15.2013745,0.656587605 28.2854004,0.656587605 C41.3694262,0.656587605 51.9767906,5.36110572 51.9767906,11.7959359 L51.9767906,11.7959359 Z" id="Stroke-90" stroke="#000000"></path>
                                <path d="M28.2854004,20.1188857 C15.8182619,20.1188857 8.23883942,15.1887958 8.23883942,11.7959359 C8.23883942,8.40307609 15.8182619,4.36970372 28.2854004,4.36970372 C40.7525389,4.36970372 48.3319613,8.40307609 48.3319613,11.7959359 C48.3319613,15.1887958 40.7525389,20.1188857 28.2854004,20.1188857 L28.2854004,20.1188857 Z" id="Stroke-92" stroke="#000000"></path>
                                <path d="M28.2854004,23.8635633 C15.2013745,23.8635633 4.59401016,18.2307662 4.59401016,11.7959359 L4.59401016,19.6380372 C4.59401016,26.0728674 15.2013745,31.2897955 28.2854004,31.2897955 C41.3694262,31.2897955 51.9767906,26.0728674 51.9767906,19.6380372 L51.9767906,11.7959359 C51.9767906,18.2307662 41.3694262,23.8635633 28.2854004,23.8635633 L28.2854004,23.8635633 Z" id="Stroke-94" stroke="#000000"></path>
                                <path d="M7.86749732,18.1221575 L7.86749732,25.8445108" id="Stroke-96" stroke="#000000"></path>
                                <path d="M47.2049839,25.8445108 L47.2049839,18.1221575" id="Stroke-98" stroke="#000000"></path>
                                <path d="M11.801246,20.415935 L11.801246,28.0417472" id="Stroke-100" stroke="#000000"></path>
                                <path d="M44.5824848,28.0417472 L44.5824848,20.415935" id="Stroke-102" stroke="#000000"></path>
                                <path d="M14.4237451,21.9048946 L14.4237451,29.4536596" id="Stroke-104" stroke="#000000"></path>
                                <path d="M40.6487361,29.4536596 L40.6487361,21.9048946" id="Stroke-106" stroke="#000000"></path>
                                <path d="M19.6687433,23.09402 L19.6687433,30.5722358" id="Stroke-108" stroke="#000000"></path>
                                <path d="M35.4037379,30.5722358 L35.4037379,23.09402" id="Stroke-110" stroke="#000000"></path>
                                <path d="M24.9137415,23.7781616 L24.9137415,31.2099635" id="Stroke-112" stroke="#000000"></path>
                                <path d="M30.1587397,31.2099635 L30.1587397,23.7781616" id="Stroke-114" stroke="#000000"></path>
                                <path d="M43.2712352,35.127301 L43.2712352,28.5049584" id="Stroke-118" stroke="#000000"></path>
                                <path d="M39.3374866,37.3245375 L39.3374866,29.6987253" id="Stroke-122" stroke="#000000"></path>
                                <path d="M35.4037379,38.7364499 L35.4037379,31.1876848" id="Stroke-126" stroke="#000000"></path>
                                <path d="M14.4237451,32.3768103 L14.4237451,39.8550261" id="Stroke-128" stroke="#000000"></path>
                                <path d="M31.4699893,39.8550261 L31.4699893,32.3768103" id="Stroke-130" stroke="#000000"></path>
                                <path d="M20.9799928,33.0609519 L20.9799928,40.4927538" id="Stroke-132" stroke="#000000"></path>
                                <path d="M26.2249911,40.4927538 L26.2249911,33.0609519" id="Stroke-134" stroke="#000000"></path>
                                <path d="M46.7983994,31.5701358 C44.3590974,36.7276541 34.959994,40.5725858 23.7293638,40.5725858 C19.5341653,40.5725858 15.5959273,40.034184 12.1779887,39.092909 C15.4838488,41.3792603 21.3675144,43.3258614 29.1966077,43.3258614 C41.6637462,43.3258614 49.2431687,38.3957715 49.2431687,35.0029116 C49.2431687,33.8713395 48.387545,32.6701464 46.7983994,31.5701358 L46.7983994,31.5701358 Z" id="Stroke-136" stroke="#000000"></path>
                                <path d="M47.420754,27.7725463 L47.420754,28.9208274 C47.420754,35.3556577 36.8133897,40.5725858 23.7293638,40.5725858 C16.5062234,40.5725858 10.0430299,38.9805873 5.69839343,36.4742339 C7.16361479,42.2722647 17.1212883,47.070539 29.1966077,47.070539 C42.2806336,47.070539 52.8879979,41.4377419 52.8879979,35.0029116 C52.8879979,32.1735172 50.8323142,29.6801597 47.420754,27.7725463 L47.420754,27.7725463 Z" id="Stroke-138" stroke="#000000"></path>
                                <path d="M28.2854004,31.2897955 C15.2013745,31.2897955 4.59401016,26.0728674 4.59401016,19.6380372 L4.59401016,14.3914041 C1.73190798,16.2191855 0.0379735788,18.5101782 0.0379735788,21.0787262 C0.0379735788,27.5135564 10.6453379,33.1463536 23.7293638,33.1463536 C30.0294512,33.1463536 35.7500107,31.8384084 39.9935032,29.7655614 C36.5391163,30.7337564 32.5452946,31.2897955 28.2854004,31.2897955 L28.2854004,31.2897955 Z" id="Stroke-140" stroke="#000000"></path>
                                <path d="M39.9935032,29.7655614 C35.7500107,31.8384084 30.0294512,33.1463536 23.7293638,33.1463536 C10.6453379,33.1463536 0.0379735788,27.5135564 0.0379735788,21.0787262 L0.0379735788,28.9208274 C0.0379735788,35.3556577 10.6453379,40.5725858 23.7293638,40.5725858 C36.8133897,40.5725858 47.420754,35.3556577 47.420754,28.9208274 L47.420754,26.5054454 C45.4461678,27.8338127 42.9139226,28.9477475 39.9935032,29.7655614 L39.9935032,29.7655614 Z" id="Stroke-142" stroke="#000000"></path>
                            </g>
                        </g>
                    </g>
                </g>
            </g>
        </g>
    </g>
</svg>