<?xml version="1.0" encoding="UTF-8" standalone="no"?>
<svg width="1440px" height="451px" viewBox="0 0 1440 451" version="1.1" xmlns="http://www.w3.org/2000/svg" xmlns:xlink="http://www.w3.org/1999/xlink">
    <!-- Generator: Sketch 39.1 (31720) - http://www.bohemiancoding.com/sketch -->
    <title>BG</title>
    <desc>Created with Sketch.</desc>
    <defs>
        <rect id="path-1" x="0" y="0" width="1440" height="450.796875"></rect>
    </defs>
    <g id="BrandCaptcha" stroke="none" stroke-width="1" fill="none" fill-rule="evenodd">
        <g id="Publishers" transform="translate(0.000000, -4116.000000)">
            <g id="CTA" transform="translate(0.000000, 4116.000000)">
                <g id="BG">
                    <mask id="mask-2" fill="white">
                        <use xlink:href="#path-1"></use>
                    </mask>
                    <use id="Mask" fill="#A04297" xlink:href="#path-1"></use>
                    <g id="2" mask="url(#mask-2)" opacity="0.1">
                        <g transform="translate(993.000000, -140.000000)">
                            <g id="46---Resumee-(Outline)" transform="translate(432.789523, 540.667473) rotate(-12.000000) translate(-432.789523, -540.667473) translate(381.649011, 474.002163)">
                                <polygon id="Path" stroke="#1A1718" stroke-linejoin="round" points="101.338918 33.3541103 69.8112547 1.82644685 0 1.82644685 0 132.441052 101.338918 132.441052"></polygon>
                                <polygon id="Path" stroke="#1A1718" stroke-linejoin="round" points="69.8112547 1.82644685 69.8112547 33.3541103 101.338918 33.3541103"></polygon>
                                <path d="M22.5197596,80.3636613 L60.8033509,80.3636613" id="Path" stroke="#000000" stroke-linecap="round" stroke-linejoin="round"></path>
                                <path d="M33.7796394,67.5785334 L56.299399,67.5785334" id="Path" stroke="#000000" stroke-linecap="round" stroke-linejoin="round"></path>
                                <path d="M34.9619268,90.0273372 C28.5550552,93.3602617 27.6632727,100.638648 27.442579,107.142355 C28.7239533,106.610888 30.0053277,106.079422 31.286702,105.547956 C29.1811045,103.784658 27.0755069,102.021361 24.9676575,100.255812 C22.758469,98.4046878 19.5539072,101.573218 21.7833634,103.440106 C23.8912129,105.203403 25.9968105,106.968952 28.102408,108.734502 C29.5932161,109.982096 31.8767197,109.209668 31.9465309,107.142355 C32.1109252,102.262323 32.3473827,96.4612325 37.2341705,93.9164997 C39.812683,92.574322 37.5336833,88.6874115 34.9619268,90.0273372" id="Fill-101" fill="#000000"></path>
                                <path d="M37.6102505,102.751001 C42.3439039,107.896766 48.6224129,105.491656 53.7771859,102.329882 C52.7502848,102.059645 51.7233838,101.79166 50.6964828,101.521423 C51.9440775,103.741871 53.484429,104.881371 55.8580117,105.737122 C57.9050578,106.47577 65.0618374,102.989711 65.6135715,103.748627 C67.3093094,106.068162 71.2209917,103.825194 69.504986,101.474131 C68.5501482,100.170237 67.5682867,99.0825326 65.8275092,98.949666 C62.5463803,98.7042006 56.9141884,103.397318 54.5856453,99.2491788 C53.9956276,98.195254 52.5385991,97.8056622 51.5049421,98.4407194 C48.3161442,100.397687 44.1477367,103.210404 40.7945445,99.5667074 C38.8240655,97.4228263 35.6465274,100.616128 37.6102505,102.751001" id="Fill-102" fill="#000000"></path>
                                <path d="M44.122965,49.3251238 L38.4682533,46.4358386 C38.0809135,46.2399167 37.8377001,45.841317 37.8377001,45.4089376 L37.8377001,43.6771681 C40.7404971,42.4273214 42.4092112,39.9974393 43.2199226,36.9595238 C44.4449975,36.5789398 45.3457879,35.4484479 45.3457879,34.1040183 L45.3457879,32.6019503 C45.3457879,31.4534426 44.683707,30.4603212 43.7266172,29.9558785 C43.0667882,24.3101748 39.3330121,22.0244192 33.3337481,22.0244192 C33.0499992,22.0244192 32.7730061,22.0356791 32.4982651,22.0581989 C30.4602268,22.2203411 28.3974168,21.8352532 26.7016789,20.6935014 C25.9968105,20.2183345 25.4022888,19.7138919 24.9856733,19.1846775 C24.7942553,18.9437161 24.4136714,19.0968505 24.449703,19.4031192 C24.5105063,19.9278296 24.5983334,20.5403671 24.7312,21.2092039 C25.2288867,23.7021413 24.9316258,23.3373212 23.9677801,25.6883841 C23.4340618,26.9900262 23.0917615,28.4335428 22.9318712,29.9626345 C21.9815373,30.4670771 21.3239603,31.4579465 21.3239603,32.6019503 L21.3239603,34.1040183 C21.3239603,35.4484479 22.2247507,36.5789398 23.4498257,36.9595238 C24.260537,39.9974393 25.9292512,42.4273214 28.8297962,43.6771681 L28.8297962,45.3954257 C28.8297962,45.836813 28.5820789,46.2376647 28.1857311,46.4313347 L22.389145,49.2868402 C21.4095354,49.8228104 20.697911,50.6808133 20.2677836,51.6716827 C23.9542683,54.3064946 28.4582202,55.8738698 33.3337481,55.8738698 C38.1935123,55.8738698 42.6794484,54.3200064 46.3591771,51.7032104 C45.899774,50.6988291 45.147614,49.8385743 44.122965,49.3251238 L44.122965,49.3251238 Z" id="Stroke-105" stroke="#000000" stroke-linecap="round" stroke-linejoin="round"></path>
                            </g>
                            <g id="99---Pie-Chart-(Outline)" transform="translate(252.975908, 464.826249) rotate(19.000000) translate(-252.975908, -464.826249) translate(223.475908, 435.326249)">
                                <path d="M32,27 L58.924,27 C57.94,12.579 46.421,1.06 32,0.076 L32,27 L32,27 Z" id="Stroke-273" stroke="#000000"></path>
                                <path d="M51.386,48.653 C55.729,43.943 58.537,37.795 59,31 L33.733,31 L51.386,48.653 L51.386,48.653 Z" id="Stroke-275" stroke="#000000"></path>
                                <path d="M36.076,3 C36.076,3.552 35.629,4 35.076,4 C34.524,4 34.076,3.552 34.076,3 C34.076,2.448 34.524,2 35.076,2 C35.629,2 36.076,2.448 36.076,3" id="Fill-280" fill="#000000"></path>
                                <path d="M36.076,9 C36.076,9.552 35.629,10 35.076,10 C34.524,10 34.076,9.552 34.076,9 C34.076,8.448 34.524,8 35.076,8 C35.629,8 36.076,8.448 36.076,9" id="Fill-281" fill="#000000"></path>
                                <path d="M39.076,6 C39.076,6.552 38.629,7 38.076,7 C37.524,7 37.076,6.552 37.076,6 C37.076,5.448 37.524,5 38.076,5 C38.629,5 39.076,5.448 39.076,6" id="Fill-282" fill="#000000"></path>
                                <path d="M45.076,6 C45.076,6.552 44.629,7 44.076,7 C43.524,7 43.076,6.552 43.076,6 C43.076,5.448 43.524,5 44.076,5 C44.629,5 45.076,5.448 45.076,6" id="Fill-283" fill="#000000"></path>
                                <path d="M42.076,3 C42.076,3.552 41.629,4 41.076,4 C40.524,4 40.076,3.552 40.076,3 C40.076,2.448 40.524,2 41.076,2 C41.629,2 42.076,2.448 42.076,3" id="Fill-284" fill="#000000"></path>
                                <path d="M42.076,9 C42.076,9.552 41.629,10 41.076,10 C40.524,10 40.076,9.552 40.076,9 C40.076,8.448 40.524,8 41.076,8 C41.629,8 42.076,8.448 42.076,9" id="Fill-285" fill="#000000"></path>
                                <path d="M48.076,9 C48.076,9.552 47.629,10 47.076,10 C46.524,10 46.076,9.552 46.076,9 C46.076,8.448 46.524,8 47.076,8 C47.629,8 48.076,8.448 48.076,9" id="Fill-286" fill="#000000"></path>
                                <path d="M51.076,12 C51.076,12.552 50.629,13 50.076,13 C49.524,13 49.076,12.552 49.076,12 C49.076,11.448 49.524,11 50.076,11 C50.629,11 51.076,11.448 51.076,12" id="Fill-287" fill="#000000"></path>
                                <path d="M39.076,12 C39.076,12.552 38.629,13 38.076,13 C37.524,13 37.076,12.552 37.076,12 C37.076,11.448 37.524,11 38.076,11 C38.629,11 39.076,11.448 39.076,12" id="Fill-288" fill="#000000"></path>
                                <path d="M45.076,12 C45.076,12.552 44.629,13 44.076,13 C43.524,13 43.076,12.552 43.076,12 C43.076,11.448 43.524,11 44.076,11 C44.629,11 45.076,11.448 45.076,12" id="Fill-289" fill="#000000"></path>
                                <path d="M57.076,18 C57.076,18.552 56.629,19 56.076,19 C55.524,19 55.076,18.552 55.076,18 C55.076,17.448 55.524,17 56.076,17 C56.629,17 57.076,17.448 57.076,18" id="Fill-290" fill="#000000"></path>
                                <path d="M51.076,18 C51.076,18.552 50.629,19 50.076,19 C49.524,19 49.076,18.552 49.076,18 C49.076,17.448 49.524,17 50.076,17 C50.629,17 51.076,17.448 51.076,18" id="Fill-291" fill="#000000"></path>
                                <path d="M54.076,15 C54.076,15.552 53.629,16 53.076,16 C52.524,16 52.076,15.552 52.076,15 C52.076,14.448 52.524,14 53.076,14 C53.629,14 54.076,14.448 54.076,15" id="Fill-292" fill="#000000"></path>
                                <path d="M54.076,21 C54.076,21.552 53.629,22 53.076,22 C52.524,22 52.076,21.552 52.076,21 C52.076,20.448 52.524,20 53.076,20 C53.629,20 54.076,20.448 54.076,21" id="Fill-293" fill="#000000"></path>
                                <path d="M36.076,15 C36.076,15.552 35.629,16 35.076,16 C34.524,16 34.076,15.552 34.076,15 C34.076,14.448 34.524,14 35.076,14 C35.629,14 36.076,14.448 36.076,15" id="Fill-294" fill="#000000"></path>
                                <path d="M36.076,21 C36.076,21.552 35.629,22 35.076,22 C34.524,22 34.076,21.552 34.076,21 C34.076,20.448 34.524,20 35.076,20 C35.629,20 36.076,20.448 36.076,21" id="Fill-295" fill="#000000"></path>
                                <path d="M39.076,18 C39.076,18.552 38.629,19 38.076,19 C37.524,19 37.076,18.552 37.076,18 C37.076,17.448 37.524,17 38.076,17 C38.629,17 39.076,17.448 39.076,18" id="Fill-296" fill="#000000"></path>
                                <path d="M45.076,18 C45.076,18.552 44.629,19 44.076,19 C43.524,19 43.076,18.552 43.076,18 C43.076,17.448 43.524,17 44.076,17 C44.629,17 45.076,17.448 45.076,18" id="Fill-297" fill="#000000"></path>
                                <path d="M42.076,15 C42.076,15.552 41.629,16 41.076,16 C40.524,16 40.076,15.552 40.076,15 C40.076,14.448 40.524,14 41.076,14 C41.629,14 42.076,14.448 42.076,15" id="Fill-298" fill="#000000"></path>
                                <path d="M48.076,15 C48.076,15.552 47.629,16 47.076,16 C46.524,16 46.076,15.552 46.076,15 C46.076,14.448 46.524,14 47.076,14 C47.629,14 48.076,14.448 48.076,15" id="Fill-299" fill="#000000"></path>
                                <path d="M42.076,21 C42.076,21.552 41.629,22 41.076,22 C40.524,22 40.076,21.552 40.076,21 C40.076,20.448 40.524,20 41.076,20 C41.629,20 42.076,20.448 42.076,21" id="Fill-300" fill="#000000"></path>
                                <path d="M48.076,21 C48.076,21.552 47.629,22 47.076,22 C46.524,22 46.076,21.552 46.076,21 C46.076,20.448 46.524,20 47.076,20 C47.629,20 48.076,20.448 48.076,21" id="Fill-301" fill="#000000"></path>
                                <path d="M57.076,24 C57.076,24.552 56.629,25 56.076,25 C55.524,25 55.076,24.552 55.076,24 C55.076,23.448 55.524,23 56.076,23 C56.629,23 57.076,23.448 57.076,24" id="Fill-302" fill="#000000"></path>
                                <path d="M51.076,24 C51.076,24.552 50.629,25 50.076,25 C49.524,25 49.076,24.552 49.076,24 C49.076,23.448 49.524,23 50.076,23 C50.629,23 51.076,23.448 51.076,24" id="Fill-303" fill="#000000"></path>
                                <path d="M39.076,24 C39.076,24.552 38.629,25 38.076,25 C37.524,25 37.076,24.552 37.076,24 C37.076,23.448 37.524,23 38.076,23 C38.629,23 39.076,23.448 39.076,24" id="Fill-304" fill="#000000"></path>
                                <path d="M45.076,24 C45.076,24.552 44.629,25 44.076,25 C43.524,25 43.076,24.552 43.076,24 C43.076,23.448 43.524,23 44.076,23 C44.629,23 45.076,23.448 45.076,24" id="Fill-305" fill="#000000"></path>
                                <path d="M28,28.172 L28,0.076 C12.918,1.105 1,13.657 1,29 C1,36.288 3.695,42.943 8.134,48.038 L28,28.172 L28,28.172 Z" id="Stroke-311" stroke="#000000"></path>
                                <path d="M29.414,32.414 L10.962,50.866 C16.057,55.305 22.712,58 30,58 C36.99,58 43.396,55.521 48.401,51.401 L29.414,32.414 L29.414,32.414 Z" id="Stroke-313" stroke="#000000"></path>
                                <path d="M43.243,46.243 L31.529,57.956" id="Stroke-557" stroke="#000000"></path>
                                <path d="M38.381,56.761 L46.071,49.071" id="Stroke-559" stroke="#000000"></path>
                                <path d="M26.093,57.736 L40.414,43.414" id="Stroke-561" stroke="#000000"></path>
                                <path d="M37.586,40.586 L21.46,56.712" id="Stroke-563" stroke="#000000"></path>
                                <path d="M17.397,55.117 L34.757,37.757" id="Stroke-565" stroke="#000000"></path>
                                <path d="M31.929,34.929 L13.809,53.049" id="Stroke-567" stroke="#000000"></path>
                            </g>
                            <g id="148---Rich-(Outline)" transform="translate(376.484128, 378.381976) rotate(-13.000000) translate(-376.484128, -378.381976) translate(336.484128, 337.381976)">
                                <path d="M65.1412528,57.3696552 C58.4009138,57.3696552 52.9378629,56.1931034 52.9378629,54.7434483 L52.9378629,60.262069 C52.9419307,61.7117241 58.4036257,62.8868966 65.1412528,62.8868966 C71.8788799,62.8868966 77.3405748,61.7117241 77.3446426,60.262069 L77.3446426,54.7434483 C77.3446426,56.1931034 71.8815918,57.3696552 65.1412528,57.3696552 L65.1412528,57.3696552 Z" id="Stroke-10" stroke="#000000" stroke-linecap="round"></path>
                                <path d="M52.9378629,54.7406897 L52.9378629,54.7434483 L52.9378629,54.7406897 L52.9378629,54.7406897 Z" id="Stroke-12" stroke="#000000" stroke-linecap="round"></path>
                                <path d="M77.3446426,54.7406897 L77.3446426,54.7434483 L77.3446426,54.7406897 L77.3446426,54.7406897 Z" id="Stroke-14" stroke="#000000" stroke-linecap="round"></path>
                                <path d="M77.3446426,49.2262069 C77.3446426,50.6758621 71.8815918,51.8524138 65.1412528,51.8524138 C58.4009138,51.8524138 52.9378629,50.6758621 52.9378629,49.2262069 C52.9378629,47.7751724 58.4009138,44.9558621 65.1412528,44.9558621 C71.8815918,44.9558621 77.3446426,47.7751724 77.3446426,49.2262069 L77.3446426,49.2262069 Z" id="Stroke-16" stroke="#000000" stroke-linecap="round"></path>
                                <path d="M65.1412528,51.8524138 C58.4009138,51.8524138 52.9378629,50.6758621 52.9378629,49.2262069 L52.9378629,54.7448276 C52.9419307,56.1944828 58.4036257,57.3696552 65.1412528,57.3696552 C71.8788799,57.3696552 77.3405748,56.1944828 77.3446426,54.7448276 L77.3446426,49.2262069 C77.3446426,50.6758621 71.8815918,51.8524138 65.1412528,51.8524138 L65.1412528,51.8524138 Z" id="Stroke-18" stroke="#000000" stroke-linecap="round"></path>
                                <path d="M52.9378629,49.2234483 L52.9378629,49.2262069 L52.9378629,49.2234483 L52.9378629,49.2234483 Z" id="Stroke-20" stroke="#000000" stroke-linecap="round"></path>
                                <path d="M77.3446426,49.2234483 L77.3446426,49.2262069 L77.3446426,49.2234483 L77.3446426,49.2234483 Z" id="Stroke-22" stroke="#000000" stroke-linecap="round"></path>
                                <path d="M24.4632867,22 L40.7344731,22" id="Stroke-62" stroke="#000000" stroke-linecap="round"></path>
                                <path d="M24.4632867,16 L40.7344731,16" id="Stroke-64" stroke="#000000" stroke-linecap="round"></path>
                                <path d="M29.9426087,1.80689655 C27.057185,-0.540689655 23.6022697,-0.245517241 20.7778629,0.704827586 C18.8185409,1.36413793 18.4131172,3.91586207 19.9887104,5.27172414 C21.6104053,6.66896552 23.9805748,10.5848276 24.4632867,12.0055172 C24.8226087,13.0648276 25.7812528,13.7931034 26.8836257,13.7931034 L36.9595579,13.7931034 C38.0605748,13.7931034 39.0192189,13.0648276 39.3785409,12.0055172 C39.8612528,10.5848276 41.6239646,6.66896552 43.2456595,5.27172414 C44.8198968,3.91586207 44.415829,1.36413793 42.4551511,0.704827586 C39.6307443,-0.245517241 36.177185,-0.540689655 33.2904053,1.80689655 C32.3005748,2.61241379 30.9324392,2.61241379 29.9426087,1.80689655 L29.9426087,1.80689655 Z" id="Stroke-66" stroke="#000000" stroke-linecap="round"></path>
                                <path d="M40,17.9310345 L40,22.0689655" id="Stroke-68" stroke="#000000" stroke-linecap="round"></path>
                                <path d="M41.1087104,22.0689655 C43.2280324,24.2248276 46.6585409,24.2248276 48.7792189,22.0689655" id="Stroke-70" stroke="#000000" stroke-linecap="round"></path>
                                <path d="M65.1412528,73.9213793 C62.4117612,73.9213793 59.9019307,73.7255172 57.8693884,73.4 C57.2456595,75.2993103 56.0578629,76.9310345 54.5093884,78.097931 C56.6015918,78.897931 60.575829,79.4386207 65.1412528,79.4386207 C71.8788799,79.4386207 77.3405748,78.2634483 77.3446426,76.8137931 L77.3446426,71.2951724 C77.3446426,72.7448276 71.8815918,73.9213793 65.1412528,73.9213793 L65.1412528,73.9213793 Z" id="Stroke-74" stroke="#000000" stroke-linecap="round"></path>
                                <path d="M65.1412528,62.8868966 C58.4009138,62.8868966 52.9378629,61.7103448 52.9378629,60.2606897 L52.9378629,61.6317241 C55.4409138,62.8427586 57.3337951,65.1310345 58.0456595,67.9117241 C60.0456595,68.2193103 62.4917612,68.4027586 65.1412528,68.4027586 C71.8788799,68.4027586 77.3405748,67.2289655 77.3446426,65.7793103 L77.3446426,60.2606897 C77.3446426,61.7103448 71.8815918,62.8868966 65.1412528,62.8868966 L65.1412528,62.8868966 Z" id="Stroke-76" stroke="#000000" stroke-linecap="round"></path>
                                <path d="M65.1412528,68.4027586 C62.4917612,68.4027586 60.0456595,68.2193103 58.0456595,67.9117241 C58.2449816,68.6896552 58.3615918,69.502069 58.3615918,70.3448276 C58.3615918,71.4137931 58.1839646,72.4386207 57.8693884,73.4 C59.9005748,73.7255172 62.4117612,73.9213793 65.1412528,73.9213793 C71.8788799,73.9213793 77.3405748,72.7462069 77.3446426,71.2965517 L77.3446426,65.777931 C77.3446426,67.2275862 71.8815918,68.4027586 65.1412528,68.4027586 L65.1412528,68.4027586 Z" id="Stroke-78" stroke="#000000" stroke-linecap="round"></path>
                                <path d="M39.4937951,68.8344828 C40.0876934,64.9227586 43.0978629,61.697931 46.9080324,60.8965517 C49.0937951,60.4358621 51.1615918,60.7710345 52.9378629,61.6317241 L52.9378629,49.2262069 C52.9378629,48.057931 56.4863375,46.0027586 61.3880324,45.2468966 C59.6795579,41.5062069 57.1032867,38.12 53.7188799,35.48 L43.8910833,28.6841379 C42.0863375,27.2772414 39.876168,26.2068966 37.6022697,26.2068966 L27.057185,26.2068966 C24.7412528,26.2068966 22.4917612,26.9986207 20.6693884,28.4551724 L11.1127782,35.5365517 C1.71210023,43.0551724 -1.45264554,56.3158621 3.95616802,67.1641379 C6.21243921,71.6896552 9.33650701,75.0124138 13.0070155,75.2648276 C13.3459985,75.2882759 13.6863375,75.3006897 14.0307443,75.3006897 L40.7344731,75.3006897 C39.6456595,73.4537931 39.1317612,71.217931 39.4937951,68.8344828 L39.4937951,68.8344828 Z" id="Stroke-80" stroke="#000000"></path>
                                <path d="M58.3615918,70.3448276 C58.3615918,75.6772414 54.1121002,80 48.8700663,80 C43.6280324,80 39.3785409,75.6772414 39.3785409,70.3448276 C39.3785409,65.0124138 43.6280324,60.6896552 48.8700663,60.6896552 C54.1121002,60.6896552 58.3615918,65.0124138 58.3615918,70.3448276 L58.3615918,70.3448276 Z" id="Stroke-82" stroke="#000000"></path>
                                <path d="M10.9039646,55.1724138 C10.9039646,46.7862069 20.2870155,35.862069 28.5310833,35.862069" id="Stroke-86" stroke="#000000" stroke-linecap="round"></path>
                            </g>
                            <g id="79---Call-to-Action-(Outline)" transform="translate(294.996848, 652.503836) rotate(26.000000) translate(-294.996848, -652.503836) translate(236.496848, 594.003836)" stroke-linejoin="round">
                                <polygon id="Path" stroke="#000000" points="0 5.68434189e-13 116 5.68434189e-13 116 116 0 116"></polygon>
                                <path d="M18,12 C18,15.314 15.314,18 12,18 C8.686,18 6,15.314 6,12 C6,8.686 8.686,6 12,6 C15.314,6 18,8.686 18,12 L18,12 Z" id="Path" stroke="#000000"></path>
                                <path d="M36,12 C36,15.314 33.314,18 30,18 C26.686,18 24,15.314 24,12 C24,8.686 26.686,6 30,6 C33.314,6 36,8.686 36,12 L36,12 Z" id="Path" stroke="#000000"></path>
                                <polygon id="Path" stroke="#000000" points="0 5.68434189e-13 116 5.68434189e-13 116 24 0 24"></polygon>
                            </g>
                            <g id="48---Protected-System-(Outline)" transform="translate(42.051583, 244.473465) rotate(24.000000) translate(-42.051583, -244.473465) translate(13.551583, 206.973465)" stroke-linejoin="round">
                                <path d="M28.9084702,0.634283413 C28.9084702,0.634283413 20.4509352,10.782818 1,10.782818 L1,34.9934159 C1,47.6359529 6.49035723,59.8281487 16.4308469,67.6399832 C19.9498513,70.4054589 24.0980648,72.7840217 28.9084702,74.2111594 C33.7188756,72.7840217 37.8683577,70.4054589 41.3860935,67.6399832 C51.3265831,59.8281487 56.8169404,47.6359529 56.8169404,34.9934159 L56.8169404,10.782818 C37.3660052,10.782818 28.9084702,0.634283413 28.9084702,0.634283413 L28.9084702,0.634283413 Z" id="Stroke-12" stroke="#000000"></path>
                                <path d="M28.9084702,66.1697142 C26.2153028,65.1129981 23.608398,63.6008664 21.1346927,61.6561535 C13.2924126,55.4934558 8.61140096,45.5263263 8.61140096,34.9934159 L8.61140096,17.9223121 C17.9873784,16.7273222 24.6448171,13.4645683 28.9084702,10.5684302 C33.1721233,13.4645683 39.829562,16.7273222 49.2055394,17.9223121 L49.2055394,34.9934159 C49.2055394,45.5263263 44.5245278,55.4934558 36.6835163,61.6561535 C34.2085424,63.6008664 31.6016376,65.1129981 28.9084702,66.1697142 L28.9084702,66.1697142 Z" id="Stroke-14" stroke="#000000"></path>
                                <polyline id="Stroke-18" stroke="#231F1F" stroke-linecap="round" points="44.1312721 27.2741868 26.3713365 47.571256 16.2228019 37.4227214"></polyline>
                            </g>
                            <g id="43---Laptop-Encryption-(Outline)" transform="translate(391.313127, 223.521555) rotate(19.000000) translate(-391.313127, -223.521555) translate(303.813127, 154.021555)" stroke-linecap="round">
                                <path d="M104.721,126 C104.1,127.74 102.447,129 100.5,129 L76.5,129 C74.553,129 72.903,127.74 72.279,126 L1.734,126 C0.777,126 1.13686838e-12,126.777 1.13686838e-12,127.734 L1.13686838e-12,136.266 C1.13686838e-12,137.223 0.777,138 1.734,138 L172.266,138 C173.223,138 174,137.223 174,136.266 L174,127.734 C174,126.777 173.223,126 172.266,126 L104.721,126 L104.721,126 Z" id="Stroke-65" stroke="#000000"></path>
                                <path d="M72.279,126 C72.903,127.74 74.553,129 76.5,129 L100.5,129 C102.447,129 104.1,127.74 104.721,126 L165,126 L165,9.201 C165,4.119 160.881,1.70530257e-13 155.799,1.70530257e-13 L18.201,1.70530257e-13 C13.119,1.70530257e-13 9,4.119 9,9.201 L9,126 L72.279,126 L72.279,126 Z" id="Stroke-67" stroke="#000000"></path>
                                <polygon id="Stroke-69" stroke="#000000" points="18 9 156 9 156 117 18 117"></polygon>
                                <polygon id="Stroke-81" stroke="#231F1F" stroke-linejoin="round" points="63 57 108 57 108 93 63 93"></polygon>
                                <path d="M72,57 L72,46.5 C72,39.075 78.075,33 85.5,33 C92.925,33 99,39.075 99,46.5 L99,57 L72,57 L72,57 Z" id="Stroke-83" stroke="#231F1F" stroke-linejoin="round"></path>
                            </g>
                            <g id="93---Graph-(Outline)" transform="translate(188.000000, 224.000000) rotate(-19.000000) translate(-188.000000, -224.000000) translate(159.000000, 195.000000)" stroke-linecap="round">
                                <path d="M2,0 L2,58" id="Stroke-515" stroke="#000000"></path>
                                <path d="M0,56 L58,56" id="Stroke-517" stroke="#000000"></path>
                                <path d="M6,27 L8,27" id="Stroke-519" stroke="#000000"></path>
                                <path d="M6,23 L8,23" id="Stroke-521" stroke="#000000"></path>
                                <path d="M6,19 L8,19" id="Stroke-523" stroke="#000000"></path>
                                <path d="M6,15 L8,15" id="Stroke-525" stroke="#000000"></path>
                                <path d="M6,11 L8,11" id="Stroke-527" stroke="#000000"></path>
                                <path d="M6,7 L8,7" id="Stroke-529" stroke="#000000"></path>
                                <path d="M6,3 L8,3" id="Stroke-531" stroke="#000000"></path>
                                <path d="M15.012,41.988 C15.012,44.749 12.774,46.987 10.012,46.987 C7.251,46.987 5.012,44.749 5.012,41.988 C5.012,39.226 7.251,36.988 10.012,36.988 C12.774,36.988 15.012,39.226 15.012,41.988 L15.012,41.988 Z" id="Stroke-655" stroke="#000000"></path>
                                <path d="M27,30 C27,32.761 24.761,35 22,35 C19.239,35 17,32.761 17,30 C17,27.239 19.239,25 22,25 C24.761,25 27,27.239 27,30 L27,30 Z" id="Stroke-657" stroke="#000000"></path>
                                <path d="M58,27 C58,29.761 55.761,32 53,32 C50.239,32 48,29.761 48,27 C48,24.239 50.239,22 53,22 C55.761,22 58,24.239 58,27 L58,27 Z" id="Stroke-659" stroke="#000000"></path>
                                <path d="M40,43 C40,45.761 37.761,48 35,48 C32.239,48 30,45.761 30,43 C30,40.239 32.239,38 35,38 C37.761,38 40,40.239 40,43 L40,43 Z" id="Stroke-661" stroke="#000000"></path>
                                <path d="M18.012,32.988 L13,38" id="Stroke-663" stroke="#000000"></path>
                                <path d="M32.012,39.012 L25.988,32.988" id="Stroke-665" stroke="#000000"></path>
                                <path d="M39,40 L49,30" id="Stroke-667" stroke="#000000"></path>
                            </g>
                        </g>
                    </g>
                    <g id="2-copy" mask="url(#mask-2)" opacity="0.1">
                        <g transform="translate(506.000000, 226.000000) scale(-1, 1) translate(-506.000000, -226.000000) translate(223.000000, -133.000000)">
                            <g id="46---Resumee-(Outline)" transform="translate(501.556455, 485.570556) scale(-1, 1) rotate(-12.000000) translate(-501.556455, -485.570556) translate(450.415943, 418.905246)">
                                <polygon id="Path" stroke="#1A1718" stroke-linejoin="round" points="101.338918 33.3541103 69.8112547 1.82644685 0 1.82644685 0 132.441052 101.338918 132.441052"></polygon>
                                <polygon id="Path" stroke="#1A1718" stroke-linejoin="round" points="69.8112547 1.82644685 69.8112547 33.3541103 101.338918 33.3541103"></polygon>
                                <path d="M22.5197596,80.3636613 L60.8033509,80.3636613" id="Path" stroke="#000000" stroke-linecap="round" stroke-linejoin="round"></path>
                                <path d="M67.5592788,67.5785334 L83.3231105,67.5785334" id="Path" stroke="#000000" stroke-linecap="round" stroke-linejoin="round"></path>
                                <path d="M33.7796394,67.5785334 L56.299399,67.5785334" id="Path" stroke="#000000" stroke-linecap="round" stroke-linejoin="round"></path>
                                <path d="M34.9619268,90.0273372 C28.5550552,93.3602617 27.6632727,100.638648 27.442579,107.142355 C28.7239533,106.610888 30.0053277,106.079422 31.286702,105.547956 C29.1811045,103.784658 27.0755069,102.021361 24.9676575,100.255812 C22.758469,98.4046878 19.5539072,101.573218 21.7833634,103.440106 C23.8912129,105.203403 25.9968105,106.968952 28.102408,108.734502 C29.5932161,109.982096 31.8767197,109.209668 31.9465309,107.142355 C32.1109252,102.262323 32.3473827,96.4612325 37.2341705,93.9164997 C39.812683,92.574322 37.5336833,88.6874115 34.9619268,90.0273372" id="Fill-101" fill="#000000"></path>
                                <path d="M37.6102505,102.751001 C42.3439039,107.896766 48.6224129,105.491656 53.7771859,102.329882 C52.7502848,102.059645 51.7233838,101.79166 50.6964828,101.521423 C51.9440775,103.741871 53.484429,104.881371 55.8580117,105.737122 C57.9050578,106.47577 65.0618374,102.989711 65.6135715,103.748627 C67.3093094,106.068162 71.2209917,103.825194 69.504986,101.474131 C68.5501482,100.170237 67.5682867,99.0825326 65.8275092,98.949666 C62.5463803,98.7042006 56.9141884,103.397318 54.5856453,99.2491788 C53.9956276,98.195254 52.5385991,97.8056622 51.5049421,98.4407194 C48.3161442,100.397687 44.1477367,103.210404 40.7945445,99.5667074 C38.8240655,97.4228263 35.6465274,100.616128 37.6102505,102.751001" id="Fill-102" fill="#000000"></path>
                                <path d="M44.122965,49.3251238 L38.4682533,46.4358386 C38.0809135,46.2399167 37.8377001,45.841317 37.8377001,45.4089376 L37.8377001,43.6771681 C40.7404971,42.4273214 42.4092112,39.9974393 43.2199226,36.9595238 C44.4449975,36.5789398 45.3457879,35.4484479 45.3457879,34.1040183 L45.3457879,32.6019503 C45.3457879,31.4534426 44.683707,30.4603212 43.7266172,29.9558785 C43.0667882,24.3101748 39.3330121,22.0244192 33.3337481,22.0244192 C33.0499992,22.0244192 32.7730061,22.0356791 32.4982651,22.0581989 C30.4602268,22.2203411 28.3974168,21.8352532 26.7016789,20.6935014 C25.9968105,20.2183345 25.4022888,19.7138919 24.9856733,19.1846775 C24.7942553,18.9437161 24.4136714,19.0968505 24.449703,19.4031192 C24.5105063,19.9278296 24.5983334,20.5403671 24.7312,21.2092039 C25.2288867,23.7021413 24.9316258,23.3373212 23.9677801,25.6883841 C23.4340618,26.9900262 23.0917615,28.4335428 22.9318712,29.9626345 C21.9815373,30.4670771 21.3239603,31.4579465 21.3239603,32.6019503 L21.3239603,34.1040183 C21.3239603,35.4484479 22.2247507,36.5789398 23.4498257,36.9595238 C24.260537,39.9974393 25.9292512,42.4273214 28.8297962,43.6771681 L28.8297962,45.3954257 C28.8297962,45.836813 28.5820789,46.2376647 28.1857311,46.4313347 L22.389145,49.2868402 C21.4095354,49.8228104 20.697911,50.6808133 20.2677836,51.6716827 C23.9542683,54.3064946 28.4582202,55.8738698 33.3337481,55.8738698 C38.1935123,55.8738698 42.6794484,54.3200064 46.3591771,51.7032104 C45.899774,50.6988291 45.147614,49.8385743 44.122965,49.3251238 L44.122965,49.3251238 Z" id="Stroke-105" stroke="#000000" stroke-linecap="round" stroke-linejoin="round"></path>
                            </g>
                            <g id="99---Pie-Chart-(Outline)" transform="translate(231.472966, 511.826249) rotate(19.000000) translate(-231.472966, -511.826249) translate(201.972966, 482.326249)">
                                <path d="M32,27 L58.924,27 C57.94,12.579 46.421,1.06 32,0.076 L32,27 L32,27 Z" id="Stroke-273" stroke="#000000"></path>
                                <path d="M51.386,48.653 C55.729,43.943 58.537,37.795 59,31 L33.733,31 L51.386,48.653 L51.386,48.653 Z" id="Stroke-275" stroke="#000000"></path>
                                <path d="M36.076,3 C36.076,3.552 35.629,4 35.076,4 C34.524,4 34.076,3.552 34.076,3 C34.076,2.448 34.524,2 35.076,2 C35.629,2 36.076,2.448 36.076,3" id="Fill-280" fill="#000000"></path>
                                <path d="M36.076,9 C36.076,9.552 35.629,10 35.076,10 C34.524,10 34.076,9.552 34.076,9 C34.076,8.448 34.524,8 35.076,8 C35.629,8 36.076,8.448 36.076,9" id="Fill-281" fill="#000000"></path>
                                <path d="M39.076,6 C39.076,6.552 38.629,7 38.076,7 C37.524,7 37.076,6.552 37.076,6 C37.076,5.448 37.524,5 38.076,5 C38.629,5 39.076,5.448 39.076,6" id="Fill-282" fill="#000000"></path>
                                <path d="M45.076,6 C45.076,6.552 44.629,7 44.076,7 C43.524,7 43.076,6.552 43.076,6 C43.076,5.448 43.524,5 44.076,5 C44.629,5 45.076,5.448 45.076,6" id="Fill-283" fill="#000000"></path>
                                <path d="M42.076,3 C42.076,3.552 41.629,4 41.076,4 C40.524,4 40.076,3.552 40.076,3 C40.076,2.448 40.524,2 41.076,2 C41.629,2 42.076,2.448 42.076,3" id="Fill-284" fill="#000000"></path>
                                <path d="M42.076,9 C42.076,9.552 41.629,10 41.076,10 C40.524,10 40.076,9.552 40.076,9 C40.076,8.448 40.524,8 41.076,8 C41.629,8 42.076,8.448 42.076,9" id="Fill-285" fill="#000000"></path>
                                <path d="M48.076,9 C48.076,9.552 47.629,10 47.076,10 C46.524,10 46.076,9.552 46.076,9 C46.076,8.448 46.524,8 47.076,8 C47.629,8 48.076,8.448 48.076,9" id="Fill-286" fill="#000000"></path>
                                <path d="M51.076,12 C51.076,12.552 50.629,13 50.076,13 C49.524,13 49.076,12.552 49.076,12 C49.076,11.448 49.524,11 50.076,11 C50.629,11 51.076,11.448 51.076,12" id="Fill-287" fill="#000000"></path>
                                <path d="M39.076,12 C39.076,12.552 38.629,13 38.076,13 C37.524,13 37.076,12.552 37.076,12 C37.076,11.448 37.524,11 38.076,11 C38.629,11 39.076,11.448 39.076,12" id="Fill-288" fill="#000000"></path>
                                <path d="M45.076,12 C45.076,12.552 44.629,13 44.076,13 C43.524,13 43.076,12.552 43.076,12 C43.076,11.448 43.524,11 44.076,11 C44.629,11 45.076,11.448 45.076,12" id="Fill-289" fill="#000000"></path>
                                <path d="M57.076,18 C57.076,18.552 56.629,19 56.076,19 C55.524,19 55.076,18.552 55.076,18 C55.076,17.448 55.524,17 56.076,17 C56.629,17 57.076,17.448 57.076,18" id="Fill-290" fill="#000000"></path>
                                <path d="M51.076,18 C51.076,18.552 50.629,19 50.076,19 C49.524,19 49.076,18.552 49.076,18 C49.076,17.448 49.524,17 50.076,17 C50.629,17 51.076,17.448 51.076,18" id="Fill-291" fill="#000000"></path>
                                <path d="M54.076,15 C54.076,15.552 53.629,16 53.076,16 C52.524,16 52.076,15.552 52.076,15 C52.076,14.448 52.524,14 53.076,14 C53.629,14 54.076,14.448 54.076,15" id="Fill-292" fill="#000000"></path>
                                <path d="M54.076,21 C54.076,21.552 53.629,22 53.076,22 C52.524,22 52.076,21.552 52.076,21 C52.076,20.448 52.524,20 53.076,20 C53.629,20 54.076,20.448 54.076,21" id="Fill-293" fill="#000000"></path>
                                <path d="M36.076,15 C36.076,15.552 35.629,16 35.076,16 C34.524,16 34.076,15.552 34.076,15 C34.076,14.448 34.524,14 35.076,14 C35.629,14 36.076,14.448 36.076,15" id="Fill-294" fill="#000000"></path>
                                <path d="M36.076,21 C36.076,21.552 35.629,22 35.076,22 C34.524,22 34.076,21.552 34.076,21 C34.076,20.448 34.524,20 35.076,20 C35.629,20 36.076,20.448 36.076,21" id="Fill-295" fill="#000000"></path>
                                <path d="M39.076,18 C39.076,18.552 38.629,19 38.076,19 C37.524,19 37.076,18.552 37.076,18 C37.076,17.448 37.524,17 38.076,17 C38.629,17 39.076,17.448 39.076,18" id="Fill-296" fill="#000000"></path>
                                <path d="M45.076,18 C45.076,18.552 44.629,19 44.076,19 C43.524,19 43.076,18.552 43.076,18 C43.076,17.448 43.524,17 44.076,17 C44.629,17 45.076,17.448 45.076,18" id="Fill-297" fill="#000000"></path>
                                <path d="M42.076,15 C42.076,15.552 41.629,16 41.076,16 C40.524,16 40.076,15.552 40.076,15 C40.076,14.448 40.524,14 41.076,14 C41.629,14 42.076,14.448 42.076,15" id="Fill-298" fill="#000000"></path>
                                <path d="M48.076,15 C48.076,15.552 47.629,16 47.076,16 C46.524,16 46.076,15.552 46.076,15 C46.076,14.448 46.524,14 47.076,14 C47.629,14 48.076,14.448 48.076,15" id="Fill-299" fill="#000000"></path>
                                <path d="M42.076,21 C42.076,21.552 41.629,22 41.076,22 C40.524,22 40.076,21.552 40.076,21 C40.076,20.448 40.524,20 41.076,20 C41.629,20 42.076,20.448 42.076,21" id="Fill-300" fill="#000000"></path>
                                <path d="M48.076,21 C48.076,21.552 47.629,22 47.076,22 C46.524,22 46.076,21.552 46.076,21 C46.076,20.448 46.524,20 47.076,20 C47.629,20 48.076,20.448 48.076,21" id="Fill-301" fill="#000000"></path>
                                <path d="M57.076,24 C57.076,24.552 56.629,25 56.076,25 C55.524,25 55.076,24.552 55.076,24 C55.076,23.448 55.524,23 56.076,23 C56.629,23 57.076,23.448 57.076,24" id="Fill-302" fill="#000000"></path>
                                <path d="M51.076,24 C51.076,24.552 50.629,25 50.076,25 C49.524,25 49.076,24.552 49.076,24 C49.076,23.448 49.524,23 50.076,23 C50.629,23 51.076,23.448 51.076,24" id="Fill-303" fill="#000000"></path>
                                <path d="M39.076,24 C39.076,24.552 38.629,25 38.076,25 C37.524,25 37.076,24.552 37.076,24 C37.076,23.448 37.524,23 38.076,23 C38.629,23 39.076,23.448 39.076,24" id="Fill-304" fill="#000000"></path>
                                <path d="M45.076,24 C45.076,24.552 44.629,25 44.076,25 C43.524,25 43.076,24.552 43.076,24 C43.076,23.448 43.524,23 44.076,23 C44.629,23 45.076,23.448 45.076,24" id="Fill-305" fill="#000000"></path>
                                <path d="M28,28.172 L28,0.076 C12.918,1.105 1,13.657 1,29 C1,36.288 3.695,42.943 8.134,48.038 L28,28.172 L28,28.172 Z" id="Stroke-311" stroke="#000000"></path>
                                <path d="M29.414,32.414 L10.962,50.866 C16.057,55.305 22.712,58 30,58 C36.99,58 43.396,55.521 48.401,51.401 L29.414,32.414 L29.414,32.414 Z" id="Stroke-313" stroke="#000000"></path>
                                <path d="M43.243,46.243 L31.529,57.956" id="Stroke-557" stroke="#000000"></path>
                                <path d="M38.381,56.761 L46.071,49.071" id="Stroke-559" stroke="#000000"></path>
                                <path d="M26.093,57.736 L40.414,43.414" id="Stroke-561" stroke="#000000"></path>
                                <path d="M37.586,40.586 L21.46,56.712" id="Stroke-563" stroke="#000000"></path>
                                <path d="M17.397,55.117 L34.757,37.757" id="Stroke-565" stroke="#000000"></path>
                                <path d="M31.929,34.929 L13.809,53.049" id="Stroke-567" stroke="#000000"></path>
                            </g>
                            <g id="148---Rich-(Outline)" transform="translate(346.484128, 425.381976) rotate(-13.000000) translate(-346.484128, -425.381976) translate(306.484128, 384.381976)">
                                <path d="M65.1412528,57.3696552 C58.4009138,57.3696552 52.9378629,56.1931034 52.9378629,54.7434483 L52.9378629,60.262069 C52.9419307,61.7117241 58.4036257,62.8868966 65.1412528,62.8868966 C71.8788799,62.8868966 77.3405748,61.7117241 77.3446426,60.262069 L77.3446426,54.7434483 C77.3446426,56.1931034 71.8815918,57.3696552 65.1412528,57.3696552 L65.1412528,57.3696552 Z" id="Stroke-10" stroke="#000000" stroke-linecap="round"></path>
                                <path d="M52.9378629,54.7406897 L52.9378629,54.7434483 L52.9378629,54.7406897 L52.9378629,54.7406897 Z" id="Stroke-12" stroke="#000000" stroke-linecap="round"></path>
                                <path d="M77.3446426,54.7406897 L77.3446426,54.7434483 L77.3446426,54.7406897 L77.3446426,54.7406897 Z" id="Stroke-14" stroke="#000000" stroke-linecap="round"></path>
                                <path d="M77.3446426,49.2262069 C77.3446426,50.6758621 71.8815918,51.8524138 65.1412528,51.8524138 C58.4009138,51.8524138 52.9378629,50.6758621 52.9378629,49.2262069 C52.9378629,47.7751724 58.4009138,44.9558621 65.1412528,44.9558621 C71.8815918,44.9558621 77.3446426,47.7751724 77.3446426,49.2262069 L77.3446426,49.2262069 Z" id="Stroke-16" stroke="#000000" stroke-linecap="round"></path>
                                <path d="M65.1412528,51.8524138 C58.4009138,51.8524138 52.9378629,50.6758621 52.9378629,49.2262069 L52.9378629,54.7448276 C52.9419307,56.1944828 58.4036257,57.3696552 65.1412528,57.3696552 C71.8788799,57.3696552 77.3405748,56.1944828 77.3446426,54.7448276 L77.3446426,49.2262069 C77.3446426,50.6758621 71.8815918,51.8524138 65.1412528,51.8524138 L65.1412528,51.8524138 Z" id="Stroke-18" stroke="#000000" stroke-linecap="round"></path>
                                <path d="M52.9378629,49.2234483 L52.9378629,49.2262069 L52.9378629,49.2234483 L52.9378629,49.2234483 Z" id="Stroke-20" stroke="#000000" stroke-linecap="round"></path>
                                <path d="M77.3446426,49.2234483 L77.3446426,49.2262069 L77.3446426,49.2234483 L77.3446426,49.2234483 Z" id="Stroke-22" stroke="#000000" stroke-linecap="round"></path>
                                <path d="M24.4632867,22 L40.7344731,22" id="Stroke-62" stroke="#000000" stroke-linecap="round"></path>
                                <path d="M24.4632867,16 L40.7344731,16" id="Stroke-64" stroke="#000000" stroke-linecap="round"></path>
                                <path d="M29.9426087,1.80689655 C27.057185,-0.540689655 23.6022697,-0.245517241 20.7778629,0.704827586 C18.8185409,1.36413793 18.4131172,3.91586207 19.9887104,5.27172414 C21.6104053,6.66896552 23.9805748,10.5848276 24.4632867,12.0055172 C24.8226087,13.0648276 25.7812528,13.7931034 26.8836257,13.7931034 L36.9595579,13.7931034 C38.0605748,13.7931034 39.0192189,13.0648276 39.3785409,12.0055172 C39.8612528,10.5848276 41.6239646,6.66896552 43.2456595,5.27172414 C44.8198968,3.91586207 44.415829,1.36413793 42.4551511,0.704827586 C39.6307443,-0.245517241 36.177185,-0.540689655 33.2904053,1.80689655 C32.3005748,2.61241379 30.9324392,2.61241379 29.9426087,1.80689655 L29.9426087,1.80689655 Z" id="Stroke-66" stroke="#000000" stroke-linecap="round"></path>
                                <path d="M40,17.9310345 L40,22.0689655" id="Stroke-68" stroke="#000000" stroke-linecap="round"></path>
                                <path d="M41.1087104,22.0689655 C43.2280324,24.2248276 46.6585409,24.2248276 48.7792189,22.0689655" id="Stroke-70" stroke="#000000" stroke-linecap="round"></path>
                                <path d="M65.1412528,73.9213793 C62.4117612,73.9213793 59.9019307,73.7255172 57.8693884,73.4 C57.2456595,75.2993103 56.0578629,76.9310345 54.5093884,78.097931 C56.6015918,78.897931 60.575829,79.4386207 65.1412528,79.4386207 C71.8788799,79.4386207 77.3405748,78.2634483 77.3446426,76.8137931 L77.3446426,71.2951724 C77.3446426,72.7448276 71.8815918,73.9213793 65.1412528,73.9213793 L65.1412528,73.9213793 Z" id="Stroke-74" stroke="#000000" stroke-linecap="round"></path>
                                <path d="M65.1412528,62.8868966 C58.4009138,62.8868966 52.9378629,61.7103448 52.9378629,60.2606897 L52.9378629,61.6317241 C55.4409138,62.8427586 57.3337951,65.1310345 58.0456595,67.9117241 C60.0456595,68.2193103 62.4917612,68.4027586 65.1412528,68.4027586 C71.8788799,68.4027586 77.3405748,67.2289655 77.3446426,65.7793103 L77.3446426,60.2606897 C77.3446426,61.7103448 71.8815918,62.8868966 65.1412528,62.8868966 L65.1412528,62.8868966 Z" id="Stroke-76" stroke="#000000" stroke-linecap="round"></path>
                                <path d="M65.1412528,68.4027586 C62.4917612,68.4027586 60.0456595,68.2193103 58.0456595,67.9117241 C58.2449816,68.6896552 58.3615918,69.502069 58.3615918,70.3448276 C58.3615918,71.4137931 58.1839646,72.4386207 57.8693884,73.4 C59.9005748,73.7255172 62.4117612,73.9213793 65.1412528,73.9213793 C71.8788799,73.9213793 77.3405748,72.7462069 77.3446426,71.2965517 L77.3446426,65.777931 C77.3446426,67.2275862 71.8815918,68.4027586 65.1412528,68.4027586 L65.1412528,68.4027586 Z" id="Stroke-78" stroke="#000000" stroke-linecap="round"></path>
                                <path d="M39.4937951,68.8344828 C40.0876934,64.9227586 43.0978629,61.697931 46.9080324,60.8965517 C49.0937951,60.4358621 51.1615918,60.7710345 52.9378629,61.6317241 L52.9378629,49.2262069 C52.9378629,48.057931 56.4863375,46.0027586 61.3880324,45.2468966 C59.6795579,41.5062069 57.1032867,38.12 53.7188799,35.48 L43.8910833,28.6841379 C42.0863375,27.2772414 39.876168,26.2068966 37.6022697,26.2068966 L27.057185,26.2068966 C24.7412528,26.2068966 22.4917612,26.9986207 20.6693884,28.4551724 L11.1127782,35.5365517 C1.71210023,43.0551724 -1.45264554,56.3158621 3.95616802,67.1641379 C6.21243921,71.6896552 9.33650701,75.0124138 13.0070155,75.2648276 C13.3459985,75.2882759 13.6863375,75.3006897 14.0307443,75.3006897 L40.7344731,75.3006897 C39.6456595,73.4537931 39.1317612,71.217931 39.4937951,68.8344828 L39.4937951,68.8344828 Z" id="Stroke-80" stroke="#000000"></path>
                                <path d="M58.3615918,70.3448276 C58.3615918,75.6772414 54.1121002,80 48.8700663,80 C43.6280324,80 39.3785409,75.6772414 39.3785409,70.3448276 C39.3785409,65.0124138 43.6280324,60.6896552 48.8700663,60.6896552 C54.1121002,60.6896552 58.3615918,65.0124138 58.3615918,70.3448276 L58.3615918,70.3448276 Z" id="Stroke-82" stroke="#000000"></path>
                                <path d="M10.9039646,55.1724138 C10.9039646,46.7862069 20.2870155,35.862069 28.5310833,35.862069" id="Stroke-86" stroke="#000000" stroke-linecap="round"></path>
                            </g>
                            <g id="79---Call-to-Action-(Outline)" transform="translate(359.448825, 639.635943) scale(-1, 1) rotate(26.000000) translate(-359.448825, -639.635943) translate(300.948825, 581.135943)" stroke-linejoin="round">
                                <polygon id="Path" stroke="#000000" points="0 5.68434189e-13 116 5.68434189e-13 116 116 0 116"></polygon>
                                <path d="M18,12 C18,15.314 15.314,18 12,18 C8.686,18 6,15.314 6,12 C6,8.686 8.686,6 12,6 C15.314,6 18,8.686 18,12 L18,12 Z" id="Path" stroke="#000000"></path>
                                <path d="M36,12 C36,15.314 33.314,18 30,18 C26.686,18 24,15.314 24,12 C24,8.686 26.686,6 30,6 C33.314,6 36,8.686 36,12 L36,12 Z" id="Path" stroke="#000000"></path>
                                <polygon id="Path" stroke="#000000" points="0 5.68434189e-13 116 5.68434189e-13 116 24 0 24"></polygon>
                            </g>
                            <g id="48---Protected-System-(Outline)" transform="translate(41.944188, 555.473465) scale(-1, 1) rotate(24.000000) translate(-41.944188, -555.473465) translate(13.444188, 517.973465)" stroke-linejoin="round">
                                <path d="M28.9084702,0.634283413 C28.9084702,0.634283413 20.4509352,10.782818 1,10.782818 L1,34.9934159 C1,47.6359529 6.49035723,59.8281487 16.4308469,67.6399832 C19.9498513,70.4054589 24.0980648,72.7840217 28.9084702,74.2111594 C33.7188756,72.7840217 37.8683577,70.4054589 41.3860935,67.6399832 C51.3265831,59.8281487 56.8169404,47.6359529 56.8169404,34.9934159 L56.8169404,10.782818 C37.3660052,10.782818 28.9084702,0.634283413 28.9084702,0.634283413 L28.9084702,0.634283413 Z" id="Stroke-12" stroke="#000000"></path>
                                <path d="M28.9084702,66.1697142 C26.2153028,65.1129981 23.608398,63.6008664 21.1346927,61.6561535 C13.2924126,55.4934558 8.61140096,45.5263263 8.61140096,34.9934159 L8.61140096,17.9223121 C17.9873784,16.7273222 24.6448171,13.4645683 28.9084702,10.5684302 C33.1721233,13.4645683 39.829562,16.7273222 49.2055394,17.9223121 L49.2055394,34.9934159 C49.2055394,45.5263263 44.5245278,55.4934558 36.6835163,61.6561535 C34.2085424,63.6008664 31.6016376,65.1129981 28.9084702,66.1697142 L28.9084702,66.1697142 Z" id="Stroke-14" stroke="#000000"></path>
                                <polyline id="Stroke-18" stroke="#231F1F" stroke-linecap="round" points="44.1312721 27.2741868 26.3713365 47.571256 16.2228019 37.4227214"></polyline>
                            </g>
                            <g id="43---Laptop-Encryption-(Outline)" transform="translate(332.313127, 216.521555) rotate(19.000000) translate(-332.313127, -216.521555) translate(244.813127, 147.021555)" stroke-linecap="round">
                                <path d="M104.721,126 C104.1,127.74 102.447,129 100.5,129 L76.5,129 C74.553,129 72.903,127.74 72.279,126 L1.734,126 C0.777,126 1.13686838e-12,126.777 1.13686838e-12,127.734 L1.13686838e-12,136.266 C1.13686838e-12,137.223 0.777,138 1.734,138 L172.266,138 C173.223,138 174,137.223 174,136.266 L174,127.734 C174,126.777 173.223,126 172.266,126 L104.721,126 L104.721,126 Z" id="Stroke-65" stroke="#000000"></path>
                                <path d="M72.279,126 C72.903,127.74 74.553,129 76.5,129 L100.5,129 C102.447,129 104.1,127.74 104.721,126 L165,126 L165,9.201 C165,4.119 160.881,1.70530257e-13 155.799,1.70530257e-13 L18.201,1.70530257e-13 C13.119,1.70530257e-13 9,4.119 9,9.201 L9,126 L72.279,126 L72.279,126 Z" id="Stroke-67" stroke="#000000"></path>
                                <polygon id="Stroke-69" stroke="#000000" points="18 9 156 9 156 117 18 117"></polygon>
                                <polygon id="Stroke-81" stroke="#231F1F" stroke-linejoin="round" points="63 57 108 57 108 93 63 93"></polygon>
                                <path d="M72,57 L72,46.5 C72,39.075 78.075,33 85.5,33 C92.925,33 99,39.075 99,46.5 L99,57 L72,57 L72,57 Z" id="Stroke-83" stroke="#231F1F" stroke-linejoin="round"></path>
                            </g>
                            <g id="93---Graph-(Outline)" transform="translate(166.000000, 620.000000) scale(-1, 1) rotate(-19.000000) translate(-166.000000, -620.000000) translate(137.000000, 591.000000)"></g>
                        </g>
                    </g>
                    <g id="1" mask="url(#mask-2)" opacity="0.1">
                        <g transform="translate(-22.000000, -148.000000)">
                            <g id="46---Resumee-(Outline)-Copy" transform="translate(57.075540, 283.532702) rotate(14.000000) translate(-57.075540, -283.532702) translate(29.075540, 247.032702)">
                                <polygon id="Path" stroke="#1A1718" stroke-linejoin="round" points="55.4841868 18.261747 38.2224398 1 0 1 0 72.5129519 55.4841868 72.5129519"></polygon>
                                <polygon id="Path" stroke="#1A1718" stroke-linejoin="round" points="38.2224398 1 38.2224398 18.261747 55.4841868 18.261747"></polygon>
                                <path d="M12.3298193,44 L33.2905121,44" id="Path" stroke="#000000" stroke-linecap="round" stroke-linejoin="round"></path>
                                <path d="M36.9894579,37 L45.6203314,37" id="Path" stroke="#000000" stroke-linecap="round" stroke-linejoin="round"></path>
                                <path d="M18.4947289,37 L30.8245482,37" id="Path" stroke="#000000" stroke-linecap="round" stroke-linejoin="round"></path>
                                <path d="M19.1420444,49.2909702 C15.6342109,51.1157835 15.14595,55.1007811 15.0251178,58.6616329 C15.7266845,58.3706491 16.4282512,58.0796654 17.1298179,57.7886817 C15.9769798,56.8232568 14.8241417,55.857832 13.6700706,54.8911741 C12.4605154,53.877663 10.7059821,55.6124686 11.9266342,56.6346106 C13.0807053,57.6000354 14.2335434,58.5666933 15.3863815,59.5333511 C16.2026155,60.2164231 17.4528592,59.7935103 17.4910816,58.6616329 C17.5810893,55.989761 17.7105524,52.8135996 20.3861232,51.42033 C21.7978875,50.6854728 20.5501098,48.557346 19.1420444,49.2909702" id="Fill-101" fill="#000000"></path>
                                <path d="M20.5920312,56.2573181 C23.1837592,59.0746818 26.6213128,57.7578571 29.4436085,56.0267505 C28.8813687,55.8787927 28.3191289,55.7320678 27.7568892,55.58411 C28.4399612,56.7998302 29.2833208,57.423719 30.5828838,57.8922522 C31.7036643,58.2966702 35.6220809,56.3880142 35.9241615,56.8035291 C36.8525969,58.0735005 38.9942865,56.8454505 38.0547542,55.5582174 C37.5319699,54.8443208 36.9943898,54.2487906 36.0412948,54.1760446 C34.2448401,54.0416496 31.1611523,56.6111839 29.886249,54.3400312 C29.5632077,53.7629957 28.7654684,53.5496898 28.1995297,53.8973907 C26.4536273,54.968852 24.1713777,56.5088464 22.3354676,54.5138817 C21.2566085,53.3400829 19.516871,55.0884513 20.5920312,56.2573181" id="Fill-102" fill="#000000"></path>
                                <path d="M24.1578149,27.0060548 L21.0617973,25.424139 C20.8497244,25.3168696 20.7165624,25.0986318 20.7165624,24.8618993 L20.7165624,23.9137362 C22.3058761,23.2294312 23.2195157,21.8990437 23.6633892,20.2357511 C24.3341313,20.0273771 24.8273241,19.4084202 24.8273241,18.67233 L24.8273241,17.849931 C24.8273241,17.2211103 24.4648274,16.6773652 23.9408101,16.4011773 C23.5795464,13.3100916 21.5352624,12.0586149 18.2505985,12.0586149 C18.0952428,12.0586149 17.943586,12.0647798 17.7931622,12.0771096 C16.6773136,12.1658843 15.5479021,11.9550444 14.6194667,11.3299226 C14.2335434,11.0697634 13.9080362,10.7935755 13.6799345,10.5038247 C13.575131,10.3718956 13.3667571,10.4557384 13.3864848,10.623424 C13.4197753,10.9107087 13.4678616,11.2460798 13.5406075,11.6122755 C13.8130965,12.9771865 13.6503429,12.7774434 13.1226267,14.0646765 C12.83041,14.7773401 12.6429967,15.5676815 12.555455,16.4048762 C12.0351366,16.6810642 11.6751059,17.2235762 11.6751059,17.849931 L11.6751059,18.67233 C11.6751059,19.4084202 12.1682987,20.0273771 12.8390408,20.2357511 C13.2829143,21.8990437 14.1965539,23.2294312 15.7846347,23.9137362 L15.7846347,24.8545014 C15.7846347,25.0961658 15.6490066,25.3156366 15.4320018,25.4216731 L12.2583063,26.9850941 C11.7219592,27.2785438 11.3323369,27.74831 11.0968374,28.290822 C13.1152288,29.7334109 15.5811926,30.5915663 18.2505985,30.5915663 C20.9113735,30.5915663 23.3674735,29.7408088 25.382166,28.3080838 C25.1306377,27.7581738 24.7188217,27.2871747 24.1578149,27.0060548 L24.1578149,27.0060548 Z" id="Stroke-105" stroke="#000000" stroke-linecap="round" stroke-linejoin="round"></path>
                            </g>
                            <g id="190---Thumbs-Up-(Outline)" transform="translate(169.966179, 538.067615) rotate(37.000000) translate(-169.966179, -538.067615) translate(137.466179, 503.067615)" stroke-linecap="round">
                                <polygon id="Stroke-498" stroke="#000000" points="7.95807864e-13 25.1967924 16.997111 25.1967924 16.997111 69.5168833 7.95807864e-13 69.5168833"></polygon>
                                <path d="M13.3548729,58.4368605 C13.3548729,61.1563906 11.1804568,63.3613151 8.49855551,63.3613151 C5.81665421,63.3613151 3.64223807,61.1563906 3.64223807,58.4368605 C3.64223807,55.7173305 5.81665421,53.512406 8.49855551,53.512406 C11.1804568,53.512406 13.3548729,55.7173305 13.3548729,58.4368605 L13.3548729,58.4368605 Z" id="Stroke-500" stroke="#000000"></path>
                                <path d="M55.8476505,37.3437803 L46.1350156,37.3437803" id="Stroke-502" stroke="#000000"></path>
                                <path d="M55.8476505,46.5360954 L46.1350156,46.5360954" id="Stroke-504" stroke="#000000"></path>
                                <path d="M53.4194918,55.7284105 L43.7068569,55.7284105" id="Stroke-506" stroke="#000000"></path>
                                <path d="M63.1321266,32.5834742 C63.1321266,29.8639442 60.9577105,27.6590197 58.2758092,27.6590197 L39.333743,27.6590197 L40.5320394,21.9725058 C41.4474552,17.6352924 41.2022112,12.3464283 40.6595177,8.63215844 C40.1156102,4.9178886 36.8351677,0.574519696 33.4029654,0.574519696 L33.1128004,0.574519696 C30.1868692,0.574519696 29.1379046,3.84805085 29.1379046,7.96120151 C29.1379046,27.9667981 19.4252697,27.6590197 19.4252697,27.6590197 L16.997111,27.6590197 L16.997111,67.054656 L52.2054124,67.054656 C54.8873137,67.054656 57.0617298,64.8497315 57.0617298,62.1302014 C57.0617298,59.4106714 54.8873137,57.2057469 52.2054124,57.2057469 L55.8476505,57.2057469 C58.5295518,57.2057469 60.7039679,55.0008224 60.7039679,52.2812924 C60.7039679,49.5617623 58.5295518,47.3568378 55.8476505,47.3568378 L59.4898886,47.3568378 C62.1717899,47.3568378 64.346206,45.1519133 64.346206,42.4323833 C64.346206,39.363217 62.387896,38.1948902 59.4898886,37.7590759 C58.0779143,37.5460933 55.5125646,37.5079287 54.6335711,37.5079287 L58.2758092,37.5079287 C60.9577105,37.5079287 63.1321266,35.3030042 63.1321266,32.5834742 L63.1321266,32.5834742 Z" id="Stroke-508" stroke="#000000"></path>
                            </g>
                            <g id="18---Combination-Lock-Closed-(Outline)" transform="translate(67.562369, 470.650805) rotate(33.000000) translate(-67.562369, -470.650805) translate(38.562369, 431.650805)" stroke-linecap="round" stroke-linejoin="round">
                                <path d="M57.7463895,47.247046 C57.7463895,63.192924 44.8190728,76.1202408 28.8731948,76.1202408 C12.9273168,76.1202408 -5.68434189e-14,63.192924 -5.68434189e-14,47.247046 C-5.68434189e-14,31.301168 12.9273168,18.3738512 28.8731948,18.3738512 C44.8190728,18.3738512 57.7463895,31.301168 57.7463895,47.247046 L57.7463895,47.247046 Z" id="Stroke-579" stroke="#231F1F"></path>
                                <path d="M41.9973742,47.247046 C41.9973742,54.4955303 36.1216791,60.3712254 28.8731948,60.3712254 C21.6247105,60.3712254 15.7490153,54.4955303 15.7490153,47.247046 C15.7490153,39.9985617 21.6247105,34.1228666 28.8731948,34.1228666 C36.1216791,34.1228666 41.9973742,39.9985617 41.9973742,47.247046 L41.9973742,47.247046 Z" id="Stroke-581" stroke="#231F1F"></path>
                                <path d="M28,22.3111051 L28,27.5607768" id="Stroke-583" stroke="#231F1F"></path>
                                <path d="M28,66.9333152 L28,72.1829869" id="Stroke-585" stroke="#231F1F"></path>
                                <path d="M53.8091357,46 L48.5594639,46" id="Stroke-587" stroke="#231F1F"></path>
                                <path d="M9.18692561,46 L3.93725383,46" id="Stroke-589" stroke="#231F1F"></path>
                                <path d="M46.5055299,29.6147109 L42.7940119,33.3262289" id="Stroke-591" stroke="#231F1F"></path>
                                <path d="M14.9523776,61.1678631 L11.2408597,64.8793811" id="Stroke-593" stroke="#231F1F"></path>
                                <path d="M46.5055299,64.8793811 L42.7940119,61.1678631" id="Stroke-595" stroke="#231F1F"></path>
                                <path d="M14.9523776,33.3262289 L11.2408597,29.6147109" id="Stroke-597" stroke="#231F1F"></path>
                                <path d="M41.3411652,25.6525211 L38.7163294,30.1987369" id="Stroke-599" stroke="#231F1F"></path>
                                <path d="M19.0300602,64.2953551 L16.4052243,68.8428833" id="Stroke-601" stroke="#231F1F"></path>
                                <path d="M50.469032,59.7150165 L45.9215039,57.0901806" id="Stroke-603" stroke="#231F1F"></path>
                                <path d="M11.8248857,37.4039114 L7.27866992,34.7790755" id="Stroke-605" stroke="#231F1F"></path>
                                <path d="M35.3276662,23.1602395 L33.9680012,28.2314224" id="Stroke-607" stroke="#231F1F"></path>
                                <path d="M23.7783883,66.2626696 L22.4187233,71.3338525" id="Stroke-609" stroke="#231F1F"></path>
                                <path d="M52.9600013,53.7015174 L47.8888184,52.3418525" id="Stroke-611" stroke="#231F1F"></path>
                                <path d="M9.85757118,42.1522395 L4.78638824,40.7925745" id="Stroke-613" stroke="#231F1F"></path>
                                <path d="M22.4187233,23.1602395 L23.7783883,28.2314224" id="Stroke-615" stroke="#231F1F"></path>
                                <path d="M33.9680012,66.2626696 L35.3276662,71.3338525" id="Stroke-617" stroke="#231F1F"></path>
                                <path d="M52.9600013,40.7925745 L47.8888184,42.1522395" id="Stroke-619" stroke="#231F1F"></path>
                                <path d="M9.85757118,52.3418525 L4.78638824,53.7015174" id="Stroke-621" stroke="#231F1F"></path>
                                <path d="M16.4052243,25.6525211 L19.0300602,30.1987369" id="Stroke-623" stroke="#231F1F"></path>
                                <path d="M38.7163294,64.2953551 L41.3411652,68.8428833" id="Stroke-625" stroke="#231F1F"></path>
                                <path d="M50.469032,34.7790755 L45.9215039,37.4039114" id="Stroke-627" stroke="#231F1F"></path>
                                <path d="M11.8248857,57.0901806 L7.27866992,59.7150165" id="Stroke-629" stroke="#231F1F"></path>
                                <path d="M30.1856127,45.934628 L34.1228666,41.9973742" id="Stroke-631" stroke="#231F1F"></path>
                                <path d="M28.8731948,18.3738512 C35.8539458,18.3738512 42.2546081,20.8516963 47.247046,24.9740011 L47.247046,17.0614333 C47.247046,7.49521888 39.0050613,4.54747351e-13 28.8731948,4.54747351e-13 C18.7413282,4.54747351e-13 10.4993436,7.49521888 10.4993436,17.0614333 L10.4993436,24.9740011 C15.4917814,20.8516963 21.8924437,18.3738512 28.8731948,18.3738512 L28.8731948,18.3738512 Z" id="Stroke-633" stroke="#231F1F"></path>
                                <path d="M28.8731948,18.3738512 C33.6005242,18.3738512 38.058808,19.5169672 41.9973742,21.5315288 L41.9973742,17.0614333 C41.9973742,10.4061619 36.0914935,5.24967178 28.8731948,5.24967178 C21.6548961,5.24967178 15.7490153,10.4061619 15.7490153,17.0614333 L15.7490153,21.5315288 C19.6875816,19.5169672 24.1458653,18.3738512 28.8731948,18.3738512 L28.8731948,18.3738512 Z" id="Stroke-635" stroke="#231F1F"></path>
                            </g>
                            <g id="48---Protected-System-(Outline)-Copy" transform="translate(272.029028, 219.114270) rotate(-15.000000) translate(-272.029028, -219.114270) translate(229.887788, 163.715112)" stroke-linejoin="round">
                                <path d="M41.6677427,0.946994152 C41.6677427,0.946994152 29.0405227,16.0989006 5.38303852e-14,16.0989006 L5.38303852e-14,52.2456673 C5.38303852e-14,71.1211548 8.19718138,89.3242764 23.0384737,100.987456 C28.2923973,105.116351 34.485739,108.667579 41.6677427,110.798316 C48.8497463,108.667579 55.0449821,105.116351 60.2970116,100.987456 C75.138304,89.3242764 83.3354853,71.1211548 83.3354853,52.2456673 L83.3354853,16.0989006 C54.2949627,16.0989006 41.6677427,0.946994152 41.6677427,0.946994152 L41.6677427,0.946994152 Z" id="Stroke-12" stroke="#000000"></path>
                                <path d="M41.6677427,98.7923239 C37.6468055,97.2146316 33.7546595,94.9569976 30.0613824,92.0535135 C18.3527467,82.8525183 11.3639298,67.9714522 11.3639298,52.2456673 L11.3639298,26.7582667 C25.3623974,24.9741298 35.302048,20.1027919 41.6677427,15.7788166 C48.0334374,20.1027919 57.973088,24.9741298 71.9715555,26.7582667 L71.9715555,52.2456673 C71.9715555,67.9714522 64.9827387,82.8525183 53.275997,92.0535135 C49.5808258,94.9569976 45.6886798,97.2146316 41.6677427,98.7923239 L41.6677427,98.7923239 Z" id="Stroke-14" stroke="#000000"></path>
                                <polyline id="Stroke-18" stroke="#231F1F" stroke-linecap="round" points="64.3956023 40.7207485 37.8797661 71.0245614 22.7278596 55.8726549"></polyline>
                            </g>
                            <g id="150---Piggy-Bank-(Outline)" transform="translate(110.416513, 110.408277) rotate(17.000000) translate(-110.416513, -110.408277) translate(22.416513, 22.408277)" stroke-linecap="round">
                                <path d="M175.747117,96.5533243 C175.747117,104.915186 168.977126,111.685177 160.615264,111.685177" id="Stroke-26" stroke="#000000"></path>
                                <path d="M169.694376,92.0137686 C169.694376,97.8637427 164.952053,102.606065 159.099053,102.606065 C153.252105,102.606065 148.509782,97.8637427 148.509782,92.0137686 C148.509782,86.1637944 153.252105,81.4214718 159.099053,81.4214718 C164.952053,81.4214718 169.694376,86.1637944 169.694376,92.0137686 L169.694376,92.0137686 Z" id="Stroke-32" stroke="#000000"></path>
                                <path d="M159.925252,102.521327 C159.646826,102.542512 159.383532,102.606065 159.099053,102.606065 C153.252105,102.606065 148.509782,97.8637427 148.509782,92.0137686 C148.509782,87.5528985 151.269832,83.7548035 155.170824,82.1931963 C149.417693,66.7889705 138.444074,55.2706044 124.683167,48.022447 C124.671062,48.0194207 124.658956,48.0163943 124.646851,48.0133679 C122.700895,52.7193741 119.780447,56.9230027 116.097354,60.3306959 C101.991441,52.907009 84.7744197,53.5818896 71.2162798,62.300863 C65.7960503,58.1002608 61.6832128,52.3259459 59.4830414,45.6800363 C59.4104085,45.5014804 59.3165911,45.3410828 59.2560636,45.1534478 C54.9011165,46.5153145 51.0788106,47.859023 48.6123186,48.887989 C35.9227471,43.73408 27.0645607,41.5096977 19.3079731,42.369187 C18.2033479,42.4902418 17.9945283,43.9640842 18.9962569,44.4452771 C26.0507266,47.8408648 27.2854857,56.8291852 30.4540956,63.5537804 C21.2448502,72.4301251 20.3399654,78.8762943 18.7178308,90.5005833 L12.2716617,90.5005833 C3.58597836,90.5005833 0.166179696,97.5399211 0.166179696,106.225604 L0.166179696,117.141723 C0.166179696,125.827406 3.58597836,132.86977 12.2716617,132.86977 L16.2483125,132.86977 C25.269923,159.117482 56.9590484,173.165893 90.200702,173.165893 C130.732882,173.165893 160.615264,149.811392 160.615264,114.711547 C160.615264,110.480681 160.370128,106.425345 159.925252,102.521327 L159.925252,102.521327 Z" id="Stroke-40" stroke="#000000"></path>
                                <path d="M147.656346,150.24719 C140.350687,158.690763 130.291032,165.109695 118.294499,168.971344 L119.190305,171.952319 C119.825843,174.076831 121.780878,175.529489 123.996181,175.529489 L142.205853,175.529489 C149.220979,175.529489 154.129752,168.593048 151.793394,161.974375 L147.656346,150.24719 L147.656346,150.24719 Z" id="Stroke-44" stroke="#000000"></path>
                                <path d="M27.2945648,150.583117 L22.4130292,162.791495 C19.9707482,168.892658 24.4649084,175.529489 31.0351588,175.529489 L51.4328959,175.529489 C52.7614726,175.529489 53.9568889,174.721448 54.4501873,173.486689 L56.6443059,167.996853 C45.0563333,164.207837 34.8453592,158.3851 27.2945648,150.583117 L27.2945648,150.583117 Z" id="Stroke-46" stroke="#000000"></path>
                                <path d="M55.5215224,154.284368 C66.7705416,159.262747 78.6883886,161.72016 94.0078761,160.397636" id="Stroke-48" stroke="#000000"></path>
                            </g>
                            <g id="169---Coins-(Outline)" transform="translate(163.700936, 386.381976) rotate(22.000000) translate(-163.700936, -386.381976) translate(123.200936, 344.381976)" stroke-linecap="round">
                                <path d="M52.5657163,19.8882759 C53.7067671,19.6422759 54.3738858,18.9268966 54.1278858,18.1111379 L53.863818,17.2402414 C53.6706315,16.5997931 52.9187332,16.0639655 51.9972756,15.7995862 C50.7436485,13.0737931 47.5484282,12.0883793 42.7993773,12.0883793 C42.5756146,12.0883793 42.3546315,12.0926207 42.137818,12.1025172 C40.5186654,12.1703793 38.9022926,12.0092069 37.6403265,11.5412414 C37.127479,11.3503793 36.7077502,11.1496207 36.4311739,10.9432069 C36.3060892,10.8484828 36.0031061,10.9092759 36.0031061,11.0280345 C36.0031061,11.2344483 36.0183943,11.4790345 36.0628688,11.7504828 C36.2352078,12.8065862 36.0295129,12.6468276 35.0052078,13.7001034 C34.4089705,14.3136897 33.9350383,15.0191724 33.5917502,15.8024138 C32.6758519,16.0682069 31.9281231,16.6012069 31.7349366,17.2402414 L31.4722587,18.1111379 C31.2248688,18.9268966 31.8933773,19.6422759 33.0330383,19.8882759 C33.3596485,21.9722069 34.7522587,23.8073103 37.791818,24.8153448 L37.6250383,26.2828621 C37.5805638,26.673069 37.2483943,27.0364138 36.7647332,27.2131379 L30.6341909,29.4653103 C34.2143943,30.2273448 38.2949366,30.6896552 42.7993773,30.6896552 C47.2412756,30.6896552 51.2703943,30.2414828 54.8144621,29.4978276 L48.8173434,27.2173793 C48.3434112,27.0378276 48.0195807,26.6787241 47.9751061,26.2927586 L47.8083265,24.8153448 C50.8478858,23.8073103 52.240496,21.9722069 52.5657163,19.8882759 L52.5657163,19.8882759 Z" id="Stroke-66" stroke="#000000"></path>
                                <path d="M44.532496,71.6896552 C24.5759197,71.6896552 8.39690273,63.1107586 8.39690273,53.3103448 L8.39690273,65.254069 C8.39690273,75.0544828 24.5759197,83 44.532496,83 C64.4890722,83 80.6680892,75.0544828 80.6680892,65.254069 L80.6680892,53.3103448 C80.6680892,63.1107586 64.4890722,71.6896552 44.532496,71.6896552 L44.532496,71.6896552 Z" id="Stroke-68" stroke="#000000"></path>
                                <path d="M12,62.9453448 L12,74.7066897" id="Stroke-70" stroke="#000000"></path>
                                <path d="M74,74.7066897 L74,62.9453448" id="Stroke-72" stroke="#000000"></path>
                                <path d="M18,66.4388276 L18,78.0531379" id="Stroke-74" stroke="#000000"></path>
                                <path d="M68,78.0531379 L68,66.4388276" id="Stroke-76" stroke="#000000"></path>
                                <path d="M24,68.7065517 L24,80.2035172" id="Stroke-78" stroke="#000000"></path>
                                <path d="M62,80.2035172 L62,68.7065517" id="Stroke-80" stroke="#000000"></path>
                                <path d="M32,70.5176207 L32,81.9071379" id="Stroke-82" stroke="#000000"></path>
                                <path d="M56,81.9071379 L56,70.5176207" id="Stroke-84" stroke="#000000"></path>
                                <path d="M40,71.5595862 L40,82.8784138" id="Stroke-86" stroke="#000000"></path>
                                <path d="M48,82.8784138 L48,71.5595862" id="Stroke-88" stroke="#000000"></path>
                                <path d="M79.2782587,17.9655172 C79.2782587,27.765931 63.0992417,36.3448276 43.1426654,36.3448276 C23.1860892,36.3448276 7.00707222,27.765931 7.00707222,17.9655172 C7.00707222,8.16510345 23.1860892,1 43.1426654,1 C63.0992417,1 79.2782587,8.16510345 79.2782587,17.9655172 L79.2782587,17.9655172 Z" id="Stroke-90" stroke="#000000"></path>
                                <path d="M43.1426654,30.6415862 C24.1270044,30.6415862 12.5663943,23.132931 12.5663943,17.9655172 C12.5663943,12.7981034 24.1270044,6.65517241 43.1426654,6.65517241 C62.1583265,6.65517241 73.7189366,12.7981034 73.7189366,17.9655172 C73.7189366,23.132931 62.1583265,30.6415862 43.1426654,30.6415862 L43.1426654,30.6415862 Z" id="Stroke-92" stroke="#000000"></path>
                                <path d="M43.1426654,36.3448276 C23.1860892,36.3448276 7.00707222,27.765931 7.00707222,17.9655172 L7.00707222,29.9092414 C7.00707222,39.7096552 23.1860892,47.6551724 43.1426654,47.6551724 C63.0992417,47.6551724 79.2782587,39.7096552 79.2782587,29.9092414 L79.2782587,17.9655172 C79.2782587,27.765931 63.0992417,36.3448276 43.1426654,36.3448276 L43.1426654,36.3448276 Z" id="Stroke-94" stroke="#000000"></path>
                                <path d="M12,27.6005172 L12,39.3618621" id="Stroke-96" stroke="#000000"></path>
                                <path d="M72,39.3618621 L72,27.6005172" id="Stroke-98" stroke="#000000"></path>
                                <path d="M18,31.094 L18,42.7083103" id="Stroke-100" stroke="#000000"></path>
                                <path d="M68,42.7083103 L68,31.094" id="Stroke-102" stroke="#000000"></path>
                                <path d="M22,33.3617241 L22,44.8586897" id="Stroke-104" stroke="#000000"></path>
                                <path d="M62,44.8586897 L62,33.3617241" id="Stroke-106" stroke="#000000"></path>
                                <path d="M30,35.1727931 L30,46.5623103" id="Stroke-108" stroke="#000000"></path>
                                <path d="M54,46.5623103 L54,35.1727931" id="Stroke-110" stroke="#000000"></path>
                                <path d="M38,36.2147586 L38,47.5335862" id="Stroke-112" stroke="#000000"></path>
                                <path d="M46,47.5335862 L46,36.2147586" id="Stroke-114" stroke="#000000"></path>
                                <path d="M4,41.7384483 L4,53.4997931" id="Stroke-116" stroke="#000000"></path>
                                <path d="M66,53.4997931 L66,43.4137931" id="Stroke-118" stroke="#000000"></path>
                                <path d="M10,45.231931 L10,56.8462414" id="Stroke-120" stroke="#000000"></path>
                                <path d="M60,56.8462414 L60,45.231931" id="Stroke-122" stroke="#000000"></path>
                                <path d="M16,47.4996552 L16,58.9966207" id="Stroke-124" stroke="#000000"></path>
                                <path d="M54,58.9966207 L54,47.4996552" id="Stroke-126" stroke="#000000"></path>
                                <path d="M22,49.3107241 L22,60.7002414" id="Stroke-128" stroke="#000000"></path>
                                <path d="M48,60.7002414 L48,49.3107241" id="Stroke-130" stroke="#000000"></path>
                                <path d="M32,50.3526897 L32,61.6715172" id="Stroke-132" stroke="#000000"></path>
                                <path d="M40,61.6715172 L40,50.3526897" id="Stroke-134" stroke="#000000"></path>
                                <path d="M71.3798519,48.0821379 C67.6592756,55.9371724 53.3231739,61.7931034 36.1935129,61.7931034 C29.7947332,61.7931034 23.7878858,60.9731034 18.5746315,59.5395172 C23.6169366,63.0216897 32.5910722,65.9864138 44.532496,65.9864138 C63.548157,65.9864138 75.1087671,58.4777586 75.1087671,53.3103448 C75.1087671,51.586931 73.8037163,49.7574828 71.3798519,48.0821379 L71.3798519,48.0821379 Z" id="Stroke-136" stroke="#000000"></path>
                                <path d="M72.3291061,42.2983103 L72.3291061,44.0471724 C72.3291061,53.8475862 56.1500892,61.7931034 36.1935129,61.7931034 C25.1763265,61.7931034 15.3182587,59.3684483 8.6915468,55.5512069 C10.9263943,64.3817586 26.1144621,71.6896552 44.532496,71.6896552 C64.4890722,71.6896552 80.6680892,63.1107586 80.6680892,53.3103448 C80.6680892,49.0011034 77.5326315,45.2036552 72.3291061,42.2983103 L72.3291061,42.2983103 Z" id="Stroke-138" stroke="#000000"></path>
                                <path d="M43.1426654,47.6551724 C23.1860892,47.6551724 7.00707222,39.7096552 7.00707222,29.9092414 L7.00707222,21.9184828 C2.6416146,24.7022414 0.0579196823,28.1914828 0.0579196823,32.1034483 C0.0579196823,41.9038621 16.2369366,50.4827586 36.1935129,50.4827586 C45.802801,50.4827586 54.528157,48.4907241 61.0005976,45.3337241 C55.7317502,46.8083103 49.6401231,47.6551724 43.1426654,47.6551724 L43.1426654,47.6551724 Z" id="Stroke-140" stroke="#000000"></path>
                                <path d="M61.0005976,45.3337241 C54.528157,48.4907241 45.802801,50.4827586 36.1935129,50.4827586 C16.2369366,50.4827586 0.0579196823,41.9038621 0.0579196823,32.1034483 L0.0579196823,44.0471724 C0.0579196823,53.8475862 16.2369366,61.7931034 36.1935129,61.7931034 C56.1500892,61.7931034 72.3291061,53.8475862 72.3291061,44.0471724 L72.3291061,40.3684828 C69.3173434,42.3916207 65.4550044,44.0881724 61.0005976,45.3337241 L61.0005976,45.3337241 Z" id="Stroke-142" stroke="#000000"></path>
                            </g>
                        </g>
                    </g>
                    <g id="1-reversed" mask="url(#mask-2)" opacity="0.1">
                        <g transform="translate(909.500000, 194.500000) scale(-1, 1) translate(-909.500000, -194.500000) translate(635.000000, -179.000000)">
                            <g id="46---Resumee-(Outline)-Copy" transform="translate(319.272337, 272.343095) scale(-1, 1) rotate(14.000000) translate(-319.272337, -272.343095) translate(291.272337, 235.843095)">
                                <polygon id="Path" stroke="#1A1718" stroke-linejoin="round" points="55.4841868 18.261747 38.2224398 1 0 1 0 72.5129519 55.4841868 72.5129519"></polygon>
                                <polygon id="Path" stroke="#1A1718" stroke-linejoin="round" points="38.2224398 1 38.2224398 18.261747 55.4841868 18.261747"></polygon>
                                <path d="M12.3298193,44 L33.2905121,44" id="Path" stroke="#000000" stroke-linecap="round" stroke-linejoin="round"></path>
                                <path d="M36.9894579,37 L45.6203314,37" id="Path" stroke="#000000" stroke-linecap="round" stroke-linejoin="round"></path>
                                <path d="M18.4947289,37 L30.8245482,37" id="Path" stroke="#000000" stroke-linecap="round" stroke-linejoin="round"></path>
                                <path d="M19.1420444,49.2909702 C15.6342109,51.1157835 15.14595,55.1007811 15.0251178,58.6616329 C15.7266845,58.3706491 16.4282512,58.0796654 17.1298179,57.7886817 C15.9769798,56.8232568 14.8241417,55.857832 13.6700706,54.8911741 C12.4605154,53.877663 10.7059821,55.6124686 11.9266342,56.6346106 C13.0807053,57.6000354 14.2335434,58.5666933 15.3863815,59.5333511 C16.2026155,60.2164231 17.4528592,59.7935103 17.4910816,58.6616329 C17.5810893,55.989761 17.7105524,52.8135996 20.3861232,51.42033 C21.7978875,50.6854728 20.5501098,48.557346 19.1420444,49.2909702" id="Fill-101" fill="#000000"></path>
                                <path d="M20.5920312,56.2573181 C23.1837592,59.0746818 26.6213128,57.7578571 29.4436085,56.0267505 C28.8813687,55.8787927 28.3191289,55.7320678 27.7568892,55.58411 C28.4399612,56.7998302 29.2833208,57.423719 30.5828838,57.8922522 C31.7036643,58.2966702 35.6220809,56.3880142 35.9241615,56.8035291 C36.8525969,58.0735005 38.9942865,56.8454505 38.0547542,55.5582174 C37.5319699,54.8443208 36.9943898,54.2487906 36.0412948,54.1760446 C34.2448401,54.0416496 31.1611523,56.6111839 29.886249,54.3400312 C29.5632077,53.7629957 28.7654684,53.5496898 28.1995297,53.8973907 C26.4536273,54.968852 24.1713777,56.5088464 22.3354676,54.5138817 C21.2566085,53.3400829 19.516871,55.0884513 20.5920312,56.2573181" id="Fill-102" fill="#000000"></path>
                                <path d="M24.1578149,27.0060548 L21.0617973,25.424139 C20.8497244,25.3168696 20.7165624,25.0986318 20.7165624,24.8618993 L20.7165624,23.9137362 C22.3058761,23.2294312 23.2195157,21.8990437 23.6633892,20.2357511 C24.3341313,20.0273771 24.8273241,19.4084202 24.8273241,18.67233 L24.8273241,17.849931 C24.8273241,17.2211103 24.4648274,16.6773652 23.9408101,16.4011773 C23.5795464,13.3100916 21.5352624,12.0586149 18.2505985,12.0586149 C18.0952428,12.0586149 17.943586,12.0647798 17.7931622,12.0771096 C16.6773136,12.1658843 15.5479021,11.9550444 14.6194667,11.3299226 C14.2335434,11.0697634 13.9080362,10.7935755 13.6799345,10.5038247 C13.575131,10.3718956 13.3667571,10.4557384 13.3864848,10.623424 C13.4197753,10.9107087 13.4678616,11.2460798 13.5406075,11.6122755 C13.8130965,12.9771865 13.6503429,12.7774434 13.1226267,14.0646765 C12.83041,14.7773401 12.6429967,15.5676815 12.555455,16.4048762 C12.0351366,16.6810642 11.6751059,17.2235762 11.6751059,17.849931 L11.6751059,18.67233 C11.6751059,19.4084202 12.1682987,20.0273771 12.8390408,20.2357511 C13.2829143,21.8990437 14.1965539,23.2294312 15.7846347,23.9137362 L15.7846347,24.8545014 C15.7846347,25.0961658 15.6490066,25.3156366 15.4320018,25.4216731 L12.2583063,26.9850941 C11.7219592,27.2785438 11.3323369,27.74831 11.0968374,28.290822 C13.1152288,29.7334109 15.5811926,30.5915663 18.2505985,30.5915663 C20.9113735,30.5915663 23.3674735,29.7408088 25.382166,28.3080838 C25.1306377,27.7581738 24.7188217,27.2871747 24.1578149,27.0060548 L24.1578149,27.0060548 Z" id="Stroke-105" stroke="#000000" stroke-linecap="round" stroke-linejoin="round"></path>
                            </g>
                            <g id="190---Thumbs-Up-(Outline)" transform="translate(283.019180, 549.067615) scale(-1, 1) rotate(37.000000) translate(-283.019180, -549.067615) translate(250.519180, 514.067615)" stroke-linecap="round">
                                <polygon id="Stroke-498" stroke="#000000" points="7.95807864e-13 25.1967924 16.997111 25.1967924 16.997111 69.5168833 7.95807864e-13 69.5168833"></polygon>
                                <path d="M13.3548729,58.4368605 C13.3548729,61.1563906 11.1804568,63.3613151 8.49855551,63.3613151 C5.81665421,63.3613151 3.64223807,61.1563906 3.64223807,58.4368605 C3.64223807,55.7173305 5.81665421,53.512406 8.49855551,53.512406 C11.1804568,53.512406 13.3548729,55.7173305 13.3548729,58.4368605 L13.3548729,58.4368605 Z" id="Stroke-500" stroke="#000000"></path>
                                <path d="M55.8476505,37.3437803 L46.1350156,37.3437803" id="Stroke-502" stroke="#000000"></path>
                                <path d="M55.8476505,46.5360954 L46.1350156,46.5360954" id="Stroke-504" stroke="#000000"></path>
                                <path d="M53.4194918,55.7284105 L43.7068569,55.7284105" id="Stroke-506" stroke="#000000"></path>
                                <path d="M63.1321266,32.5834742 C63.1321266,29.8639442 60.9577105,27.6590197 58.2758092,27.6590197 L39.333743,27.6590197 L40.5320394,21.9725058 C41.4474552,17.6352924 41.2022112,12.3464283 40.6595177,8.63215844 C40.1156102,4.9178886 36.8351677,0.574519696 33.4029654,0.574519696 L33.1128004,0.574519696 C30.1868692,0.574519696 29.1379046,3.84805085 29.1379046,7.96120151 C29.1379046,27.9667981 19.4252697,27.6590197 19.4252697,27.6590197 L16.997111,27.6590197 L16.997111,67.054656 L52.2054124,67.054656 C54.8873137,67.054656 57.0617298,64.8497315 57.0617298,62.1302014 C57.0617298,59.4106714 54.8873137,57.2057469 52.2054124,57.2057469 L55.8476505,57.2057469 C58.5295518,57.2057469 60.7039679,55.0008224 60.7039679,52.2812924 C60.7039679,49.5617623 58.5295518,47.3568378 55.8476505,47.3568378 L59.4898886,47.3568378 C62.1717899,47.3568378 64.346206,45.1519133 64.346206,42.4323833 C64.346206,39.363217 62.387896,38.1948902 59.4898886,37.7590759 C58.0779143,37.5460933 55.5125646,37.5079287 54.6335711,37.5079287 L58.2758092,37.5079287 C60.9577105,37.5079287 63.1321266,35.3030042 63.1321266,32.5834742 L63.1321266,32.5834742 Z" id="Stroke-508" stroke="#000000"></path>
                            </g>
                            <g id="18---Combination-Lock-Closed-(Outline)" transform="translate(46.371510, 630.650805) rotate(33.000000) translate(-46.371510, -630.650805) translate(17.371510, 591.650805)" stroke-linecap="round" stroke-linejoin="round">
                                <path d="M57.7463895,47.247046 C57.7463895,63.192924 44.8190728,76.1202408 28.8731948,76.1202408 C12.9273168,76.1202408 -5.68434189e-14,63.192924 -5.68434189e-14,47.247046 C-5.68434189e-14,31.301168 12.9273168,18.3738512 28.8731948,18.3738512 C44.8190728,18.3738512 57.7463895,31.301168 57.7463895,47.247046 L57.7463895,47.247046 Z" id="Stroke-579" stroke="#231F1F"></path>
                                <path d="M41.9973742,47.247046 C41.9973742,54.4955303 36.1216791,60.3712254 28.8731948,60.3712254 C21.6247105,60.3712254 15.7490153,54.4955303 15.7490153,47.247046 C15.7490153,39.9985617 21.6247105,34.1228666 28.8731948,34.1228666 C36.1216791,34.1228666 41.9973742,39.9985617 41.9973742,47.247046 L41.9973742,47.247046 Z" id="Stroke-581" stroke="#231F1F"></path>
                                <path d="M28,22.3111051 L28,27.5607768" id="Stroke-583" stroke="#231F1F"></path>
                                <path d="M9.18692561,46 L3.93725383,46" id="Stroke-589" stroke="#231F1F"></path>
                                <path d="M14.9523776,33.3262289 L11.2408597,29.6147109" id="Stroke-597" stroke="#231F1F"></path>
                                <path d="M41.3411652,25.6525211 L38.7163294,30.1987369" id="Stroke-599" stroke="#231F1F"></path>
                                <path d="M11.8248857,37.4039114 L7.27866992,34.7790755" id="Stroke-605" stroke="#231F1F"></path>
                                <path d="M35.3276662,23.1602395 L33.9680012,28.2314224" id="Stroke-607" stroke="#231F1F"></path>
                                <path d="M9.85757118,42.1522395 L4.78638824,40.7925745" id="Stroke-613" stroke="#231F1F"></path>
                                <path d="M22.4187233,23.1602395 L23.7783883,28.2314224" id="Stroke-615" stroke="#231F1F"></path>
                                <path d="M9.85757118,52.3418525 L4.78638824,53.7015174" id="Stroke-621" stroke="#231F1F"></path>
                                <path d="M16.4052243,25.6525211 L19.0300602,30.1987369" id="Stroke-623" stroke="#231F1F"></path>
                                <path d="M28.8731948,18.3738512 C35.8539458,18.3738512 42.2546081,20.8516963 47.247046,24.9740011 L47.247046,17.0614333 C47.247046,7.49521888 39.0050613,4.54747351e-13 28.8731948,4.54747351e-13 C18.7413282,4.54747351e-13 10.4993436,7.49521888 10.4993436,17.0614333 L10.4993436,24.9740011 C15.4917814,20.8516963 21.8924437,18.3738512 28.8731948,18.3738512 L28.8731948,18.3738512 Z" id="Stroke-633" stroke="#231F1F"></path>
                                <path d="M28.8731948,18.3738512 C33.6005242,18.3738512 38.058808,19.5169672 41.9973742,21.5315288 L41.9973742,17.0614333 C41.9973742,10.4061619 36.0914935,5.24967178 28.8731948,5.24967178 C21.6548961,5.24967178 15.7490153,10.4061619 15.7490153,17.0614333 L15.7490153,21.5315288 C19.6875816,19.5169672 24.1458653,18.3738512 28.8731948,18.3738512 L28.8731948,18.3738512 Z" id="Stroke-635" stroke="#231F1F"></path>
                            </g>
                            <g id="48---Protected-System-(Outline)-Copy" transform="translate(493.029028, 272.343095) scale(-1, 1) rotate(-15.000000) translate(-493.029028, -272.343095) translate(450.887788, 216.943937)" stroke-linejoin="round">
                                <path d="M41.6677427,0.946994152 C41.6677427,0.946994152 29.0405227,16.0989006 5.38303852e-14,16.0989006 L5.38303852e-14,52.2456673 C5.38303852e-14,71.1211548 8.19718138,89.3242764 23.0384737,100.987456 C28.2923973,105.116351 34.485739,108.667579 41.6677427,110.798316 C48.8497463,108.667579 55.0449821,105.116351 60.2970116,100.987456 C75.138304,89.3242764 83.3354853,71.1211548 83.3354853,52.2456673 L83.3354853,16.0989006 C54.2949627,16.0989006 41.6677427,0.946994152 41.6677427,0.946994152 L41.6677427,0.946994152 Z" id="Stroke-12" stroke="#000000"></path>
                                <path d="M41.6677427,98.7923239 C37.6468055,97.2146316 33.7546595,94.9569976 30.0613824,92.0535135 C18.3527467,82.8525183 11.3639298,67.9714522 11.3639298,52.2456673 L11.3639298,26.7582667 C25.3623974,24.9741298 35.302048,20.1027919 41.6677427,15.7788166 C48.0334374,20.1027919 57.973088,24.9741298 71.9715555,26.7582667 L71.9715555,52.2456673 C71.9715555,67.9714522 64.9827387,82.8525183 53.275997,92.0535135 C49.5808258,94.9569976 45.6886798,97.2146316 41.6677427,98.7923239 L41.6677427,98.7923239 Z" id="Stroke-14" stroke="#000000"></path>
                                <polyline id="Stroke-18" stroke="#231F1F" stroke-linecap="round" points="64.3956023 40.7207485 37.8797661 71.0245614 22.7278596 55.8726549"></polyline>
                            </g>
                            <g id="150---Piggy-Bank-(Outline)" transform="translate(201.817407, 110.408277) rotate(17.000000) translate(-201.817407, -110.408277) translate(113.817407, 22.408277)" stroke-linecap="round">
                                <path d="M159.925252,102.521327 C159.646826,102.542512 159.383532,102.606065 159.099053,102.606065 C153.252105,102.606065 148.509782,97.8637427 148.509782,92.0137686 C148.509782,87.5528985 151.269832,83.7548035 155.170824,82.1931963 C149.417693,66.7889705 138.444074,55.2706044 124.683167,48.022447 C124.671062,48.0194207 124.658956,48.0163943 124.646851,48.0133679 C122.700895,52.7193741 119.780447,56.9230027 116.097354,60.3306959 C101.991441,52.907009 84.7744197,53.5818896 71.2162798,62.300863 C65.7960503,58.1002608 61.6832128,52.3259459 59.4830414,45.6800363 C59.4104085,45.5014804 59.3165911,45.3410828 59.2560636,45.1534478 C54.9011165,46.5153145 51.0788106,47.859023 48.6123186,48.887989 C35.9227471,43.73408 27.0645607,41.5096977 19.3079731,42.369187 C18.2033479,42.4902418 17.9945283,43.9640842 18.9962569,44.4452771 C26.0507266,47.8408648 27.2854857,56.8291852 30.4540956,63.5537804 C21.2448502,72.4301251 20.3399654,78.8762943 18.7178308,90.5005833 L12.2716617,90.5005833 C3.58597836,90.5005833 0.166179696,97.5399211 0.166179696,106.225604 L0.166179696,117.141723 C0.166179696,125.827406 3.58597836,132.86977 12.2716617,132.86977 L16.2483125,132.86977 C25.269923,159.117482 56.9590484,173.165893 90.200702,173.165893 C130.732882,173.165893 160.615264,149.811392 160.615264,114.711547 C160.615264,110.480681 160.370128,106.425345 159.925252,102.521327 L159.925252,102.521327 Z" id="Stroke-40" stroke="#000000"></path>
                                <path d="M147.656346,150.24719 C140.350687,158.690763 130.291032,165.109695 118.294499,168.971344 L119.190305,171.952319 C119.825843,174.076831 121.780878,175.529489 123.996181,175.529489 L142.205853,175.529489 C149.220979,175.529489 154.129752,168.593048 151.793394,161.974375 L147.656346,150.24719 L147.656346,150.24719 Z" id="Stroke-44" stroke="#000000"></path>
                                <path d="M27.2945648,150.583117 L22.4130292,162.791495 C19.9707482,168.892658 24.4649084,175.529489 31.0351588,175.529489 L51.4328959,175.529489 C52.7614726,175.529489 53.9568889,174.721448 54.4501873,173.486689 L56.6443059,167.996853 C45.0563333,164.207837 34.8453592,158.3851 27.2945648,150.583117 L27.2945648,150.583117 Z" id="Stroke-46" stroke="#000000"></path>
                                <path d="M55.5215224,154.284368 C66.7705416,159.262747 78.6883886,161.72016 94.0078761,160.397636" id="Stroke-48" stroke="#000000"></path>
                            </g>
                            <g id="169---Coins-(Outline)" transform="translate(82.660711, 470.381976) rotate(22.000000) translate(-82.660711, -470.381976) translate(42.160711, 428.381976)" stroke-linecap="round">
                                <path d="M52.5657163,19.8882759 C53.7067671,19.6422759 54.3738858,18.9268966 54.1278858,18.1111379 L53.863818,17.2402414 C53.6706315,16.5997931 52.9187332,16.0639655 51.9972756,15.7995862 C50.7436485,13.0737931 47.5484282,12.0883793 42.7993773,12.0883793 C42.5756146,12.0883793 42.3546315,12.0926207 42.137818,12.1025172 C40.5186654,12.1703793 38.9022926,12.0092069 37.6403265,11.5412414 C37.127479,11.3503793 36.7077502,11.1496207 36.4311739,10.9432069 C36.3060892,10.8484828 36.0031061,10.9092759 36.0031061,11.0280345 C36.0031061,11.2344483 36.0183943,11.4790345 36.0628688,11.7504828 C36.2352078,12.8065862 36.0295129,12.6468276 35.0052078,13.7001034 C34.4089705,14.3136897 33.9350383,15.0191724 33.5917502,15.8024138 C32.6758519,16.0682069 31.9281231,16.6012069 31.7349366,17.2402414 L31.4722587,18.1111379 C31.2248688,18.9268966 31.8933773,19.6422759 33.0330383,19.8882759 C33.3596485,21.9722069 34.7522587,23.8073103 37.791818,24.8153448 L37.6250383,26.2828621 C37.5805638,26.673069 37.2483943,27.0364138 36.7647332,27.2131379 L30.6341909,29.4653103 C34.2143943,30.2273448 38.2949366,30.6896552 42.7993773,30.6896552 C47.2412756,30.6896552 51.2703943,30.2414828 54.8144621,29.4978276 L48.8173434,27.2173793 C48.3434112,27.0378276 48.0195807,26.6787241 47.9751061,26.2927586 L47.8083265,24.8153448 C50.8478858,23.8073103 52.240496,21.9722069 52.5657163,19.8882759 L52.5657163,19.8882759 Z" id="Stroke-66" stroke="#000000"></path>
                                <path d="M44.532496,71.6896552 C24.5759197,71.6896552 8.39690273,63.1107586 8.39690273,53.3103448 L8.39690273,65.254069 C8.39690273,75.0544828 24.5759197,83 44.532496,83 C64.4890722,83 80.6680892,75.0544828 80.6680892,65.254069 L80.6680892,53.3103448 C80.6680892,63.1107586 64.4890722,71.6896552 44.532496,71.6896552 L44.532496,71.6896552 Z" id="Stroke-68" stroke="#000000"></path>
                                <path d="M12,62.9453448 L12,74.7066897" id="Stroke-70" stroke="#000000"></path>
                                <path d="M74,74.7066897 L74,62.9453448" id="Stroke-72" stroke="#000000"></path>
                                <path d="M18,66.4388276 L18,78.0531379" id="Stroke-74" stroke="#000000"></path>
                                <path d="M68,78.0531379 L68,66.4388276" id="Stroke-76" stroke="#000000"></path>
                                <path d="M24,68.7065517 L24,80.2035172" id="Stroke-78" stroke="#000000"></path>
                                <path d="M62,80.2035172 L62,68.7065517" id="Stroke-80" stroke="#000000"></path>
                                <path d="M32,70.5176207 L32,81.9071379" id="Stroke-82" stroke="#000000"></path>
                                <path d="M56,81.9071379 L56,70.5176207" id="Stroke-84" stroke="#000000"></path>
                                <path d="M40,71.5595862 L40,82.8784138" id="Stroke-86" stroke="#000000"></path>
                                <path d="M48,82.8784138 L48,71.5595862" id="Stroke-88" stroke="#000000"></path>
                                <path d="M79.2782587,17.9655172 C79.2782587,27.765931 63.0992417,36.3448276 43.1426654,36.3448276 C23.1860892,36.3448276 7.00707222,27.765931 7.00707222,17.9655172 C7.00707222,8.16510345 23.1860892,1 43.1426654,1 C63.0992417,1 79.2782587,8.16510345 79.2782587,17.9655172 L79.2782587,17.9655172 Z" id="Stroke-90" stroke="#000000"></path>
                                <path d="M43.1426654,30.6415862 C24.1270044,30.6415862 12.5663943,23.132931 12.5663943,17.9655172 C12.5663943,12.7981034 24.1270044,6.65517241 43.1426654,6.65517241 C62.1583265,6.65517241 73.7189366,12.7981034 73.7189366,17.9655172 C73.7189366,23.132931 62.1583265,30.6415862 43.1426654,30.6415862 L43.1426654,30.6415862 Z" id="Stroke-92" stroke="#000000"></path>
                                <path d="M43.1426654,36.3448276 C23.1860892,36.3448276 7.00707222,27.765931 7.00707222,17.9655172 L7.00707222,29.9092414 C7.00707222,39.7096552 23.1860892,47.6551724 43.1426654,47.6551724 C63.0992417,47.6551724 79.2782587,39.7096552 79.2782587,29.9092414 L79.2782587,17.9655172 C79.2782587,27.765931 63.0992417,36.3448276 43.1426654,36.3448276 L43.1426654,36.3448276 Z" id="Stroke-94" stroke="#000000"></path>
                                <path d="M12,27.6005172 L12,39.3618621" id="Stroke-96" stroke="#000000"></path>
                                <path d="M72,39.3618621 L72,27.6005172" id="Stroke-98" stroke="#000000"></path>
                                <path d="M18,31.094 L18,42.7083103" id="Stroke-100" stroke="#000000"></path>
                                <path d="M68,42.7083103 L68,31.094" id="Stroke-102" stroke="#000000"></path>
                                <path d="M22,33.3617241 L22,44.8586897" id="Stroke-104" stroke="#000000"></path>
                                <path d="M62,44.8586897 L62,33.3617241" id="Stroke-106" stroke="#000000"></path>
                                <path d="M30,35.1727931 L30,46.5623103" id="Stroke-108" stroke="#000000"></path>
                                <path d="M54,46.5623103 L54,35.1727931" id="Stroke-110" stroke="#000000"></path>
                                <path d="M38,36.2147586 L38,47.5335862" id="Stroke-112" stroke="#000000"></path>
                                <path d="M46,47.5335862 L46,36.2147586" id="Stroke-114" stroke="#000000"></path>
                                <path d="M4,41.7384483 L4,53.4997931" id="Stroke-116" stroke="#000000"></path>
                                <path d="M66,53.4997931 L66,43.4137931" id="Stroke-118" stroke="#000000"></path>
                                <path d="M10,45.231931 L10,56.8462414" id="Stroke-120" stroke="#000000"></path>
                                <path d="M60,56.8462414 L60,45.231931" id="Stroke-122" stroke="#000000"></path>
                                <path d="M16,47.4996552 L16,58.9966207" id="Stroke-124" stroke="#000000"></path>
                                <path d="M54,58.9966207 L54,47.4996552" id="Stroke-126" stroke="#000000"></path>
                                <path d="M22,49.3107241 L22,60.7002414" id="Stroke-128" stroke="#000000"></path>
                                <path d="M48,60.7002414 L48,49.3107241" id="Stroke-130" stroke="#000000"></path>
                                <path d="M32,50.3526897 L32,61.6715172" id="Stroke-132" stroke="#000000"></path>
                                <path d="M40,61.6715172 L40,50.3526897" id="Stroke-134" stroke="#000000"></path>
                                <path d="M71.3798519,48.0821379 C67.6592756,55.9371724 53.3231739,61.7931034 36.1935129,61.7931034 C29.7947332,61.7931034 23.7878858,60.9731034 18.5746315,59.5395172 C23.6169366,63.0216897 32.5910722,65.9864138 44.532496,65.9864138 C63.548157,65.9864138 75.1087671,58.4777586 75.1087671,53.3103448 C75.1087671,51.586931 73.8037163,49.7574828 71.3798519,48.0821379 L71.3798519,48.0821379 Z" id="Stroke-136" stroke="#000000"></path>
                                <path d="M72.3291061,42.2983103 L72.3291061,44.0471724 C72.3291061,53.8475862 56.1500892,61.7931034 36.1935129,61.7931034 C25.1763265,61.7931034 15.3182587,59.3684483 8.6915468,55.5512069 C10.9263943,64.3817586 26.1144621,71.6896552 44.532496,71.6896552 C64.4890722,71.6896552 80.6680892,63.1107586 80.6680892,53.3103448 C80.6680892,49.0011034 77.5326315,45.2036552 72.3291061,42.2983103 L72.3291061,42.2983103 Z" id="Stroke-138" stroke="#000000"></path>
                                <path d="M43.1426654,47.6551724 C23.1860892,47.6551724 7.00707222,39.7096552 7.00707222,29.9092414 L7.00707222,21.9184828 C2.6416146,24.7022414 0.0579196823,28.1914828 0.0579196823,32.1034483 C0.0579196823,41.9038621 16.2369366,50.4827586 36.1935129,50.4827586 C45.802801,50.4827586 54.528157,48.4907241 61.0005976,45.3337241 C55.7317502,46.8083103 49.6401231,47.6551724 43.1426654,47.6551724 L43.1426654,47.6551724 Z" id="Stroke-140" stroke="#000000"></path>
                                <path d="M61.0005976,45.3337241 C54.528157,48.4907241 45.802801,50.4827586 36.1935129,50.4827586 C16.2369366,50.4827586 0.0579196823,41.9038621 0.0579196823,32.1034483 L0.0579196823,44.0471724 C0.0579196823,53.8475862 16.2369366,61.7931034 36.1935129,61.7931034 C56.1500892,61.7931034 72.3291061,53.8475862 72.3291061,44.0471724 L72.3291061,40.3684828 C69.3173434,42.3916207 65.4550044,44.0881724 61.0005976,45.3337241 L61.0005976,45.3337241 Z" id="Stroke-142" stroke="#000000"></path>
                            </g>
                        </g>
                    </g>
                </g>
            </g>
        </g>
    </g>
</svg>