<?xml version="1.0" encoding="UTF-8" standalone="no"?>
<svg width="559px" height="494px" viewBox="0 0 559 494" version="1.1" xmlns="http://www.w3.org/2000/svg" xmlns:xlink="http://www.w3.org/1999/xlink">
    <!-- Generator: Sketch 39.1 (31720) - http://www.bohemiancoding.com/sketch -->
    <title>Imported Layers</title>
    <desc>Created with Sketch.</desc>
    <defs></defs>
    <g id="BrandCaptcha" stroke="none" stroke-width="1" fill="none" fill-rule="evenodd">
        <g id="Advertisers" transform="translate(-818.000000, -2429.000000)">
            <g id="Banner-Blindness" transform="translate(0.000000, 2278.000000)">
                <g id="Imported-Layers" transform="translate(820.000000, 152.000000)">
                    <polyline id="Fill-1" fill="#D0D0D1" points="267.00083 31.3564112 294.757642 31.3564112 283.660992 56.8664323 255.905048 56.8664323 267.00083 31.3564112"></polyline>
                    <polygon id="Stroke-2" stroke="#211F22" stroke-width="2.751" stroke-linecap="round" stroke-linejoin="round" points="267.00083 31.3564112 294.757642 31.3564112 283.660992 56.8664323 255.905048 56.8664323"></polygon>
                    <polyline id="Fill-3" fill="#EFEDEE" points="294.620529 31.3564112 266.864585 31.3564112 307.218485 97.537652 334.974429 97.537652 294.620529 31.3564112"></polyline>
                    <polygon id="Stroke-4" stroke="#211F22" stroke-width="2.751" stroke-linecap="round" stroke-linejoin="round" points="294.620529 31.3564112 266.864585 31.3564112 307.218485 97.537652 334.974429 97.537652"></polygon>
                    <polyline id="Fill-5" fill="#D0D0D1" points="264.235129 0.605996485 236.478317 0.605996485 247.574967 26.1160176 275.330911 26.1160176 264.235129 0.605996485"></polyline>
                    <polygon id="Stroke-6" stroke="#211F22" stroke-width="2.751" stroke-linecap="round" stroke-linejoin="round" points="264.235129 0.605996485 236.478317 0.605996485 247.574967 26.1160176 275.330911 26.1160176"></polygon>
                    <polyline id="Fill-7" fill="#EFEDEE" points="236.615431 0.605996485 264.372243 0.605996485 233.47744 66.7872373 205.721496 66.7872373 236.615431 0.605996485"></polyline>
                    <polygon id="Stroke-8" stroke="#211F22" stroke-width="2.751" stroke-linecap="round" stroke-linejoin="round" points="236.615431 0.605996485 264.372243 0.605996485 233.47744 66.7872373 205.721496 66.7872373"></polygon>
                    <path d="M554.728367,168.666707 C553.962961,163.733652 550.444871,159.670524 545.672799,158.210228 L363.050594,102.341346 L353.061266,55.5650158 C352.226435,51.6555571 349.641238,48.3451494 346.051988,46.5888014 C342.462737,44.8315852 338.265154,44.8202988 334.667226,46.5610193 L298.082212,64.2495185 C293.578292,66.4286749 290.718868,70.9962214 290.729281,76.0022039 C290.739695,81.0073181 293.617344,85.5644464 298.129941,87.7227663 L330.360299,103.14529 C332.46126,104.150654 334.699334,104.543076 336.867117,104.391142 L339.205857,115.345093 C340.317518,120.548155 344.393608,124.344749 349.285437,125.364872 L512.338591,175.249322 L383.541257,229.620576 L397.267362,251.787199 L549.265521,181.377873 C553.372852,178.538025 555.493773,173.601497 554.728367,168.666707" id="Fill-9" fill="#F8CF93"></path>
                    <path d="M318.908715,257.606675 L391.430491,226.203381 L400.440065,250.316485 L329.251241,281.508808 C326.731129,282.600991 324.056547,282.831062 321.552924,282.334457 C317.501132,281.52704 313.899733,278.811343 312.134613,274.730851 C309.278659,268.130004 312.312513,260.463888 318.908715,257.606675" id="Fill-10" fill="#788D8A"></path>
                    <path d="M554.728367,168.666707 C553.962961,163.733652 550.444871,159.670524 545.672799,158.210228 L363.050594,102.341346 L353.061266,55.5650158 C352.226435,51.6555571 349.641238,48.3451494 346.051988,46.5888014 C342.462737,44.8315852 338.265154,44.8202988 334.667226,46.5610193 L298.082212,64.2495185 C293.578292,66.4286749 290.718868,70.9962214 290.729281,76.0022039 C290.739695,81.0073181 293.617344,85.5644464 298.129941,87.7227663 L330.360299,103.14529 C332.46126,104.150654 334.699334,104.543076 336.867117,104.391142 L339.205857,115.345093 C340.317518,120.548155 344.393608,124.344749 349.285437,125.364872 L512.338591,175.249322 L391.457393,226.278914 L391.430491,226.203381 L318.908715,257.606675 C312.312513,260.463888 309.278659,268.130004 312.134613,274.730851 C313.899733,278.811343 317.501132,281.52704 321.552924,282.334457 C324.056547,282.831062 326.731129,282.600991 329.251241,281.508808 L397.228311,251.723821 L397.267362,251.787199 L400.439198,250.317353 L400.440065,250.316485 L549.265521,181.377873 C553.372852,178.538025 555.493773,173.601497 554.728367,168.666707 L554.728367,168.666707 Z M400.440065,249.864158 L391.608392,226.679149 L400.440065,249.864158 Z" id="Stroke-11" stroke="#211F22" stroke-width="3.007" stroke-linecap="round" stroke-linejoin="round"></path>
                    <path d="M0.208273717,168.666707 C0.973679627,163.733652 4.49176983,159.670524 9.26470918,158.210228 L191.885179,102.341346 L201.875375,55.5650158 C202.711073,51.6555571 205.294535,48.3451494 208.884653,46.5888014 C212.473904,44.8315852 216.671487,44.8202988 220.269415,46.5610193 L256.853561,64.2495185 C261.359216,66.4286749 264.217773,70.9962214 264.207359,76.0022039 C264.196078,81.0073181 261.320165,85.5644464 256.8067,87.7227663 L224.576342,103.14529 C222.475381,104.150654 220.238174,104.543076 218.069524,104.391142 L215.730784,115.345093 C214.618255,120.548155 210.542165,124.344749 205.651204,125.364872 L42.5980498,175.249322 L171.395384,229.620576 L157.669278,251.787199 L5.67025194,181.377873 C1.5646563,178.538025 -0.558,173.601497 0.208273717,168.666707" id="Fill-12" fill="#F8CF93"></path>
                    <path d="M236.027058,257.606675 L163.507017,226.203381 L154.496575,250.316485 L225.6854,281.508808 C228.205512,282.600991 230.880093,282.831062 233.383717,282.334457 C237.434641,281.52704 241.036908,278.811343 242.802028,274.730851 C245.657981,268.130004 242.624128,260.463888 236.027058,257.606675" id="Fill-13" fill="#819B98"></path>
                    <path d="M0.208273717,168.666707 C0.973679627,163.733652 4.49176983,159.670524 9.26470918,158.210228 L191.885179,102.341346 L201.875375,55.5650158 C202.711073,51.6555571 205.294535,48.3451494 208.884653,46.5888014 C212.473904,44.8315852 216.671487,44.8202988 220.269415,46.5610193 L256.853561,64.2495185 C261.359216,66.4286749 264.217773,70.9962214 264.207359,76.0022039 C264.196078,81.0073181 261.320165,85.5644464 256.8067,87.7227663 L224.576342,103.14529 C222.475381,104.150654 220.238174,104.543076 218.069524,104.391142 L215.730784,115.345093 C214.618255,120.548155 210.542165,124.344749 205.651204,125.364872 L42.5980498,175.249322 L163.479247,226.278914 L163.507017,226.203381 L236.027058,257.606675 C242.624128,260.463888 245.657981,268.130004 242.802028,274.730851 C241.036908,278.811343 237.434641,281.52704 233.383717,282.334457 C230.880093,282.831062 228.205512,282.600991 225.6854,281.508808 L157.707462,251.723821 L157.669278,251.787199 L154.497443,250.317353 L154.496575,250.316485 L5.67025194,181.377873 C1.5646563,178.538025 -0.558,173.601497 0.208273717,168.666707 L0.208273717,168.666707 Z M154.496575,249.864158 L163.329117,226.679149 L154.496575,249.864158 Z" id="Stroke-14" stroke="#211F22" stroke-width="3.007" stroke-linecap="round" stroke-linejoin="round"></path>
                    <path d="M272.605129,261.475329 C244.887369,261.475329 222.418974,283.954499 222.418974,311.684482 L222.418974,487.911385 L322.792152,487.911385 L322.792152,311.684482 C322.792152,283.954499 300.32289,261.475329 272.605129,261.475329" id="Fill-15" fill="#819B98"></path>
                    <path d="M321.096457,316.440425 C321.096457,288.711311 298.627194,266.231272 270.910302,266.231272 L270.910302,492.668197 L321.096457,492.668197 L321.096457,316.440425" id="Fill-16" fill="#788D8A"></path>
                    <path d="M322.792152,311.684482 C322.792152,283.954499 300.32289,261.475329 272.605129,261.475329 C244.887369,261.475329 222.418974,283.954499 222.418974,311.684482 L222.418974,487.911385 L322.792152,487.911385 L322.792152,311.684482 L322.792152,311.684482 Z" id="Stroke-17" stroke="#211F22" stroke-width="2.751" stroke-linecap="round" stroke-linejoin="round"></path>
                    <path d="M367.242103,482.554654 L367.242103,488.005149 C367.242103,489.844844 365.750342,491.335525 363.911459,491.335525 L179.573599,491.335525 C177.735583,491.335525 176.243823,489.844844 176.243823,488.005149 L176.243823,482.554654 L367.242103,482.554654" id="Fill-18" fill="#D0D0D1"></path>
                    <path d="M367.242103,482.554654 L367.242103,488.005149 C367.242103,489.844844 365.750342,491.335525 363.911459,491.335525 L179.573599,491.335525 C177.735583,491.335525 176.243823,489.844844 176.243823,488.005149 L176.243823,482.554654 L367.242103,482.554654 L367.242103,482.554654 Z" id="Stroke-19" stroke="#211F22" stroke-width="3" stroke-linecap="round" stroke-linejoin="round"></path>
                    <path d="M357.260585,373.404095 C357.260585,371.565269 355.768824,370.073719 353.929941,370.073719 L189.555117,370.073719 C187.716233,370.073719 186.225341,371.565269 186.225341,373.404095 L186.225341,486.0769 L357.260585,486.0769 L357.260585,373.404095" id="Fill-20" fill="#EFEDEE"></path>
                    <path d="M357.260585,373.404095 C357.260585,371.565269 355.768824,370.073719 353.929941,370.073719 L189.555117,370.073719 C187.716233,370.073719 186.225341,371.565269 186.225341,373.404095 L186.225341,486.0769 L357.260585,486.0769 L357.260585,373.404095 L357.260585,373.404095 Z" id="Stroke-21" stroke="#211F22" stroke-width="3" stroke-linecap="round" stroke-linejoin="round"></path>
                    <path d="M279.472955,433.360415 C279.472955,437.631909 276.01214,441.09425 271.742529,441.09425 C267.472918,441.09425 264.011235,437.631909 264.011235,433.360415 C264.011235,429.088921 267.472918,425.62658 271.742529,425.62658 C276.01214,425.62658 279.472955,429.088921 279.472955,433.360415" id="Fill-22" fill="#D0D0D1"></path>
                    <path d="M279.472955,433.360415 C279.472955,437.631909 276.01214,441.09425 271.742529,441.09425 C267.472918,441.09425 264.011235,437.631909 264.011235,433.360415 C264.011235,429.088921 267.472918,425.62658 271.742529,425.62658 C276.01214,425.62658 279.472955,429.088921 279.472955,433.360415 L279.472955,433.360415 Z" id="Stroke-23" stroke="#211F22" stroke-width="3" stroke-linecap="round" stroke-linejoin="round"></path>
                    <path d="M291.258644,266.15574 C291.258644,276.463757 282.905132,284.818348 272.605997,284.818348 C262.30339,284.818348 253.952482,276.463757 253.952482,266.15574 L253.952482,186.340446 C253.952482,176.035902 262.30339,167.679575 272.605997,167.679575 C282.905132,167.679575 291.258644,176.035902 291.258644,186.340446 L291.258644,266.15574" id="Fill-24" fill="#F7CE93"></path>
                    <path d="M291.258644,266.15574 C291.258644,276.463757 282.905132,284.818348 272.605997,284.818348 C262.30339,284.818348 253.952482,276.463757 253.952482,266.15574 L253.952482,186.340446 C253.952482,176.035902 262.30339,167.679575 272.605997,167.679575 C282.905132,167.679575 291.258644,176.035902 291.258644,186.340446 L291.258644,266.15574 L291.258644,266.15574 Z" id="Stroke-25" stroke="#211F22" stroke-width="2.751" stroke-linecap="round" stroke-linejoin="round"></path>
                    <path d="M182.807916,205.407631 C182.807916,212.022369 188.168361,217.385178 194.780184,217.385178 C201.392006,217.385178 206.752451,212.022369 206.752451,205.407631 L206.752451,196.464408 C206.752451,189.84967 201.392006,184.486861 194.780184,184.486861 C188.168361,184.486861 182.807916,189.84967 182.807916,196.464408 L182.807916,205.407631" id="Fill-26" fill="#FFDFB1"></path>
                    <path d="M182.807916,205.407631 C182.807916,212.022369 188.168361,217.385178 194.780184,217.385178 C201.392006,217.385178 206.752451,212.022369 206.752451,205.407631 L206.752451,196.464408 C206.752451,189.84967 201.392006,184.486861 194.780184,184.486861 C188.168361,184.486861 182.807916,189.84967 182.807916,196.464408 L182.807916,205.407631 L182.807916,205.407631 Z" id="Stroke-27" stroke="#211F22" stroke-width="2.751" stroke-linecap="round" stroke-linejoin="round"></path>
                    <path d="M332.567132,205.407631 C332.567132,212.022369 337.927577,217.385178 344.5394,217.385178 C351.15209,217.385178 356.511667,212.022369 356.511667,205.407631 L356.511667,196.464408 C356.511667,189.84967 351.15209,184.486861 344.5394,184.486861 C337.927577,184.486861 332.567132,189.84967 332.567132,196.464408 L332.567132,205.407631" id="Fill-28" fill="#FFDFB1"></path>
                    <path d="M332.567132,205.407631 C332.567132,212.022369 337.927577,217.385178 344.5394,217.385178 C351.15209,217.385178 356.511667,212.022369 356.511667,205.407631 L356.511667,196.464408 C356.511667,189.84967 351.15209,184.486861 344.5394,184.486861 C337.927577,184.486861 332.567132,189.84967 332.567132,196.464408 L332.567132,205.407631 L332.567132,205.407631 Z" id="Stroke-29" stroke="#211F22" stroke-width="2.751" stroke-linecap="round" stroke-linejoin="round"></path>
                    <path d="M344.5394,221.171353 C344.5394,261.135866 312.154572,293.535842 272.207673,293.535842 L268.992448,293.535842 C229.044681,293.535842 196.660722,261.135866 196.660722,221.171353 L196.660722,155.240151 C196.660722,115.273902 229.044681,82.8756626 268.992448,82.8756626 L272.207673,82.8756626 C312.154572,82.8756626 344.5394,115.273902 344.5394,155.240151 L344.5394,221.171353" id="Fill-30" fill="#F7CE93"></path>
                    <path d="M268.992448,82.8756626 C229.044681,82.8756626 196.660722,115.273902 196.660722,155.240151 L196.660722,221.171353 C196.660722,261.135866 229.044681,293.535842 268.992448,293.535842 L270.599627,293.535842 L270.599627,82.8756626 L268.992448,82.8756626" id="Fill-31" fill="#FFDFB1"></path>
                    <path d="M344.5394,221.171353 C344.5394,261.135866 312.154572,293.535842 272.207673,293.535842 L268.992448,293.535842 C229.044681,293.535842 196.660722,261.135866 196.660722,221.171353 L196.660722,155.240151 C196.660722,115.273902 229.044681,82.8756626 268.992448,82.8756626 L272.207673,82.8756626 C312.154572,82.8756626 344.5394,115.273902 344.5394,155.240151 L344.5394,221.171353 L344.5394,221.171353 Z" id="Stroke-32" stroke="#211F22" stroke-width="2.751" stroke-linecap="round" stroke-linejoin="round"></path>
                    <path d="M301.687082,240.342721 C290.35786,240.342721 279.747182,236.968067 270.599627,231.102576 C261.453807,236.968067 250.843129,240.342721 239.514774,240.342721 C222.897135,240.342721 207.814647,233.103754 196.660722,221.334573 L196.660722,255.567297 C196.660722,288.173033 223.080243,314.604204 255.671608,314.604204 L285.528513,314.604204 C318.119879,314.604204 344.5394,288.173033 344.5394,255.567297 L344.5394,221.334573 C333.386342,233.103754 318.303854,240.342721 301.687082,240.342721" id="Fill-33" fill="#F48F59"></path>
                    <path d="M240.327042,71.5970088 L196.656383,109.302492 L196.646837,202.791775 L201.697474,202.791775 L201.697474,158.23367 C212.236124,151.429666 223.069829,139.42781 231.446771,124.079951 C236.15289,115.45709 240.544862,105.431234 242.769051,97.0445202 C251.514812,133.841009 289.907468,162.812503 339.421941,169.223216 L339.421941,202.791775 L344.471711,202.791775 L344.535061,96.3881687 L240.327042,71.5970088" id="Fill-34" fill="#F6985B"></path>
                    <path d="M301.891885,240.342721 C290.562663,240.342721 279.952852,236.968067 270.806165,231.102576 L270.806165,314.604204 L285.734184,314.604204 C318.325549,314.604204 344.74507,288.173033 344.74507,255.567297 L344.74507,221.334573 C333.592012,233.103754 318.508656,240.342721 301.891885,240.342721" id="Fill-35" fill="#D68550"></path>
                    <path d="M339.627611,202.791775 L344.677381,202.791775 L344.740731,96.3881687 L270.806165,78.7995114 L270.806165,140.350696 C288.254295,155.214105 312.231807,165.676661 339.627611,169.223216 L339.627611,202.791775" id="Fill-36" fill="#D68550"></path>
                    <path d="M301.687082,240.342721 C290.35786,240.342721 279.747182,236.968067 270.599627,231.102576 C261.453807,236.968067 250.843129,240.342721 239.514774,240.342721 C222.897135,240.342721 207.814647,233.103754 196.660722,221.334573 L196.660722,255.567297 C196.660722,288.173033 223.080243,314.604204 255.671608,314.604204 L285.528513,314.604204 C318.119879,314.604204 344.5394,288.173033 344.5394,255.567297 L344.5394,221.334573 C333.386342,233.103754 318.303854,240.342721 301.687082,240.342721 L301.687082,240.342721 Z" id="Stroke-37" stroke="#211F22" stroke-width="2.751" stroke-linecap="round" stroke-linejoin="round"></path>
                    <path d="M290.515801,227.87812 L281.710162,227.87812 C278.974834,227.87812 276.748908,225.651213 276.748908,222.914678 C276.748908,219.517452 273.996224,216.762685 270.599627,216.762685 C267.203897,216.762685 264.450345,219.517452 264.450345,222.914678 C264.450345,225.651213 262.225288,227.87812 259.48996,227.87812 L250.68432,227.87812 C241.167079,227.87812 233.424504,235.623241 233.424504,245.144678 C233.424504,248.541905 236.178056,251.296671 239.573785,251.296671 C242.968647,251.296671 245.723067,248.541905 245.723067,245.144678 C245.723067,242.407276 247.948992,240.181237 250.68432,240.181237 L259.48996,240.181237 C263.720519,240.181237 267.594411,238.644541 270.599627,236.108559 C273.604843,238.644541 277.479602,240.181237 281.710162,240.181237 L290.515801,240.181237 C293.251997,240.181237 295.477054,242.407276 295.477054,245.144678 C295.477054,248.541905 298.230607,251.296671 301.626336,251.296671 C305.022065,251.296671 307.775617,248.541905 307.775617,245.144678 C307.775617,235.623241 300.032174,227.87812 290.515801,227.87812" id="Fill-38" fill="#F6985B"></path>
                    <path d="M270.599627,236.108559 C273.604843,238.644541 277.479602,240.181237 281.710162,240.181237 L290.515801,240.181237 C293.251997,240.181237 295.477054,242.407276 295.477054,245.144678 C295.477054,248.541905 298.230607,251.296671 301.626336,251.296671 C305.022065,251.296671 307.775617,248.541905 307.775617,245.144678 C307.775617,235.623241 300.032174,227.87812 290.515801,227.87812 L281.710162,227.87812 C278.974834,227.87812 276.748908,225.651213 276.748908,222.914678 C276.748908,219.517452 273.996224,216.762685 270.599627,216.762685" id="Fill-39" fill="#D68550"></path>
                    <path d="M290.515801,227.87812 L281.710162,227.87812 C278.974834,227.87812 276.748908,225.651213 276.748908,222.914678 C276.748908,219.517452 273.996224,216.762685 270.599627,216.762685 C267.203897,216.762685 264.450345,219.517452 264.450345,222.914678 C264.450345,225.651213 262.225288,227.87812 259.48996,227.87812 L250.68432,227.87812 C241.167079,227.87812 233.424504,235.623241 233.424504,245.144678 C233.424504,248.541905 236.178056,251.296671 239.573785,251.296671 C242.968647,251.296671 245.723067,248.541905 245.723067,245.144678 C245.723067,242.407276 247.948992,240.181237 250.68432,240.181237 L259.48996,240.181237 C263.720519,240.181237 267.594411,238.644541 270.599627,236.108559 C273.604843,238.644541 277.479602,240.181237 281.710162,240.181237 L290.515801,240.181237 C293.251997,240.181237 295.477054,242.407276 295.477054,245.144678 C295.477054,248.541905 298.230607,251.296671 301.626336,251.296671 C305.022065,251.296671 307.775617,248.541905 307.775617,245.144678 C307.775617,235.623241 300.032174,227.87812 290.515801,227.87812 L290.515801,227.87812 Z" id="Stroke-40" stroke="#000000" stroke-width="2.751" stroke-linecap="round" stroke-linejoin="round"></path>
                    <path d="M279.244722,218.585884 C279.244722,223.367005 275.369963,227.242605 270.590949,227.242605 C265.812802,227.242605 261.938044,223.367005 261.938044,218.585884" id="Fill-41" fill="#F7CE93"></path>
                    <path d="M279.244722,218.585884 C279.244722,223.367005 275.369963,227.242605 270.590949,227.242605 C265.812802,227.242605 261.938044,223.367005 261.938044,218.585884" id="Stroke-42" stroke="#211F22" stroke-width="2.751" stroke-linecap="round" stroke-linejoin="round"></path>
                    <path d="M278.062768,217.248872 C278.062768,220.89961 274.71824,223.860137 270.590949,223.860137 C266.464526,223.860137 263.119129,220.89961 263.119129,217.248872 C263.119129,213.599002 266.464526,210.639343 270.590949,210.639343 C274.71824,210.639343 278.062768,213.599002 278.062768,217.248872" id="Fill-43" fill="#F7CE93"></path>
                    <path d="M296.003813,174.316018 L310.377303,165.290316 L296.003813,174.316018 Z M228.590818,164.182506 L243.681117,171.951069 L228.590818,164.182506 Z M240.327042,71.5970088 L196.656383,109.302492 L196.646837,202.791775 L201.697474,202.791775 L201.697474,158.23367 C212.236124,151.429666 223.069829,139.42781 231.446771,124.079951 C236.15289,115.45709 240.544862,105.431234 242.769051,97.0445202 C251.514812,133.841009 289.907468,162.812503 339.421941,169.223216 L339.421941,202.791775 L344.471711,202.791775 L344.535061,96.3881687 L240.327042,71.5970088 L240.327042,71.5970088 Z" id="Stroke-44" stroke="#211F22" stroke-width="2.751" stroke-linecap="round" stroke-linejoin="round"></path>
                    <path d="M211.20083,138.388587 C210.917925,138.388587 210.63502,138.288745 210.406787,138.086457 C209.91474,137.648021 209.870482,136.892696 210.309593,136.400432 C215.640532,130.408186 220.450787,123.510418 224.605848,115.897262 C226.953266,111.597118 229.181795,107.007866 231.051051,102.623508 C231.30879,102.015775 232.009978,101.734482 232.616575,101.993202 C233.223173,102.251923 233.50521,102.95342 233.246603,103.560285 C231.347841,108.014098 229.0846,112.676278 226.700734,117.041536 C222.45976,124.814439 217.544501,131.861536 212.092068,137.988351 C211.856893,138.253149 211.528862,138.388587 211.20083,138.388587" id="Fill-45" fill="#211F22"></path>
                    <path d="M329.198305,160.415431 C329.094168,160.415431 328.987428,160.40154 328.881555,160.372889 C294.673465,150.992098 268.311219,130.704239 256.5533,104.709768 C256.280809,104.108981 256.547226,103.401406 257.148616,103.129663 C257.749138,102.856183 258.456401,103.124453 258.728025,103.725241 C270.191757,129.069438 295.991664,148.877188 329.512451,158.069582 C330.148554,158.244088 330.522579,158.900439 330.348149,159.536822 C330.203226,160.067286 329.72246,160.415431 329.198305,160.415431" id="Fill-46" fill="#211F22"></path>
                    <path d="M300.646582,134.169185 C300.455664,134.169185 300.260407,134.122302 300.079904,134.025065 C285.494669,126.136692 273.252513,115.681951 264.677711,103.790355 C264.291537,103.25555 264.412162,102.508907 264.947599,102.122562 C265.482168,101.737954 266.228482,101.857764 266.613788,102.392569 C274.980317,113.99419 286.944774,124.205838 301.215863,131.924046 C301.795558,132.237462 302.011642,132.962401 301.697496,133.542351 C301.481412,133.941719 301.070939,134.169185 300.646582,134.169185" id="Fill-47" fill="#211F22"></path>
                    <polyline id="Fill-48" fill="#F6985B" points="234.928414 78.2438699 214.069801 68.9802847 226.173975 87.5074552 208.422112 85.3300351 216.271428 96.7710404"></polyline>
                    <polyline id="Stroke-49" stroke="#000000" stroke-width="3" stroke-linecap="round" stroke-linejoin="round" points="234.928414 78.2438699 214.069801 68.9802847 226.173975 87.5074552 208.422112 85.3300351 216.271428 96.7710404"></polyline>
                    <path d="M307.773014,91.1008928 C307.686233,91.2493533 335.087244,75.3675571 335.087244,75.3675571 L331.143928,93.2027803 L362.402342,82.8756626 L341.778905,104.217504" id="Fill-50" fill="#D6854F"></path>
                    <path d="M307.773014,91.1008928 C307.686233,91.2493533 335.087244,75.3675571 335.087244,75.3675571 L331.143928,93.2027803 L362.402342,82.8756626 L341.778905,104.217504" id="Stroke-51" stroke="#000000" stroke-width="3" stroke-linecap="round" stroke-linejoin="round"></path>
                    <polygon id="Fill-52" fill="#EFEDEE" points="196.646837 170.494246 344.471711 170.494246 344.471711 202.791775 196.646837 202.791775"></polygon>
                    <polyline id="Fill-53" fill="#EFEDEE" points="353.110731 202.791775 344.74507 202.791775 344.74507 104.217504 353.110731 202.791775"></polyline>
                    <path d="M196.646837,170.494246 L344.471711,170.494246 L344.471711,202.791775 L196.646837,202.791775 L196.646837,170.494246 Z M353.110731,202.791775 L344.74507,202.791775 L344.74507,104.217504 L353.110731,202.791775 L353.110731,202.791775 Z" id="Stroke-54" stroke="#211F22" stroke-width="2.751" stroke-linecap="round" stroke-linejoin="round"></path>
                    <polyline id="Fill-55" fill="#EFEDEE" points="189.178488 202.791775 197.545017 202.791775 197.545017 104.217504 189.178488 202.791775"></polyline>
                    <polygon id="Stroke-56" stroke="#211F22" stroke-width="2.751" stroke-linecap="round" stroke-linejoin="round" points="189.178488 202.791775 197.545017 202.791775 197.545017 109.302492"></polygon>
                    <polyline id="Fill-57" fill="#F6985B" points="201.700946 122.38264 185.02256 141.988102 201.700946 135.374232"></polyline>
                    <polyline id="Stroke-58" stroke="#000000" stroke-width="3" stroke-linecap="round" stroke-linejoin="round" points="201.700946 122.38264 185.02256 141.988102 201.700946 135.374232"></polyline>
                    <path d="M344.5394,187.091431 L317.183515,184.924429 M344.5394,187.091431 L329.197437,192.738137 M197.522454,187.091431 L224.879207,184.924429 M197.522454,187.091431 L212.865285,192.738137 M243.681117,184.27155 C254.795991,184.27155 254.795991,187.744309 265.910865,187.744309 C277.027474,187.744309 277.027474,184.27155 288.144084,184.27155 C299.261561,184.27155 299.261561,187.744309 310.377303,187.744309 M301.99689,193.606327 C292.850202,193.606327 292.850202,191.869947 283.703515,191.869947 C274.55596,191.869947 274.55596,193.606327 265.409272,193.606327 M267.473785,246.243807 C273.359253,246.243807 273.359253,247.980186 279.245589,247.980186 C285.131058,247.980186 285.131058,246.243807 291.016526,246.243807" id="Stroke-59" stroke="#211F22" stroke-width="2.751" stroke-linecap="round" stroke-linejoin="round"></path>
                </g>
            </g>
        </g>
    </g>
</svg>