<svg width="373px" height="51px" viewBox="0 0 373 51" version="1.1" xmlns="http://www.w3.org/2000/svg" xmlns:xlink="http://www.w3.org/1999/xlink">
    <!-- Generator: Sketch 39.1 (31720) - http://www.bohemiancoding.com/sketch -->
    <title>brandcaptcha-white</title>
    <desc>Created with Sketch.</desc>
    <defs></defs>
    <g id="Page-1" stroke="none" stroke-width="1" fill="none" fill-rule="evenodd">
        <g id="brandcaptcha-white">
            <path d="M89.7191753,25.6653571 C91.7797938,24.6203571 93.6602062,22.8367857 93.6602062,19.5367857 L93.6602062,19.4660714 C93.6602062,17.6078571 93.0294845,16.0992857 91.8072165,14.8775 C90.2323711,13.2982143 87.7564948,12.43 84.6068041,12.43 L74.6876289,12.43 C73.3086598,12.43 72.2509278,13.4985714 72.2509278,14.8775 L72.2509278,37.62 C72.2509278,38.9832143 73.3086598,40.0596429 74.6876289,40.0596429 L84.9946392,40.0596429 C91.1334021,40.0596429 95.1919588,37.4117857 95.1919588,32.4853571 L95.1919588,32.4028571 C95.1919588,28.6432143 92.943299,26.8007143 89.7191753,25.6653571 L89.7191753,25.6653571 Z M77.0107216,16.7278571 L83.9760825,16.7278571 C87.0905155,16.7278571 88.8259794,18.0675 88.8259794,20.2557143 L88.8259794,20.3225 C88.8259794,22.8367857 86.7379381,24.0625 83.6235052,24.0625 L77.0107216,24.0625 L77.0107216,16.7278571 L77.0107216,16.7278571 Z M90.3616495,31.9667857 C90.3616495,34.4535714 88.3441237,35.7460714 85.0416495,35.7460714 L77.0107216,35.7460714 L77.0107216,28.1796429 L84.6890722,28.1796429 C88.5047423,28.1796429 90.3616495,29.5585714 90.3616495,31.8842857 L90.3616495,31.9667857 L90.3616495,31.9667857 Z M109.138351,18.9514286 C107.054227,18.9514286 105.005361,20.9235714 103.900619,23.5085714 L103.900619,21.3792857 C103.900619,20.0592857 102.835052,18.9671429 101.49134,18.9671429 C100.155464,18.9671429 99.1134021,20.0592857 99.1134021,21.3792857 L99.1134021,37.8832143 C99.1134021,39.2228571 100.186804,40.2482143 101.49134,40.2482143 C102.835052,40.2482143 103.900619,39.1914286 103.900619,37.8832143 L103.900619,31.7153571 C103.900619,26.8007143 106.223711,24.1921429 109.588866,23.6107143 C110.666186,23.3907143 111.496701,22.5775 111.496701,21.3164286 C111.496701,19.9453571 110.619175,18.9514286 109.138351,18.9514286 L109.138351,18.9514286 Z M121.674433,18.9514286 C118.975258,18.9514286 116.961649,19.4267857 114.995052,20.1732143 C114.285979,20.4442857 113.694433,21.1789286 113.694433,22.0510714 C113.694433,23.1628571 114.583711,24.035 115.692371,24.035 C115.927423,24.035 116.170309,23.9839286 116.444536,23.9014286 C117.745155,23.3907143 119.233814,23.0960714 121.055464,23.0960714 C124.381443,23.0960714 126.20701,24.6557143 126.20701,27.6217857 L126.20701,28.1325 C124.581237,27.6217857 122.939794,27.2760714 120.624536,27.2760714 C115.539588,27.2760714 112.041237,29.48 112.041237,33.9742857 L112.041237,34.0489286 C112.041237,38.2564286 115.508247,40.4957143 119.390515,40.4957143 C122.587216,40.4957143 124.745773,39.1403571 126.171753,37.4432143 L126.171753,38.2564286 C126.171753,39.3132143 127.115876,40.2482143 128.48701,40.2482143 C129.775876,40.2482143 130.814021,39.2778571 130.814021,37.9735714 L130.814021,27.6964286 C130.814021,24.9739286 130.104948,22.7542857 128.569278,21.2575 C127.115876,19.7725 124.788866,18.9514286 121.674433,18.9514286 L121.674433,18.9514286 Z M126.304948,32.5560714 C126.304948,35.2039286 123.88,37.0071429 120.730309,37.0071429 C118.458144,37.0071429 116.69134,35.8560714 116.69134,33.8682143 L116.69134,33.7660714 C116.69134,31.6092857 118.493402,30.3089286 121.572577,30.3089286 C123.43732,30.3089286 125.074845,30.6625 126.304948,31.1339286 L126.304948,32.5560714 L126.304948,32.5560714 Z M146.793608,18.7785714 C143.557732,18.7785714 141.638144,20.4717857 140.298351,22.4046429 L140.298351,21.3792857 C140.298351,20.0592857 139.236701,18.9671429 137.900825,18.9671429 C136.557113,18.9671429 135.526804,20.0592857 135.526804,21.3792857 L135.526804,37.8832143 C135.526804,39.2228571 136.608041,40.2482143 137.900825,40.2482143 C139.236701,40.2482143 140.298351,39.2228571 140.298351,37.8832143 L140.298351,28.3053571 C140.298351,25.0525 142.233608,23.1353571 144.968041,23.1353571 C147.812165,23.1353571 149.430103,24.9739286 149.430103,28.2189286 L149.430103,37.8832143 C149.430103,39.2228571 150.491753,40.2482143 151.827629,40.2482143 C153.163505,40.2482143 154.193814,39.2228571 154.193814,37.8832143 L154.193814,26.7614286 C154.193814,21.9410714 151.447629,18.7785714 146.793608,18.7785714 L146.793608,18.7785714 Z M176.966392,11.0392857 C175.669691,11.0392857 174.611959,12.0842857 174.611959,13.4278571 L174.611959,22.4557143 C173.123299,20.4717857 170.960825,18.7785714 167.521237,18.7785714 C162.565567,18.7785714 157.888041,22.6914286 157.888041,29.6017857 L157.888041,29.6764286 C157.888041,36.575 162.659588,40.4957143 167.521237,40.4957143 C170.905979,40.4957143 173.080206,38.7553571 174.611959,36.575 L174.611959,37.8832143 C174.611959,39.2228571 175.669691,40.2482143 177.009485,40.2482143 C178.302268,40.2482143 179.37567,39.2228571 179.37567,37.8832143 L179.37567,13.4278571 C179.37567,12.0842857 178.302268,11.0392857 176.966392,11.0392857 L176.966392,11.0392857 Z M174.674639,29.6764286 C174.674639,33.6482143 171.857938,36.3510714 168.661237,36.3510714 C165.441031,36.3510714 162.698763,33.6992857 162.698763,29.6764286 L162.698763,29.6017857 C162.698763,25.4571429 165.409691,22.9428571 168.661237,22.9428571 C171.857938,22.9428571 174.674639,25.5632143 174.674639,29.6017857 L174.674639,29.6764286 L174.674639,29.6764286 Z" id="Fill-1" fill="#363239"></path>
            <path d="M206.206804,32.835 C205.623093,32.835 205.105979,33.0589286 204.75732,33.3889286 C202.755464,35.0703571 200.788866,36.0525 197.870309,36.0525 C192.589485,36.0525 188.781649,31.6642857 188.781649,26.2507143 L188.781649,26.1603571 C188.781649,20.7428571 192.640412,16.4135714 197.870309,16.4135714 C200.510722,16.4135714 202.551753,17.3682143 204.436082,18.9121429 C204.75732,19.14 205.21567,19.3639286 205.901237,19.3639286 C207.237113,19.3639286 208.298763,18.3385714 208.298763,17.0067857 C208.298763,16.1346429 207.86,15.4628571 207.350722,15.0778571 C204.957113,13.2157143 202.16,11.9428571 197.909485,11.9428571 C189.565155,11.9428571 183.696701,18.3857143 183.696701,26.2507143 L183.696701,26.3135714 C183.696701,34.2532143 189.694433,40.5428571 197.709691,40.5428571 C202.16,40.5428571 205.105979,39.105 207.707216,36.8342857 C208.138144,36.4178571 208.498557,35.8521429 208.498557,35.0703571 C208.498557,33.8682143 207.44866,32.835 206.206804,32.835 L206.206804,32.835 Z M227.674845,14.0053571 C227.110722,12.7992857 226.178351,12.0253571 224.791546,12.0253571 L224.544742,12.0253571 C223.165773,12.0253571 222.190309,12.7992857 221.649691,14.0053571 L211.393608,36.9010714 C211.21732,37.2860714 211.095876,37.6435714 211.095876,37.9814286 C211.095876,39.2778571 212.08701,40.2482143 213.356289,40.2482143 C214.363093,40.2482143 215.193608,39.7060714 215.585361,38.7160714 L217.892784,33.3889286 L231.282887,33.3889286 L233.547216,38.5589286 C233.954639,39.5921429 234.738144,40.2482143 235.882062,40.2482143 C237.18268,40.2482143 238.177732,39.2228571 238.177732,37.9185714 C238.177732,37.62 238.087629,37.2428571 237.887835,36.9010714 L227.674845,14.0053571 L227.674845,14.0053571 Z M219.753608,29.0832143 L224.599588,17.9142857 L229.422062,29.0832143 L219.753608,29.0832143 L219.753608,29.0832143 Z M253.283711,12.43 L244.868866,12.43 C243.482062,12.43 242.416495,13.4985714 242.416495,14.8775 L242.416495,37.8321429 C242.416495,39.1914286 243.482062,40.2482143 244.868866,40.2482143 C246.181237,40.2482143 247.250722,39.1914286 247.250722,37.8321429 L247.250722,31.1771429 L252.739175,31.1771429 C258.799588,31.1771429 263.75134,27.94 263.75134,21.7367857 L263.75134,21.67 C263.75134,16.0992857 259.747629,12.43 253.283711,12.43 L253.283711,12.43 Z M258.834845,21.8742857 C258.834845,24.7421429 256.558763,26.8007143 252.876289,26.8007143 L247.250722,26.8007143 L247.250722,16.8378571 L252.876289,16.8378571 C256.511753,16.8378571 258.834845,18.5467857 258.834845,21.7839286 L258.834845,21.8742857 L258.834845,21.8742857 Z M286.096907,12.43 L267.798144,12.43 C266.544536,12.43 265.561237,13.4475 265.561237,14.6771429 C265.561237,15.8989286 266.544536,16.9282143 267.798144,16.9282143 L274.501031,16.9282143 L274.501031,37.8321429 C274.501031,39.1914286 275.601856,40.2482143 276.945567,40.2482143 C278.285361,40.2482143 279.382268,39.1914286 279.382268,37.8321429 L279.382268,16.9282143 L286.096907,16.9282143 C287.334845,16.9282143 288.310309,15.8989286 288.310309,14.6771429 C288.310309,13.4475 287.334845,12.43 286.096907,12.43 L286.096907,12.43 Z M312.038763,32.835 C311.447216,32.835 310.941856,33.0589286 310.585361,33.3889286 C308.579588,35.0703571 306.605155,36.0525 303.702268,36.0525 C298.437113,36.0525 294.605773,31.6642857 294.605773,26.2507143 L294.605773,26.1603571 C294.605773,20.7428571 298.460619,16.4135714 303.702268,16.4135714 C306.34268,16.4135714 308.379794,17.3682143 310.268041,18.9121429 C310.585361,19.14 311.055464,19.3639286 311.725361,19.3639286 C313.065155,19.3639286 314.122887,18.3385714 314.122887,17.0067857 C314.122887,16.1346429 313.684124,15.4628571 313.190515,15.0778571 C310.773402,13.2157143 307.976289,11.9428571 303.729691,11.9428571 C295.393196,11.9428571 289.532577,18.3857143 289.532577,26.2507143 L289.532577,26.3135714 C289.532577,34.2532143 295.506804,40.5428571 303.549485,40.5428571 C307.976289,40.5428571 310.941856,39.105 313.527423,36.8342857 C313.958351,36.4178571 314.32268,35.8521429 314.32268,35.0703571 C314.32268,33.8682143 313.261031,32.835 312.038763,32.835 L312.038763,32.835 Z M339.187216,12.2335714 C337.859175,12.2335714 336.797526,13.2982143 336.797526,14.6535714 L336.797526,23.9014286 L323.662062,23.9014286 L323.662062,14.6535714 C323.662062,13.2982143 322.58866,12.2335714 321.244948,12.2335714 C319.869897,12.2335714 318.792577,13.2982143 318.792577,14.6535714 L318.792577,37.8321429 C318.792577,39.1914286 319.869897,40.2482143 321.244948,40.2482143 C322.58866,40.2482143 323.662062,39.1914286 323.662062,37.8321429 L323.662062,28.4153571 L336.797526,28.4153571 L336.797526,37.8321429 C336.797526,39.1914286 337.859175,40.2482143 339.187216,40.2482143 C340.577938,40.2482143 341.63567,39.1914286 341.63567,37.8321429 L341.63567,14.6535714 C341.63567,13.2982143 340.577938,12.2335714 339.187216,12.2335714 L339.187216,12.2335714 Z M372.646804,36.9010714 L362.422062,14.0053571 C361.877526,12.7992857 360.909897,12.0253571 359.554433,12.0253571 L359.319381,12.0253571 C357.920825,12.0253571 356.945361,12.7992857 356.385155,14.0053571 L346.168247,36.9010714 C345.960619,37.2860714 345.83134,37.6435714 345.83134,37.9814286 C345.83134,39.2778571 346.838144,40.2482143 348.09567,40.2482143 C349.110309,40.2482143 349.93299,39.7060714 350.32866,38.7160714 L352.667423,33.3889286 L366.030103,33.3889286 L368.274845,38.5589286 C368.717526,39.5921429 369.504948,40.2482143 370.648866,40.2482143 C371.933814,40.2482143 372.932784,39.2228571 372.932784,37.9185714 C372.932784,37.62 372.838763,37.2428571 372.646804,36.9010714 L372.646804,36.9010714 Z M354.504742,29.0832143 L359.338969,17.9142857 L364.184948,29.0832143 L354.504742,29.0832143 L354.504742,29.0832143 Z" id="Fill-2" fill="#363239"></path>
            <path d="M35.9119588,19.5878571 C37.4358763,19.4975 38.7169072,18.4839286 39.1987629,17.0892857 C39.3476289,16.6217857 39.4142268,16.2485714 39.4142268,15.8203571 C39.4142268,13.6675 37.776701,11.9664286 35.7356701,11.9664286 L11.9210309,11.9664286 L11.9210309,38.3703571 L36.0569072,38.3703571 C36.4486598,38.3703571 36.8208247,38.2564286 37.165567,38.0482143 C37.2164948,38.0403571 37.2870103,37.9814286 37.3261856,37.9735714 C38.5562887,37.345 39.4142268,36.0525 39.4142268,34.5203571 C39.4142268,34.0685714 39.3476289,33.6992857 39.1987629,33.2592857 C38.7090722,31.8528571 37.3771134,30.8078571 35.8101031,30.745 L18.7571134,30.745 L18.7571134,19.5878571 L35.9119588,19.5878571" id="Fill-3" fill="#FFFFFF"></path>
            <path d="M11.9210309,31.0396429 L11.9210309,17.0892857 L0,17.0892857 L0,25.5278571 L0,33.2592857 L11.9210309,33.2592857 L11.9210309,31.0396429" id="Fill-4" fill="#ACD03C"></path>
            <path d="M11.9210309,38.3703571 L11.9210309,33.2592857 L0,33.2592857 L0,37.1407143 C0,49.7121429 11.6428866,50.3367857 11.6428866,50.3367857 L17.0294845,50.3367857 L17.0294845,38.3703571 L11.9210309,38.3703571" id="Fill-5" fill="#F7C41F"></path>
            <path d="M18.843299,38.3703571 L17.0294845,38.3703571 L17.0294845,50.3367857 L33.9218557,50.3367857 L33.9218557,38.3703571 L18.843299,38.3703571" id="Fill-6" fill="#DF5C26"></path>
            <path d="M11.9210309,11.9664286 L17.0294845,11.9664286 L17.0294845,0 L11.6428866,0 C11.6428866,0 0,0.141428571 0,12.4889286 L0,17.0892857 L11.9210309,17.0892857 L11.9210309,11.9664286" id="Fill-7" fill="#69BC46"></path>
            <path d="M18.843299,11.9664286 L33.9218557,11.9664286 L33.9218557,0 L17.0294845,0 L17.0294845,11.9664286 L18.843299,11.9664286" id="Fill-8" fill="#3EAE99"></path>
            <path d="M37.8942268,0 L33.9218557,0 L33.9218557,11.9664286 L35.7356701,11.9664286 C37.776701,11.9664286 39.4142268,13.6675 39.4142268,15.8203571 C39.4142268,16.2485714 39.3476289,16.6217857 39.1987629,17.0892857 L51.5115464,17.0892857 C51.5546392,16.1660714 51.6094845,15.3175 51.6094845,14.4689286 C51.6094845,7.56642857 46.7635052,0 37.8942268,0" id="Fill-9" fill="#2486BF"></path>
            <path d="M48.8672165,25.4492857 C48.8672165,25.4492857 49.0356701,24.915 49.4235052,24.42 C49.7721649,23.9682143 51.1197938,21.2810714 51.5037113,17.0892857 L39.1987629,17.0892857 C38.7169072,18.4839286 37.4358763,19.4975 35.9119588,19.5878571 L18.7571134,19.5878571 L18.7571134,30.745 L35.8101031,30.745 C37.3771134,30.8078571 38.7090722,31.8528571 39.1987629,33.2592857 L51.4606186,33.2592857 C51.0375258,29.8257143 49.7721649,27.0639286 49.4235052,26.6121429 C49.0356701,26.1014286 48.8672165,25.4492857 48.8672165,25.4492857" id="Fill-10" fill="#4772B7"></path>
            <path d="M51.4606186,33.2592857 L39.1987629,33.2592857 C39.3476289,33.6992857 39.4142268,34.0685714 39.4142268,34.5203571 C39.4142268,36.0525 38.5562887,37.345 37.3261856,37.9735714 C37.2870103,37.9814286 37.2164948,38.0403571 37.165567,38.0482143 C36.8208247,38.2564286 36.4486598,38.3703571 36.0569072,38.3703571 L33.9218557,38.3703571 L33.9218557,50.3367857 L37.8942268,50.3367857 C45.9878351,50.3367857 51.6094845,42.4167857 51.6094845,36.2175 C51.6094845,35.2353571 51.5546392,34.0371429 51.4606186,33.2592857" id="Fill-11" fill="#A04297"></path>
        </g>
    </g>
</svg>
