<?xml version="1.0" encoding="UTF-8" standalone="no"?>
<svg width="1442px" height="421px" viewBox="0 0 1442 421" version="1.1" xmlns="http://www.w3.org/2000/svg" xmlns:xlink="http://www.w3.org/1999/xlink">
    <!-- Generator: Sketch 39.1 (31720) - http://www.bohemiancoding.com/sketch -->
    <title>Imported Layers</title>
    <desc>Created with Sketch.</desc>
    <defs>
        <rect id="path-1" x="0" y="0" width="1444" height="421"></rect>
    </defs>
    <g id="Page-1" stroke="none" stroke-width="1" fill="none" fill-rule="evenodd">
        <g id="Imported-Layers">
            <mask id="mask-2" fill="white">
                <use xlink:href="#path-1"></use>
            </mask>
            <g id="Mask"></g>
            <g mask="url(#mask-2)">
                <g transform="translate(-2.000000, -1.000000)">
                    <path d="M551.497694,91.5307928 L502.654394,91.5307928 C502.099858,91.5307928 501.651617,91.0819277 501.651617,90.5266203 C501.651617,89.9723171 502.099858,89.5224478 502.654394,89.5224478 L551.497694,89.5224478 C552.051228,89.5224478 552.500472,89.9723171 552.500472,90.5266203 C552.500472,91.0819277 552.051228,91.5307928 551.497694,91.5307928" id="Fill-87" class="cloud-group cloud-4" stroke="none" fill="#000000" fill-rule="evenodd"></path>
                    <path d="M335.074183,89.1559249 C334.52065,89.1559249 334.071406,88.7070598 334.071406,88.1517524 C334.071406,81.7059694 339.152481,76.4260306 345.514103,76.1167455 C347.889683,54.1414353 366.808089,37.0594576 388.988531,37.0594576 C403.117669,37.0594576 416.365367,43.9049013 424.580122,55.4076968 C426.616764,54.7790848 428.701539,54.4607622 430.787317,54.4607622 C439.037169,54.4607622 446.499842,59.2386147 449.983492,66.6895744 L489.492936,66.6895744 C494.188944,66.6895744 498.009528,70.5154715 498.009528,75.2180111 C498.009528,75.7733185 497.560283,76.2221836 497.00675,76.2221836 C496.453217,76.2221836 496.003972,75.7733185 496.003972,75.2180111 C496.003972,71.6230737 493.082881,68.6979193 489.492936,68.6979193 L449.334694,68.6979193 C448.933583,68.6979193 448.572583,68.4599305 448.413142,68.090395 C445.375728,61.0310626 438.457564,56.4691071 430.787317,56.4691071 C428.677472,56.4691071 426.567628,56.8306092 424.513939,57.5425675 C424.088761,57.6901808 423.616453,57.5345341 423.359742,57.1629903 C415.557128,45.8319082 402.708536,39.0678025 388.988531,39.0678025 C367.530089,39.0678025 349.272514,55.8214159 347.422389,77.2082809 C347.376261,77.7374798 346.901947,78.1230821 346.395544,78.1260946 L346.104739,78.1100278 C340.575422,78.1100278 336.076961,82.6147455 336.076961,88.1517524 C336.076961,88.7070598 335.628719,89.1559249 335.074183,89.1559249" id="Fill-88" class="cloud-group cloud-1" stroke="none" fill="#000000" fill-rule="evenodd"></path>
                    <path d="M415.289386,90.3298025 L359.870872,90.3298025 C359.317339,90.3298025 358.868094,89.8809374 358.868094,89.32563 C358.868094,88.7703227 359.317339,88.3214576 359.870872,88.3214576 L415.289386,88.3214576 C415.842919,88.3214576 416.292164,88.7703227 416.292164,89.32563 C416.292164,89.8809374 415.842919,90.3298025 415.289386,90.3298025" id="Fill-89" class="cloud-group cloud-2" stroke="none" fill="#000000" fill-rule="evenodd"></path>
                    <path d="M457.556469,95.9732517 L396.502344,95.9732517 C395.948811,95.9732517 395.499567,95.5243866 395.499567,94.9690793 C395.499567,94.4137719 395.948811,93.9649068 396.502344,93.9649068 L457.556469,93.9649068 C458.110003,93.9649068 458.559247,94.4137719 458.559247,94.9690793 C458.559247,95.5243866 458.110003,95.9732517 457.556469,95.9732517" id="Fill-90" class="cloud-group cloud-3" stroke="none" fill="#000000" fill-rule="evenodd"></path>
                </g>
            </g>
        </g>
    </g>
</svg>
