<?xml version="1.0" encoding="UTF-8" standalone="no"?>
<svg width="117px" height="28px" viewBox="0 0 117 28" version="1.1" xmlns="http://www.w3.org/2000/svg" xmlns:xlink="http://www.w3.org/1999/xlink">
    <!-- Generator: Sketch 39.1 (31720) - http://www.bohemiancoding.com/sketch -->
    <title>Group 2</title>
    <desc>Created with Sketch.</desc>
    <defs></defs>
    <g id="Page-1" stroke="none" stroke-width="1" fill="none" fill-rule="evenodd">
        <g id="Group-2" fill="#000000">
            <path d="M91.838,22.645 L56.531,22.645 C55.979,22.645 55.531,22.198 55.531,21.645 C55.531,21.093 55.979,20.646 56.531,20.646 L91.838,20.646 C92.391,20.646 92.838,21.093 92.838,21.645 C92.838,22.198 92.391,22.645 91.838,22.645" id="Fill-1"></path>
            <path d="M99.803,27.983 L74.185,27.983 C73.632,27.983 73.185,27.536 73.185,26.983 C73.185,26.431 73.632,25.983 74.185,25.983 L99.803,25.983 C100.356,25.983 100.803,26.431 100.803,26.983 C100.803,27.536 100.356,27.983 99.803,27.983" id="Fill-2"></path>
            <path d="M115.983,18.816 C115.791,18.816 115.596,18.761 115.424,18.644 C114.676,18.139 113.801,17.871 112.893,17.871 L68.1,17.871 C67.824,17.871 67.562,17.758 67.372,17.558 C67.184,17.357 67.085,17.088 67.102,16.813 L67.108,16.698 C67.113,16.637 67.118,16.576 67.118,16.515 C67.118,13.109 64.009,10.392 60.429,11.248 C60.154,11.314 59.868,11.26 59.636,11.104 C59.403,10.946 59.248,10.698 59.207,10.42 C58.845,7.956 56.694,6.098 54.204,6.098 C52.849,6.098 51.576,6.626 50.619,7.585 C50.411,7.793 50.132,7.904 49.828,7.875 C49.535,7.851 49.268,7.699 49.097,7.459 C46.74,4.149 42.914,2.174 38.862,2.174 C31.939,2.174 26.306,7.807 26.306,14.731 C26.306,15.392 26.358,16.059 26.463,16.713 C26.509,17.002 26.427,17.297 26.236,17.52 C26.047,17.743 25.769,17.871 25.476,17.871 L21.202,17.871 C20.649,17.871 20.202,17.423 20.202,16.871 C20.202,16.319 20.649,15.871 21.202,15.871 L24.351,15.871 C24.32,15.491 24.306,15.11 24.306,14.731 C24.306,6.704 30.836,0.174 38.862,0.174 C43.196,0.174 47.308,2.123 50.062,5.437 C51.259,4.567 52.695,4.098 54.204,4.098 C57.334,4.098 60.079,6.201 60.963,9.131 C65.161,8.692 68.743,11.841 69.091,15.871 L112.893,15.871 C114.202,15.871 115.465,16.257 116.545,16.988 C117.002,17.298 117.122,17.919 116.813,18.377 C116.619,18.663 116.305,18.816 115.983,18.816" id="Fill-44"></path>
            <path d="M36.923,22.645 L1.616,22.645 C1.064,22.645 0.616,22.198 0.616,21.645 C0.616,21.093 1.064,20.646 1.616,20.646 L36.923,20.646 C37.476,20.646 37.923,21.093 37.923,21.645 C37.923,22.198 37.476,22.645 36.923,22.645" id="Fill-45"></path>
            <path d="M44.888,27.983 L19.27,27.983 C18.717,27.983 18.27,27.536 18.27,26.983 C18.27,26.431 18.717,25.983 19.27,25.983 L44.888,25.983 C45.44,25.983 45.888,26.431 45.888,26.983 C45.888,27.536 45.44,27.983 44.888,27.983" id="Fill-46"></path>
        </g>
    </g>
</svg>