<?xml version="1.0" encoding="UTF-8" standalone="no"?>
<svg width="329px" height="115px" viewBox="0 0 329 115" version="1.1" xmlns="http://www.w3.org/2000/svg" xmlns:xlink="http://www.w3.org/1999/xlink">
    <!-- Generator: Sketch 39.1 (31720) - http://www.bohemiancoding.com/sketch -->
    <title>Group 3</title>
    <desc>Created with Sketch.</desc>
    <defs></defs>
    <g id="Page-1" stroke="none" stroke-width="1" fill="none" fill-rule="evenodd">
        <g id="Group-3" fill="#000000">
            <path d="M327.66,93.661 L232.07,93.661 C231.518,93.661 231.07,93.213 231.07,92.661 C231.07,81.685 222.141,72.755 211.164,72.755 C206.604,72.755 202.306,74.267 198.734,77.127 C198.461,77.347 198.093,77.406 197.764,77.285 C197.435,77.164 197.193,76.88 197.127,76.536 C194.212,61.384 180.883,50.388 165.434,50.388 C161.954,50.388 158.512,50.948 155.201,52.053 C154.92,52.147 154.609,52.111 154.356,51.953 C154.103,51.795 153.933,51.533 153.894,51.237 C150.169,23.426 126.177,2.454 98.086,2.454 C67.029,2.454 41.763,27.721 41.763,58.778 C41.763,59.331 41.315,59.778 40.763,59.778 L15.747,59.778 C15.195,59.778 14.747,59.331 14.747,58.778 C14.747,58.226 15.195,57.778 15.747,57.778 L39.771,57.778 C40.306,26.077 66.26,0.454 98.086,0.454 C126.778,0.454 151.341,21.583 155.707,49.797 C158.87,48.861 162.136,48.388 165.434,48.388 C181.312,48.388 195.081,59.327 198.758,74.617 C202.419,72.085 206.676,70.755 211.164,70.755 C222.908,70.755 232.523,80.045 233.048,91.661 L327.66,91.661 C328.212,91.661 328.66,92.109 328.66,92.661 C328.66,93.213 328.212,93.661 327.66,93.661" id="Fill-47"></path>
            <path d="M82.902,74.722 L24.951,74.722 C24.399,74.722 23.951,74.274 23.951,73.722 C23.951,73.169 24.399,72.722 24.951,72.722 L82.902,72.722 C83.455,72.722 83.902,73.169 83.902,73.722 C83.902,74.274 83.455,74.722 82.902,74.722" id="Fill-48"></path>
            <path d="M303.116,104.036 L218.234,104.036 C217.682,104.036 217.234,103.588 217.234,103.036 C217.234,102.484 217.682,102.036 218.234,102.036 L303.116,102.036 C303.669,102.036 304.116,102.484 304.116,103.036 C304.116,103.588 303.669,104.036 303.116,104.036" id="Fill-49"></path>
            <path d="M283.344,114.605 L270.051,114.605 C269.499,114.605 269.051,114.158 269.051,113.605 C269.051,113.053 269.499,112.606 270.051,112.606 L283.344,112.606 C283.896,112.606 284.344,113.053 284.344,113.605 C284.344,114.158 283.896,114.605 283.344,114.605" id="Fill-50"></path>
            <path d="M19.496,84.948 L1.088,84.948 C0.536,84.948 0.088,84.5 0.088,83.948 C0.088,83.396 0.536,82.948 1.088,82.948 L19.496,82.948 C20.048,82.948 20.496,83.396 20.496,83.948 C20.496,84.5 20.048,84.948 19.496,84.948" id="Fill-51"></path>
        </g>
    </g>
</svg>