<svg xmlns="http://www.w3.org/2000/svg" viewBox="0 0 86.85 12.81"><defs><style>.cls-1{fill:#aace3a;}.cls-2{fill:#6cbc46;}.cls-3{fill:#f4c21f;}.cls-4{fill:#2486bf;}.cls-5{fill:#9e4495;}.cls-6{fill:#3cac97;}.cls-7{fill:#dd5c26;}.cls-8{fill:#4570b6;}.cls-9{fill:#363239;}</style></defs><title>Asset 2</title><g id="Layer_2" data-name="Layer 2"><g id="Logos"><path class="cls-1" d="M3,7.9V4.35H0V8.46H3Z"/><path class="cls-2" d="M3,0H3A3,3,0,0,0,0,3.18V4.35H3Z"/><path class="cls-3" d="M3,12.81V8.46H0v1a3.18,3.18,0,0,0,3,3.35Z"/><path class="cls-4" d="M11.27,1.52A1.52,1.52,0,0,0,9.75,0H7.16V3H9.75A1.52,1.52,0,0,0,11.27,1.52Z"/><path class="cls-5" d="M9.75,9.76H7.16v3H9.74a1.52,1.52,0,0,0,0-3Z"/><path class="cls-6" d="M7.16,3V0H3V3Z"/><path class="cls-7" d="M3,9.76v3H7.16v-3Z"/><path class="cls-8" d="M8.75,5h-4V7.83h4A1.42,1.42,0,1,0,8.75,5Z"/><path class="cls-9" d="M22.53,9.09H19V7.21h3a.55.55,0,0,0,.55-.54A.56.56,0,0,0,22,6.1H19V4.27h3.48A.55.55,0,0,0,23,3.72a.56.56,0,0,0-.55-.55H18.39a.61.61,0,0,0-.62.62V9.58a.61.61,0,0,0,.62.62h4.14a.55.55,0,0,0,.55-.55A.56.56,0,0,0,22.53,9.09Zm6.33-6.28a.6.6,0,0,0-.6.6v2.3a2.17,2.17,0,0,0-1.81-.93A2.53,2.53,0,0,0,24,7.54v0a2.54,2.54,0,0,0,2.46,2.75,2.12,2.12,0,0,0,1.81-1v.33a.61.61,0,0,0,1.22,0V3.42A.6.6,0,0,0,28.86,2.81Zm-.58,4.74a1.6,1.6,0,0,1-1.54,1.7,1.58,1.58,0,0,1-1.53-1.7v0a1.56,1.56,0,0,1,1.53-1.7,1.59,1.59,0,0,1,1.54,1.7ZM35.1,4.83a.61.61,0,0,0-.61.61V7.89a1.17,1.17,0,0,1-1.2,1.31c-.72,0-1.14-.46-1.14-1.29V5.45a.61.61,0,1,0-1.22,0V8.27a1.82,1.82,0,0,0,1.89,2,1.91,1.91,0,0,0,1.66-.93v.27a.61.61,0,0,0,1.23,0V5.45A.62.62,0,0,0,35.1,4.83Zm7.7,3.53a.57.57,0,0,0-.37.14,2.52,2.52,0,0,1-1.76.67,2.37,2.37,0,0,1-2.32-2.49v0a2.37,2.37,0,0,1,2.32-2.48,2.55,2.55,0,0,1,1.68.63.62.62,0,0,0,1-.48.62.62,0,0,0-.24-.49A3.69,3.69,0,0,0,40.68,3a3.56,3.56,0,0,0-3.63,3.64v0a3.54,3.54,0,0,0,3.58,3.62,3.6,3.6,0,0,0,2.55-.95.6.6,0,0,0,.2-.44A.59.59,0,0,0,42.8,8.36Zm5.72-4.79a.77.77,0,0,0-.73-.5h-.06a.78.78,0,0,0-.74.5L44.38,9.4a.63.63,0,0,0-.08.28.57.57,0,0,0,.57.57.59.59,0,0,0,.57-.39L46,8.5h3.42L50,9.82a.64.64,0,0,0,.6.43.58.58,0,0,0,.58-.59.55.55,0,0,0-.07-.26Zm-2,3.84,1.24-2.84L49,7.41Zm8.81-4.24H53.16a.61.61,0,0,0-.62.62V9.64a.62.62,0,0,0,1.24,0V7.94h1.4c1.55,0,2.81-.82,2.81-2.4v0C58,4.1,57,3.17,55.31,3.17Zm1.42,2.4c0,.73-.58,1.26-1.52,1.26H53.78V4.29h1.44c.92,0,1.52.43,1.52,1.26Zm7.21-2.4H59.27a.57.57,0,0,0,0,1.15H61V9.64a.62.62,0,0,0,1.25,0V4.31h1.72a.57.57,0,0,0,0-1.15Zm6.87,5.2a.57.57,0,0,0-.37.14,2.52,2.52,0,0,1-1.76.67,2.37,2.37,0,0,1-2.32-2.49v0a2.37,2.37,0,0,1,2.32-2.48,2.55,2.55,0,0,1,1.68.63.62.62,0,0,0,1-.48.62.62,0,0,0-.24-.49A3.69,3.69,0,0,0,68.69,3a3.56,3.56,0,0,0-3.63,3.64v0a3.54,3.54,0,0,0,3.58,3.62,3.59,3.59,0,0,0,2.55-.95.6.6,0,0,0,.2-.44A.59.59,0,0,0,70.81,8.36ZM78,3.12a.61.61,0,0,0-.61.61V6.09H74V3.73a.62.62,0,0,0-1.24,0V9.64a.62.62,0,0,0,1.24,0V7.24h3.36v2.4a.62.62,0,0,0,1.24,0V3.73A.61.61,0,0,0,78,3.12ZM86.78,9.4,84.17,3.57a.77.77,0,0,0-.73-.5h-.06a.78.78,0,0,0-.74.5L80,9.4a.62.62,0,0,0-.08.28.57.57,0,0,0,.57.57.6.6,0,0,0,.57-.39l.59-1.36h3.42l.57,1.32a.64.64,0,0,0,.6.43.58.58,0,0,0,.58-.59A.55.55,0,0,0,86.78,9.4Zm-4.63-2,1.24-2.84,1.24,2.84Z"/></g></g></svg>