<?xml version="1.0" encoding="UTF-8" standalone="no"?>
<svg width="8px" height="13px" viewBox="0 0 8 13" version="1.1" xmlns="http://www.w3.org/2000/svg" xmlns:xlink="http://www.w3.org/1999/xlink">
    <!-- Generator: Sketch 39.1 (31720) - http://www.bohemiancoding.com/sketch -->
    <title>facebook ico</title>
    <desc>Created with Sketch.</desc>
    <defs></defs>
    <g id="Symbols" stroke="none" stroke-width="1" fill="none" fill-rule="evenodd">
        <g id="FOOTER" transform="translate(-1191.000000, -42.000000)" fill="#FFFFFF">
            <g id="social" transform="translate(1176.000000, 29.916000)">
                <path d="M20.4137446,14.747899 C20.7238671,14.747899 21.1453156,14.8027299 21.4872455,14.8732267 C21.5667641,14.8888927 21.6542345,14.8732267 21.7258012,14.8262288 C21.7973679,14.7792309 21.8450791,14.7009011 21.853031,14.6225713 L22.0677311,13.0951398 C22.0836348,12.9541461 21.9961644,12.8053195 21.8450791,12.7661545 C21.288449,12.6094949 20.6841078,12.5311651 20.055911,12.5311651 C18.1554169,12.5311651 17.2330013,13.424125 17.2330013,15.2727088 L17.2330013,16.0795059 L16.2628746,16.0795059 C16.0958856,16.0795059 15.960704,16.2126666 15.960704,16.3771592 L15.960704,17.9437557 C15.960704,18.1160813 16.0958856,18.2492419 16.2628746,18.2492419 L17.2330013,18.2492419 L17.2330013,24.2649721 C17.2330013,24.4294648 17.3681829,24.5626254 17.5351719,24.5626254 L19.5231365,24.5626254 C19.6821736,24.5626254 19.8173552,24.4294648 19.8173552,24.2649721 L19.8173552,18.2492419 L21.4236306,18.2492419 C21.5826678,18.2492419 21.7098975,18.1239142 21.7258012,17.9672546 L21.8371272,16.4006582 C21.8450791,16.3144954 21.8132717,16.2361656 21.7576087,16.1735017 C21.7019456,16.1108379 21.6224271,16.0795059 21.5429085,16.0795059 L19.8173552,16.0795059 L19.8173552,15.3902035 C19.8173552,14.8732267 19.8730182,14.747899 20.4137446,14.747899 L20.4137446,14.747899 Z" id="facebook-ico"></path>
            </g>
        </g>
    </g>
</svg>