<?xml version="1.0" encoding="UTF-8" standalone="no"?>
<svg width="130px" height="205px" viewBox="0 0 130 205" version="1.1" xmlns="http://www.w3.org/2000/svg" xmlns:xlink="http://www.w3.org/1999/xlink">
    <!-- Generator: Sketch 39.1 (31720) - http://www.bohemiancoding.com/sketch -->
    <title>globo-2</title>
    <desc>Created with Sketch.</desc>
    <defs></defs>
    <g id="Page-1" stroke="none" stroke-width="1" fill="none" fill-rule="evenodd">
        <g id="globo-2">
            <path d="M82.172,111.808 L47.573,111.808 L47.637,112.33 C51.583,120.943 54.416,133.869 55.366,148.809 L74.378,148.809 C75.329,133.867 78.16,120.941 82.107,112.328 L82.172,111.808" id="Fill-3" fill="#B5C845"></path>
            <path d="M74.378,149.809 L55.366,149.809 C54.839,149.809 54.401,149.399 54.368,148.873 C53.442,134.309 50.728,121.479 46.727,112.746 C46.685,112.653 46.656,112.553 46.644,112.451 L46.581,111.929 C46.546,111.645 46.635,111.36 46.824,111.145 C47.015,110.931 47.287,110.808 47.573,110.808 L82.172,110.808 C82.459,110.808 82.731,110.932 82.921,111.146 C83.111,111.361 83.199,111.647 83.164,111.932 L83.099,112.451 C83.087,112.553 83.06,112.652 83.016,112.745 C79.016,121.472 76.304,134.303 75.376,148.873 C75.343,149.399 74.905,149.809 74.378,149.809 L74.378,149.809 Z M56.302,147.809 L73.442,147.809 C74.407,133.872 77.003,121.525 80.798,112.809 L48.945,112.809 C52.742,121.529 55.338,133.875 56.302,147.809 L56.302,147.809 Z" id="Fill-4" fill="#000000"></path>
            <path d="M64.56,128.654 C29.519,128.654 1.114,100.249 1.114,65.209 C1.114,30.169 29.519,1.764 64.56,1.764 C99.6,1.764 128.006,30.169 128.006,65.209 C128.006,100.249 99.6,128.654 64.56,128.654 Z" id="Fill-5" fill="#B5C845"></path>
            <path d="M64.56,1.764 L64.56,128.654 L45.688,125.801 C45.688,125.801 38.811,79.803 40.524,60.732 C42.237,41.662 47.573,5.453 64.56,1.764" id="Fill-6" fill="#FFFFFF"></path>
            <path d="M70.109,3.279 C70.109,3.279 87.639,14.754 88.396,59.441 C89.153,104.129 83.431,125.801 83.431,125.801 L102.488,116.074 C102.488,116.074 114.756,79.728 112.355,60.732 C106.447,13.954 87.096,6.969 70.109,3.279" id="Fill-7" fill="#FFFFFF"></path>
            <path d="M50.729,3.279 C50.729,3.279 20.389,13.954 17.072,60.732 C17.072,91.074 26.017,115.603 26.017,115.603 C26.017,115.603 1.578,101.658 1.578,60.732 C1.578,41.585 13.389,13.954 50.729,3.279" id="Fill-8" fill="#FFFFFF"></path>
            <polygon id="Fill-9" fill="#000000" points="1.194 59.732 127.924 59.732 127.924 61.732 1.194 61.732"></polygon>
            <path d="M74.133,192.397 L54.986,192.397 C54.714,192.397 54.453,192.287 54.264,192.09 C54.076,191.893 53.975,191.628 53.987,191.356 L54.987,167.024 C55.009,166.488 55.45,166.065 55.986,166.065 L73.133,166.065 C73.669,166.065 74.11,166.488 74.132,167.024 L75.132,191.356 C75.143,191.628 75.043,191.893 74.854,192.09 C74.666,192.287 74.405,192.397 74.133,192.397 L74.133,192.397 Z M56.028,190.397 L73.091,190.397 L72.173,168.065 L56.946,168.065 L56.028,190.397 L56.028,190.397 Z" id="Fill-10" fill="#000000"></path>
            <polygon id="Fill-11" fill="#F7C41F" points="53.106 187.912 76.014 187.912 76.014 203.586 53.106 203.586"></polygon>
            <path d="M76.014,204.586 L53.106,204.586 C52.554,204.586 52.106,204.138 52.106,203.586 L52.106,187.912 C52.106,187.36 52.554,186.912 53.106,186.912 L76.014,186.912 C76.567,186.912 77.015,187.36 77.015,187.912 L77.015,203.586 C77.015,204.138 76.567,204.586 76.014,204.586 L76.014,204.586 Z M54.106,202.586 L75.014,202.586 L75.014,188.912 L54.106,188.912 L54.106,202.586 Z" id="Fill-12" fill="#000000"></path>
            <polygon id="Fill-13" fill="#F7C41F" points="50.729 185.546 78.389 185.546 78.389 188.915 50.729 188.915"></polygon>
            <path d="M78.39,189.915 L50.729,189.915 C50.177,189.915 49.729,189.467 49.729,188.915 L49.729,185.546 C49.729,184.994 50.177,184.546 50.729,184.546 L78.39,184.546 C78.942,184.546 79.389,184.994 79.389,185.546 L79.389,188.915 C79.389,189.467 78.942,189.915 78.39,189.915 L78.39,189.915 Z M51.729,187.915 L77.389,187.915 L77.389,186.546 L51.729,186.546 L51.729,187.915 Z" id="Fill-14" fill="#000000"></path>
            <path d="M64.56,168.065 C64.007,168.065 63.56,167.618 63.56,167.065 L63.56,1.764 C63.56,1.211 64.007,0.764 64.56,0.764 C65.112,0.764 65.56,1.211 65.56,1.764 L65.56,167.065 C65.56,167.618 65.112,168.065 64.56,168.065" id="Fill-15" fill="#000000"></path>
            <path d="M55.987,168.065 C55.689,168.065 55.394,167.933 55.197,167.68 C10.192,109.897 10.228,56.643 23.935,28.597 C32.578,10.908 47.385,0.764 64.56,0.764 C65.112,0.764 65.56,1.211 65.56,1.764 C65.56,2.316 65.112,2.764 64.56,2.764 C48.179,2.764 34.026,12.499 25.731,29.474 C12.278,57.004 12.337,109.396 56.775,166.451 C57.114,166.887 57.036,167.515 56.6,167.854 C56.418,167.997 56.202,168.065 55.987,168.065" id="Fill-16" fill="#000000"></path>
            <path d="M55.987,168.065 C55.699,168.065 55.414,167.942 55.216,167.703 C35.997,144.49 3.831,105.637 0.309,70.24 C0.254,69.69 0.655,69.2 1.205,69.145 C1.75,69.091 2.244,69.493 2.299,70.041 C5.761,104.831 37.683,143.39 56.757,166.428 C57.108,166.853 57.05,167.483 56.624,167.836 C56.437,167.99 56.212,168.065 55.987,168.065" id="Fill-17" fill="#000000"></path>
            <path d="M55.986,168.066 C55.56,168.066 55.167,167.792 55.032,167.366 C32.884,96.954 36.386,29.915 52.331,8.183 C55.944,3.26 60.058,0.764 64.56,0.764 C65.112,0.764 65.56,1.211 65.56,1.764 C65.56,2.316 65.112,2.764 64.56,2.764 C60.73,2.764 57.159,4.985 53.944,9.366 C38.286,30.705 34.979,96.951 56.94,166.765 C57.106,167.292 56.813,167.853 56.286,168.019 C56.186,168.051 56.085,168.066 55.986,168.066" id="Fill-18" fill="#000000"></path>
            <path d="M73.133,168.065 C72.918,168.065 72.702,167.997 72.519,167.854 C72.084,167.515 72.006,166.887 72.345,166.451 C116.783,109.396 116.842,57.004 103.389,29.474 C95.094,12.499 80.941,2.764 64.56,2.764 C64.008,2.764 63.56,2.316 63.56,1.764 C63.56,1.211 64.008,0.764 64.56,0.764 C81.735,0.764 96.542,10.908 105.185,28.597 C118.891,56.643 118.928,109.897 73.923,167.68 C73.725,167.933 73.431,168.065 73.133,168.065" id="Fill-19" fill="#000000"></path>
            <path d="M73.133,168.065 C72.908,168.065 72.683,167.99 72.496,167.836 C72.07,167.483 72.012,166.853 72.363,166.428 C91.436,143.39 123.359,104.831 126.821,70.041 C126.877,69.493 127.377,69.091 127.915,69.145 C128.465,69.2 128.866,69.69 128.811,70.24 C125.289,105.637 93.123,144.49 73.904,167.703 C73.706,167.942 73.421,168.065 73.133,168.065" id="Fill-20" fill="#000000"></path>
            <path d="M73.134,168.066 C73.034,168.066 72.933,168.051 72.834,168.019 C72.307,167.853 72.014,167.292 72.18,166.765 C94.141,96.951 90.834,30.705 75.176,9.366 C71.961,4.985 68.39,2.764 64.56,2.764 C64.008,2.764 63.56,2.316 63.56,1.764 C63.56,1.211 64.008,0.764 64.56,0.764 C69.062,0.764 73.176,3.26 76.789,8.183 C92.734,29.915 96.236,96.954 74.088,167.366 C73.953,167.792 73.56,168.066 73.134,168.066" id="Fill-21" fill="#000000"></path>
            <path d="M64.56,129.654 C29.024,129.654 0.114,100.744 0.114,65.209 C0.114,29.674 29.024,0.764 64.56,0.764 C100.096,0.764 129.006,29.674 129.006,65.209 C129.006,100.744 100.096,129.654 64.56,129.654 L64.56,129.654 Z M64.56,2.764 C30.127,2.764 2.114,30.776 2.114,65.209 C2.114,99.641 30.127,127.654 64.56,127.654 C98.992,127.654 127.006,99.641 127.006,65.209 C127.006,30.776 98.992,2.764 64.56,2.764 L64.56,2.764 Z" id="Fill-22" fill="#000000"></path>
            <path d="M9.857,85.414 C5.118,85.414 1.262,81.764 1.262,77.277 C1.262,76.725 1.709,76.277 2.262,76.277 C2.814,76.277 3.262,76.725 3.262,77.277 C3.262,80.661 6.221,83.414 9.857,83.414 C13.494,83.414 16.453,80.661 16.453,77.277 C16.453,76.725 16.9,76.277 17.453,76.277 C18.006,76.277 18.453,76.725 18.453,77.277 C18.453,81.764 14.597,85.414 9.857,85.414" id="Fill-23" fill="#000000"></path>
            <path d="M29.04,85.414 C21.982,85.414 16.453,81.84 16.453,77.277 C16.453,76.725 16.9,76.277 17.453,76.277 C18.006,76.277 18.453,76.725 18.453,77.277 C18.453,80.604 23.302,83.414 29.04,83.414 C34.778,83.414 39.626,80.604 39.626,77.277 C39.626,76.725 40.073,76.277 40.626,76.277 C41.179,76.277 41.626,76.725 41.626,77.277 C41.626,81.84 36.097,85.414 29.04,85.414" id="Fill-24" fill="#000000"></path>
            <path d="M52.502,85.414 C45.26,85.414 39.586,81.84 39.586,77.277 C39.586,76.725 40.033,76.277 40.586,76.277 C41.139,76.277 41.586,76.725 41.586,77.277 C41.586,80.604 46.585,83.414 52.502,83.414 C58.419,83.414 63.418,80.604 63.418,77.277 C63.418,76.725 63.865,76.277 64.418,76.277 C64.971,76.277 65.418,76.725 65.418,77.277 C65.418,81.84 59.744,85.414 52.502,85.414" id="Fill-25" fill="#000000"></path>
            <path d="M119.256,85.414 C114.625,85.414 110.857,81.764 110.857,77.277 C110.857,76.725 111.305,76.277 111.857,76.277 C112.41,76.277 112.857,76.725 112.857,77.277 C112.857,80.661 115.727,83.414 119.256,83.414 C122.784,83.414 125.655,80.661 125.655,77.277 C125.655,76.725 126.102,76.277 126.655,76.277 C127.208,76.277 127.655,76.725 127.655,77.277 C127.655,81.764 123.888,85.414 119.256,85.414" id="Fill-26" fill="#000000"></path>
            <path d="M100.22,85.414 C93.134,85.414 87.583,81.84 87.583,77.277 C87.583,76.725 88.03,76.277 88.583,76.277 C89.136,76.277 89.583,76.725 89.583,77.277 C89.583,80.604 94.454,83.414 100.22,83.414 C105.986,83.414 110.857,80.604 110.857,77.277 C110.857,76.725 111.305,76.277 111.857,76.277 C112.41,76.277 112.857,76.725 112.857,77.277 C112.857,81.84 107.306,85.414 100.22,85.414" id="Fill-27" fill="#000000"></path>
            <path d="M76.585,85.414 C69.281,85.414 63.56,81.84 63.56,77.277 C63.56,76.725 64.007,76.277 64.56,76.277 C65.112,76.277 65.56,76.725 65.56,77.277 C65.56,80.604 70.608,83.414 76.585,83.414 C82.562,83.414 87.612,80.604 87.612,77.277 C87.612,76.725 88.06,76.277 88.612,76.277 C89.165,76.277 89.612,76.725 89.612,77.277 C89.612,81.84 83.889,85.414 76.585,85.414" id="Fill-28" fill="#000000"></path>
            <path d="M8.994,74.709 C4.171,74.709 0.246,71.059 0.246,66.572 C0.246,66.02 0.693,65.572 1.246,65.572 C1.799,65.572 2.246,66.02 2.246,66.572 C2.246,69.956 5.273,72.709 8.994,72.709 C12.716,72.709 15.743,69.956 15.743,66.572 C15.743,66.02 16.19,65.572 16.743,65.572 C17.296,65.572 17.743,66.02 17.743,66.572 C17.743,71.059 13.818,74.709 8.994,74.709" id="Fill-29" fill="#000000"></path>
            <path d="M28.563,74.709 C21.375,74.709 15.743,71.135 15.743,66.572 C15.743,66.02 16.19,65.572 16.743,65.572 C17.296,65.572 17.743,66.02 17.743,66.572 C17.743,69.899 22.698,72.709 28.563,72.709 C34.428,72.709 39.383,69.899 39.383,66.572 C39.383,66.02 39.83,65.572 40.383,65.572 C40.935,65.572 41.383,66.02 41.383,66.572 C41.383,71.135 35.752,74.709 28.563,74.709" id="Fill-30" fill="#000000"></path>
            <path d="M52.479,74.709 C45.113,74.709 39.343,71.135 39.343,66.572 C39.343,66.02 39.79,65.572 40.343,65.572 C40.895,65.572 41.343,66.02 41.343,66.572 C41.343,69.899 46.442,72.709 52.479,72.709 C58.516,72.709 63.617,69.899 63.617,66.572 C63.617,66.02 64.064,65.572 64.617,65.572 C65.17,65.572 65.617,66.02 65.617,66.572 C65.617,71.135 59.847,74.709 52.479,74.709" id="Fill-31" fill="#000000"></path>
            <path d="M120.348,74.709 C115.499,74.709 111.554,71.059 111.554,66.572 C111.554,66.02 112.001,65.572 112.554,65.572 C113.106,65.572 113.554,66.02 113.554,66.572 C113.554,69.956 116.602,72.709 120.348,72.709 C124.096,72.709 127.144,69.956 127.144,66.572 C127.144,66.02 127.592,65.572 128.144,65.572 C128.697,65.572 129.144,66.02 129.144,66.572 C129.144,71.059 125.198,74.709 120.348,74.709" id="Fill-32" fill="#000000"></path>
            <path d="M100.363,74.709 C93.227,74.709 87.636,71.135 87.636,66.572 C87.636,66.02 88.083,65.572 88.636,65.572 C89.188,65.572 89.636,66.02 89.636,66.572 C89.636,69.899 94.549,72.709 100.363,72.709 C106.178,72.709 111.09,69.899 111.09,66.572 C111.09,66.02 111.537,65.572 112.09,65.572 C112.643,65.572 113.09,66.02 113.09,66.572 C113.09,71.135 107.5,74.709 100.363,74.709" id="Fill-33" fill="#000000"></path>
            <path d="M76.82,74.709 C69.518,74.709 63.799,71.135 63.799,66.572 C63.799,66.02 64.246,65.572 64.799,65.572 C65.352,65.572 65.799,66.02 65.799,66.572 C65.799,69.899 70.846,72.709 76.82,72.709 C82.796,72.709 87.845,69.899 87.845,66.572 C87.845,66.02 88.292,65.572 88.845,65.572 C89.397,65.572 89.845,66.02 89.845,66.572 C89.845,71.135 84.124,74.709 76.82,74.709" id="Fill-34" fill="#000000"></path>
            <path d="M11.695,95.609 C7.227,95.609 5.461,91.496 3.902,87.867 C3.685,87.36 3.919,86.771 4.427,86.554 C4.935,86.336 5.521,86.571 5.74,87.078 C7.435,91.023 8.764,93.609 11.695,93.609 C14.935,93.609 17.57,90.856 17.57,87.473 C17.57,86.92 18.018,86.473 18.57,86.473 C19.123,86.473 19.57,86.92 19.57,87.473 C19.57,91.959 16.038,95.609 11.695,95.609" id="Fill-35" fill="#000000"></path>
            <path d="M30.09,95.609 C23.304,95.609 17.57,91.883 17.57,87.473 C17.57,86.92 18.018,86.473 18.57,86.473 C19.123,86.473 19.57,86.92 19.57,87.473 C19.57,90.684 24.584,93.609 30.09,93.609 C35.435,93.609 39.95,90.799 39.95,87.473 C39.95,86.92 40.397,86.473 40.95,86.473 C41.503,86.473 41.95,86.92 41.95,87.473 C41.95,92.035 36.74,95.609 30.09,95.609" id="Fill-36" fill="#000000"></path>
            <path d="M52.697,95.609 C45.536,95.609 39.927,92.035 39.927,87.473 C39.927,86.92 40.374,86.473 40.927,86.473 C41.479,86.473 41.927,86.92 41.927,87.473 C41.927,90.799 46.859,93.609 52.697,93.609 C58.534,93.609 63.465,90.799 63.465,87.473 C63.465,86.92 63.912,86.473 64.465,86.473 C65.018,86.473 65.465,86.92 65.465,87.473 C65.465,92.035 59.856,95.609 52.697,95.609" id="Fill-37" fill="#000000"></path>
            <path d="M117.414,95.609 C113.282,95.609 109.921,91.959 109.921,87.473 C109.921,86.92 110.368,86.473 110.921,86.473 C111.474,86.473 111.921,86.92 111.921,87.473 C111.921,90.856 114.385,93.609 117.414,93.609 C120.444,93.609 122.91,90.856 122.91,87.473 C122.91,86.92 123.357,86.473 123.91,86.473 C124.463,86.473 124.91,86.92 124.91,87.473 C124.91,91.959 121.548,95.609 117.414,95.609" id="Fill-38" fill="#000000"></path>
            <path d="M99.297,95.609 C92.514,95.609 87.2,92.035 87.2,87.473 C87.2,86.92 87.647,86.473 88.2,86.473 C88.753,86.473 89.2,86.92 89.2,87.473 C89.2,90.799 93.824,93.609 99.297,93.609 C104.771,93.609 109.396,90.799 109.396,87.473 C109.396,86.92 109.844,86.473 110.396,86.473 C110.949,86.473 111.396,86.92 111.396,87.473 C111.396,92.035 106.082,95.609 99.297,95.609" id="Fill-39" fill="#000000"></path>
            <path d="M76.506,95.609 C69.257,95.609 63.578,92.035 63.578,87.473 C63.578,86.92 64.025,86.473 64.578,86.473 C65.131,86.473 65.578,86.92 65.578,87.473 C65.578,90.799 70.582,93.609 76.506,93.609 C82.43,93.609 87.433,90.799 87.433,87.473 C87.433,86.92 87.881,86.473 88.433,86.473 C88.986,86.473 89.433,86.92 89.433,87.473 C89.433,92.035 83.755,95.609 76.506,95.609" id="Fill-40" fill="#000000"></path>
        </g>
    </g>
</svg>