<?xml version="1.0" encoding="UTF-8" standalone="no"?>
<svg width="358px" height="270px" viewBox="0 0 358 270" version="1.1" xmlns="http://www.w3.org/2000/svg" xmlns:xlink="http://www.w3.org/1999/xlink">
    <!-- Generator: Sketch 39.1 (31720) - http://www.bohemiancoding.com/sketch -->
    <title>Iconos</title>
    <desc>Created with Sketch.</desc>
    <defs>
        <path d="M78.0193744,155.624459 C35.1391198,155.624459 0.376718458,120.838913 0.376718458,77.9307231 C0.376718458,35.0206912 35.1391198,0.236373242 78.0193744,0.236373242 C120.899015,0.236373242 155.66203,35.0206912 155.66203,77.9307231 C155.66203,120.838913 120.899015,155.624459 78.0193744,155.624459 Z" id="path-1"></path>
        <path d="M221.778286,111.032076 C221.778286,172.165674 172.25043,221.726504 111.156634,221.726504 C50.0628383,221.726504 0.534982661,172.165674 0.534982661,111.032076 C0.534982661,49.895855 50.0628383,0.336773622 111.156634,0.336773622 C172.25043,0.336773622 221.778286,49.895855 221.778286,111.032076 L221.778286,111.032076 Z" id="path-3"></path>
    </defs>
    <g id="BrandCaptcha" stroke="none" stroke-width="1" fill="none" fill-rule="evenodd">
        <g id="Publishers" transform="translate(-239.000000, -1361.000000)">
            <g id="Experiencia-mejorada" transform="translate(0.000000, 1178.000000)">
                <g id="Iconos" transform="translate(240.000000, 183.000000)">
                    <g id="chabon" transform="translate(199.398725, 0.400298)">
                        <path d="M156.275578,110.470416 C156.275578,153.378606 121.512563,188.164152 78.6329224,188.164152 C35.7526678,188.164152 0.990266436,153.378606 0.990266436,110.470416 C0.990266436,67.5603843 35.7526678,32.7760663 78.6329224,32.7760663 C121.512563,32.7760663 156.275578,67.5603843 156.275578,110.470416" id="Fill-1" fill="#66B546"></path>
                        <path d="M156.275578,110.470416 C156.275578,153.378606 121.512563,188.164152 78.6329224,188.164152 C35.7526678,188.164152 0.990266436,153.378606 0.990266436,110.470416 C0.990266436,67.5603843 35.7526678,32.7760663 78.6329224,32.7760663 C121.512563,32.7760663 156.275578,67.5603843 156.275578,110.470416" id="Fill-2" fill="#1980BA"></path>
                        <g id="Group-6" transform="translate(0.613548, 32.539693)">
                            <mask id="mask-2" fill="white">
                                <use xlink:href="#path-1"></use>
                            </mask>
                            <g id="Clip-4"></g>
                            <path d="M77.9702905,122.468967 C58.3735681,122.468967 42.4881974,138.365528 42.4881974,157.975298 L42.4881974,282.597411 L113.452997,282.597411 L113.452997,157.975298 C113.452997,138.365528 97.5670129,122.468967 77.9702905,122.468967" id="Fill-3" fill="#51B89E" mask="url(#mask-2)"></path>
                            <path d="M77.9702905,122.468967 L77.9702905,121.548033 C57.8649369,121.548647 41.568489,137.856559 41.5678755,157.975298 L41.5678755,282.597411 C41.5678755,282.839924 41.6660432,283.076911 41.837223,283.248819 C42.0084029,283.420113 42.245846,283.518346 42.4881974,283.518346 L113.452997,283.518346 C113.695349,283.518346 113.932178,283.420113 114.103358,283.248819 C114.274538,283.076911 114.373319,282.839924 114.373319,282.597411 L114.373319,157.975298 C114.372706,137.856559 98.0756442,121.548647 77.9702905,121.548033 L77.9702905,123.389902 C87.5170971,123.390516 96.1521713,127.259056 102.409747,133.51957 C108.665482,139.781312 112.532062,148.421522 112.532675,157.975298 L112.532675,281.676476 L43.4085194,281.676476 L43.4085194,157.975298 C43.4085194,148.421522 47.2750988,139.781312 53.5314475,133.51957 C59.7884098,127.259056 68.4228705,123.390516 77.9702905,123.389902 L77.9702905,122.468967" id="Fill-5" fill="#1B1B1B" mask="url(#mask-2)"></path>
                        </g>
                        <path d="M156.275578,110.470416 L155.355256,110.470416 C155.354643,131.673403 146.768652,150.860771 132.883448,164.757061 C118.996403,178.650896 99.8218018,187.242603 78.6329224,187.243217 C57.444043,187.242603 38.2694416,178.650896 24.3817831,164.757061 C10.4965788,150.860771 1.9105884,131.673403 1.9105884,110.470416 C1.9105884,89.2662014 10.4965788,70.0794477 24.3817831,56.1831569 C38.2694416,42.2887079 57.444043,33.697615 78.6329224,33.697001 C99.8218018,33.697615 118.996403,42.2887079 132.883448,56.1831569 C146.768652,70.0794477 155.354643,89.2662014 155.355256,110.470416 L157.1959,110.470416 C157.195287,67.0514144 122.021195,31.8557456 78.6329224,31.8551316 C35.2440365,31.8557456 0.0705580174,67.0514144 0.0699444694,110.470416 C0.0705580174,153.887576 35.2440365,189.084473 78.6329224,189.084473 C122.021195,189.084473 157.195287,153.887576 157.1959,110.470416 L156.275578,110.470416" id="Fill-7" fill="#1B1B1B"></path>
                        <path d="M156.275578,110.470416 L155.355256,110.470416 C155.354643,131.673403 146.768652,150.860771 132.883448,164.757061 C118.996403,178.650896 99.8218018,187.242603 78.6329224,187.243217 C57.444043,187.242603 38.2694416,178.650896 24.3817831,164.757061 C10.4965788,150.860771 1.9105884,131.673403 1.9105884,110.470416 C1.9105884,89.2662014 10.4965788,70.0794477 24.3817831,56.1831569 C38.2694416,42.2887079 57.444043,33.697615 78.6329224,33.697001 C99.8218018,33.697615 118.996403,42.2887079 132.883448,56.1831569 C146.768652,70.0794477 155.354643,89.2662014 155.355256,110.470416 L157.1959,110.470416 C157.195287,67.0514144 122.021195,31.8557456 78.6329224,31.8551316 C35.2440365,31.8557456 0.0705580174,67.0514144 0.0699444694,110.470416 C0.0705580174,153.887576 35.2440365,189.084473 78.6329224,189.084473 C122.021195,189.084473 157.195287,153.887576 157.1959,110.470416 L156.275578,110.470416" id="Fill-8" fill="#1B1B1B"></path>
                        <path d="M91.0885599,165.479074 C91.0885599,172.390996 85.489321,177.992121 78.5850656,177.992121 C71.678356,177.992121 66.0803443,172.390996 66.0803443,165.479074 L66.0803443,111.961716 C66.0803443,105.052864 71.678356,99.4498974 78.5850656,99.4498974 C85.489321,99.4498974 91.0885599,105.052864 91.0885599,111.961716 L91.0885599,165.479074" id="Fill-9" fill="#F3CC90"></path>
                        <path d="M91.0885599,165.479074 L90.1682379,165.479074 C90.1676243,168.683927 88.8730381,171.575662 86.7753176,173.676621 C84.6763699,175.775738 81.7859454,177.070572 78.5850656,177.071186 C75.3823452,177.070572 72.4925342,175.775738 70.392973,173.676621 C68.295866,171.575662 67.0006663,168.683927 67.0006663,165.479074 L67.0006663,111.961716 C67.0006663,108.758705 68.295866,105.866971 70.392973,103.766625 C72.4925342,101.667508 75.3823452,100.371446 78.5850656,100.370832 C81.7859454,100.371446 84.6757564,101.667508 86.7753176,103.766625 C88.8730381,105.867584 90.1676243,108.758705 90.1682379,111.961716 L90.1682379,165.479074 L92.0088818,165.479074 L92.0088818,111.961716 C92.0082683,104.543894 85.9985658,98.5295767 78.5850656,98.5289627 C71.1697248,98.5295767 65.1606359,104.543894 65.1600223,111.961716 L65.1600223,165.479074 C65.1606359,172.899966 71.1697248,178.912442 78.5850656,178.913056 C85.9985658,178.912442 92.0082683,172.899966 92.0088818,165.479074 L91.0885599,165.479074" id="Fill-10" fill="#1B1B1B"></path>
                        <path d="M17.1793434,87.5858026 C17.1793434,92.2635369 20.9686157,96.0553321 25.6432377,96.0553321 C30.3184733,96.0553321 34.1077456,92.2635369 34.1077456,87.5858026 L34.1077456,81.2614369 C34.1077456,76.5837026 30.3184733,72.7906795 25.6432377,72.7906795 C20.9686157,72.7906795 17.1793434,76.5837026 17.1793434,81.2614369 L17.1793434,87.5858026" id="Fill-11" fill="#FBDDAD"></path>
                        <path d="M17.1793434,87.5858026 L16.2590214,87.5858026 C16.259635,92.7725068 20.4599844,96.9756529 25.6432377,96.9762668 C30.826491,96.9756529 35.027454,92.7725068 35.0280676,87.5858026 L35.0280676,81.2614369 C35.027454,76.0747326 30.8271046,71.8703587 25.6432377,71.8697448 C20.4599844,71.8703587 16.259635,76.0747326 16.2590214,81.2614369 L16.2590214,87.5858026 L18.0996653,87.5858026 L18.0996653,81.2614369 C18.0996653,79.1739849 18.9426803,77.2928223 20.3090516,75.9230854 C21.6772636,74.5558043 23.5577881,73.7122281 25.6432377,73.7116142 C27.7293008,73.7122281 29.6098254,74.5558043 30.9780374,75.9230854 C32.3444087,77.2928223 33.1868101,79.1739849 33.1874237,81.2614369 L33.1874237,87.5858026 C33.1868101,89.6738685 32.3444087,91.5544172 30.9780374,92.9235401 C29.6098254,94.2908212 27.7293008,95.1337834 25.6432377,95.1343974 C23.5571746,95.1337834 21.6772636,94.2908212 20.3090516,92.9235401 C18.9426803,91.5544172 18.0996653,89.6738685 18.0996653,87.5858026 L17.1793434,87.5858026" id="Fill-12" fill="#1B1B1B"></path>
                        <path d="M123.060545,87.5858026 C123.060545,92.2635369 126.850431,96.0553321 131.525053,96.0553321 C136.199675,96.0553321 139.989561,92.2635369 139.989561,87.5858026 L139.989561,81.2614369 C139.989561,76.5837026 136.199675,72.7906795 131.525053,72.7906795 C126.850431,72.7906795 123.060545,76.5837026 123.060545,81.2614369 L123.060545,87.5858026" id="Fill-13" fill="#F3CC90"></path>
                        <path d="M123.060545,87.5858026 L122.140223,87.5858026 C122.140837,92.7725068 126.341186,96.9756529 131.525053,96.9762668 C136.707693,96.9756529 140.909269,92.7725068 140.909883,87.5858026 L140.909883,81.2614369 C140.909269,76.0747326 136.708306,71.8703587 131.525053,71.8697448 C126.341186,71.8703587 122.140837,76.0747326 122.140223,81.2614369 L122.140223,87.5858026 L123.980867,87.5858026 L123.980867,81.2614369 C123.980867,79.1739849 124.823882,77.2928223 126.190253,75.9230854 C127.558465,74.5558043 129.43899,73.7122281 131.525053,73.7116142 C133.611116,73.7122281 135.491027,74.5558043 136.859239,75.9230854 C138.226224,77.2928223 139.068625,79.1739849 139.069239,81.2614369 L139.069239,87.5858026 C139.068625,89.6738685 138.226224,91.5544172 136.859239,92.9235401 C135.491641,94.2908212 133.611116,95.1337834 131.525053,95.1343974 C129.438376,95.1337834 127.558465,94.2908212 126.190253,92.9235401 C124.823882,91.5544172 123.980867,89.6738685 123.980867,87.5858026 L123.060545,87.5858026" id="Fill-14" fill="#1B1B1B"></path>
                        <path d="M130.86058,98.7327963 C130.86058,126.995669 107.963583,149.907296 79.7207429,149.907296 L77.4475477,149.907296 C49.2047072,149.907296 26.3083237,126.995669 26.3083237,98.7327963 L26.3083237,52.1083278 C26.3083237,23.8460694 49.2047072,0.935055709 77.4475477,0.935055709 L79.7207429,0.935055709 C107.963583,0.935055709 130.86058,23.8460694 130.86058,52.1083278 L130.86058,98.7327963" id="Fill-15" fill="#F3CC90"></path>
                        <path d="M77.5451018,0.935055709 C49.3022613,0.935055709 26.4064914,23.8460694 26.4064914,52.1083278 L26.4064914,98.7327963 C26.4064914,126.995669 49.3022613,149.907296 77.5451018,149.907296 L78.6820062,149.907296 L78.6820062,0.935055709 L77.5451018,0.935055709" id="Fill-16" fill="#FBDDAD"></path>
                        <path d="M84.702139,96.9056618 C84.702139,100.286106 81.9626472,103.027422 78.5844521,103.027422 C75.2056434,103.027422 72.4661516,100.286106 72.4661516,96.9056618" id="Fill-17" fill="#F3CC90"></path>
                        <path d="M83.781817,96.9056618 C83.7812034,98.3447758 83.2014006,99.6383821 82.2596045,100.582647 C81.3159677,101.52507 80.021995,102.105873 78.5844521,102.106487 C77.1462956,102.105873 75.8523229,101.52507 74.9086861,100.582647 C73.96689,99.6383821 73.3864736,98.3447758 73.3864736,96.9056618 C73.3864736,96.3973059 72.9747829,95.9847271 72.4661516,95.9847271 C71.9575204,95.9847271 71.5458297,96.3973059 71.5458297,96.9056618 C71.5464432,100.795076 74.6970121,103.947743 78.5844521,103.948357 C82.4718921,103.947743 85.6218474,100.795076 85.6224609,96.9056618 C85.6224609,96.3973059 85.2107702,95.9847271 84.702139,95.9847271 C84.1941212,95.9847271 83.781817,96.3973059 83.781817,96.9056618" id="Fill-18" fill="#1B1B1B"></path>
                        <path d="M83.8664866,95.9595549 C83.8664866,98.5412419 81.5018727,100.634833 78.5844521,100.634833 C75.6670314,100.634833 73.3011904,98.5412419 73.3011904,95.9595549 C73.3011904,93.3790958 75.6670314,91.2855043 78.5844521,91.2855043 C81.5018727,91.2855043 83.8664866,93.3790958 83.8664866,95.9595549" id="Fill-19" fill="#F3CC90"></path>
                        <path d="M98.2001945,52.2716402 L109.288234,56.8597369 C109.757598,57.0549751 110.295679,56.8308809 110.490174,56.3612042 C110.684055,55.8909136 110.461337,55.3524738 109.991359,55.1584635 L98.903934,50.5697528 C98.4339562,50.3751286 97.8958747,50.5986088 97.70138,51.0688994 C97.5074988,51.5385761 97.7308303,52.077016 98.2001945,52.2716402" id="Fill-20" fill="#1B1B1B"></path>
                        <path d="M47.9082803,59.5028195 L58.8398646,54.5537164 C59.3030933,54.3449712 59.5086319,53.7991639 59.2987985,53.3356267 C59.0895786,52.8720896 58.5441345,52.6664142 58.0815193,52.8757733 L47.149935,57.8248765 C46.6867063,58.0342356 46.4811677,58.5800429 46.6910011,59.0435801 C46.900221,59.5071172 47.4456651,59.7127926 47.9082803,59.5028195" id="Fill-21" fill="#1B1B1B"></path>
                        <path d="M58.2938069,80.1943806 C58.2938069,82.3696284 56.5316971,84.1322974 54.3585102,84.1322974 C52.1853232,84.1322974 50.4232134,82.3696284 50.4232134,80.1943806 L50.4232134,75.2722915 C50.4232134,73.0976577 52.1853232,71.3343747 54.3585102,71.3343747 C56.5316971,71.3343747 58.2938069,73.0976577 58.2938069,75.2722915 L58.2938069,80.1943806" id="Fill-22" fill="#1B1B1B"></path>
                        <path d="M106.745691,80.1943806 C106.745691,82.3696284 104.983581,84.1322974 102.810394,84.1322974 C100.637207,84.1322974 98.8750972,82.3696284 98.8750972,80.1943806 L98.8750972,75.2722915 C98.8750972,73.0976577 100.637207,71.3343747 102.810394,71.3343747 C104.983581,71.3343747 106.745691,73.0976577 106.745691,75.2722915 L106.745691,80.1943806" id="Fill-23" fill="#1B1B1B"></path>
                        <path d="M48.2592297,110.981228 C51.3619418,113.783325 55.7273357,116.072769 60.9222464,117.677651 C66.1183843,119.280692 72.1483338,120.194259 78.5844521,120.194873 C85.0199568,120.194259 91.0499063,119.280692 96.2460442,117.677651 C101.441568,116.072769 105.806349,113.783325 108.909061,110.981228 C109.286393,110.639868 109.315843,110.057223 108.97471,109.67964 C108.634191,109.302671 108.051934,109.273201 107.675216,109.613947 C104.845533,112.176601 100.704697,114.375793 95.7036677,115.918052 C90.7032517,117.461538 84.8450956,118.353003 78.5844521,118.353003 C72.323195,118.353003 66.4656524,117.461538 61.4652364,115.918052 C56.4635933,114.375793 52.3233715,112.176601 49.4936883,109.613947 C49.1163563,109.273201 48.5340992,109.302671 48.1935801,109.67964 C47.8524474,110.057837 47.8818977,110.639868 48.2592297,110.981228" id="Fill-24" fill="#1B1B1B"></path>
                        <path d="M34.7397,23.950442 C33.5408273,25.7081994 32.4573016,27.5433153 31.5007803,29.4484222 C29.4049004,33.6227123 27.9145923,38.1273109 27.1421354,42.8572316 C28.3980681,35.9753935 31.0283483,29.5755112 34.7397,23.950442 M122.41632,23.9307954 C126.135034,29.5607763 128.769609,35.9674121 130.026769,42.8578456 C129.254925,38.1273109 127.764617,33.6227123 125.668124,29.4484222 C124.707921,27.5371757 123.620101,25.6946924 122.41632,23.9307954" id="Fill-25" fill="#B1AEAA"></path>
                        <path d="M37.322737,20.5024625 C36.4110047,21.6143376 35.5489698,22.7648921 34.7397,23.950442 C31.0283483,29.5755112 28.3980681,35.9753935 27.1421354,42.8572316 C26.9157362,44.2447732 26.7506918,45.6519615 26.6506835,47.0763405 C27.623157,37.1013897 31.4584455,27.9663313 37.322737,20.5024625 M79.7158345,1.84678107 L78.6820062,1.84678107 L78.6820062,28.2647142 C88.6368221,28.2334024 97.4007414,23.3905137 102.553317,16.0506641 C114.9476,21.7555476 123.885153,33.0253327 125.668124,46.3813418 L125.668124,59.6949879 C125.668124,64.1381909 127.568282,68.1577639 130.634181,71.0605501 L130.634181,50.3671472 C130.634181,47.8130883 130.426188,45.3050761 130.026769,42.8578456 C128.769609,35.9674121 126.135034,29.5607763 122.41632,23.9307954 C118.246034,17.8256122 112.674405,12.6702197 106.133983,8.87965247 C98.431502,4.41680287 89.389032,1.84678107 79.7158345,1.84678107" id="Fill-26" fill="#AD997A"></path>
                        <path d="M78.6820062,1.84678107 L77.4530696,1.84678107 C67.7798722,1.84678107 58.7380156,4.41680287 51.0361479,8.87965247 C45.7584082,11.9371557 41.1113958,15.8848958 37.322737,20.5024625 C31.4584455,27.9663313 27.623157,37.1013897 26.6506835,47.0763405 C26.57399,48.1636574 26.5353365,49.2607976 26.5353365,50.3671472 L26.5353365,71.0605501 C29.6012357,68.1589918 31.5007803,64.1381909 31.5007803,59.6949879 L31.5007803,46.3788859 C33.2855913,33.0234908 42.2225312,21.7549337 54.6168139,16.0506641 C59.785342,23.414458 68.5903691,28.2647142 78.5850656,28.2647142 L78.6820062,28.2647142 L78.6820062,1.84678107" id="Fill-27" fill="#B0A087"></path>
                        <path d="M130.86058,98.7327963 L129.940258,98.7327963 C129.939645,112.613124 124.320773,125.170376 115.231059,134.267369 C106.140119,143.363134 93.5912221,148.985748 79.7207429,148.986362 L77.4475477,148.986362 C63.5770685,148.985748 51.0281718,143.363134 41.9378449,134.267369 C32.8487452,125.170376 27.2292592,112.613124 27.2286457,98.7327963 L27.2286457,52.1083278 C27.2292592,38.2286138 32.8487452,25.6707481 41.9378449,16.574369 C51.0281718,7.47983171 63.5770685,1.85660437 77.4475477,1.85599042 L79.7207429,1.85599042 C93.5912221,1.85660437 106.140119,7.47983171 115.231059,16.574369 C124.320159,25.6707481 129.939645,38.2286138 129.940258,52.1083278 L129.940258,98.7327963 L131.780902,98.7327963 L131.780902,52.1083278 C131.780289,23.3370995 108.472215,0.0147349554 79.7207429,0.0141209989 L77.4475477,0.0141209989 C48.6960759,0.0147349554 25.3886153,23.3370995 25.3880018,52.1083278 L25.3880018,98.7327963 C25.3886153,127.504638 48.6960759,150.827617 77.4475477,150.828231 L79.7207429,150.828231 C108.472215,150.827617 131.780289,127.504638 131.780902,98.7327963 L130.86058,98.7327963" id="Fill-28" fill="#1B1B1B"></path>
                        <path d="M27.1672909,71.7297627 C30.4062107,68.6698036 32.4272377,64.404648 32.4266242,59.6949879 L32.4266242,46.3788859 L31.5063022,46.3788859 L32.4180345,46.5010633 C34.1580566,33.485186 42.885163,22.4720348 55.0303452,16.8874868 L54.6462642,16.0506641 L53.8934408,16.5798946 C59.2398979,24.1892711 68.333906,29.1850349 78.6390578,29.1856489 C88.9448232,29.1850349 98.0388313,24.1892711 103.385288,16.5798946 L102.632465,16.0506641 L102.24777,16.8874868 C114.39418,22.4732627 123.1219,33.4870279 124.860081,46.5035191 L125.772427,46.3813418 L124.852105,46.3813418 L124.852105,59.6949879 C124.850878,64.404648 126.871905,68.6685757 130.110825,71.7297627 C130.480181,72.0791039 131.062438,72.063141 131.411546,71.6929253 C131.760655,71.3239374 131.744703,70.7412928 131.375347,70.3913376 C128.475719,67.6463382 126.693363,63.8711198 126.692749,59.6949879 L126.692749,46.3813418 L126.684773,46.2591644 C124.852105,32.5636374 115.686925,21.0384465 103.016546,15.2132274 C102.612832,15.0278126 102.134878,15.1567435 101.879642,15.5208196 C96.8779986,22.639031 88.3447733,27.3443934 78.6390578,27.3437794 C68.9339559,27.3443934 60.4001171,22.639031 55.3990875,15.5208196 C55.1438516,15.1567435 54.6658977,15.0278126 54.2621831,15.2132274 C41.5924174,21.0372186 32.4272377,32.5617955 30.5939564,46.2567086 L30.5859802,46.3788859 L30.5859802,59.6949879 C30.5847531,63.8711198 28.8017827,67.64818 25.9027685,70.3913376 C25.5334126,70.7406788 25.5168468,71.3233235 25.8659556,71.6929253 C26.2150644,72.063141 26.797935,72.0791039 27.1672909,71.7297627" id="Fill-29" fill="#1B1B1B"></path>
                    </g>
                    <g id="mujer" transform="translate(0.000000, 0.400298)">
                        <path d="M221.778286,157.39312 C221.778286,218.526718 172.25043,268.087549 111.156634,268.087549 C50.0628383,268.087549 0.534982661,218.526718 0.534982661,157.39312 C0.534982661,96.2568991 50.0628383,46.6978177 111.156634,46.6978177 C172.25043,46.6978177 221.778286,96.2568991 221.778286,157.39312" id="Fill-2" fill="#6EC2B2"></path>
                        <g id="Group-8" transform="translate(0.000000, 46.361044)">
                            <mask id="mask-4" fill="white">
                                <use xlink:href="#path-3"></use>
                            </mask>
                            <g id="Clip-4"></g>
                            <polygon id="Fill-3" fill="#D0562B" mask="url(#mask-4)" points="36.8158983 91.6881494 185.402962 91.6881494 185.402962 221.798233 36.8158983 221.798233"></polygon>
                            <polygon id="Stroke-5" stroke="#1B1B1B" stroke-width="3" stroke-linecap="round" stroke-linejoin="round" mask="url(#mask-4)" points="37.3902179 91.6881494 185.402962 91.6881494 185.402962 242.749051 37.3902179 242.749051"></polygon>
                            <path d="M111.226567,174.488099 C83.3060664,174.488099 60.6733277,197.136782 60.6733277,225.075871 L60.6733277,402.631672 L161.78068,402.631672 L161.78068,225.075871 C161.78068,197.136782 139.147067,174.488099 111.226567,174.488099" id="Fill-6" fill="#AB6A9E" mask="url(#mask-4)"></path>
                            <path d="M111.086702,174.488099 C83.1670758,174.488099 60.533463,197.136782 60.533463,225.075871 L60.533463,402.631672 L161.640815,402.631672 L161.640815,225.075871 C161.640815,197.136782 139.008076,174.488099 111.086702,174.488099 L111.086702,174.488099 Z" id="Stroke-7" stroke="#1B1B1B" stroke-width="3" stroke-linecap="round" stroke-linejoin="round" mask="url(#mask-4)"></path>
                        </g>
                        <path d="M221.778286,157.39312 C221.778286,218.526718 172.25043,268.087549 111.156634,268.087549 C50.0628383,268.087549 0.534982661,218.526718 0.534982661,157.39312 C0.534982661,96.2568991 50.0628383,46.6978177 111.156634,46.6978177 C172.25043,46.6978177 221.778286,96.2568991 221.778286,157.39312 L221.778286,157.39312 Z" id="Stroke-10" stroke="#1B1B1B" stroke-width="3" stroke-linecap="round" stroke-linejoin="round"></path>
                        <path d="M128.972781,235.766903 C128.972781,245.614688 120.995245,253.594911 111.157509,253.594911 C101.317149,253.594911 93.3413621,245.614688 93.3413621,235.766903 L93.3413621,159.517856 C93.3413621,149.674444 101.317149,141.691597 111.157509,141.691597 C120.995245,141.691597 128.972781,149.674444 128.972781,159.517856 L128.972781,235.766903" id="Fill-11" fill="#F3CC90"></path>
                        <path d="M111.157509,254.907016 C100.610832,254.907016 92.0301301,246.321476 92.0301301,235.766903 L92.0301301,159.517856 C92.0301301,148.965033 100.610832,140.379492 111.157509,140.379492 C121.704185,140.379492 130.284013,148.965033 130.284013,159.517856 L130.284013,235.766903 C130.284013,246.321476 121.704185,254.907016 111.157509,254.907016 L111.157509,254.907016 Z M111.157509,143.003702 C102.056684,143.003702 94.6525941,150.411847 94.6525941,159.517856 L94.6525941,235.766903 C94.6525941,244.873786 102.056684,252.282806 111.157509,252.282806 C120.258333,252.282806 127.661549,244.873786 127.661549,235.766903 L127.661549,159.517856 C127.661549,150.411847 120.258333,143.003702 111.157509,143.003702 L111.157509,143.003702 Z" id="Fill-12" fill="#1B1B1B"></path>
                        <path d="M23.6694861,124.788185 C23.6694861,131.452804 29.0691396,136.855178 35.7293241,136.855178 C42.3895085,136.855178 47.789162,131.452804 47.789162,124.788185 L47.789162,115.777523 C47.789162,109.112904 42.3895085,103.708781 35.7293241,103.708781 C29.0691396,103.708781 23.6694861,109.112904 23.6694861,115.777523 L23.6694861,124.788185" id="Fill-13" fill="#FBDDAD"></path>
                        <path d="M35.7293241,138.167283 C28.3567035,138.167283 22.3582541,132.165715 22.3582541,124.788185 L22.3582541,115.777523 C22.3582541,108.399994 28.3567035,102.396676 35.7293241,102.396676 C43.1019446,102.396676 49.100394,108.399994 49.100394,115.777523 L49.100394,124.788185 C49.100394,132.165715 43.1019446,138.167283 35.7293241,138.167283 L35.7293241,138.167283 Z M35.7293241,105.020886 C29.8025554,105.020886 24.9807182,109.846808 24.9807182,115.777523 L24.9807182,124.788185 C24.9807182,130.718025 29.8025554,135.543073 35.7293241,135.543073 C41.6560928,135.543073 46.4779299,130.718025 46.4779299,124.788185 L46.4779299,115.777523 C46.4779299,109.846808 41.6560928,105.020886 35.7293241,105.020886 L35.7293241,105.020886 Z" id="Fill-14" fill="#1B1B1B"></path>
                        <path d="M174.524107,124.788185 C174.524107,131.452804 179.92376,136.855178 186.583945,136.855178 C193.244129,136.855178 198.643783,131.452804 198.643783,124.788185 L198.643783,115.777523 C198.643783,109.112904 193.244129,103.708781 186.583945,103.708781 C179.92376,103.708781 174.524107,109.112904 174.524107,115.777523 L174.524107,124.788185" id="Fill-15" fill="#F3CC90"></path>
                        <path d="M186.583945,138.167283 C179.211324,138.167283 173.212875,132.165715 173.212875,124.788185 L173.212875,115.777523 C173.212875,108.399994 179.211324,102.396676 186.583945,102.396676 C193.956565,102.396676 199.955015,108.399994 199.955015,115.777523 L199.955015,124.788185 C199.955015,132.165715 193.956565,138.167283 186.583945,138.167283 L186.583945,138.167283 Z M186.583945,105.020886 C180.65805,105.020886 175.835339,109.846808 175.835339,115.777523 L175.835339,124.788185 C175.835339,130.718025 180.65805,135.543073 186.583945,135.543073 C192.510713,135.543073 197.332551,130.718025 197.332551,124.788185 L197.332551,115.777523 C197.332551,109.846808 192.510713,105.020886 186.583945,105.020886 L186.583945,105.020886 Z" id="Fill-16" fill="#1B1B1B"></path>
                        <path d="M185.637235,140.669905 C185.637235,180.937533 153.015531,213.580956 112.776443,213.580956 L109.5377,213.580956 C69.2977377,213.580956 36.6769077,180.937533 36.6769077,140.669905 L36.6769077,74.2415263 C36.6769077,33.9747727 69.2977377,1.33222397 109.5377,1.33222397 L112.776443,1.33222397 C153.015531,1.33222397 185.637235,33.9747727 185.637235,74.2415263 L185.637235,140.669905" id="Fill-17" fill="#F3CC90"></path>
                        <path d="M109.676691,1.33222397 C69.4376025,1.33222397 36.8158983,33.9747727 36.8158983,74.2415263 L36.8158983,140.669905 C36.8158983,180.937533 69.4376025,213.580956 109.676691,213.580956 L111.295625,213.580956 L111.295625,1.33222397 L109.676691,1.33222397" id="Fill-18" fill="#FBDDAD"></path>
                        <path d="M119.873705,146.814055 C119.873705,151.630355 115.970604,155.536055 111.156634,155.536055 C106.342665,155.536055 102.439564,151.630355 102.439564,146.814055" id="Fill-19" fill="#F3CC90"></path>
                        <path d="M111.156634,156.739692 C105.687049,156.739692 101.237601,152.286408 101.237601,146.814055 C101.237601,146.149255 101.776081,145.610417 102.439564,145.610417 C103.103922,145.610417 103.642401,146.149255 103.642401,146.814055 C103.642401,150.959432 107.013141,154.332417 111.156634,154.332417 C115.300128,154.332417 118.670868,150.959432 118.670868,146.814055 C118.670868,146.149255 119.209347,145.610417 119.873705,145.610417 C120.538062,145.610417 121.075667,146.149255 121.075667,146.814055 C121.075667,152.286408 116.62622,156.739692 111.156634,156.739692" id="Fill-20" fill="#1B1B1B"></path>
                        <path d="M118.682232,145.466086 C118.682232,149.144354 115.314114,152.127206 111.156634,152.127206 C107.000029,152.127206 103.630163,149.144354 103.630163,145.466086 C103.630163,141.789568 107.000029,138.806715 111.156634,138.806715 C115.314114,138.806715 118.682232,141.789568 118.682232,145.466086" id="Fill-21" fill="#F3CC90"></path>
                        <path d="M155.402847,99.7742153 C155.24987,99.7742153 155.094271,99.7444743 154.943042,99.6832427 L139.146193,93.1454607 C138.532536,92.8909124 138.241443,92.1884988 138.494948,91.5735589 C138.749327,90.9594938 139.452147,90.6699559 140.065804,90.9210054 L155.862653,97.4587873 C156.476309,97.7133357 156.768277,98.416624 156.513898,99.0306891 C156.322458,99.4942996 155.874891,99.7742153 155.402847,99.7742153" id="Fill-22" fill="#1B1B1B"></path>
                        <path d="M66.9121696,99.1846428 C66.4541126,99.1846428 66.0170352,98.9213471 65.8159797,98.4769808 C65.5414951,97.871663 65.8107347,97.1578779 66.4156498,96.8849601 L81.9895895,89.8319582 C82.5936304,89.5590404 83.3078147,89.8267098 83.580551,90.4320276 C83.8550356,91.0373453 83.5866701,91.7511305 82.9808809,92.0240483 L67.4069412,99.0770502 C67.2460967,99.1496533 67.0773849,99.1846428 66.9121696,99.1846428" id="Fill-23" fill="#1B1B1B"></path>
                        <path d="M82.2483393,128.993045 C82.2483393,132.090487 79.737767,134.602731 76.6415112,134.602731 C73.5452553,134.602731 71.0346831,132.090487 71.0346831,128.993045 L71.0346831,121.978531 C71.0346831,118.880214 73.5452553,116.368845 76.6415112,116.368845 C79.737767,116.368845 82.2483393,118.880214 82.2483393,121.978531 L82.2483393,128.993045" id="Fill-24" fill="#1B1B1B"></path>
                        <path d="M151.280334,128.993045 C151.280334,132.090487 148.768888,134.602731 145.672632,134.602731 C142.576376,134.602731 140.065804,132.090487 140.065804,128.993045 L140.065804,121.978531 C140.065804,118.880214 142.576376,116.368845 145.672632,116.368845 C148.768888,116.368845 151.280334,118.880214 151.280334,121.978531 L151.280334,128.993045" id="Fill-25" fill="#1B1B1B"></path>
                        <path d="M109.684558,2.63120794 C95.4498232,2.63120794 82.1854001,6.55877563 70.9839821,13.3169912 C68.1928062,15.0008593 65.5292569,16.8553011 63.0143139,18.8759428 C47.2279547,31.5570005 37.1882882,50.537037 37.1882882,71.7607731 L37.1882882,112.537498 C57.8148419,100.718056 72.5198719,72.2007657 73.2025867,38.6170003 C89.0431436,60.4836678 118.464567,78.847015 154.70702,86.7712546 C165.124322,89.0499436 175.429731,90.3174371 185.402962,90.6559602 L185.402962,71.7607731 C185.402962,33.5820159 152.944724,2.63120794 112.906692,2.63120794 L109.684558,2.63120794 Z" id="Fill-26" fill="#D0562B"></path>
                        <path d="M112.776443,214.893061 L109.5377,214.893061 C68.6394993,214.893061 35.3656757,181.59621 35.3656757,140.669905 L35.3656757,74.2415263 C35.3656757,33.316096 68.6394993,0.0201189437 109.5377,0.0201189437 L112.776443,0.0201189437 C153.674644,0.0201189437 186.948467,33.316096 186.948467,74.2415263 L186.948467,140.669905 C186.948467,181.59621 153.674644,214.893061 112.776443,214.893061 L112.776443,214.893061 Z M109.5377,2.64432899 C70.0853511,2.64432899 37.9881397,34.7629104 37.9881397,74.2415263 L37.9881397,140.669905 C37.9881397,180.149395 70.0853511,212.268851 109.5377,212.268851 L112.776443,212.268851 C152.228792,212.268851 184.326003,180.149395 184.326003,140.669905 L184.326003,74.2415263 C184.326003,34.7629104 152.228792,2.64432899 112.776443,2.64432899 L109.5377,2.64432899 L109.5377,2.64432899 Z" id="Fill-27" fill="#1B1B1B"></path>
                        <path d="M37.1891624,113.849603 C36.7346019,113.849603 36.2931538,113.613424 36.0501388,113.189177 C35.6908612,112.561116 35.9085258,111.759857 36.5361688,111.399466 C57.357659,99.4680575 71.2348645,70.8886606 71.8913547,38.5907582 C71.9027187,38.0274277 72.2724861,37.5332015 72.8109654,37.3652521 C73.3468222,37.1964279 73.93338,37.3906194 74.2638105,37.847232 C90.4295529,60.1617647 120.606246,77.9722783 154.98675,85.4888906 C165.119951,87.7045986 175.36854,89.0018331 185.447544,89.3447299 C186.171344,89.3692225 186.73867,89.975415 186.71332,90.699697 C186.688843,91.4257284 186.051585,92.0048041 185.35838,91.9671904 C175.121154,91.6190452 164.714343,90.3016918 154.426417,88.0536185 C120.440157,80.6218557 91.5126305,64.0587166 74.380073,42.3486269 C72.7532712,74.0210927 58.6365473,101.758993 37.8404076,113.676405 C37.6341071,113.794495 37.4103235,113.849603 37.1891624,113.849603" id="Fill-28" fill="#1B1B1B"></path>
                        <path d="M43.4446132,94.32723 C43.155268,94.32723 42.8641745,94.2318837 42.6211595,94.0359427 C42.0582039,93.5802049 41.9699143,92.7535787 42.4253489,92.191123 C51.3198727,81.1773135 58.0989422,67.4115823 62.0300158,52.3827314 C62.2144624,51.6811926 62.9303951,51.2648179 63.630593,51.4450137 C64.331665,51.6287084 64.7512593,52.3459925 64.5676868,53.0475313 C60.5422045,68.4332748 53.5909265,82.5384038 44.4647517,93.8391269 C44.2060019,94.1601553 43.8266188,94.32723 43.4446132,94.32723" id="Fill-29" fill="#1B1B1B"></path>
                        <path d="M72.2864726,161.163236 C74.0610066,180.093412 90.780963,194.936819 111.157509,194.936819 C131.532306,194.936819 148.253136,180.093412 150.02767,161.163236 L72.2864726,161.163236" id="Fill-30" fill="#F8F8F7"></path>
                        <path d="M111.157509,196.248924 C90.1218504,196.248924 72.8494282,181.218323 70.9804855,161.285699 C70.9463935,160.918309 71.067901,160.553544 71.317035,160.279752 C71.565295,160.006834 71.9175793,159.851131 72.2864726,159.851131 L150.02767,159.851131 C150.397438,159.851131 150.748848,160.006834 150.997108,160.279752 C151.246242,160.553544 151.367749,160.918309 151.333657,161.285699 C149.464715,181.218323 132.193167,196.248924 111.157509,196.248924 L111.157509,196.248924 Z M73.7559266,162.475341 C76.1738384,180.332215 91.9934156,193.624714 111.157509,193.624714 C130.321601,193.624714 146.141179,180.332215 148.558216,162.475341 L73.7559266,162.475341 L73.7559266,162.475341 Z" id="Fill-31" fill="#1B1B1B"></path>
                        <g id="Fill-1-+-Fill-2" transform="translate(90.000000, 33.000000)" fill="#211F22">
                            <path d="M73.5370588,35.4196098 C73.4876471,35.4196098 73.4391176,35.4169756 73.3897059,35.4117073 C43.9305882,32.1796098 18.0291176,21.7378537 0.456176471,6.01112195 C-0.0891176471,5.52468293 -0.132352941,4.69229268 0.355588235,4.15141463 C0.844411765,3.61141463 1.68088235,3.5657561 2.22617647,4.05307317 C19.3905882,19.4136585 44.7661765,29.6200976 73.6808824,32.7933659 C74.4061765,32.8732683 74.9302941,33.5239024 74.8508824,34.2465366 C74.7758824,34.920878 74.2032353,35.4196098 73.5370588,35.4196098" id="Fill-1"></path>
                            <path d="M56.5711765,17.2343415 C56.52,17.2343415 56.4661765,17.2317073 56.415,17.225561 C39.4244118,15.228878 23.9038235,10.3153171 11.5279412,3.01346341 C10.8997059,2.64292683 10.6905882,1.8342439 11.0638235,1.20907317 C11.4370588,0.583902439 12.2488235,0.376682927 12.8779412,0.748097561 C24.9379412,7.86204878 40.0994118,12.6561951 56.7247059,14.6107317 C57.45,14.6950244 57.9688235,15.3500488 57.8841176,16.0718049 C57.8038235,16.7417561 57.2320588,17.2343415 56.5711765,17.2343415" id="Fill-2"></path>
                        </g>
                    </g>
                </g>
            </g>
        </g>
    </g>
</svg>