<svg xmlns="http://www.w3.org/2000/svg" viewBox="0 0 89.42 15.56"><defs><style>.in-cls-1{fill:#fff;}.in-cls-2{fill:#3dad98;}.in-cls-3{fill:#4872b6;}.in-cls-4{fill:#2486bf;}.in-cls-5{fill:#9f4396;}.in-cls-6{fill:#aace3a;}.in-cls-7{fill:#6abc46;}.in-cls-8{fill:#de5c26;}.in-cls-9{fill:#f5c31f;}</style></defs><title>Asset 3</title><g id="Layer_2" data-name="Layer 2"><g id="Logos"><path class="in-cls-1" d="M19.34,3.8A.61.61,0,0,1,20,3.18h2.15c1.65,0,2.67.93,2.67,2.35v0c0,1.58-1.26,2.4-2.81,2.4h-1.4v1.7a.62.62,0,0,1-1.24,0Zm2.67,3c.93,0,1.52-.52,1.52-1.26v0c0-.82-.59-1.26-1.52-1.26H20.58V6.83Z"/><path class="in-cls-1" d="M25.57,7.59v0a2.83,2.83,0,0,1,5.65,0v0a2.77,2.77,0,0,1-2.84,2.76A2.74,2.74,0,0,1,25.57,7.59Zm4.44,0v0a1.64,1.64,0,0,0-1.63-1.71,1.59,1.59,0,0,0-1.6,1.69v0a1.63,1.63,0,0,0,1.62,1.7A1.59,1.59,0,0,0,30,7.59Z"/><path class="in-cls-1" d="M32.45,5.46a.6.6,0,0,1,.6-.61.61.61,0,0,1,.61.61v.26a1.92,1.92,0,0,1,1.66-.92,1.82,1.82,0,0,1,1.89,2V9.66a.59.59,0,0,1-.6.6.6.6,0,0,1-.61-.6V7.2c0-.82-.41-1.3-1.13-1.3a1.18,1.18,0,0,0-1.19,1.32V9.66a.61.61,0,0,1-1.22,0Z"/><path class="in-cls-1" d="M38.93,8.74V6h-.2a.52.52,0,0,1,0-1h.2V4a.61.61,0,0,1,1.21,0v.9h1a.52.52,0,1,1,0,1h-1v2.6a.58.58,0,0,0,.65.66,2.87,2.87,0,0,0,.3,0,.51.51,0,0,1,.51.5.52.52,0,0,1-.32.47,2.42,2.42,0,0,1-.83.14A1.36,1.36,0,0,1,38.93,8.74Z"/><path class="in-cls-1" d="M42.45,8.68v0c0-1.14.89-1.71,2.19-1.71a4.43,4.43,0,0,1,1.43.22V7c0-.75-.46-1.15-1.32-1.15a3.15,3.15,0,0,0-1.17.21l-.19,0a.51.51,0,0,1-.51-.5.53.53,0,0,1,.33-.48,4.55,4.55,0,0,1,1.71-.31,2.38,2.38,0,0,1,1.76.59,2.2,2.2,0,0,1,.57,1.64V9.68a.58.58,0,0,1-.59.58.55.55,0,0,1-.59-.51v-.2a2.15,2.15,0,0,1-1.73.77A1.69,1.69,0,0,1,42.45,8.68Zm3.63-.38V7.94a3.37,3.37,0,0,0-1.2-.21c-.78,0-1.25.33-1.25.88v0c0,.51.45.8,1,.8C45.48,9.43,46.09,9,46.09,8.3Z"/><path class="in-cls-1" d="M49,3.72a.62.62,0,0,1,1.25,0v6a.62.62,0,0,1-1.25,0Z"/><path class="in-cls-1" d="M51.85,3.74a.63.63,0,0,1,.63-.63h.13a.79.79,0,0,1,.65.37l3.55,4.6V3.71a.61.61,0,0,1,1.23,0v6a.61.61,0,0,1-.61.62h-.05a.79.79,0,0,1-.65-.38L53.08,5.19V9.7a.61.61,0,0,1-1.23,0Z"/><path class="in-cls-1" d="M59.39,9.47A.59.59,0,0,1,59.15,9a.6.6,0,0,1,1-.47,3.08,3.08,0,0,0,2,.73c.77,0,1.26-.37,1.26-.89v0c0-.51-.28-.78-1.6-1.09-1.51-.37-2.36-.81-2.36-2.12v0A2.17,2.17,0,0,1,61.8,3.05a3.91,3.91,0,0,1,2.25.66.56.56,0,0,1,.27.5.58.58,0,0,1-.59.58.61.61,0,0,1-.33-.09,3,3,0,0,0-1.63-.54c-.73,0-1.16.38-1.16.84V5c0,.55.32.79,1.69,1.12S64.6,7,64.6,8.22v0c0,1.33-1,2.12-2.54,2.12A4.43,4.43,0,0,1,59.39,9.47Z"/><path class="in-cls-1" d="M66.14,3.72a.62.62,0,0,1,1.25,0v6a.62.62,0,0,1-1.25,0Z"/><path class="in-cls-1" d="M68.67,6.73v0A3.62,3.62,0,0,1,72.34,3a3.85,3.85,0,0,1,2.42.72.63.63,0,0,1,.25.51.62.62,0,0,1-.62.62A.65.65,0,0,1,74,4.74a2.71,2.71,0,0,0-1.73-.56A2.4,2.4,0,0,0,70,6.69v0A2.37,2.37,0,0,0,72.4,9.24a2.89,2.89,0,0,0,1.71-.54V7.38h-1.4a.55.55,0,0,1-.56-.54.56.56,0,0,1,.56-.55h2a.62.62,0,0,1,.63.63v1.9a.86.86,0,0,1-.44.79,4.52,4.52,0,0,1-2.53.77A3.52,3.52,0,0,1,68.67,6.73Z"/><path class="in-cls-1" d="M76.94,3.72a.62.62,0,0,1,1.25,0V6.11h3.39V3.72a.62.62,0,0,1,1.25,0v6a.62.62,0,0,1-1.25,0V7.26H78.19V9.69a.62.62,0,0,1-1.25,0Z"/><path class="in-cls-1" d="M85.86,4.31H84.14a.58.58,0,0,1,0-1.16h4.72a.58.58,0,0,1,0,1.16H87.12V9.69a.63.63,0,0,1-1.26,0Z"/><rect class="in-cls-1" x="2.89" y="2.18" width="7.77" height="8.18" fill="#ffffff"/><path class="in-cls-2" d="M5,3.06H8.86V0H4.53V3.06Z"/><path class="in-cls-3" d="M10.21,4.36A1,1,0,0,1,9.36,5H7.67V7.86H9.34a1,1,0,0,1,.87.64h3.18V4.36Z"/><path class="in-cls-4" d="M13.38,3.59A3.55,3.55,0,0,0,9.87,0h-1V3.06h.46a1,1,0,0,1,.95,1,1.09,1.09,0,0,1-.06.33h3.18V3.59Z"/><path class="in-cls-5" d="M10.21,8.49a1.07,1.07,0,0,1,.06.33,1,1,0,0,1-.54.88l0,0h0a.62.62,0,0,1-.28.08H8.86v3.05h1a3.75,3.75,0,0,0,3.51-3.59h0V8.49Z"/><path class="in-cls-6" d="M4.53,5H4a1,1,0,0,1-.85-.64H0V8.49H3.18A1,1,0,0,1,4,7.86H5.72V5Z"/><path class="in-cls-7" d="M3.51,0A3.55,3.55,0,0,0,0,3.59H0v.78H3.18A1.09,1.09,0,0,1,3.12,4a1,1,0,0,1,.95-1h.46V0Z"/><path class="in-cls-8" d="M8.86,9.8H4.53v3.05h0v2.32l2.31-2.32h2Z"/><path class="in-cls-9" d="M4,9.8a.62.62,0,0,1-.28-.08h0l0,0a1,1,0,0,1-.54-.88,1.07,1.07,0,0,1,.06-.33H0v.78H0a3.76,3.76,0,0,0,3.4,3.58V15.1a.53.53,0,0,0,.86.35l.27-.27V9.8Z" fill="#aace3a"/></g></g></svg>
