<?xml version="1.0" encoding="UTF-8" standalone="no"?>
<svg width="58px" height="57px" viewBox="0 0 58 57" version="1.1" xmlns="http://www.w3.org/2000/svg" xmlns:xlink="http://www.w3.org/1999/xlink">
    <!-- Generator: Sketch 39.1 (31720) - http://www.bohemiancoding.com/sketch -->
    <title>iso-brand</title>
    <desc>Created with Sketch.</desc>
    <defs></defs>
    <g id="Page-1" stroke="none" stroke-width="1" fill="none" fill-rule="evenodd">
        <g id="iso-brand">
            <path d="M13.2965345,34.6211401 L13.2965345,19.0611264 L0,19.0611264 L0,28.4733791 L0,37.0968956 L13.2965345,37.0968956 L13.2965345,34.6211401" id="Fill-4" fill="#ACD03C"></path>
            <path d="M13.2965345,42.797706 L13.2965345,37.0968956 L0,37.0968956 L0,41.4261813 C0,55.4481593 12.9862966,56.1448764 12.9862966,56.1448764 L18.9944251,56.1448764 L18.9944251,42.797706 L13.2965345,42.797706" id="Fill-5" fill="#F7C41F"></path>
            <path d="M21.0175258,42.797706 L18.9944251,42.797706 L18.9944251,56.1448764 L37.8359159,56.1448764 L37.8359159,42.797706 L21.0175258,42.797706" id="Fill-6" fill="#DF5C26"></path>
            <path d="M13.2965345,13.3471703 L18.9944251,13.3471703 L18.9944251,0 L12.9862966,0 C12.9862966,0 0,0.157747253 0,13.9299588 L0,19.0611264 L13.2965345,19.0611264 L13.2965345,13.3471703" id="Fill-7" fill="#69BC46"></path>
            <path d="M21.0175258,13.3471703 L37.8359159,13.3471703 L37.8359159,0 L18.9944251,0 L18.9944251,13.3471703 L21.0175258,13.3471703" id="Fill-8" fill="#3EAE99"></path>
            <path d="M42.2666376,0 L37.8359159,0 L37.8359159,13.3471703 L39.8590167,13.3471703 C42.1355511,13.3471703 43.9620222,15.2445192 43.9620222,17.645783 C43.9620222,18.1234066 43.8877399,18.5396841 43.7216971,19.0611264 L57.4551864,19.0611264 C57.5032514,18.0313874 57.5644251,17.0849038 57.5644251,16.1384203 C57.5644251,8.43947802 52.1592942,0 42.2666376,0" id="Fill-9" fill="#2486BF"></path>
            <path d="M54.5057415,28.3857418 C54.5057415,28.3857418 54.693632,27.7898077 55.1262173,27.2376923 C55.5151071,26.7337775 57.0182316,23.7365797 57.4464473,19.0611264 L43.7216971,19.0611264 C43.1842427,20.6166896 41.7554005,21.7472115 40.0556463,21.8479945 L20.9213957,21.8479945 L20.9213957,34.2925 L39.9420381,34.2925 C41.6898573,34.3626099 43.1755036,35.5281868 43.7216971,37.0968956 L57.3983822,37.0968956 C56.9264711,33.2671429 55.5151071,30.1866896 55.1262173,29.6827747 C54.693632,29.1131319 54.5057415,28.3857418 54.5057415,28.3857418" id="Fill-10" fill="#4772B7"></path>
            <path d="M57.3983822,37.0968956 L43.7216971,37.0968956 C43.8877399,37.5876648 43.9620222,37.9995604 43.9620222,38.5034753 C43.9620222,40.2124038 43.0050912,41.6540385 41.6330531,42.3551374 C41.5893577,42.3639011 41.5107058,42.4296291 41.4539017,42.4383929 C41.0693814,42.6706319 40.6542744,42.797706 40.2173196,42.797706 L37.8359159,42.797706 L37.8359159,56.1448764 L42.2666376,56.1448764 C51.2941237,56.1448764 57.5644251,47.3110302 57.5644251,40.3964423 C57.5644251,39.3009753 57.5032514,37.9645055 57.3983822,37.0968956" id="Fill-11" fill="#A04297"></path>
        </g>
    </g>
</svg>