<?xml version="1.0" encoding="UTF-8" standalone="no"?>
<svg width="12px" height="11px" viewBox="0 0 12 11" version="1.1" xmlns="http://www.w3.org/2000/svg" xmlns:xlink="http://www.w3.org/1999/xlink">
    <!-- Generator: Sketch 39.1 (31720) - http://www.bohemiancoding.com/sketch -->
    <title>Imported Layers</title>
    <desc>Created with Sketch.</desc>
    <defs></defs>
    <g id="Symbols" stroke="none" stroke-width="1" fill="none" fill-rule="evenodd">
        <g id="FOOTER" transform="translate(-1317.000000, -44.000000)" fill="#FFFFFF">
            <g id="social" transform="translate(1176.000000, 29.916000)">
                <path d="M144.18031,15.2067779 C144.18031,15.8125049 143.732989,16.3034356 142.997074,16.3034356 C142.304448,16.3034356 141.856806,15.8125049 141.856806,15.2067779 C141.856806,14.5863006 142.319198,14.1097996 143.025933,14.1097996 C143.732989,14.1097996 144.166201,14.5863006 144.18031,15.2067779 L144.18031,15.2067779 Z M141.914846,17.1701799 L144.108482,17.1701799 L144.108482,24.2275888 L141.914846,24.2275888 L141.914846,17.1701799 Z M145.421264,19.4212141 C145.421264,18.541002 145.392405,17.805087 145.363225,17.1701799 L147.268267,17.1701799 L147.369916,18.1513999 L147.413205,18.1513999 C147.701799,17.6893287 148.409175,17.0114532 149.592732,17.0114532 C151.035382,17.0114532 152.117931,17.9785641 152.117931,20.0567625 L152.117931,24.2279095 L149.924295,24.2279095 L149.924295,20.3164972 C149.924295,19.4074257 149.6062,18.7866277 148.812566,18.7866277 C148.206839,18.7866277 147.846417,19.2050891 147.687369,19.6091209 C147.62933,19.753418 147.6149,19.9551132 147.6149,20.1577704 L147.6149,24.2279095 L145.421264,24.2279095 L145.421264,19.4212141 L145.421264,19.4212141 Z" id="Imported-Layers"></path>
            </g>
        </g>
    </g>
</svg>