<?xml version="1.0" encoding="UTF-8" standalone="no"?>
<svg width="1440px" height="638px" viewBox="0 0 1440 638" version="1.1" xmlns="http://www.w3.org/2000/svg" xmlns:xlink="http://www.w3.org/1999/xlink" xmlns:sketch="http://www.bohemiancoding.com/sketch/ns">
    <!-- Generator: Sketch 3.4.2 (15857) - http://www.bohemiancoding.com/sketch -->
    <title>Pattern</title>
    <desc>Created with Sketch.</desc>
    <defs></defs>
    <g id="BrandCaptcha" stroke="none" stroke-width="1" fill="none" fill-rule="evenodd" sketch:type="MSPage">
        <g id="Publishers" sketch:type="MSArtboardGroup" transform="translate(0.000000, -92.000000)">
            <g id="Intro" sketch:type="MSLayerGroup" transform="translate(0.000000, -1.000000)">
                <g id="Pattern" transform="translate(-326.000000, -108.000000)" sketch:type="MSShapeGroup">
                    <g id="2" transform="translate(1433.543750, 11.572062)">
                        <g id="99---Pie-Chart-(Outline)" transform="translate(355.801437, 655.497771) rotate(19.000000) translate(-355.801437, -655.497771) translate(314.194145, 613.896884)" stroke="#000000">
                            <path d="M39.4916667,39.7281419 L39.4916667,0.107175166 C18.2197625,1.55827051 1.41041667,19.2590953 1.41041667,40.8957871 C1.41041667,51.1733215 5.21148958,60.5581996 11.4723292,67.7431663 L39.4916667,39.7281419 L39.4916667,39.7281419 Z" id="Stroke-311"></path>
                            <path d="M41.4859958,45.7102084 L15.4609875,71.7312106 C22.6470604,77.9910865 32.0333833,81.7915743 42.3125,81.7915743 C52.1713125,81.7915743 61.2064417,78.2956896 68.2655771,72.4856674 L41.4859958,45.7102084 L41.4859958,45.7102084 Z" id="Stroke-313"></path>
                            <path d="M24.5370188,77.725969 L49.0218521,53.2449047" id="Stroke-565"></path>
                            <path d="M45.0331937,49.2568603 L19.4764437,74.8096763" id="Stroke-567"></path>
                        </g>
                        <g id="79---Call-to-Action-(Outline)" transform="translate(415.068472, 920.160620) rotate(26.000000) translate(-415.068472, -920.160620) translate(332.559097, 837.663946)" stroke="#000000" stroke-linejoin="round">
                            <path d="M0,7.95807864e-13 L163.608333,7.95807864e-13 L163.608333,163.583149 L0,163.583149 L0,7.95807864e-13 Z" id="Path"></path>
                        </g>
                        <g id="48---Protected-System-(Outline)" transform="translate(58.310253, 344.756372) rotate(24.000000) translate(-58.310253, -344.756372) translate(18.113378, 291.873889)" stroke-linejoin="round">
                            <path d="M40.7729882,0.894466188 C40.7729882,0.894466188 28.8443398,15.2059252 1.41041667,15.2059252 L1.41041667,49.3476996 C1.41041667,67.1761997 9.154108,84.3696287 23.1743403,95.3858743 C28.1376027,99.2857469 33.9883122,102.639995 40.7729882,104.652544 C47.5576641,102.639995 53.4101628,99.2857469 58.371636,95.3858743 C72.3918683,84.3696287 80.1355597,67.1761997 80.1355597,49.3476996 L80.1355597,15.2059252 C52.7016365,15.2059252 40.7729882,0.894466188 40.7729882,0.894466188 L40.7729882,0.894466188 Z" id="Stroke-12" stroke="#000000"></path>
                            <path d="M40.7729882,93.3125017 C36.9745,91.822321 33.297678,89.6899136 29.8087228,86.9474803 C18.7478402,78.2568468 12.1456634,64.2012051 12.1456634,49.3476996 L12.1456634,25.2740366 C25.3696983,23.5888623 34.7594608,18.9877282 40.7729882,14.9035956 C46.7865156,18.9877282 56.1762781,23.5888623 69.4003129,25.2740366 L69.4003129,49.3476996 C69.4003129,64.2012051 62.7981361,78.2568468 51.7390427,86.9474803 C48.2482983,89.6899136 44.5714763,91.822321 40.7729882,93.3125017 L40.7729882,93.3125017 Z" id="Stroke-14" stroke="#000000"></path>
                            <path d="M62.2434817,38.4620461 L37.1945726,67.0849641 L22.8809102,52.7735051" id="Stroke-18" stroke="#231F1F" stroke-linecap="round"></path>
                        </g>
                        <g id="93---Graph-(Outline)" transform="translate(264.158333, 315.884701) rotate(-19.000000) translate(-264.158333, -315.884701) translate(223.256250, 274.988914)" stroke="#000000" stroke-linecap="round">
                            <path d="M2.82083333,0 L2.82083333,81.7915743" id="Stroke-515"></path>
                            <path d="M0,78.9711752 L81.8041667,78.9711752" id="Stroke-517"></path>
                            <path d="M8.4625,38.075388 L11.2833333,38.075388" id="Stroke-519"></path>
                            <path d="M8.4625,32.4345898 L11.2833333,32.4345898" id="Stroke-521"></path>
                            <path d="M8.4625,26.7937916 L11.2833333,26.7937916" id="Stroke-523"></path>
                            <path d="M8.4625,21.1529933 L11.2833333,21.1529933" id="Stroke-525"></path>
                            <path d="M8.4625,15.5121951 L11.2833333,15.5121951" id="Stroke-527"></path>
                            <path d="M8.4625,9.8713969 L11.2833333,9.8713969" id="Stroke-529"></path>
                            <path d="M8.4625,4.23059867 L11.2833333,4.23059867" id="Stroke-531"></path>
                            <path d="M21.173175,59.211459 C21.173175,63.10502 18.0166625,66.2610466 14.1210917,66.2610466 C10.2269313,66.2610466 7.06900833,63.10502 7.06900833,59.211459 C7.06900833,55.3164878 10.2269313,52.1604612 14.1210917,52.1604612 C18.0166625,52.1604612 21.173175,55.3164878 21.173175,59.211459 L21.173175,59.211459 Z" id="Stroke-655"></path>
                            <path d="M38.08125,42.3059867 C38.08125,46.1995477 34.9233271,49.3569845 31.0291667,49.3569845 C27.1350063,49.3569845 23.9770833,46.1995477 23.9770833,42.3059867 C23.9770833,38.4124257 27.1350063,35.2549889 31.0291667,35.2549889 C34.9233271,35.2549889 38.08125,38.4124257 38.08125,42.3059867 L38.08125,42.3059867 Z" id="Stroke-657"></path>
                            <path d="M81.8041667,38.075388 C81.8041667,41.968949 78.6462437,45.1263858 74.7520833,45.1263858 C70.8579229,45.1263858 67.7,41.968949 67.7,38.075388 C67.7,34.1818271 70.8579229,31.0243902 74.7520833,31.0243902 C78.6462437,31.0243902 81.8041667,34.1818271 81.8041667,38.075388 L81.8041667,38.075388 Z" id="Stroke-659"></path>
                            <path d="M56.4166667,60.6385809 C56.4166667,64.5321419 53.2587437,67.6895787 49.3645833,67.6895787 C45.4704229,67.6895787 42.3125,64.5321419 42.3125,60.6385809 C42.3125,56.74502 45.4704229,53.5875831 49.3645833,53.5875831 C53.2587437,53.5875831 56.4166667,56.74502 56.4166667,60.6385809 L56.4166667,60.6385809 Z" id="Stroke-661"></path>
                            <path d="M25.404425,46.519663 L18.3354167,53.5875831" id="Stroke-663"></path>
                            <path d="M45.1502583,55.0147051 L36.6539083,46.519663" id="Stroke-665"></path>
                            <path d="M55.00625,56.4079823 L69.1104167,42.3059867" id="Stroke-667"></path>
                        </g>
                    </g>
                    <g id="2-copy" transform="translate(745.818750, 613.943459) scale(-1, 1) translate(-745.818750, -613.943459) translate(346.818750, 193.443459)">
                        <g id="46---Resumee-(Outline)" transform="translate(707.403584, 512.751383) scale(-1, 1) rotate(-12.000000) translate(-707.403584, -512.751383) translate(635.274154, 418.739993)">
                            <path d="M142.930099,47.0359515 L98.4629572,2.57565454 L0,2.57565454 L0,186.768313 L142.930099,186.768313 L142.930099,47.0359515 L142.930099,47.0359515 Z" id="Path" stroke="#1A1718" stroke-linejoin="round"></path>
                            <path d="M98.4629572,2.57565454 L98.4629572,47.0359515 L142.930099,47.0359515 L98.4629572,2.57565454 Z" id="Path" stroke="#1A1718" stroke-linejoin="round"></path>
                            <path d="M31.7622442,113.3288 L85.7580595,113.3288" id="Path" stroke="#000000" stroke-linecap="round" stroke-linejoin="round"></path>
                            <path d="M95.2867327,95.2992178 L117.520304,95.2992178" id="Path" stroke="#000000" stroke-linecap="round" stroke-linejoin="round"></path>
                            <path d="M47.6433664,95.2992178 L79.4056106,95.2992178" id="Path" stroke="#000000" stroke-linecap="round" stroke-linejoin="round"></path>
                            <path d="M49.3108842,126.956511 C40.2745257,131.6566 39.0167408,141.920577 38.7054708,151.092101 C40.5127425,150.342627 42.3200142,149.593154 44.1272859,148.84368 C41.1575161,146.357079 38.1877463,143.870478 35.2148002,141.380702 C32.098924,138.770247 27.5791567,143.238507 30.7236189,145.871192 C33.6965649,148.357793 36.6663348,150.847569 39.6361046,153.337346 C41.7387652,155.096703 44.9594567,154.007426 45.0579197,151.092101 C45.2897841,144.210282 45.6232876,136.029587 52.5156946,132.441006 C56.1524716,130.548268 52.9381325,125.066948 49.3108842,126.956511" id="Fill-101" fill="#000000"></path>
                            <path d="M53.0461241,144.899417 C59.7225479,152.155972 68.5778616,148.764287 75.8482393,144.305554 C74.3998809,143.924466 72.9515226,143.546553 71.5031642,143.165465 C73.2627926,146.29674 75.4353301,147.903662 78.7830706,149.110442 C81.6702586,150.152083 91.7642999,145.236045 92.5424748,146.306267 C94.9341718,149.577275 100.451274,146.414242 98.0309906,143.098775 C96.6842715,141.260024 95.2994376,139.726143 92.8442162,139.538775 C88.2164572,139.19262 80.2727199,145.810853 76.9885038,139.961148 C76.156333,138.474904 74.1013158,137.925501 72.6434288,138.821059 C68.145895,141.580773 62.2667036,145.547267 57.5373055,140.408927 C54.7581091,137.385626 50.2764564,141.888819 53.0461241,144.899417" id="Fill-102" fill="#000000"></path>
                            <path d="M62.2317652,69.5582677 L54.2562656,65.483799 C53.709955,65.20751 53.3669228,64.6454048 53.3669228,64.0356636 L53.3669228,61.593523 C57.4610761,59.8309898 59.8146584,56.4043712 60.9580992,52.120304 C62.6859652,51.5836047 63.956455,49.9893855 63.956455,48.0934714 L63.956455,45.9752558 C63.956455,44.3556307 63.022645,42.9551314 61.6727497,42.2437666 C60.7421159,34.2821977 55.4759358,31.0588262 47.0144739,31.0588262 C46.6142697,31.0588262 46.2235941,31.0747049 45.8360947,31.1064622 C42.9616116,31.3351152 40.05219,30.7920644 37.660493,29.1819665 C36.6663348,28.5118863 35.8278115,27.8005216 35.24021,27.0542238 C34.9702309,26.7144201 34.433449,26.9303701 34.4842686,27.3622701 C34.5700266,28.1022165 34.6938994,28.9660165 34.8812966,29.90921 C35.5832422,33.4247492 35.1639806,32.91028 33.8045566,36.2257479 C33.0517914,38.061323 32.5690053,40.0969694 32.3434933,42.2532938 C31.0031266,42.9646586 30.0756691,44.3619822 30.0756691,45.9752558 L30.0756691,48.0934714 C30.0756691,49.9893855 31.3461588,51.5836047 33.0740249,52.120304 C34.2174657,56.4043712 36.571048,59.8309898 40.6620251,61.593523 L40.6620251,64.0166092 C40.6620251,64.6390534 40.3126404,65.2043343 39.7536249,65.4774475 L31.5780232,69.5042802 C30.1963656,70.2601052 29.1926787,71.4700604 28.5860198,72.867384 C33.7854992,76.5829946 40.1379481,78.7933065 47.0144739,78.7933065 C53.8687662,78.7933065 60.1958053,76.602049 65.385756,72.9118443 C64.7378062,71.4954663 63.6769473,70.2823354 62.2317652,69.5582677 L62.2317652,69.5582677 Z" id="Stroke-105" stroke="#000000" stroke-linecap="round" stroke-linejoin="round"></path>
                        </g>
                        <g id="99---Pie-Chart-(Outline)" transform="translate(326.473330, 549.777150) rotate(19.000000) translate(-326.473330, -549.777150) translate(284.866038, 508.176263)">
                            <path d="M45.1333333,38.075388 L83.1073917,38.075388 C81.7195417,17.7389002 65.4729521,1.49481153 45.1333333,0.107175166 L45.1333333,38.075388 L45.1333333,38.075388 Z" id="Stroke-273" stroke="#000000"></path>
                            <path d="M72.4756708,68.610439 C78.6011104,61.9683991 82.5615604,53.2984922 83.2145833,43.7161863 L47.5775854,43.7161863 L72.4756708,68.610439 L72.4756708,68.610439 Z" id="Stroke-275" stroke="#000000"></path>
                            <path d="M50.8821917,4.23059867 C50.8821917,5.00902882 50.2517354,5.64079823 49.471775,5.64079823 C48.693225,5.64079823 48.0613583,5.00902882 48.0613583,4.23059867 C48.0613583,3.45216851 48.693225,2.82039911 49.471775,2.82039911 C50.2517354,2.82039911 50.8821917,3.45216851 50.8821917,4.23059867" id="Fill-280" fill="#000000"></path>
                            <path d="M50.8821917,12.691796 C50.8821917,13.4702262 50.2517354,14.1019956 49.471775,14.1019956 C48.693225,14.1019956 48.0613583,13.4702262 48.0613583,12.691796 C48.0613583,11.9133659 48.693225,11.2815965 49.471775,11.2815965 C50.2517354,11.2815965 50.8821917,11.9133659 50.8821917,12.691796" id="Fill-281" fill="#000000"></path>
                            <path d="M55.1134417,8.46119734 C55.1134417,9.23962749 54.4829854,9.8713969 53.703025,9.8713969 C52.924475,9.8713969 52.2926083,9.23962749 52.2926083,8.46119734 C52.2926083,7.68276718 52.924475,7.05099778 53.703025,7.05099778 C54.4829854,7.05099778 55.1134417,7.68276718 55.1134417,8.46119734" id="Fill-282" fill="#000000"></path>
                            <path d="M63.5759417,8.46119734 C63.5759417,9.23962749 62.9454854,9.8713969 62.165525,9.8713969 C61.386975,9.8713969 60.7551083,9.23962749 60.7551083,8.46119734 C60.7551083,7.68276718 61.386975,7.05099778 62.165525,7.05099778 C62.9454854,7.05099778 63.5759417,7.68276718 63.5759417,8.46119734" id="Fill-283" fill="#000000"></path>
                            <path d="M59.3446917,4.23059867 C59.3446917,5.00902882 58.7142354,5.64079823 57.934275,5.64079823 C57.155725,5.64079823 56.5238583,5.00902882 56.5238583,4.23059867 C56.5238583,3.45216851 57.155725,2.82039911 57.934275,2.82039911 C58.7142354,2.82039911 59.3446917,3.45216851 59.3446917,4.23059867" id="Fill-284" fill="#000000"></path>
                            <path d="M59.3446917,12.691796 C59.3446917,13.4702262 58.7142354,14.1019956 57.934275,14.1019956 C57.155725,14.1019956 56.5238583,13.4702262 56.5238583,12.691796 C56.5238583,11.9133659 57.155725,11.2815965 57.934275,11.2815965 C58.7142354,11.2815965 59.3446917,11.9133659 59.3446917,12.691796" id="Fill-285" fill="#000000"></path>
                            <path d="M67.8071917,12.691796 C67.8071917,13.4702262 67.1767354,14.1019956 66.396775,14.1019956 C65.618225,14.1019956 64.9863583,13.4702262 64.9863583,12.691796 C64.9863583,11.9133659 65.618225,11.2815965 66.396775,11.2815965 C67.1767354,11.2815965 67.8071917,11.9133659 67.8071917,12.691796" id="Fill-286" fill="#000000"></path>
                            <path d="M72.0384417,16.9223947 C72.0384417,17.7008248 71.4079854,18.3325942 70.628025,18.3325942 C69.849475,18.3325942 69.2176083,17.7008248 69.2176083,16.9223947 C69.2176083,16.1439645 69.849475,15.5121951 70.628025,15.5121951 C71.4079854,15.5121951 72.0384417,16.1439645 72.0384417,16.9223947" id="Fill-287" fill="#000000"></path>
                            <path d="M55.1134417,16.9223947 C55.1134417,17.7008248 54.4829854,18.3325942 53.703025,18.3325942 C52.924475,18.3325942 52.2926083,17.7008248 52.2926083,16.9223947 C52.2926083,16.1439645 52.924475,15.5121951 53.703025,15.5121951 C54.4829854,15.5121951 55.1134417,16.1439645 55.1134417,16.9223947" id="Fill-288" fill="#000000"></path>
                            <path d="M63.5759417,16.9223947 C63.5759417,17.7008248 62.9454854,18.3325942 62.165525,18.3325942 C61.386975,18.3325942 60.7551083,17.7008248 60.7551083,16.9223947 C60.7551083,16.1439645 61.386975,15.5121951 62.165525,15.5121951 C62.9454854,15.5121951 63.5759417,16.1439645 63.5759417,16.9223947" id="Fill-289" fill="#000000"></path>
                            <path d="M80.5009417,25.383592 C80.5009417,26.1620222 79.8704854,26.7937916 79.090525,26.7937916 C78.311975,26.7937916 77.6801083,26.1620222 77.6801083,25.383592 C77.6801083,24.6051619 78.311975,23.9733925 79.090525,23.9733925 C79.8704854,23.9733925 80.5009417,24.6051619 80.5009417,25.383592" id="Fill-290" fill="#000000"></path>
                            <path d="M72.0384417,25.383592 C72.0384417,26.1620222 71.4079854,26.7937916 70.628025,26.7937916 C69.849475,26.7937916 69.2176083,26.1620222 69.2176083,25.383592 C69.2176083,24.6051619 69.849475,23.9733925 70.628025,23.9733925 C71.4079854,23.9733925 72.0384417,24.6051619 72.0384417,25.383592" id="Fill-291" fill="#000000"></path>
                            <path d="M76.2696917,21.1529933 C76.2696917,21.9314235 75.6392354,22.5631929 74.859275,22.5631929 C74.080725,22.5631929 73.4488583,21.9314235 73.4488583,21.1529933 C73.4488583,20.3745632 74.080725,19.7427938 74.859275,19.7427938 C75.6392354,19.7427938 76.2696917,20.3745632 76.2696917,21.1529933" id="Fill-292" fill="#000000"></path>
                            <path d="M76.2696917,29.6141907 C76.2696917,30.3926208 75.6392354,31.0243902 74.859275,31.0243902 C74.080725,31.0243902 73.4488583,30.3926208 73.4488583,29.6141907 C73.4488583,28.8357605 74.080725,28.2039911 74.859275,28.2039911 C75.6392354,28.2039911 76.2696917,28.8357605 76.2696917,29.6141907" id="Fill-293" fill="#000000"></path>
                            <path d="M50.8821917,21.1529933 C50.8821917,21.9314235 50.2517354,22.5631929 49.471775,22.5631929 C48.693225,22.5631929 48.0613583,21.9314235 48.0613583,21.1529933 C48.0613583,20.3745632 48.693225,19.7427938 49.471775,19.7427938 C50.2517354,19.7427938 50.8821917,20.3745632 50.8821917,21.1529933" id="Fill-294" fill="#000000"></path>
                            <path d="M50.8821917,29.6141907 C50.8821917,30.3926208 50.2517354,31.0243902 49.471775,31.0243902 C48.693225,31.0243902 48.0613583,30.3926208 48.0613583,29.6141907 C48.0613583,28.8357605 48.693225,28.2039911 49.471775,28.2039911 C50.2517354,28.2039911 50.8821917,28.8357605 50.8821917,29.6141907" id="Fill-295" fill="#000000"></path>
                            <path d="M55.1134417,25.383592 C55.1134417,26.1620222 54.4829854,26.7937916 53.703025,26.7937916 C52.924475,26.7937916 52.2926083,26.1620222 52.2926083,25.383592 C52.2926083,24.6051619 52.924475,23.9733925 53.703025,23.9733925 C54.4829854,23.9733925 55.1134417,24.6051619 55.1134417,25.383592" id="Fill-296" fill="#000000"></path>
                            <path d="M63.5759417,25.383592 C63.5759417,26.1620222 62.9454854,26.7937916 62.165525,26.7937916 C61.386975,26.7937916 60.7551083,26.1620222 60.7551083,25.383592 C60.7551083,24.6051619 61.386975,23.9733925 62.165525,23.9733925 C62.9454854,23.9733925 63.5759417,24.6051619 63.5759417,25.383592" id="Fill-297" fill="#000000"></path>
                            <path d="M59.3446917,21.1529933 C59.3446917,21.9314235 58.7142354,22.5631929 57.934275,22.5631929 C57.155725,22.5631929 56.5238583,21.9314235 56.5238583,21.1529933 C56.5238583,20.3745632 57.155725,19.7427938 57.934275,19.7427938 C58.7142354,19.7427938 59.3446917,20.3745632 59.3446917,21.1529933" id="Fill-298" fill="#000000"></path>
                            <path d="M67.8071917,21.1529933 C67.8071917,21.9314235 67.1767354,22.5631929 66.396775,22.5631929 C65.618225,22.5631929 64.9863583,21.9314235 64.9863583,21.1529933 C64.9863583,20.3745632 65.618225,19.7427938 66.396775,19.7427938 C67.1767354,19.7427938 67.8071917,20.3745632 67.8071917,21.1529933" id="Fill-299" fill="#000000"></path>
                            <path d="M59.3446917,29.6141907 C59.3446917,30.3926208 58.7142354,31.0243902 57.934275,31.0243902 C57.155725,31.0243902 56.5238583,30.3926208 56.5238583,29.6141907 C56.5238583,28.8357605 57.155725,28.2039911 57.934275,28.2039911 C58.7142354,28.2039911 59.3446917,28.8357605 59.3446917,29.6141907" id="Fill-300" fill="#000000"></path>
                            <path d="M67.8071917,29.6141907 C67.8071917,30.3926208 67.1767354,31.0243902 66.396775,31.0243902 C65.618225,31.0243902 64.9863583,30.3926208 64.9863583,29.6141907 C64.9863583,28.8357605 65.618225,28.2039911 66.396775,28.2039911 C67.1767354,28.2039911 67.8071917,28.8357605 67.8071917,29.6141907" id="Fill-301" fill="#000000"></path>
                            <path d="M80.5009417,33.8447894 C80.5009417,34.6232195 79.8704854,35.2549889 79.090525,35.2549889 C78.311975,35.2549889 77.6801083,34.6232195 77.6801083,33.8447894 C77.6801083,33.0663592 78.311975,32.4345898 79.090525,32.4345898 C79.8704854,32.4345898 80.5009417,33.0663592 80.5009417,33.8447894" id="Fill-302" fill="#000000"></path>
                            <path d="M72.0384417,33.8447894 C72.0384417,34.6232195 71.4079854,35.2549889 70.628025,35.2549889 C69.849475,35.2549889 69.2176083,34.6232195 69.2176083,33.8447894 C69.2176083,33.0663592 69.849475,32.4345898 70.628025,32.4345898 C71.4079854,32.4345898 72.0384417,33.0663592 72.0384417,33.8447894" id="Fill-303" fill="#000000"></path>
                            <path d="M55.1134417,33.8447894 C55.1134417,34.6232195 54.4829854,35.2549889 53.703025,35.2549889 C52.924475,35.2549889 52.2926083,34.6232195 52.2926083,33.8447894 C52.2926083,33.0663592 52.924475,32.4345898 53.703025,32.4345898 C54.4829854,32.4345898 55.1134417,33.0663592 55.1134417,33.8447894" id="Fill-304" fill="#000000"></path>
                            <path d="M63.5759417,33.8447894 C63.5759417,34.6232195 62.9454854,35.2549889 62.165525,35.2549889 C61.386975,35.2549889 60.7551083,34.6232195 60.7551083,33.8447894 C60.7551083,33.0663592 61.386975,32.4345898 62.165525,32.4345898 C62.9454854,32.4345898 63.5759417,33.0663592 63.5759417,33.8447894" id="Fill-305" fill="#000000"></path>
                            <path d="M39.4916667,39.7281419 L39.4916667,0.107175166 C18.2197625,1.55827051 1.41041667,19.2590953 1.41041667,40.8957871 C1.41041667,51.1733215 5.21148958,60.5581996 11.4723292,67.7431663 L39.4916667,39.7281419 L39.4916667,39.7281419 Z" id="Stroke-311" stroke="#000000"></path>
                            <path d="M41.4859958,45.7102084 L15.4609875,71.7312106 C22.6470604,77.9910865 32.0333833,81.7915743 42.3125,81.7915743 C52.1713125,81.7915743 61.2064417,78.2956896 68.2655771,72.4856674 L41.4859958,45.7102084 L41.4859958,45.7102084 Z" id="Stroke-313" stroke="#000000"></path>
                            <path d="M60.9906479,65.2118581 L44.4690271,81.7295255" id="Stroke-557" stroke="#000000"></path>
                            <path d="M54.1332021,80.044337 L64.9793062,69.1999024" id="Stroke-559" stroke="#000000"></path>
                            <path d="M36.8020021,81.4192816 L57.0005792,61.2224035" id="Stroke-561" stroke="#000000"></path>
                            <path d="M53.0119208,57.2343592 L30.2675417,79.9752373" id="Stroke-563" stroke="#000000"></path>
                            <path d="M24.5370188,77.725969 L49.0218521,53.2449047" id="Stroke-565" stroke="#000000"></path>
                            <path d="M45.0331937,49.2568603 L19.4764437,74.8096763" id="Stroke-567" stroke="#000000"></path>
                        </g>
                        <g id="148---Rich-(Outline)" transform="translate(488.686989, 427.873474) rotate(-13.000000) translate(-488.686989, -427.873474) translate(432.270323, 370.055292)" stroke="#000000">
                            <path d="M91.8763086,80.9026623 C82.3696222,80.9026623 74.6644442,79.2434896 74.6644442,77.1991865 L74.6644442,84.9815429 C74.6701815,87.025846 82.373447,88.6830736 91.8763086,88.6830736 C101.37917,88.6830736 109.082436,87.025846 109.088173,84.9815429 L109.088173,77.1991865 C109.088173,79.2434896 101.382995,80.9026623 91.8763086,80.9026623 L91.8763086,80.9026623 Z" id="Stroke-10" stroke-linecap="round"></path>
                            <path d="M74.6644442,77.1952963 L74.6644442,77.1991865 L74.6644442,77.1952963 L74.6644442,77.1952963 Z" id="Stroke-12" stroke-linecap="round"></path>
                            <path d="M109.088173,77.1952963 L109.088173,77.1991865 L109.088173,77.1952963 L109.088173,77.1952963 Z" id="Stroke-14" stroke-linecap="round"></path>
                            <path d="M109.088173,69.4187751 C109.088173,71.4630782 101.382995,73.1222509 91.8763086,73.1222509 C82.3696222,73.1222509 74.6644442,71.4630782 74.6644442,69.4187751 C74.6644442,67.372527 82.3696222,63.3967368 91.8763086,63.3967368 C101.382995,63.3967368 109.088173,67.372527 109.088173,69.4187751 L109.088173,69.4187751 Z" id="Stroke-16" stroke-linecap="round"></path>
                            <path d="M91.8763086,73.1222509 C82.3696222,73.1222509 74.6644442,71.4630782 74.6644442,69.4187751 L74.6644442,77.2011316 C74.6701815,79.2454347 82.373447,80.9026623 91.8763086,80.9026623 C101.37917,80.9026623 109.082436,79.2454347 109.088173,77.2011316 L109.088173,69.4187751 C109.088173,71.4630782 101.382995,73.1222509 91.8763086,73.1222509 L91.8763086,73.1222509 Z" id="Stroke-18" stroke-linecap="round"></path>
                            <path d="M74.6644442,69.4148849 L74.6644442,69.4187751 L74.6644442,69.4148849 L74.6644442,69.4148849 Z" id="Stroke-20" stroke-linecap="round"></path>
                            <path d="M109.088173,69.4148849 L109.088173,69.4187751 L109.088173,69.4148849 L109.088173,69.4148849 Z" id="Stroke-22" stroke-linecap="round"></path>
                            <path d="M34.5034272,31.0243902 L57.4525798,31.0243902" id="Stroke-62" stroke-linecap="round"></path>
                            <path d="M34.5034272,22.5631929 L57.4525798,22.5631929" id="Stroke-64" stroke-linecap="round"></path>
                            <path d="M42.2315544,2.54808472 C38.1619046,-0.762480312 33.2890346,-0.346228305 29.3054442,0.99394755 C26.5419837,1.92370671 25.9701674,5.52214695 28.1924103,7.43418304 C30.4796758,9.40457222 33.8226024,14.9267192 34.5034272,16.9301751 C35.010221,18.4240141 36.3623086,19.4510284 37.9171137,19.4510284 L52.1283764,19.4510284 C53.681269,19.4510284 55.0333566,18.4240141 55.5401504,16.9301751 C56.2209753,14.9267192 58.7071335,9.40457222 60.994399,7.43418304 C63.2147295,5.52214695 62.6448255,1.92370671 59.8794527,0.99394755 C55.8958623,-0.346228305 51.0249046,-0.762480312 46.9533425,2.54808472 C45.557269,3.68402477 43.6276278,3.68402477 42.2315544,2.54808472 L42.2315544,2.54808472 Z" id="Stroke-66" stroke-linecap="round"></path>
                            <path d="M56.4166667,25.2863369 L56.4166667,31.1216454" id="Stroke-68" stroke-linecap="round"></path>
                            <path d="M57.9804103,31.1216454 C60.9695374,34.1618411 65.8079837,34.1618411 68.7990233,31.1216454" id="Stroke-70" stroke-linecap="round"></path>
                            <path d="M91.8763086,104.243896 C88.0265883,104.243896 84.4866815,103.967692 81.6199498,103.508647 C80.7402323,106.187054 79.0649442,108.488111 76.8809498,110.133668 C79.8318284,111.261827 85.4371589,112.024308 91.8763086,112.024308 C101.37917,112.024308 109.082436,110.36708 109.088173,108.322777 L109.088173,100.540421 C109.088173,102.584724 101.382995,104.243896 91.8763086,104.243896 L91.8763086,104.243896 Z" id="Stroke-74" stroke-linecap="round"></path>
                            <path d="M91.8763086,88.6830736 C82.3696222,88.6830736 74.6644442,87.0239009 74.6644442,84.9795978 L74.6644442,86.91303 C78.1947888,88.6208303 80.8645402,91.8477559 81.8685657,95.7690833 C84.689399,96.2028412 88.1394216,96.4615399 91.8763086,96.4615399 C101.37917,96.4615399 109.082436,94.8062574 109.088173,92.7619543 L109.088173,84.9795978 C109.088173,87.0239009 101.382995,88.6830736 91.8763086,88.6830736 L91.8763086,88.6830736 Z" id="Stroke-76" stroke-linecap="round"></path>
                            <path d="M91.8763086,96.4615399 C88.1394216,96.4615399 84.689399,96.2028412 81.8685657,95.7690833 C82.1496928,96.8661213 82.3141617,98.0117868 82.3141617,99.2002447 C82.3141617,100.707699 82.0636335,102.152911 81.6199498,103.508647 C84.484769,103.967692 88.0265883,104.243896 91.8763086,104.243896 C101.37917,104.243896 109.082436,102.586669 109.088173,100.542366 L109.088173,92.7600092 C109.088173,94.8043123 101.382995,96.4615399 91.8763086,96.4615399 L91.8763086,96.4615399 Z" id="Stroke-78" stroke-linecap="round"></path>
                            <path d="M55.7027069,97.0703571 C56.540351,91.5540454 60.7859442,87.006395 66.1598707,85.8762902 C69.2427069,85.2266259 72.1591617,85.6992859 74.6644442,86.91303 L74.6644442,69.4187751 C74.6644442,67.771273 79.6692719,64.8730698 86.5827041,63.8071535 C84.1730431,58.5320346 80.5394272,53.7568071 75.7660035,50.0338803 L61.9047154,40.4503586 C59.3592719,38.4663537 56.242012,36.9569539 53.0348679,36.9569539 L38.1619046,36.9569539 C34.8954753,36.9569539 31.7227549,38.0734429 29.1524498,40.1274715 L15.6736476,50.1136295 C2.4147747,60.716385 -2.04883547,79.4166037 5.57984532,94.7148375 C8.7621278,101.09672 13.1683651,105.782473 18.3453114,106.138426 C18.8234188,106.171493 19.3034385,106.188999 19.7891956,106.188999 L57.4525798,106.188999 C55.916899,103.584506 55.1920883,100.431495 55.7027069,97.0703571 L55.7027069,97.0703571 Z" id="Stroke-80"></path>
                            <path d="M82.3141617,99.2002447 C82.3141617,106.720012 76.320608,112.815965 68.9271561,112.815965 C61.5337041,112.815965 55.5401504,106.720012 55.5401504,99.2002447 C55.5401504,91.6804771 61.5337041,85.5845248 68.9271561,85.5845248 C76.320608,85.5845248 82.3141617,91.6804771 82.3141617,99.2002447 L82.3141617,99.2002447 Z" id="Stroke-82"></path>
                            <path d="M15.3791335,77.8041135 C15.3791335,65.9778882 28.6131448,50.5726738 40.2407154,50.5726738" id="Stroke-86" stroke-linecap="round"></path>
                        </g>
                        <g id="79---Call-to-Action-(Outline)" transform="translate(506.972614, 730.014324) scale(-1, 1) rotate(26.000000) translate(-506.972614, -730.014324) translate(424.463239, 647.517650)" stroke="#000000" stroke-linejoin="round">
                            <path d="M0,7.95807864e-13 L163.608333,7.95807864e-13 L163.608333,163.583149 L0,163.583149 L0,7.95807864e-13 Z" id="Path"></path>
                            <path d="M25.3875,16.9223947 C25.3875,21.595796 21.5991208,25.383592 16.925,25.383592 C12.2508792,25.383592 8.4625,21.595796 8.4625,16.9223947 C8.4625,12.2489933 12.2508792,8.46119734 16.925,8.46119734 C21.5991208,8.46119734 25.3875,12.2489933 25.3875,16.9223947 L25.3875,16.9223947 Z" id="Path"></path>
                            <path d="M50.775,16.9223947 C50.775,21.595796 46.9866208,25.383592 42.3125,25.383592 C37.6383792,25.383592 33.85,21.595796 33.85,16.9223947 C33.85,12.2489933 37.6383792,8.46119734 42.3125,8.46119734 C46.9866208,8.46119734 50.775,12.2489933 50.775,16.9223947 L50.775,16.9223947 Z" id="Path"></path>
                            <path d="M0,8.02913291e-13 L163.608333,8.02913291e-13 L163.608333,33.8447894 L0,33.8447894 L0,8.02913291e-13 Z" id="Path"></path>
                        </g>
                        <g id="48---Protected-System-(Outline)" transform="translate(59.158782, 611.328434) scale(-1, 1) rotate(24.000000) translate(-59.158782, -611.328434) translate(18.961907, 558.445951)" stroke-linejoin="round">
                            <path d="M40.7729882,0.894466188 C40.7729882,0.894466188 28.8443398,15.2059252 1.41041667,15.2059252 L1.41041667,49.3476996 C1.41041667,67.1761997 9.154108,84.3696287 23.1743403,95.3858743 C28.1376027,99.2857469 33.9883122,102.639995 40.7729882,104.652544 C47.5576641,102.639995 53.4101628,99.2857469 58.371636,95.3858743 C72.3918683,84.3696287 80.1355597,67.1761997 80.1355597,49.3476996 L80.1355597,15.2059252 C52.7016365,15.2059252 40.7729882,0.894466188 40.7729882,0.894466188 L40.7729882,0.894466188 Z" id="Stroke-12" stroke="#000000"></path>
                            <path d="M40.7729882,93.3125017 C36.9745,91.822321 33.297678,89.6899136 29.8087228,86.9474803 C18.7478402,78.2568468 12.1456634,64.2012051 12.1456634,49.3476996 L12.1456634,25.2740366 C25.3696983,23.5888623 34.7594608,18.9877282 40.7729882,14.9035956 C46.7865156,18.9877282 56.1762781,23.5888623 69.4003129,25.2740366 L69.4003129,49.3476996 C69.4003129,64.2012051 62.7981361,78.2568468 51.7390427,86.9474803 C48.2482983,89.6899136 44.5714763,91.822321 40.7729882,93.3125017 L40.7729882,93.3125017 Z" id="Stroke-14" stroke="#000000"></path>
                            <path d="M62.2434817,38.4620461 L37.1945726,67.0849641 L22.8809102,52.7735051" id="Stroke-18" stroke="#231F1F" stroke-linecap="round"></path>
                        </g>
                        <g id="43---Laptop-Encryption-(Outline)" transform="translate(468.699973, 133.338601) rotate(19.000000) translate(-468.699973, -133.338601) translate(345.288514, 35.329731)" stroke-linecap="round">
                            <path d="M147.700244,177.685144 C146.824375,180.138891 144.492956,181.915743 141.746875,181.915743 L107.896875,181.915743 C105.150794,181.915743 102.823606,180.138891 101.943506,177.685144 L2.4456625,177.685144 C1.09589375,177.685144 1.60582658e-12,178.780869 1.60582658e-12,180.13043 L1.60582658e-12,192.162253 C1.60582658e-12,193.511814 1.09589375,194.607539 2.4456625,194.607539 L242.966838,194.607539 C244.316606,194.607539 245.4125,193.511814 245.4125,192.162253 L245.4125,180.13043 C245.4125,178.780869 244.316606,177.685144 242.966838,177.685144 L147.700244,177.685144 L147.700244,177.685144 Z" id="Stroke-65" stroke="#000000"></path>
                            <path d="M101.943506,177.685144 C102.823606,180.138891 105.150794,181.915743 107.896875,181.915743 L141.746875,181.915743 C144.492956,181.915743 146.824375,180.138891 147.700244,177.685144 L232.71875,177.685144 L232.71875,12.9752461 C232.71875,5.80861197 226.909244,2.4158453e-13 219.741506,2.4158453e-13 L25.6709938,2.4158453e-13 C18.5032563,2.4158453e-13 12.69375,5.80861197 12.69375,12.9752461 L12.69375,177.685144 L101.943506,177.685144 L101.943506,177.685144 Z" id="Stroke-67" stroke="#000000"></path>
                            <path d="M25.3875,12.691796 L220.025,12.691796 L220.025,164.993348 L25.3875,164.993348 L25.3875,12.691796 Z" id="Stroke-69" stroke="#000000"></path>
                            <path d="M88.85625,80.3813747 L152.325,80.3813747 L152.325,131.148559 L88.85625,131.148559 L88.85625,80.3813747 Z" id="Stroke-81" stroke="#231F1F" stroke-linejoin="round"></path>
                            <path d="M101.55,80.3813747 L101.55,65.5742794 C101.55,55.1035477 110.118281,46.5365854 120.590625,46.5365854 C131.062969,46.5365854 139.63125,55.1035477 139.63125,65.5742794 L139.63125,80.3813747 L101.55,80.3813747 L101.55,80.3813747 Z" id="Stroke-83" stroke="#231F1F" stroke-linejoin="round"></path>
                        </g>
                    </g>
                    <g id="1" transform="translate(0.970833, 0.290466)" stroke-linejoin="round">
                        <g id="48---Protected-System-(Outline)-Copy" transform="translate(383.674274, 308.994846) rotate(-15.000000) translate(-383.674274, -308.994846) translate(324.237567, 230.870978)">
                            <path d="M58.7688787,1.33545073 C58.7688787,1.33545073 40.9592372,22.7026625 7.81597009e-14,22.7026625 L7.81597009e-14,73.6768169 C7.81597009e-14,100.295021 11.5614412,125.965055 32.4938473,142.412466 C39.9040687,148.235031 48.6392611,153.242972 58.7688787,156.247736 C68.8984964,153.242972 77.6363601,148.235031 85.0439101,142.412466 C105.976316,125.965055 117.537757,100.295021 117.537757,73.6768169 L117.537757,22.7026625 C76.5785203,22.7026625 58.7688787,1.33545073 58.7688787,1.33545073 L58.7688787,1.33545073 Z" id="Stroke-12" stroke="#000000"></path>
                            <path d="M58.7688787,139.316891 C53.0976819,137.09203 47.6081344,133.908316 42.3990747,129.813824 C25.8850198,116.838585 16.027876,95.8533118 16.027876,73.6768169 L16.027876,37.7344959 C35.771548,35.2185067 49.7905968,28.3489482 58.7688787,22.2512801 C67.7471606,28.3489482 81.7662095,35.2185067 101.509881,37.7344959 L101.509881,73.6768169 C101.509881,95.8533118 91.6527377,116.838585 75.1413541,129.813824 C69.9296231,133.908316 64.4400755,137.09203 58.7688787,139.316891 L58.7688787,139.316891 Z" id="Stroke-14" stroke="#000000"></path>
                            <path d="M90.8246308,57.4243815 L53.4262534,100.158805 L32.055752,78.7915932" id="Stroke-18" stroke="#231F1F" stroke-linecap="round"></path>
                        </g>
                    </g>
                    <g id="1-reversed" transform="translate(1314.433333, 630.074279) scale(-1, 1) translate(-1314.433333, -630.074279) translate(927.933333, 249.574279)">
                        <g id="46---Resumee-(Outline)-Copy" transform="translate(449.307026, 91.058112) scale(-1, 1) rotate(14.000000) translate(-449.307026, -91.058112) translate(409.815359, 39.585828)">
                            <path d="M78.2558218,25.7527075 L53.9095661,1.41019956 L0,1.41019956 L0,102.257733 L78.2558218,102.257733 L78.2558218,25.7527075 L78.2558218,25.7527075 Z" id="Path" stroke="#1A1718" stroke-linejoin="round"></path>
                            <path d="M53.9095661,1.41019956 L53.9095661,25.7527075 L78.2558218,25.7527075 L53.9095661,1.41019956 Z" id="Path" stroke="#1A1718" stroke-linejoin="round"></path>
                            <path d="M17.3901826,62.0487805 L46.9534931,62.0487805" id="Path" stroke="#000000" stroke-linecap="round" stroke-linejoin="round"></path>
                            <path d="M52.1705479,52.1773836 L64.3436757,52.1773836" id="Path" stroke="#000000" stroke-linecap="round" stroke-linejoin="round"></path>
                            <path d="M26.0852739,52.1773836 L43.4754566,52.1773836" id="Path" stroke="#000000" stroke-linecap="round" stroke-linejoin="round"></path>
                            <path d="M26.9982585,69.5101043 C22.0507516,72.0834552 21.3621003,77.703097 21.1916765,82.7246087 C22.1811779,82.3142635 23.1706793,81.9039184 24.1601807,81.4935733 C22.5341986,80.1321316 20.9082166,78.7706899 19.2804955,77.4075094 C17.5745186,75.9782565 15.0998956,78.4246785 16.8215236,79.8661027 C18.4492447,81.2275444 20.0752268,82.5907249 21.7012089,83.9539053 C22.852439,84.9171731 24.6158035,84.3207817 24.6697131,82.7246087 C24.7966614,78.9567362 24.9792583,74.4777147 28.7529279,72.5129266 C30.7441039,71.4766312 28.9842174,68.4755478 26.9982585,69.5101043" id="Fill-101" fill="#000000"></path>
                            <path d="M29.043344,79.3340451 C32.6987604,83.3070901 37.5471433,81.4501045 41.5277561,79.0088987 C40.7347638,78.8002486 39.9417714,78.5933373 39.1487791,78.3846873 C40.1121952,80.0990953 41.3016837,80.9789031 43.134609,81.6396283 C44.7153766,82.2099385 50.2419766,79.5183526 50.6680361,80.1043116 C51.9775168,81.8952247 54.9981916,80.1634291 53.6730596,78.3481735 C52.9357159,77.3414369 52.1775039,76.5016204 50.8332428,76.3990341 C48.2994932,76.2095103 43.9502085,79.8330665 42.1520637,76.6302879 C41.6964409,75.8165527 40.5712961,75.5157488 39.7730867,76.0060765 C37.3106368,77.5170507 34.091714,79.6887502 31.5023158,76.8754518 C29.9806748,75.2201612 27.5269201,77.6857095 29.043344,79.3340451" id="Fill-102" fill="#000000"></path>
                            <path d="M34.0725848,38.0839266 L29.70591,35.8531096 C29.4067988,35.7018383 29.2189848,35.3940794 29.2189848,35.0602393 L29.2189848,33.7231401 C31.4605794,32.7581336 32.7491919,30.8820217 33.3752385,28.5364472 C34.3212644,28.2425983 35.0168717,27.3697456 35.0168717,26.3317115 L35.0168717,25.1719648 C35.0168717,24.285202 34.5056004,23.518413 33.7665176,23.1289329 C33.2569852,18.7698852 30.373693,17.0050534 25.7409483,17.0050534 C25.521832,17.0050534 25.3079328,17.0137472 25.0957725,17.0311347 C23.521961,17.1563247 21.9290203,16.8589984 20.6195395,15.9774518 C20.0752268,15.6105755 19.616126,15.2210953 19.2944076,14.8124889 C19.1465911,14.6264426 18.852697,14.7446777 18.8805213,14.9811477 C18.9274748,15.3862766 18.9952965,15.8592168 19.0978986,16.3756257 C19.4822216,18.3004226 19.2526712,18.018745 18.5083714,19.8340006 C18.096224,20.8389984 17.8318933,21.9535375 17.708423,23.1341492 C16.9745573,23.5236293 16.4667639,24.2886795 16.4667639,25.1719648 L16.4667639,26.3317115 C16.4667639,27.3697456 17.1623712,28.2425983 18.1083972,28.5364472 C18.7344437,30.8820217 20.0230563,32.7581336 22.2629118,33.7231401 L22.2629118,35.0498068 C22.2629118,35.3906019 22.0716198,35.7000995 21.7655526,35.8496321 L17.2893196,38.0543678 C16.5328466,38.4681904 15.9833168,39.1306544 15.6511644,39.8957047 C18.4979373,41.9300428 21.9759738,43.1402132 25.7409483,43.1402132 C29.4937497,43.1402132 32.9578741,41.9404753 35.7994299,39.9200472 C35.4446702,39.1445644 34.8638381,38.4803617 34.0725848,38.0839266 L34.0725848,38.0839266 Z" id="Stroke-105" stroke="#000000" stroke-linecap="round" stroke-linejoin="round"></path>
                        </g>
                        <g id="190---Thumbs-Up-(Outline)" transform="translate(398.174968, 481.294907) scale(-1, 1) rotate(37.000000) translate(-398.174968, -481.294907) translate(352.336427, 431.937923)" stroke="#000000" stroke-linecap="round">
                            <path d="M1.12265752e-12,35.5325055 L23.9730087,35.5325055 L23.9730087,98.0326779 L1.12265752e-12,98.0326779 L1.12265752e-12,35.5325055 Z" id="Stroke-498"></path>
                            <path d="M18.8359354,82.4076348 C18.8359354,86.2427148 15.7691026,89.3520984 11.9865043,89.3520984 C8.20390604,89.3520984 5.13707328,86.2427148 5.13707328,82.4076348 C5.13707328,78.5725548 8.20390604,75.4631712 11.9865043,75.4631712 C15.7691026,75.4631712 18.8359354,78.5725548 18.8359354,82.4076348 L18.8359354,82.4076348 Z" id="Stroke-500"></path>
                            <path d="M78.768457,52.6621824 L65.0695949,52.6621824" id="Stroke-502"></path>
                            <path d="M78.768457,65.6251811 L65.0695949,65.6251811" id="Stroke-504"></path>
                            <path d="M75.3437415,78.5881798 L61.6448794,78.5881798" id="Stroke-506"></path>
                            <path d="M89.0426036,45.9492009 C89.0426036,42.1141208 85.9757708,39.0047373 82.1931726,39.0047373 L55.4769668,39.0047373 L57.1670639,30.9856179 C58.4581816,24.8692816 58.1122854,17.4109277 57.3468614,12.173066 C56.5797252,6.93520432 51.9529345,0.810187421 47.1120991,0.810187421 L46.7028456,0.810187421 C42.5760634,0.810187421 41.0965863,5.4265196 41.0965863,11.2268828 C41.0965863,39.4387662 27.3977242,39.0047373 27.3977242,39.0047373 L23.9730087,39.0047373 L23.9730087,94.5604461 L73.6313837,94.5604461 C77.413982,94.5604461 80.4808148,91.4510626 80.4808148,87.6159825 C80.4808148,83.7809025 77.413982,80.6715189 73.6313837,80.6715189 L78.768457,80.6715189 C82.5510553,80.6715189 85.6178881,77.5621353 85.6178881,73.7270553 C85.6178881,69.8919753 82.5510553,66.7825917 78.768457,66.7825917 L83.9055303,66.7825917 C87.6881286,66.7825917 90.7549614,63.6732081 90.7549614,59.8381281 C90.7549614,55.5099911 87.9929283,53.8624172 83.9055303,53.2478321 C81.9140582,52.9474841 78.2958463,52.8936645 77.0560993,52.8936645 L82.1931726,52.8936645 C85.9757708,52.8936645 89.0426036,49.7842809 89.0426036,45.9492009 L89.0426036,45.9492009 Z" id="Stroke-508"></path>
                        </g>
                        <g id="18---Combination-Lock-Closed-(Outline)" transform="translate(64.403150, 596.343486) rotate(33.000000) translate(-64.403150, -596.343486) translate(23.501067, 541.345703)" stroke="#231F1F" stroke-linecap="round" stroke-linejoin="round">
                            <path d="M81.4464703,66.6277633 C81.4464703,89.1146334 63.2135673,107.34473 40.7232351,107.34473 C18.232903,107.34473 -7.81597009e-14,89.1146334 -7.81597009e-14,66.6277633 C-7.81597009e-14,44.1408932 18.232903,25.9107968 40.7232351,25.9107968 C63.2135673,25.9107968 81.4464703,44.1408932 81.4464703,66.6277633 L81.4464703,66.6277633 Z" id="Stroke-579"></path>
                            <path d="M59.2337966,66.6277633 C59.2337966,76.8495727 50.9466182,85.1354753 40.7232351,85.1354753 C30.4998521,85.1354753 22.2126737,76.8495727 22.2126737,66.6277633 C22.2126737,56.405954 30.4998521,48.1200513 40.7232351,48.1200513 C50.9466182,48.1200513 59.2337966,56.405954 59.2337966,66.6277633 L59.2337966,66.6277633 Z" id="Stroke-581"></path>
                            <path d="M39.4916667,31.4631105 L39.4916667,38.8661953" id="Stroke-583"></path>
                            <path d="M12.957393,64.8691796 L5.55316843,64.8691796" id="Stroke-589"></path>
                            <path d="M21.0890826,46.9966332 L15.8542959,41.7626522" id="Stroke-597"></path>
                            <path d="M58.3082685,36.1751739 L54.6061562,42.5862454" id="Stroke-599"></path>
                            <path d="M16.6780158,52.7469793 L10.2659574,49.0454369" id="Stroke-605"></path>
                            <path d="M49.8267292,32.6605594 L47.9090351,39.8119393" id="Stroke-607"></path>
                            <path d="M13.9032827,59.4430695 L6.75080175,57.5256705" id="Stroke-613"></path>
                            <path d="M31.619741,32.6605594 L33.5374352,39.8119393" id="Stroke-615"></path>
                            <path d="M23.1382018,36.1751739 L26.8403141,42.5862454" id="Stroke-623"></path>
                            <path d="M40.7232351,25.9107968 C50.5690027,25.9107968 59.5966036,29.4050529 66.6380211,35.2183252 L66.6380211,24.0600256 C66.6380211,10.5697543 55.0133885,6.43041176e-13 40.7232351,6.43041176e-13 C26.4330817,6.43041176e-13 14.8084491,10.5697543 14.8084491,24.0600256 L14.8084491,35.2183252 C21.8498667,29.4050529 30.8774675,25.9107968 40.7232351,25.9107968 L40.7232351,25.9107968 Z" id="Stroke-633"></path>
                            <path d="M40.7232351,25.9107968 C47.3907394,25.9107968 53.6787771,27.5228186 59.2337966,30.3637524 L59.2337966,24.0600256 C59.2337966,14.6747649 50.9040439,7.40308481 40.7232351,7.40308481 C30.5424263,7.40308481 22.2126737,14.6747649 22.2126737,24.0600256 L22.2126737,30.3637524 C27.7676932,27.5228186 34.0557309,25.9107968 40.7232351,25.9107968 L40.7232351,25.9107968 Z" id="Stroke-635"></path>
                        </g>
                        <g id="48---Protected-System-(Outline)-Copy" transform="translate(694.376358, 91.058112) scale(-1, 1) rotate(-15.000000) translate(-694.376358, -91.058112) translate(634.939651, 12.934244)" stroke-linejoin="round">
                            <path d="M58.7688787,1.33545073 C58.7688787,1.33545073 40.9592372,22.7026625 7.81597009e-14,22.7026625 L7.81597009e-14,73.6768169 C7.81597009e-14,100.295021 11.5614412,125.965055 32.4938473,142.412466 C39.9040687,148.235031 48.6392611,153.242972 58.7688787,156.247736 C68.8984964,153.242972 77.6363601,148.235031 85.0439101,142.412466 C105.976316,125.965055 117.537757,100.295021 117.537757,73.6768169 L117.537757,22.7026625 C76.5785203,22.7026625 58.7688787,1.33545073 58.7688787,1.33545073 L58.7688787,1.33545073 Z" id="Stroke-12" stroke="#000000"></path>
                            <path d="M58.7688787,139.316891 C53.0976819,137.09203 47.6081344,133.908316 42.3990747,129.813824 C25.8850198,116.838585 16.027876,95.8533118 16.027876,73.6768169 L16.027876,37.7344959 C35.771548,35.2185067 49.7905968,28.3489482 58.7688787,22.2512801 C67.7471606,28.3489482 81.7662095,35.2185067 101.509881,37.7344959 L101.509881,73.6768169 C101.509881,95.8533118 91.6527377,116.838585 75.1413541,129.813824 C69.9296231,133.908316 64.4400755,137.09203 58.7688787,139.316891 L58.7688787,139.316891 Z" id="Stroke-14" stroke="#000000"></path>
                            <path d="M90.8246308,57.4243815 L53.4262534,100.158805 L32.055752,78.7915932" id="Stroke-18" stroke="#231F1F" stroke-linecap="round"></path>
                        </g>
                        <g id="169---Coins-(Outline)" transform="translate(115.586045, 370.332454) rotate(22.000000) translate(-115.586045, -370.332454) translate(58.464170, 311.104072)" stroke="#000000" stroke-linecap="round">
                            <path d="M74.1395624,28.0464378 C75.7489195,27.6995287 76.6898347,26.6907011 76.3428722,25.5403187 L75.9704266,24.3121807 C75.6979532,23.4090209 74.6374633,22.653397 73.3378241,22.2805695 C71.5696876,18.4366572 67.0630955,17.0470271 60.3649551,17.0470271 C60.0493564,17.0470271 59.7376782,17.0530083 59.4318808,17.0669644 C57.1482011,17.1626635 54.8684418,16.9353782 53.0885438,16.2754535 C52.3652152,16.0062999 51.7732227,15.7231902 51.3831349,15.4321055 C51.2067133,15.2985256 50.7793809,15.384256 50.7793809,15.5517293 C50.7793809,15.842814 50.8009436,16.1877293 50.8636713,16.5705256 C51.106741,18.0598422 50.8166255,17.8345507 49.3719285,19.3198798 C48.5309855,20.1851588 47.8625436,21.1800303 47.3783643,22.2845569 C46.0865661,22.6593782 45.0319569,23.4110146 44.7594835,24.3121807 L44.3889982,25.5403187 C44.0400754,26.6907011 44.9829509,27.6995287 46.5903478,28.0464378 C47.0510042,30.9851964 49.0151648,33.5730585 53.30221,34.9945883 L53.0669811,37.0640804 C53.0042535,37.61435 52.5357561,38.1267387 51.8535925,38.375955 L43.2069734,41.5519676 C48.2565519,42.6265883 54.0118169,43.2785381 60.3649551,43.2785381 C66.6298825,43.2785381 72.3126186,42.6465256 77.3112309,41.5978234 L68.8527948,38.3819362 C68.1843529,38.1287325 67.7276169,37.6223249 67.6648893,37.0780365 L67.4296604,34.9945883 C71.7167056,33.5730585 73.6808662,30.9851964 74.1395624,28.0464378 L74.1395624,28.0464378 Z" id="Stroke-66"></path>
                            <path d="M62.8093745,101.09672 C34.6622867,101.09672 11.8431316,88.9987638 11.8431316,75.1782246 L11.8431316,92.0212591 C11.8431316,105.841798 34.6622867,117.046563 62.8093745,117.046563 C90.9564623,117.046563 113.775617,105.841798 113.775617,92.0212591 L113.775617,75.1782246 C113.775617,88.9987638 90.9564623,101.09672 62.8093745,101.09672 L62.8093745,101.09672 Z" id="Stroke-68"></path>
                            <path d="M16.925,88.7654974 L16.925,105.351341" id="Stroke-70"></path>
                            <path d="M104.370833,105.351341 L104.370833,88.7654974" id="Stroke-72"></path>
                            <path d="M25.3875,93.6920052 L25.3875,110.0705" id="Stroke-74"></path>
                            <path d="M95.9083333,110.0705 L95.9083333,93.6920052" id="Stroke-76"></path>
                            <path d="M33.85,96.8899488 L33.85,113.102964" id="Stroke-78"></path>
                            <path d="M87.4458333,113.102964 L87.4458333,96.8899488" id="Stroke-80"></path>
                            <path d="M45.1333333,99.4439174 L45.1333333,115.50541" id="Stroke-82"></path>
                            <path d="M78.9833333,115.50541 L78.9833333,99.4439174" id="Stroke-84"></path>
                            <path d="M56.4166667,100.913297 L56.4166667,116.875102" id="Stroke-86"></path>
                            <path d="M67.7,116.875102 L67.7,100.913297" id="Stroke-88"></path>
                            <path d="M111.815377,25.3349644 C111.815377,39.1555036 88.9962222,51.2534597 60.8491344,51.2534597 C32.7020466,51.2534597 9.88289145,39.1555036 9.88289145,25.3349644 C9.88289145,11.5144253 32.7020466,1.41019956 60.8491344,1.41019956 C88.9962222,1.41019956 111.815377,11.5144253 111.815377,25.3349644 L111.815377,25.3349644 Z" id="Stroke-90"></path>
                            <path d="M60.8491344,43.2107513 C34.0291292,43.2107513 17.7238519,32.6220491 17.7238519,25.3349644 C17.7238519,18.0478798 34.0291292,9.38512119 60.8491344,9.38512119 C87.6691396,9.38512119 103.974417,18.0478798 103.974417,25.3349644 C103.974417,32.6220491 87.6691396,43.2107513 60.8491344,43.2107513 L60.8491344,43.2107513 Z" id="Stroke-92"></path>
                            <path d="M60.8491344,51.2534597 C32.7020466,51.2534597 9.88289145,39.1555036 9.88289145,25.3349644 L9.88289145,42.1779989 C9.88289145,55.9985381 32.7020466,67.203303 60.8491344,67.203303 C88.9962222,67.203303 111.815377,55.9985381 111.815377,42.1779989 L111.815377,25.3349644 C111.815377,39.1555036 88.9962222,51.2534597 60.8491344,51.2534597 L60.8491344,51.2534597 Z" id="Stroke-94"></path>
                            <path d="M16.925,38.9222372 L16.925,55.5080804" id="Stroke-96"></path>
                            <path d="M101.55,55.5080804 L101.55,38.9222372" id="Stroke-98"></path>
                            <path d="M25.3875,43.848745 L25.3875,60.2272403" id="Stroke-100"></path>
                            <path d="M95.9083333,60.2272403 L95.9083333,43.848745" id="Stroke-102"></path>
                            <path d="M31.0291667,47.0466886 L31.0291667,63.2597043" id="Stroke-104"></path>
                            <path d="M87.4458333,63.2597043 L87.4458333,47.0466886" id="Stroke-106"></path>
                            <path d="M42.3125,49.6006572 L42.3125,65.6621494" id="Stroke-108"></path>
                            <path d="M76.1625,65.6621494 L76.1625,49.6006572" id="Stroke-110"></path>
                            <path d="M53.5958333,51.0700365 L53.5958333,67.0318422" id="Stroke-112"></path>
                            <path d="M64.8791667,67.0318422 L64.8791667,51.0700365" id="Stroke-114"></path>
                            <path d="M5.64166667,58.8595412 L5.64166667,75.4453845" id="Stroke-116"></path>
                            <path d="M93.0875,75.4453845 L93.0875,61.2221118" id="Stroke-118"></path>
                            <path d="M14.1041667,63.7860491 L14.1041667,80.1645444" id="Stroke-120"></path>
                            <path d="M84.625,80.1645444 L84.625,63.7860491" id="Stroke-122"></path>
                            <path d="M22.5666667,66.9839927 L22.5666667,83.1970083" id="Stroke-124"></path>
                            <path d="M76.1625,83.1970083 L76.1625,66.9839927" id="Stroke-126"></path>
                            <path d="M31.0291667,69.5379613 L31.0291667,85.5994535" id="Stroke-128"></path>
                            <path d="M67.7,85.5994535 L67.7,69.5379613" id="Stroke-130"></path>
                            <path d="M45.1333333,71.0073406 L45.1333333,86.9691463" id="Stroke-132"></path>
                            <path d="M56.4166667,86.9691463 L56.4166667,71.0073406" id="Stroke-134"></path>
                            <path d="M100.675333,67.8054096 C95.42777,78.8825757 75.2078932,87.1406071 51.0479338,87.1406071 C42.0229883,87.1406071 33.5508306,85.9842434 26.1979699,83.9626008 C33.309721,88.8731588 45.9669915,93.0540115 62.8093745,93.0540115 C89.6293797,93.0540115 105.934657,82.4653093 105.934657,75.1782246 C105.934657,72.7478673 104.093992,70.1679801 100.675333,67.8054096 L100.675333,67.8054096 Z" id="Stroke-136"></path>
                            <path d="M102.014177,59.6490585 L102.014177,62.115303 C102.014177,75.9358422 79.1950216,87.1406071 51.0479338,87.1406071 C35.5091104,87.1406071 21.6051273,83.7213594 12.2587025,78.3382873 C15.4107686,90.7911275 36.8322725,101.09672 62.8093745,101.09672 C90.9564623,101.09672 113.775617,88.9987638 113.775617,75.1782246 C113.775617,69.1013344 109.353316,63.7461745 102.014177,59.6490585 L102.014177,59.6490585 Z" id="Stroke-138"></path>
                            <path d="M60.8491344,67.203303 C32.7020466,67.203303 9.88289145,55.9985381 9.88289145,42.1779989 L9.88289145,30.9094347 C3.72577726,34.8350898 0.0816908853,39.7556165 0.0816908853,45.2722685 C0.0816908853,59.0928077 22.900846,71.1907638 51.0479338,71.1907638 C64.601034,71.1907638 76.9074214,68.3815977 86.0362596,63.9295977 C78.6049893,66.0090585 70.0132569,67.203303 60.8491344,67.203303 L60.8491344,67.203303 Z" id="Stroke-140"></path>
                            <path d="M86.0362596,63.9295977 C76.9074214,68.3815977 64.601034,71.1907638 51.0479338,71.1907638 C22.900846,71.1907638 0.0816908853,59.0928077 0.0816908853,45.2722685 L0.0816908853,62.115303 C0.0816908853,75.9358422 22.900846,87.1406071 51.0479338,87.1406071 C79.1950216,87.1406071 102.014177,75.9358422 102.014177,62.115303 L102.014177,56.9276165 C97.7663364,59.7806447 92.3188292,62.1731212 86.0362596,63.9295977 L86.0362596,63.9295977 Z" id="Stroke-142"></path>
                        </g>
                    </g>
                </g>
            </g>
        </g>
    </g>
</svg>