<?xml version="1.0" encoding="UTF-8" standalone="no"?>
<svg width="12px" height="10px" viewBox="0 0 12 10" version="1.1" xmlns="http://www.w3.org/2000/svg" xmlns:xlink="http://www.w3.org/1999/xlink">
    <!-- Generator: Sketch 39.1 (31720) - http://www.bohemiancoding.com/sketch -->
    <title>twiiter ico</title>
    <desc>Created with Sketch.</desc>
    <defs></defs>
    <g id="Symbols" stroke="none" stroke-width="1" fill="none" fill-rule="evenodd">
        <g id="FOOTER" transform="translate(-1252.000000, -44.000000)" fill="#FFFFFF">
            <g id="social" transform="translate(1176.000000, 29.916000)">
                <path d="M87.435058,16.0567832 C87.435058,15.9612476 87.3551876,15.8769515 87.2524971,15.8769515 C87.1954469,15.8769515 86.8018,16.039924 86.6991095,16.0680227 C86.8360302,15.91067 87.1498067,15.4329921 87.1498067,15.2306815 C87.1498067,15.1351459 87.0699363,15.0508498 86.9672458,15.0508498 C86.9387207,15.0508498 86.9044905,15.0620893 86.8759654,15.0789485 C86.4880235,15.2868789 86.1171968,15.4498513 85.6836148,15.5397672 C85.2557377,15.1351459 84.673825,14.8991168 84.0747972,14.8991168 C82.8082812,14.8991168 81.7699663,15.9162897 81.7699663,17.1694916 C81.7699663,17.2594075 81.7756714,17.354943 81.7927864,17.4448589 C80.5376805,17.3380838 79.3453299,16.8210678 78.4097055,15.9949661 C78.1815044,15.7926554 77.9875335,15.5734856 77.7821526,15.348696 C77.7365123,15.2981184 77.6965772,15.2812591 77.6281168,15.2812591 C77.5653615,15.2812591 77.5140163,15.3262171 77.4854912,15.371175 C77.2801102,15.6690212 77.1717147,16.1523188 77.1717147,16.5119821 C77.1717147,17.0346179 77.3542755,17.5460142 77.6965772,17.9506354 C77.5881816,17.916917 77.4227359,17.810142 77.3257504,17.810142 C77.2059448,17.810142 77.1032544,17.894438 77.1032544,18.0124526 C77.1032544,18.7992161 77.5425414,19.5297823 78.2157346,19.9400233 C78.1643894,19.9344035 78.1187491,19.9175443 78.0674039,19.9175443 C77.9704184,19.9175443 77.8905481,20.0018404 77.8905481,20.0917562 C77.8905481,20.1142352 77.8962531,20.1310944 77.9019581,20.1535734 C78.1529793,20.9122382 78.7805323,21.4854516 79.567826,21.6652833 C78.9231579,22.0586651 78.1815044,22.2609757 77.4284409,22.2609757 C77.2572901,22.2609757 77.0861393,22.232877 76.9206935,22.232877 C76.818003,22.232877 76.7381326,22.3171731 76.7381326,22.4127087 C76.7381326,22.4745258 76.7723628,22.5251035 76.823708,22.5644417 C76.9720387,22.6712167 77.1545996,22.7611325 77.3200454,22.8454286 C78.1986195,23.2950078 79.1798841,23.5310369 80.1725588,23.5310369 C82.6599505,23.5310369 84.7879255,22.2160178 85.8148304,19.9793614 C86.1856571,19.1757387 86.4024481,18.2934396 86.3853331,17.4111404 L86.3853331,17.225689 C86.7732749,16.9390823 87.1498067,16.5681795 87.4065329,16.1579385 C87.423648,16.1298398 87.435058,16.0961214 87.435058,16.0567832 L87.435058,16.0567832 Z" id="twiiter-ico"></path>
            </g>
        </g>
    </g>
</svg>